<svg width="278" height="286" viewBox="0 0 278 286" fill="none" xmlns="http://www.w3.org/2000/svg">
<path d="M26.2314 225.821C40.8248 246.774 59.7081 262.584 82.8815 273.251C96.0615 279.317 108.911 282.891 121.431 283.971C131.111 284.804 140.195 284.971 148.681 284.471C167.308 283.364 185.101 278.471 202.061 269.791C225.735 257.664 244.191 240.071 257.431 217.011" stroke="#9E919B" stroke-width="2"/>
<path d="M257.432 217.011C269.625 196.177 275.958 172.831 276.432 146.971C277.058 112.531 267.592 82.1141 248.032 55.7207" stroke="#B9B8CB" stroke-width="2"/>
<path d="M248.032 55.7207C237.345 41.0407 223.959 29.0607 207.872 19.7807C207.192 19.3874 206.485 19.2274 205.752 19.3007" stroke="#E1D7DE" stroke-width="2"/>
<path d="M205.752 19.3007C205.385 18.634 204.632 18.0041 203.492 17.4107C185.585 8.09739 166.812 2.98406 147.172 2.07073C140.379 1.7574 133.715 1.82073 127.182 2.26073C114.355 3.13407 101.879 5.89738 89.752 10.5507C59.732 22.084 36.6753 41.7441 20.5819 69.5307C8.30194 90.7441 1.83528 114.057 1.18195 139.471C0.361948 171.397 8.71194 200.181 26.2319 225.821" stroke="#B9B8CB" stroke-width="2"/>
<path d="M205.752 19.3007C208.105 24.1474 209.415 28.5374 209.682 32.4707C210.009 37.3507 210.592 40.9341 211.432 43.2207C214.619 51.9074 220.785 55.9074 229.932 55.2207C236.839 54.7007 242.872 54.8674 248.032 55.7207" stroke="#9C91AA" stroke-width="2"/>
<path d="M257.432 217.011C256.665 217.004 255.645 216.761 254.372 216.281C248.125 213.934 233.728 208.677 211.182 200.511" stroke="#584A68" stroke-width="2"/>
<path d="M211.182 200.511C227.155 197.964 238.502 189.384 245.222 174.771C249.449 165.577 250.119 156.094 247.232 146.321C244.885 138.387 240.172 132.304 233.092 128.071C230.232 126.357 227.012 125.407 223.432 125.221C219.452 125.014 216.205 126.027 213.692 128.261C211.172 130.507 209.952 133.344 210.032 136.771C210.125 140.497 211.965 143.514 215.552 145.821C217.225 146.894 218.905 147.954 220.592 149.001C224.259 151.287 226.875 154.267 228.442 157.941C229.855 161.274 230.305 165.027 229.792 169.201C229.079 174.914 226.605 179.734 222.372 183.661C215.932 189.614 207.892 192.637 198.252 192.731" stroke="#9D91AB" stroke-width="2"/>
<path d="M198.252 192.731C195.472 191.771 191.698 190.267 186.932 188.221C186.532 188.047 186.185 188.131 185.892 188.471" stroke="#9088A8" stroke-width="2"/>
<path d="M185.892 188.471L178.722 186.471" stroke="#504864" stroke-width="2"/>
<path d="M178.722 186.471L178.822 158.651" stroke="#B897A1" stroke-width="2"/>
<path d="M178.822 158.651C182.722 154.331 185.175 150.104 186.182 145.971C188.102 138.084 188.395 129.017 187.062 118.771C187.046 118.649 187.065 118.513 187.116 118.373C187.168 118.233 187.252 118.093 187.362 117.961C187.528 117.761 187.635 117.527 187.682 117.261" stroke="#614858" stroke-width="2"/>
<path d="M187.682 117.261L190.752 117.401" stroke="#B77A85" stroke-width="2"/>
<path d="M190.752 117.401C202.085 115.214 207.395 108.321 206.682 96.7207C206.189 88.6674 201.939 84.1807 193.932 83.2607" stroke="#B5929E" stroke-width="2"/>
<path d="M193.932 83.2607L190.222 82.9707" stroke="#B6A4B2" stroke-width="2"/>
<path d="M190.222 82.9707C190.722 80.3974 190.542 77.8841 189.682 75.4307" stroke="#B895A0" stroke-width="2"/>
<path d="M189.682 75.4307C193.989 71.4041 197.079 66.6007 198.952 61.0207C200.872 55.3207 199.682 50.5374 195.382 46.6707C194.242 45.6507 193.925 44.4207 194.432 42.9807C195.232 40.6807 195.645 38.3441 195.672 35.9707C195.699 33.2907 195.122 31.0674 193.942 29.3007C192.149 26.6207 189.405 25.2574 185.712 25.2107C185.659 25.2107 185.142 25.2507 184.162 25.3307C181.989 25.5107 180.662 24.3907 180.182 21.9707C179.475 18.3974 177.182 15.7174 173.302 13.9307C167.335 11.1841 161.655 11.5641 156.262 15.0707C155.925 15.2878 155.522 15.3768 155.124 15.3218C154.726 15.2668 154.36 15.0714 154.092 14.7707C150.165 10.3107 145.275 9.3674 139.422 11.9407C138.129 12.5141 136.805 12.5874 135.452 12.1607C132.812 11.3274 129.975 10.9174 126.942 10.9307C123.735 10.9507 120.972 11.5074 118.652 12.6007C114.405 14.6007 111.505 18.0374 109.952 22.9107C109.499 24.3374 108.529 24.9574 107.042 24.7707C104.635 24.4574 102.275 24.3074 99.962 24.3207C97.2686 24.3407 94.9853 24.7841 93.112 25.6507C89.252 27.4507 86.802 30.3674 85.762 34.4007C84.9686 37.4541 84.7653 40.6807 85.152 44.0807C85.5653 47.7074 87.012 50.7341 89.492 53.1607C92.9653 56.5541 93.7153 60.6774 91.742 65.5307C90.7953 67.8574 90.862 70.3374 91.942 72.9707" stroke="#614858" stroke-width="2"/>
<path d="M91.9417 72.9707L91.4717 83.7207" stroke="#B895A0" stroke-width="2"/>
<path d="M91.4716 83.7207L89.9316 84.2607" stroke="#B6A4B2" stroke-width="2"/>
<path d="M89.9317 84.2607C81.6784 83.7941 77.0117 87.4474 75.9317 95.2207C75.5251 98.1474 75.7317 101.197 76.5517 104.371C77.4184 107.737 78.8051 110.374 80.7117 112.281C84.2851 115.854 89.0217 116.704 94.9217 114.831" stroke="#B796A0" stroke-width="2"/>
<path d="M94.9219 114.831L96.4319 119.181" stroke="#B6A4B2" stroke-width="2"/>
<path d="M96.4318 119.181C95.7452 126.894 95.6618 133.574 96.1818 139.221C96.8085 146.014 99.5718 151.994 104.472 157.161" stroke="#614858" stroke-width="2"/>
<path d="M104.472 157.161L104.432 186.511" stroke="#B897A1" stroke-width="2"/>
<path d="M104.432 186.511L96.4316 189.511" stroke="#4B455E" stroke-width="2"/>
<path d="M96.4316 189.511C90.8716 192.231 85.455 195.254 80.1816 198.581" stroke="#7B789C" stroke-width="2"/>
<path d="M80.1815 198.581C65.8081 204.887 50.5581 212.267 34.4315 220.721C31.2715 222.374 28.5381 224.074 26.2314 225.821" stroke="#584A68" stroke-width="2"/>
<path d="M190.752 117.401C192.892 116.421 193.695 114.754 193.162 112.401C193.116 112.189 193.125 111.969 193.188 111.76C193.251 111.552 193.366 111.363 193.522 111.211C198.589 106.297 200.809 100.967 200.182 95.2207C199.755 91.3007 197.532 88.9941 193.512 88.3007" stroke="#F99B8B" stroke-width="2"/>
<path d="M104.642 207.221C100.528 201.967 97.7916 196.064 96.4316 189.511" stroke="#534B63" stroke-width="2"/>
<path d="M187.682 117.261L186.932 117.181" stroke="#A45145" stroke-width="2"/>
<path d="M90.352 88.5607C87.872 88.6807 85.742 89.4574 83.962 90.8907C82.3086 92.2307 81.342 94.0974 81.062 96.4907C80.402 102.111 83.1053 105.971 89.172 108.071" stroke="#F8A090" stroke-width="2"/>
<path d="M115.432 220.931L108.052 238.391" stroke="#524661" stroke-width="2"/>
<path d="M108.052 238.391C93.6716 228.697 84.3816 215.427 80.1816 198.581" stroke="#60516D" stroke-width="2"/>
<path d="M185.892 188.471C184.678 195.071 182.262 201.187 178.642 206.821" stroke="#6C5F74" stroke-width="2"/>
<path d="M178.822 158.651L176.142 161.221" stroke="#A66E62" stroke-width="2"/>
<path d="M176.142 161.221C170.362 166.794 164.688 171.441 159.122 175.161C145.675 184.127 132.882 183.294 120.742 172.661C114.948 167.581 110.358 163.184 106.972 159.471" stroke="#A0524A" stroke-width="2"/>
<path d="M106.972 159.471L104.472 157.161" stroke="#A66E62" stroke-width="2"/>
<path d="M129.862 132.021C125.702 133.261 123.928 136.001 124.542 140.241C124.735 141.574 125.262 143.921 126.122 147.281C127.342 152.087 130.385 154.964 135.252 155.911C135.388 155.936 135.529 155.93 135.663 155.891C135.797 155.853 135.922 155.784 136.027 155.689C136.133 155.594 136.217 155.475 136.273 155.343C136.329 155.21 136.356 155.066 136.352 154.921L135.932 143.951C135.927 143.781 135.999 143.617 136.132 143.493C136.265 143.369 136.448 143.297 136.642 143.291L146.732 143.021C146.861 143.017 146.989 143.037 147.11 143.08C147.23 143.124 147.339 143.189 147.431 143.272C147.523 143.355 147.595 143.455 147.643 143.565C147.692 143.675 147.715 143.792 147.712 143.911L147.502 153.161C147.5 153.222 147.513 153.282 147.538 153.338C147.563 153.393 147.6 153.442 147.646 153.481C147.693 153.52 147.747 153.547 147.805 153.561C147.863 153.575 147.924 153.575 147.982 153.561C150.662 152.961 152.625 151.744 153.872 149.911C156.258 146.397 157.412 142.084 157.332 136.971C157.318 136.077 157.088 135.367 156.642 134.841C156.566 134.75 156.459 134.692 156.343 134.679C156.227 134.665 156.112 134.699 156.022 134.771C153.055 137.044 149.828 138.284 146.342 138.491C145.642 138.531 144.968 138.681 144.322 138.941C143.135 139.427 142.588 139.284 142.682 138.511" stroke="#A56B60" stroke-width="2"/>
<path d="M142.682 138.511C145.275 137.597 147.922 136.894 150.622 136.401C151.408 136.261 152.058 135.997 152.572 135.611C153.145 135.191 153.688 134.721 154.202 134.201C154.253 134.149 154.292 134.087 154.316 134.018C154.34 133.95 154.349 133.877 154.343 133.805C154.336 133.732 154.314 133.662 154.277 133.599C154.241 133.537 154.191 133.482 154.132 133.441C152.145 132.014 150.078 131.344 147.932 131.431" stroke="#A47B77" stroke-width="2"/>
<path d="M189.682 75.4307C184.389 72.4641 180.879 68.0641 179.152 62.2308C178.665 60.5774 178.212 59.3908 177.792 58.6708C176.959 57.2574 175.929 57.0908 174.702 58.1708C167.915 64.1441 160.459 65.8041 152.332 63.1507C144.732 60.6707 138.119 56.5907 132.492 50.9107C129.019 47.4041 126.729 45.4441 125.622 45.0307C121.862 43.6307 118.985 44.5474 116.992 47.7807C115.159 50.7607 113.639 54.4907 112.432 58.9707C111.405 62.7707 108.802 66.0841 104.622 68.9107C101.562 70.9774 97.3352 72.3307 91.9419 72.9707" stroke="#A66C60" stroke-width="2"/>
<path d="M190.222 82.9707C187.095 84.7641 184.248 84.5007 181.682 82.1807" stroke="#FBC8BA" stroke-width="2"/>
<path d="M181.682 82.1807C182.715 80.2807 182.635 78.6041 181.442 77.1507C181.254 76.9174 180.969 76.7449 180.632 76.6607C172.539 74.6474 164.309 73.6407 155.942 73.6407" stroke="#906966" stroke-width="2"/>
<path d="M155.942 73.6407C149.088 72.6007 142.205 72.4307 135.292 73.1307C134.905 73.1707 134.328 73.1774 133.562 73.1507C131.928 73.0907 131.535 73.6507 132.382 74.8307C132.469 74.9545 132.587 75.0561 132.728 75.1274C132.869 75.1986 133.028 75.2374 133.192 75.2407L153.502 75.4707" stroke="#F9A99A" stroke-width="2"/>
<path d="M153.501 75.4707C152.108 78.8374 153.001 80.5974 156.181 80.7507C161.868 81.0174 167.535 81.4941 173.181 82.1807" stroke="#906966" stroke-width="2"/>
<path d="M173.182 82.1807L172.092 82.2607C172.012 82.268 171.898 82.3209 171.761 82.414C171.624 82.5071 171.469 82.6371 171.312 82.7907C170.865 83.2441 170.238 83.4707 169.432 83.4707C162.485 83.4774 155.052 84.2807 147.132 85.8807" stroke="#FBC8BA" stroke-width="2"/>
<path d="M147.132 85.8807C144.912 87.1874 142.345 87.6341 139.432 87.2207C138.958 87.1541 138.542 87.3907 138.182 87.9307" stroke="#FC9E8D" stroke-width="2"/>
<path d="M138.182 87.9307C136.728 87.5441 135.408 87.8074 134.222 88.7207" stroke="#FBC8BA" stroke-width="2"/>
<path d="M134.222 88.7207C133.962 88.4141 133.628 88.2474 133.222 88.2207" stroke="#FC9E8D" stroke-width="2"/>
<path d="M133.222 88.2207C132.928 87.7674 132.102 87.2474 130.742 86.6607C125.468 84.3874 120.615 83.2974 116.182 83.3907C114.202 83.4307 112.368 82.9707 110.682 82.0107" stroke="#FBC8BA" stroke-width="2"/>
<path d="M110.682 82.0108L128.952 80.2207C130.418 80.0741 131.165 79.2474 131.192 77.7407C131.245 74.6407 129.575 73.1607 126.182 73.3007C121.388 73.4941 116.618 73.9474 111.872 74.6607C107.052 75.3807 103.372 76.2341 100.832 77.2207C100.681 77.2805 100.547 77.3707 100.438 77.4849C100.329 77.599 100.248 77.7342 100.202 77.8807C99.5416 79.9674 100.202 81.5108 102.182 82.5108" stroke="#916667" stroke-width="2"/>
<path d="M102.182 82.5107C98.7417 84.0307 95.1717 84.4341 91.4717 83.7207" stroke="#FBC8BA" stroke-width="2"/>
<path d="M106.972 159.471C106.752 159.924 106.635 160.367 106.622 160.801C106.609 161.167 106.752 161.581 107.052 162.041C111.305 168.481 116.402 174.087 122.342 178.861C126.202 181.967 129.882 184.074 133.382 185.181C137.649 186.534 141.982 186.881 146.382 186.221C151.042 185.527 155.725 183.447 160.432 179.981C164.652 176.867 168.389 173.207 171.642 169.001C172.262 168.201 173.049 167.271 174.002 166.211C174.689 165.444 175.479 164.511 176.372 163.411C177.045 162.577 176.969 161.847 176.142 161.221" stroke="#F7A093" stroke-width="2"/>
<path d="M178.721 186.471C178.275 193.164 178.248 199.947 178.642 206.821" stroke="#956D6E" stroke-width="2"/>
<path d="M178.642 206.821C174.895 213.014 170.062 218.217 164.142 222.431" stroke="#D5AEB2" stroke-width="2"/>
<path d="M164.142 222.431C163.022 223.111 161.388 223.894 159.242 224.781C157.288 225.594 155.942 227.131 155.202 229.391" stroke="#8E6765" stroke-width="2"/>
<path d="M155.202 229.391C152.195 235.664 149.898 242.167 148.312 248.901" stroke="#FBCABC" stroke-width="2"/>
<path d="M148.312 248.901C146.045 255.567 143.255 262.317 139.942 269.151C139.728 269.597 139.518 269.597 139.312 269.151C134.638 259.291 130.345 249.217 126.432 238.931" stroke="#9D7072" stroke-width="2"/>
<path d="M126.432 238.931L123.292 226.691C123.181 226.254 122.965 225.832 122.655 225.449C122.346 225.066 121.95 224.73 121.492 224.461L115.432 220.931" stroke="#8F6566" stroke-width="2"/>
<path d="M115.432 220.931C113.892 219.077 112.262 217.304 110.542 215.611C108.062 213.164 106.095 210.367 104.642 207.221" stroke="#C09DA6" stroke-width="2"/>
<path d="M104.642 207.221L104.432 186.511" stroke="#906A68" stroke-width="2"/>
<path d="M108.052 238.391C110.245 239.951 112.575 241.294 115.042 242.421C115.095 242.441 115.625 242.724 116.632 243.271C118.118 244.084 119.172 243.707 119.792 242.141C120.092 241.381 120.248 240.984 120.262 240.951C121.282 238.744 122.198 236.491 123.012 234.191C123.132 233.864 123.288 233.841 123.482 234.121C124.082 234.974 124.445 235.947 124.572 237.041C124.712 238.261 125.332 238.891 126.432 238.931" stroke="#2F192D" stroke-width="2"/>
<path d="M148.312 248.901L150.682 244.431" stroke="#9B7D82" stroke-width="2"/>
<path d="M150.682 244.431C151.208 244.544 151.652 244.464 152.012 244.191C152.245 244.011 152.425 243.651 152.552 243.111C153.085 240.871 154.315 239.261 156.242 238.281C160.748 236.001 164.492 233.064 167.472 229.471" stroke="#2E1A2B" stroke-width="2"/>
<path d="M201.442 197.671C200.435 203.017 198.675 208.021 196.162 212.681C190.695 222.841 183.072 231.314 173.292 238.101C173.153 238.198 172.995 238.263 172.828 238.294C172.661 238.324 172.49 238.318 172.326 238.276C172.162 238.235 172.009 238.158 171.877 238.052C171.745 237.946 171.637 237.812 171.562 237.661L167.472 229.471" stroke="#756178" stroke-width="2"/>
<path d="M167.472 229.471L164.142 222.431" stroke="#65586B" stroke-width="2"/>
<path d="M211.182 200.511L201.442 197.671" stroke="#826A7C" stroke-width="2"/>
<path d="M201.442 197.671L198.252 192.731" stroke="#B9A8BC" stroke-width="2"/>
<path d="M193.932 83.2607L193.902 86.4107C193.899 86.5297 193.858 86.6613 193.782 86.7962C193.706 86.931 193.596 87.0657 193.462 87.1907C193.102 87.5174 193.118 87.8874 193.512 88.3007" stroke="#F8C5B8" stroke-width="2"/>
<path d="M193.512 88.3007L192.602 107.781C192.595 107.918 192.559 108.052 192.498 108.174C192.436 108.296 192.349 108.403 192.244 108.489C192.138 108.575 192.015 108.638 191.884 108.673C191.752 108.707 191.615 108.713 191.482 108.691C190.982 108.604 190.492 108.651 190.012 108.831C189.612 108.977 189.265 109.284 188.972 109.751C187.545 112.004 186.865 114.481 186.932 117.181" stroke="#FAAD9F" stroke-width="2"/>
<path d="M186.932 117.181C185.945 118.907 184.945 119.837 183.932 119.971C181.332 120.304 178.748 120.734 176.182 121.261" stroke="#A47B72" stroke-width="2"/>
<path d="M176.182 121.261C173.142 120.581 170.135 120.684 167.162 121.571C166.851 121.661 166.52 121.643 166.222 121.521C164.902 120.967 163.532 120.571 162.112 120.331C158.965 119.791 156.335 118.337 154.222 115.971" stroke="#FBBEB0" stroke-width="2"/>
<path d="M154.222 115.971C151.082 111.644 149.165 106.807 148.472 101.461C148.125 98.7407 147.715 96.0307 147.242 93.3307C147.195 93.044 147.095 92.8274 146.942 92.6807C146.682 92.414 146.422 92.3474 146.162 92.4807" stroke="#DF9383" stroke-width="2"/>
<path d="M146.162 92.4807L139.932 92.2607" stroke="#FAC7BA" stroke-width="2"/>
<path d="M139.932 92.2607C137.125 92.3541 135.222 91.1741 134.222 88.7207" stroke="#FAAD9F" stroke-width="2"/>
<path d="M138.182 87.9307C140.848 89.5307 143.612 89.7741 146.472 88.6607C146.643 88.5928 146.791 88.4921 146.898 88.3712C147.004 88.2503 147.065 88.1145 147.072 87.9807L147.132 85.8807" stroke="#FAAD9F" stroke-width="2"/>
<path d="M133.222 88.2207C133.408 94.7807 132.655 101.211 130.962 107.511C129.982 111.164 129.252 113.451 128.772 114.371C127.585 116.637 125.698 118.307 123.112 119.381C121.092 120.214 119.032 120.924 116.932 121.511" stroke="#FAAD9F" stroke-width="2"/>
<path d="M116.931 121.511C115.691 121.604 114.731 121.364 114.051 120.791C112.965 119.864 112.158 120.064 111.631 121.391C110.645 123.851 110.761 126.371 111.981 128.951" stroke="#FAC7BA" stroke-width="2"/>
<path d="M111.982 128.951C110.095 126.784 108.768 124.391 108.002 121.771C107.963 121.635 107.884 121.512 107.773 121.415C107.661 121.318 107.523 121.251 107.372 121.221L96.4316 119.181" stroke="#A47B72" stroke-width="2"/>
<path d="M94.9219 114.831C94.6419 111.144 92.7252 108.891 89.1719 108.071" stroke="#FAC9BA" stroke-width="2"/>
<path d="M89.1719 108.071C90.3052 106.304 90.8719 105.167 90.8719 104.661C90.8852 99.4207 90.7119 94.0541 90.3519 88.5607" stroke="#F7AEA2" stroke-width="2"/>
<path d="M90.3517 88.5607C91.3183 87.0674 91.1783 85.6341 89.9316 84.2607" stroke="#FAC9BA" stroke-width="2"/>
<path d="M142.682 138.511L140.192 139.171" stroke="#FAC6BE" stroke-width="2"/>
<path d="M140.192 139.171L130.472 134.251" stroke="#EB817B" stroke-width="2"/>
<path d="M130.472 134.251L131.182 132.761" stroke="#FAC6BE" stroke-width="2"/>
<path d="M130.472 134.251C129.645 133.124 128.868 133.067 128.142 134.081C128.083 134.163 128.04 134.256 128.018 134.355C127.995 134.453 127.993 134.555 128.011 134.654C128.029 134.753 128.066 134.848 128.121 134.931C128.176 135.015 128.248 135.086 128.332 135.141C132.065 137.567 136.018 138.911 140.192 139.171" stroke="#EC7164" stroke-width="2"/>
<path d="M154.222 115.971C154.002 116.964 154.078 117.897 154.452 118.771C154.517 118.917 154.55 119.073 154.548 119.225C154.546 119.378 154.51 119.523 154.442 119.651C153.702 121.051 153.315 122.451 153.282 123.851" stroke="#E17967" stroke-width="2"/>
<path d="M153.282 123.851C151.108 124.151 148.842 125.074 146.482 126.621C146.399 126.674 146.307 126.711 146.211 126.728C146.115 126.745 146.016 126.743 145.922 126.721C145.042 126.514 144.832 126.737 145.292 127.391C146.218 128.704 147.098 130.051 147.932 131.431" stroke="#8A3729" stroke-width="2"/>
<path d="M147.932 131.431C144.118 131.931 140.285 132.091 136.432 131.911C134.618 131.824 132.868 132.107 131.182 132.761" stroke="#DF9288" stroke-width="2"/>
<path d="M131.182 132.761L129.862 132.021" stroke="#E08271" stroke-width="2"/>
<path d="M129.862 132.021C132.575 129.981 135.682 129.037 139.182 129.191C139.332 129.197 139.479 129.157 139.598 129.077C139.718 128.998 139.804 128.882 139.842 128.751C140.128 127.751 140.075 126.754 139.682 125.761" stroke="#8A3729" stroke-width="2"/>
<path d="M146.162 92.4807C146.075 101.354 147.422 110.217 150.202 119.071C150.339 119.509 150.363 119.975 150.27 120.424C150.177 120.874 149.971 121.293 149.672 121.641C147.138 124.554 143.808 125.927 139.682 125.761" stroke="#E08271" stroke-width="2"/>
<path d="M139.681 125.761C137.815 125.274 135.991 124.657 134.211 123.911C131.765 122.884 129.368 122.944 127.021 124.091C122.708 126.191 119.421 129.337 117.161 133.531C117.095 133.654 116.987 133.75 116.86 133.798C116.732 133.846 116.593 133.843 116.471 133.791C114.211 132.817 112.715 131.204 111.981 128.951" stroke="#A56B60" stroke-width="2"/>
<path d="M176.182 121.261C175.188 122.967 174.282 124.721 173.462 126.521C171.808 130.134 169.215 132.754 165.682 134.381C165.57 134.432 165.448 134.459 165.325 134.46C165.201 134.462 165.079 134.437 164.966 134.388C164.853 134.339 164.751 134.267 164.668 134.176C164.584 134.085 164.521 133.978 164.482 133.861C162.682 128.447 158.948 125.111 153.282 123.851" stroke="#A66256" stroke-width="2"/>
<path d="M139.932 92.2607C138.892 102.194 135.478 111.124 129.692 119.051C128.392 120.817 126.902 122.051 125.222 122.751C122.722 123.784 120.272 124.127 117.872 123.781C115.912 123.501 115.598 122.744 116.932 121.511" stroke="#FB9D8D" stroke-width="2"/>
<path d="M155.942 73.6407L153.502 75.4707" stroke="#8C5858" stroke-width="2"/>
<path d="M110.682 82.0107L102.182 82.5107" stroke="#8F7579" stroke-width="2"/>
<path d="M181.682 82.1807H173.182" stroke="#8E7878" stroke-width="2"/>
<path d="M150.682 244.431C152.642 239.597 154.148 234.584 155.202 229.391" stroke="#8C7475" stroke-width="2"/>
<path d="M253.959 88.7033C253.796 88.1044 253.369 87.6036 252.773 87.3109C252.176 87.0182 251.459 86.9577 250.778 87.1426C250.097 87.3276 249.509 87.7429 249.143 88.2971C248.776 88.8514 248.662 89.4992 248.825 90.0981C248.987 90.697 249.414 91.1979 250.01 91.4906C250.607 91.7832 251.324 91.8438 252.005 91.6588C252.686 91.4739 253.274 91.0585 253.64 90.5043C254.007 89.95 254.121 89.3022 253.959 88.7033Z" stroke="#9088A8" stroke-width="2"/>
<path d="M253.612 108.051C253.612 106.664 253.061 105.333 252.08 104.353C251.099 103.372 249.769 102.821 248.382 102.821C246.995 102.821 245.665 103.372 244.684 104.353C243.703 105.333 243.152 106.664 243.152 108.051C243.152 109.438 243.703 110.768 244.684 111.749C245.665 112.73 246.995 113.281 248.382 113.281C249.769 113.281 251.099 112.73 252.08 111.749C253.061 110.768 253.612 109.438 253.612 108.051Z" stroke="#948DAA" stroke-width="2"/>
<path d="M261.642 123.501C261.642 123.183 261.579 122.868 261.458 122.575C261.336 122.281 261.158 122.014 260.933 121.79C260.708 121.565 260.441 121.387 260.148 121.265C259.854 121.143 259.54 121.081 259.222 121.081C258.58 121.081 257.964 121.336 257.511 121.79C257.057 122.243 256.802 122.859 256.802 123.501C256.802 124.143 257.057 124.758 257.511 125.212C257.964 125.666 258.58 125.921 259.222 125.921C259.54 125.921 259.854 125.858 260.148 125.737C260.441 125.615 260.708 125.437 260.933 125.212C261.158 124.987 261.336 124.72 261.458 124.427C261.579 124.133 261.642 123.819 261.642 123.501Z" stroke="#948DAA" stroke-width="2"/>
<path d="M53.8519 161.377C55.1804 161.585 56.5819 160.97 57.7481 159.668C58.9144 158.367 59.7499 156.484 60.0707 154.435C60.2296 153.421 60.2573 152.396 60.1524 151.419C60.0475 150.442 59.8119 149.533 59.4591 148.742C59.1063 147.952 58.6432 147.297 58.0963 146.813C57.5494 146.33 56.9293 146.028 56.2715 145.925C54.9431 145.717 53.5415 146.331 52.3753 147.633C51.209 148.935 50.3736 150.817 50.0527 152.866C49.8939 153.881 49.8661 154.906 49.971 155.883C50.076 156.859 50.3116 157.769 50.6644 158.559C51.0172 159.349 51.4802 160.005 52.0272 160.488C52.5741 160.972 53.1941 161.274 53.8519 161.377Z" stroke="#948BA5" stroke-width="2"/>
<path d="M201.682 170.691C199.702 170.664 198.948 171.941 199.422 174.521C199.768 176.427 200.615 177.294 201.962 177.121C202.922 177.001 203.708 176.467 204.322 175.521C205.108 174.307 205.112 173.147 204.332 172.041C203.712 171.147 202.828 170.697 201.682 170.691Z" stroke="#9088A8" stroke-width="2"/>
<path d="M213.682 174.761C213.682 174.053 213.401 173.373 212.9 172.873C212.399 172.372 211.72 172.091 211.012 172.091C210.304 172.091 209.625 172.372 209.124 172.873C208.623 173.373 208.342 174.053 208.342 174.761C208.342 175.111 208.411 175.459 208.545 175.783C208.679 176.106 208.876 176.401 209.124 176.649C209.372 176.897 209.666 177.093 209.99 177.228C210.314 177.362 210.661 177.431 211.012 177.431C211.72 177.431 212.399 177.149 212.9 176.649C213.401 176.148 213.682 175.469 213.682 174.761Z" stroke="#9088A8" stroke-width="2"/>
<path d="M107.182 87.2607L100.752 87.4807" stroke="#F7BEAC" stroke-width="2"/>
<path d="M100.752 87.4807L95.432 87.9707C95.1646 87.9944 94.9148 88.134 94.7302 88.3628C94.5457 88.5916 94.4395 88.8935 94.432 89.2107C94.2453 97.6907 95.2053 106.031 97.312 114.231C97.9853 116.857 99.942 118.271 103.182 118.471C110.202 118.897 116.112 118.454 120.912 117.141C123.812 116.347 125.715 114.354 126.622 111.161C128.435 104.747 129.305 98.6074 129.232 92.7407C129.212 91.2207 128.982 90.0874 128.542 89.3407C127.875 88.2274 126.839 87.5207 125.432 87.2207C119.545 85.9741 113.462 85.9874 107.182 87.2607" stroke="#F8AB9C" stroke-width="2"/>
<path d="M100.752 87.4807C101.478 92.6274 101.475 97.3107 100.742 101.531C100.662 102.004 100.718 102.327 100.912 102.501C100.954 102.538 101.007 102.559 101.064 102.562C101.122 102.565 101.183 102.551 101.243 102.519C101.302 102.487 101.357 102.44 101.404 102.381C101.451 102.322 101.488 102.253 101.512 102.181C103.298 96.5341 106.775 92.2707 111.942 89.3907C112.098 89.3041 112.229 89.1938 112.32 89.072C112.412 88.9502 112.461 88.8217 112.462 88.7007C112.468 88.5007 112.412 88.3341 112.292 88.2007C112.132 88.0341 111.872 87.9774 111.512 88.0307C110.545 88.1841 109.592 88.3607 108.652 88.5607C107.572 88.7874 107.082 88.3541 107.182 87.2607" stroke="#F6917C" stroke-width="2"/>
<path d="M176.532 86.8007C174.318 86.2274 171.952 86.0474 169.432 86.2607" stroke="#F9C1B3" stroke-width="2"/>
<path d="M169.432 86.2607C164.665 85.8607 159.485 86.0774 153.892 86.9107C152.692 87.0907 152.039 87.784 151.932 88.9907C151.679 91.744 151.509 94.7374 151.422 97.9707C151.235 104.577 153.275 110.167 157.542 114.741C158.595 115.867 159.925 116.637 161.532 117.051C168.652 118.857 175.609 118.997 182.402 117.471C183.749 117.171 184.639 116.367 185.072 115.061C186.892 109.554 187.922 104.024 188.162 98.4707C188.309 95.1374 188.485 91.7374 188.692 88.2707C188.7 88.1371 188.654 88.0056 188.564 87.9046C188.475 87.8036 188.348 87.7411 188.212 87.7307L176.532 86.8007" stroke="#FAAD9F" stroke-width="2"/>
<path d="M169.432 86.2607C168.778 86.8007 168.395 87.4374 168.282 88.1707C168.261 88.3011 168.291 88.4391 168.366 88.5649C168.442 88.6907 168.559 88.7977 168.702 88.8707C170.342 89.7041 171.555 91.0607 172.342 92.9407" stroke="#F99786" stroke-width="2"/>
<path d="M172.342 92.9407C169.255 90.6807 165.952 90.0107 162.432 90.9307" stroke="#E06956" stroke-width="2"/>
<path d="M162.432 90.9307C160.985 91.5774 160.138 92.6741 159.892 94.2207" stroke="#B15B4E" stroke-width="2"/>
<path d="M159.892 94.2207C159.572 94.4941 159.335 94.8407 159.182 95.2607" stroke="#C56E5D" stroke-width="2"/>
<path d="M159.182 95.2607C158.595 95.1607 158.252 95.9641 158.152 97.6707C158.105 98.3974 157.945 99.0974 157.672 99.7707C156.498 102.677 156.438 105.507 157.492 108.261C157.585 108.501 157.698 108.494 157.832 108.241L160.122 103.861C160.21 103.697 160.266 103.529 160.282 103.379C160.298 103.229 160.273 103.104 160.212 103.021L159.732 102.371C159.445 101.977 159.288 101.701 159.262 101.541C159.168 100.794 159.475 100.557 160.182 100.831C160.362 100.897 160.628 101.067 160.982 101.341C162.095 102.221 163.328 102.334 164.682 101.681" stroke="#FC9483" stroke-width="2"/>
<path d="M164.682 101.681C167.022 101.974 169.222 101.564 171.282 100.451C171.362 100.404 171.858 100.184 172.772 99.7907C173.952 99.2774 174.435 98.2541 174.222 96.7207" stroke="#F6A597" stroke-width="2"/>
<path d="M174.222 96.7207C174.735 97.7274 175.918 98.1841 177.772 98.0907" stroke="#E06956" stroke-width="2"/>
<path d="M177.772 98.0907C179.172 94.2441 178.758 90.4807 176.532 86.8007" stroke="#F99786" stroke-width="2"/>
<path d="M177.772 98.0907L172.342 92.9407" stroke="#DF7C6A" stroke-width="2"/>
<path d="M165.432 91.9307C166.038 92.2041 166.468 92.6341 166.722 93.2207" stroke="#AD7D73" stroke-width="2"/>
<path d="M166.722 93.2207C166.715 94.0474 166.568 94.4407 166.282 94.4007C165.992 94.3573 165.697 94.415 165.444 94.5642C165.191 94.7134 164.996 94.9451 164.892 95.2207C164.052 97.4541 163.105 97.9007 162.052 96.5607C161.398 95.7341 160.678 94.9541 159.892 94.2207" stroke="#7C4639" stroke-width="2"/>
<path d="M164.682 101.191C161.408 100.537 159.575 98.5607 159.182 95.2607" stroke="#C77F6D" stroke-width="2"/>
<path d="M164.682 101.681V101.191" stroke="#F8B6A7" stroke-width="2"/>
<path d="M164.682 101.191C167.208 98.9374 167.888 96.2807 166.722 93.2207" stroke="#C19081" stroke-width="2"/>
<path d="M174.222 96.7207C171.688 94.3341 169.008 92.5841 166.182 91.4707C165.622 91.2507 165.372 91.4041 165.432 91.9307" stroke="#DC8B7B" stroke-width="2"/>
<path d="M165.432 91.9307L162.432 90.9307" stroke="#964132" stroke-width="2"/>
<path d="M114.682 91.2608C113.202 91.1874 112.465 91.7574 112.472 92.9707" stroke="#DE6653" stroke-width="2"/>
<path d="M112.472 92.9707L108.212 98.0507C108.173 98.0935 108.148 98.1458 108.137 98.2024C108.127 98.259 108.132 98.3179 108.152 98.3734C108.172 98.4289 108.207 98.479 108.252 98.5189C108.298 98.5587 108.353 98.587 108.412 98.6007C110.818 99.2274 113.262 99.5107 115.742 99.4507" stroke="#EF9889" stroke-width="2"/>
<path d="M115.742 99.4508C117.755 100.257 119.272 100.017 120.292 98.7308C121.032 97.7974 121.332 96.5474 121.192 94.9808C120.898 91.5274 118.728 90.2874 114.682 91.2608" stroke="#A95F55" stroke-width="2"/>
<path d="M115.742 99.4507C114.402 97.4707 113.978 95.4774 114.472 93.4707" stroke="#A17973" stroke-width="2"/>
<path d="M114.472 93.4707C114.745 92.7907 114.815 92.0541 114.682 91.2607" stroke="#90473C" stroke-width="2"/>
<path d="M114.472 93.4707C114.118 92.5441 113.452 92.3774 112.472 92.9707" stroke="#D68071" stroke-width="2"/>
<path d="M121.652 107.381C122.818 108.187 123.598 107.911 123.992 106.551C124.332 105.377 124.485 104.341 124.452 103.441C124.398 102.034 123.858 101.811 122.832 102.771C120.605 104.844 120.212 106.381 121.652 107.381Z" stroke="#F7B9AE" stroke-width="2"/>
<path d="M137.482 209.861C137.482 209.633 137.391 209.414 137.23 209.253C137.068 209.091 136.85 209.001 136.622 209.001H136.582C136.354 209.001 136.135 209.091 135.974 209.253C135.812 209.414 135.722 209.633 135.722 209.861V222.181C135.722 222.409 135.812 222.628 135.974 222.789C136.135 222.95 136.354 223.041 136.582 223.041H136.622C136.85 223.041 137.068 222.95 137.23 222.789C137.391 222.628 137.482 222.409 137.482 222.181V209.861Z" stroke="#FCA294" stroke-width="2"/>
<path d="M205.752 19.3007C208.105 24.1474 209.415 28.5374 209.682 32.4707C210.009 37.3507 210.592 40.9341 211.432 43.2207C214.619 51.9074 220.785 55.9074 229.932 55.2207C236.839 54.7007 242.872 54.8674 248.032 55.7207C267.592 82.1141 277.059 112.531 276.432 146.971C275.959 172.831 269.625 196.177 257.432 217.011C256.665 217.004 255.645 216.761 254.372 216.281C248.125 213.934 233.729 208.677 211.182 200.511C227.155 197.964 238.502 189.384 245.222 174.771C249.449 165.577 250.119 156.094 247.232 146.321C244.885 138.387 240.172 132.304 233.092 128.071C230.232 126.357 227.012 125.407 223.432 125.221C219.452 125.014 216.205 126.027 213.692 128.261C211.172 130.507 209.952 133.344 210.032 136.771C210.125 140.497 211.965 143.514 215.552 145.821C217.225 146.894 218.905 147.954 220.592 149.001C224.259 151.287 226.875 154.267 228.442 157.941C229.855 161.274 230.305 165.027 229.792 169.201C229.079 174.914 226.605 179.734 222.372 183.661C215.932 189.614 207.892 192.637 198.252 192.731C195.472 191.771 191.699 190.267 186.932 188.221C186.532 188.047 186.185 188.131 185.892 188.471L178.722 186.471L178.822 158.651C182.722 154.331 185.175 150.104 186.182 145.971C188.102 138.084 188.395 129.017 187.062 118.771C187.046 118.649 187.065 118.513 187.117 118.373C187.168 118.233 187.252 118.093 187.362 117.961C187.529 117.761 187.635 117.527 187.682 117.261L190.752 117.401C202.085 115.214 207.395 108.321 206.682 96.7207C206.189 88.6674 201.939 84.1807 193.932 83.2607L190.222 82.9707C190.722 80.3974 190.542 77.884 189.682 75.4307C193.989 71.4041 197.079 66.6007 198.952 61.0207C200.872 55.3207 199.682 50.5374 195.382 46.6707C194.242 45.6507 193.925 44.4207 194.432 42.9807C195.232 40.6807 195.645 38.3441 195.672 35.9707C195.699 33.2907 195.122 31.0674 193.942 29.3007C192.149 26.6207 189.405 25.2574 185.712 25.2107C185.659 25.2107 185.142 25.2507 184.162 25.3307C181.989 25.5107 180.662 24.3907 180.182 21.9707C179.475 18.3974 177.182 15.7174 173.302 13.9307C167.335 11.184 161.655 11.5641 156.262 15.0707C155.925 15.2878 155.522 15.3768 155.124 15.3218C154.726 15.2668 154.36 15.0714 154.092 14.7707C150.165 10.3107 145.275 9.36739 139.422 11.9407C138.129 12.5141 136.805 12.5874 135.452 12.1607C132.812 11.3274 129.975 10.9174 126.942 10.9307C123.735 10.9507 120.972 11.5074 118.652 12.6007C114.405 14.6007 111.505 18.0374 109.952 22.9107C109.499 24.3374 108.529 24.9574 107.042 24.7707C104.635 24.4574 102.275 24.3074 99.9619 24.3207C97.2686 24.3407 94.9853 24.784 93.1119 25.6507C89.2519 27.4507 86.8019 30.3674 85.7619 34.4007C84.9686 37.454 84.7653 40.6807 85.1519 44.0807C85.5653 47.7074 87.0119 50.7341 89.4919 53.1607C92.9653 56.5541 93.7153 60.6774 91.7419 65.5307C90.7953 67.8574 90.862 70.3374 91.942 72.9707L91.472 83.7207L89.9319 84.2607C81.6786 83.7941 77.0119 87.4474 75.9319 95.2207C75.5253 98.1474 75.7319 101.197 76.5519 104.371C77.4186 107.737 78.8053 110.374 80.7119 112.281C84.2853 115.854 89.0219 116.704 94.9219 114.831L96.4319 119.181C95.7453 126.894 95.6619 133.574 96.1819 139.221C96.8086 146.014 99.572 151.994 104.472 157.161L104.432 186.511L96.4319 189.511C90.8719 192.231 85.4553 195.254 80.1819 198.581C65.8086 204.887 50.5586 212.267 34.4319 220.721C31.2719 222.374 28.5386 224.074 26.2319 225.821C8.71194 200.181 0.361948 171.397 1.18195 139.471C1.83528 114.057 8.30194 90.7441 20.5819 69.5307C36.6753 41.7441 59.732 22.084 89.752 10.5507C101.879 5.89738 114.355 3.13407 127.182 2.26073C133.715 1.82073 140.379 1.7574 147.172 2.07073C166.812 2.98406 185.585 8.09739 203.492 17.4107C204.632 18.0041 205.385 18.634 205.752 19.3007ZM253.959 88.7033C253.796 88.1045 253.37 87.6036 252.773 87.3109C252.177 87.0182 251.459 86.9577 250.778 87.1426C250.098 87.3276 249.509 87.7429 249.143 88.2971C248.777 88.8514 248.662 89.4993 248.825 90.0981C248.988 90.697 249.414 91.1979 250.011 91.4906C250.607 91.7832 251.325 91.8438 252.005 91.6588C252.686 91.4739 253.274 91.0586 253.641 90.5043C254.007 89.95 254.122 89.3022 253.959 88.7033ZM253.612 108.051C253.612 106.664 253.061 105.333 252.08 104.353C251.099 103.372 249.769 102.821 248.382 102.821C246.995 102.821 245.665 103.372 244.684 104.353C243.703 105.333 243.152 106.664 243.152 108.051C243.152 109.438 243.703 110.768 244.684 111.749C245.665 112.73 246.995 113.281 248.382 113.281C249.769 113.281 251.099 112.73 252.08 111.749C253.061 110.768 253.612 109.438 253.612 108.051ZM261.642 123.501C261.642 123.183 261.579 122.868 261.458 122.575C261.336 122.281 261.158 122.014 260.933 121.79C260.708 121.565 260.442 121.387 260.148 121.265C259.854 121.143 259.54 121.081 259.222 121.081C258.58 121.081 257.965 121.336 257.511 121.79C257.057 122.243 256.802 122.859 256.802 123.501C256.802 124.143 257.057 124.758 257.511 125.212C257.965 125.666 258.58 125.921 259.222 125.921C259.54 125.921 259.854 125.858 260.148 125.737C260.442 125.615 260.708 125.437 260.933 125.212C261.158 124.987 261.336 124.72 261.458 124.427C261.579 124.133 261.642 123.819 261.642 123.501ZM53.8521 161.377C55.1806 161.585 56.5821 160.97 57.7484 159.668C58.9146 158.367 59.7501 156.484 60.071 154.435C60.2298 153.421 60.2576 152.396 60.1526 151.419C60.0477 150.442 59.8121 149.533 59.4593 148.742C59.1065 147.952 58.6435 147.297 58.0965 146.813C57.5496 146.33 56.9296 146.028 56.2718 145.925C54.9433 145.717 53.5418 146.331 52.3755 147.633C51.2093 148.935 50.3738 150.817 50.053 152.866C49.8941 153.881 49.8663 154.906 49.9713 155.883C50.0762 156.859 50.3118 157.769 50.6646 158.559C51.0174 159.349 51.4805 160.005 52.0274 160.488C52.5743 160.972 53.1944 161.274 53.8521 161.377ZM201.682 170.691C199.702 170.664 198.949 171.941 199.422 174.521C199.769 176.427 200.615 177.294 201.962 177.121C202.922 177.001 203.709 176.467 204.322 175.521C205.109 174.307 205.112 173.147 204.332 172.041C203.712 171.147 202.829 170.697 201.682 170.691ZM213.682 174.761C213.682 174.053 213.401 173.373 212.9 172.873C212.399 172.372 211.72 172.091 211.012 172.091C210.304 172.091 209.625 172.372 209.124 172.873C208.623 173.373 208.342 174.053 208.342 174.761C208.342 175.111 208.411 175.459 208.545 175.782C208.679 176.106 208.876 176.401 209.124 176.649C209.372 176.897 209.666 177.093 209.99 177.227C210.314 177.362 210.661 177.431 211.012 177.431C211.72 177.431 212.399 177.149 212.9 176.649C213.401 176.148 213.682 175.469 213.682 174.761Z" fill="#737197"/>
<path d="M189.682 75.4307C184.389 72.4641 180.879 68.0641 179.152 62.2307C178.665 60.5774 178.212 59.3907 177.792 58.6707C176.959 57.2574 175.929 57.0907 174.702 58.1707C167.915 64.1441 160.459 65.8041 152.332 63.1507C144.732 60.6707 138.119 56.5907 132.492 50.9107C129.019 47.4041 126.729 45.4441 125.622 45.0307C121.862 43.6307 118.985 44.5474 116.992 47.7807C115.159 50.7607 113.639 54.4907 112.432 58.9707C111.405 62.7707 108.802 66.0841 104.622 68.9107C101.562 70.9774 97.3353 72.3307 91.942 72.9707C90.862 70.3374 90.7953 67.8574 91.742 65.5307C93.7153 60.6774 92.9653 56.5541 89.492 53.1607C87.012 50.7341 85.5653 47.7074 85.152 44.0807C84.7653 40.6807 84.9686 37.4541 85.762 34.4007C86.802 30.3674 89.252 27.4507 93.112 25.6507C94.9853 24.7841 97.2686 24.3407 99.962 24.3207C102.275 24.3074 104.635 24.4574 107.042 24.7707C108.529 24.9574 109.499 24.3374 109.952 22.9107C111.505 18.0374 114.405 14.6007 118.652 12.6007C120.972 11.5074 123.735 10.9507 126.942 10.9307C129.975 10.9174 132.812 11.3274 135.452 12.1607C136.805 12.5874 138.129 12.5141 139.422 11.9407C145.275 9.3674 150.165 10.3107 154.092 14.7707C154.36 15.0714 154.726 15.2668 155.124 15.3218C155.522 15.3768 155.925 15.2878 156.262 15.0707C161.655 11.5641 167.335 11.1841 173.302 13.9307C177.182 15.7174 179.475 18.3974 180.182 21.9707C180.662 24.3907 181.989 25.5107 184.162 25.3307C185.142 25.2507 185.659 25.2107 185.712 25.2107C189.405 25.2574 192.149 26.6207 193.942 29.3007C195.122 31.0674 195.699 33.2907 195.672 35.9707C195.645 38.3441 195.232 40.6807 194.432 42.9807C193.925 44.4207 194.242 45.6507 195.382 46.6707C199.682 50.5374 200.872 55.3207 198.952 61.0207C197.079 66.6007 193.989 71.4041 189.682 75.4307Z" fill="#4E1F18"/>
<path d="M205.752 19.3007C206.485 19.2274 207.192 19.3874 207.872 19.7807C223.959 29.0607 237.345 41.0407 248.032 55.7207C242.872 54.8674 236.839 54.7007 229.932 55.2207C220.785 55.9074 214.619 51.9074 211.432 43.2207C210.592 40.9341 210.009 37.3507 209.682 32.4707C209.415 28.5374 208.105 24.1474 205.752 19.3007Z" fill="#C4B0BD"/>
<path d="M189.682 75.4307C190.542 77.8841 190.722 80.3974 190.222 82.9707C187.095 84.7641 184.248 84.5007 181.682 82.1807C182.715 80.2807 182.635 78.6041 181.442 77.1507C181.254 76.9174 180.969 76.7449 180.632 76.6607C172.538 74.6474 164.308 73.6408 155.942 73.6408C149.088 72.6008 142.205 72.4307 135.292 73.1307C134.905 73.1707 134.328 73.1774 133.562 73.1507C131.928 73.0907 131.535 73.6507 132.382 74.8307C132.469 74.9545 132.587 75.0561 132.728 75.1274C132.869 75.1986 133.028 75.2375 133.192 75.2407L153.502 75.4707C152.108 78.8374 153.002 80.5974 156.182 80.7507C161.868 81.0174 167.535 81.4941 173.182 82.1807L172.092 82.2608C172.012 82.2681 171.897 82.3209 171.76 82.414C171.623 82.5071 171.469 82.6371 171.312 82.7908C170.865 83.2441 170.238 83.4707 169.432 83.4707C162.485 83.4774 155.052 84.2808 147.132 85.8807C144.912 87.1874 142.345 87.6341 139.432 87.2207C138.958 87.1541 138.542 87.3907 138.182 87.9307C136.728 87.5441 135.408 87.8074 134.222 88.7207C133.962 88.4141 133.628 88.2474 133.222 88.2207C132.928 87.7674 132.102 87.2474 130.742 86.6607C125.468 84.3874 120.615 83.2974 116.182 83.3908C114.202 83.4308 112.368 82.9708 110.682 82.0108L128.952 80.2207C130.418 80.0741 131.165 79.2474 131.192 77.7407C131.245 74.6407 129.575 73.1607 126.182 73.3007C121.388 73.4941 116.618 73.9474 111.872 74.6607C107.052 75.3807 103.372 76.2341 100.832 77.2207C100.681 77.2805 100.547 77.3707 100.438 77.4849C100.329 77.599 100.248 77.7342 100.202 77.8807C99.5417 79.9674 100.202 81.5108 102.182 82.5108C98.7417 84.0308 95.1717 84.4341 91.4717 83.7207L91.9417 72.9707C97.335 72.3307 101.562 70.9774 104.622 68.9107C108.802 66.0841 111.405 62.7707 112.432 58.9707C113.638 54.4907 115.158 50.7607 116.992 47.7807C118.985 44.5474 121.862 43.6307 125.622 45.0307C126.728 45.4441 129.018 47.4041 132.492 50.9107C138.118 56.5907 144.732 60.6707 152.332 63.1507C160.458 65.8041 167.915 64.1441 174.702 58.1708C175.928 57.0908 176.958 57.2574 177.792 58.6708C178.212 59.3908 178.665 60.5774 179.152 62.2308C180.878 68.0641 184.388 72.4641 189.682 75.4307Z" fill="#FDB9A8"/>
<path d="M155.942 73.6407L153.502 75.4707L133.192 75.2407C133.028 75.2374 132.869 75.1986 132.728 75.1274C132.587 75.0561 132.469 74.9545 132.382 74.8307C131.535 73.6507 131.928 73.0907 133.562 73.1507C134.328 73.1774 134.905 73.1707 135.292 73.1307C142.205 72.4307 149.088 72.6007 155.942 73.6407Z" fill="#F5988B"/>
<path d="M110.682 82.0108L102.182 82.5108C100.202 81.5108 99.5416 79.9674 100.202 77.8807C100.248 77.7342 100.329 77.599 100.438 77.4849C100.547 77.3707 100.681 77.2805 100.832 77.2207C103.372 76.2341 107.052 75.3807 111.872 74.6607C116.618 73.9474 121.388 73.4941 126.182 73.3007C129.575 73.1607 131.245 74.6407 131.192 77.7407C131.165 79.2474 130.418 80.0741 128.952 80.2207L110.682 82.0108Z" fill="#241225"/>
<path d="M155.941 73.6407C164.308 73.6407 172.538 74.6474 180.632 76.6607C180.969 76.7449 181.254 76.9174 181.441 77.1507C182.635 78.6041 182.715 80.2807 181.681 82.1807H173.181C167.535 81.4941 161.868 81.0174 156.181 80.7507C153.001 80.5974 152.108 78.8374 153.501 75.4707L155.941 73.6407Z" fill="#221824"/>
<path d="M110.682 82.0107C112.369 82.9707 114.202 83.4307 116.182 83.3907C120.615 83.2974 125.469 84.3874 130.742 86.6607C132.102 87.2474 132.929 87.7674 133.222 88.2207C133.409 94.7807 132.655 101.211 130.962 107.511C129.982 111.164 129.252 113.451 128.772 114.371C127.585 116.637 125.699 118.307 123.112 119.381C121.092 120.214 119.032 120.924 116.932 121.511C115.692 121.604 114.732 121.364 114.052 120.791C112.965 119.864 112.159 120.064 111.632 121.391C110.645 123.851 110.762 126.371 111.982 128.951C110.095 126.784 108.769 124.391 108.002 121.771C107.963 121.635 107.884 121.512 107.773 121.415C107.662 121.318 107.523 121.251 107.372 121.221L96.4319 119.181L94.9219 114.831C94.6419 111.144 92.7252 108.891 89.1719 108.071C90.3052 106.304 90.8719 105.167 90.8719 104.661C90.8852 99.4207 90.7119 94.0541 90.3519 88.5607C91.3186 87.0674 91.1786 85.6341 89.9319 84.2607L91.4719 83.7207C95.1719 84.4341 98.7419 84.0307 102.182 82.5107L110.682 82.0107ZM107.182 87.2607L100.752 87.4807L95.4319 87.9707C95.1645 87.9944 94.9147 88.134 94.7302 88.3628C94.5457 88.5916 94.4395 88.8935 94.4319 89.2107C94.2452 97.6907 95.2052 106.031 97.3119 114.231C97.9852 116.857 99.9419 118.271 103.182 118.471C110.202 118.897 116.112 118.454 120.912 117.141C123.812 116.347 125.715 114.354 126.622 111.161C128.435 104.747 129.305 98.6074 129.232 92.7407C129.212 91.2207 128.982 90.0874 128.542 89.3407C127.875 88.2274 126.839 87.5207 125.432 87.2207C119.545 85.9741 113.462 85.9874 107.182 87.2607Z" fill="#F9D7CC"/>
<path d="M173.182 82.1807H181.682C184.248 84.5007 187.095 84.7641 190.222 82.9707L193.932 83.2607L193.902 86.4107C193.899 86.5297 193.858 86.6613 193.782 86.7962C193.706 86.931 193.596 87.0657 193.462 87.1907C193.102 87.5174 193.118 87.8874 193.512 88.3007L192.602 107.781C192.595 107.918 192.559 108.052 192.498 108.174C192.436 108.296 192.349 108.403 192.243 108.489C192.138 108.575 192.015 108.638 191.884 108.673C191.752 108.707 191.615 108.713 191.482 108.691C190.982 108.604 190.492 108.651 190.012 108.831C189.612 108.977 189.265 109.284 188.972 109.751C187.545 112.004 186.865 114.481 186.932 117.181C185.945 118.907 184.945 119.837 183.932 119.971C181.332 120.304 178.748 120.734 176.182 121.261C173.142 120.581 170.135 120.684 167.162 121.571C166.851 121.661 166.52 121.643 166.222 121.521C164.902 120.967 163.532 120.571 162.112 120.331C158.965 119.791 156.335 118.337 154.222 115.971C151.082 111.644 149.165 106.807 148.472 101.461C148.125 98.7407 147.715 96.0307 147.242 93.3307C147.195 93.0441 147.095 92.8274 146.942 92.6807C146.682 92.4141 146.422 92.3474 146.162 92.4807L139.932 92.2607C137.125 92.3541 135.222 91.1741 134.222 88.7207C135.408 87.8074 136.728 87.5441 138.182 87.9307C140.848 89.5307 143.612 89.7741 146.472 88.6607C146.643 88.5928 146.791 88.4921 146.898 88.3712C147.004 88.2503 147.065 88.1145 147.072 87.9807L147.132 85.8807C155.052 84.2807 162.485 83.4774 169.432 83.4707C170.238 83.4707 170.865 83.2441 171.312 82.7907C171.469 82.6371 171.623 82.5071 171.76 82.414C171.897 82.3209 172.012 82.268 172.092 82.2607L173.182 82.1807ZM176.532 86.8007C174.318 86.2274 171.952 86.0474 169.432 86.2607C164.665 85.8607 159.485 86.0774 153.892 86.9107C152.692 87.0907 152.038 87.7841 151.932 88.9907C151.678 91.7441 151.508 94.7374 151.422 97.9707C151.235 104.577 153.275 110.167 157.542 114.741C158.595 115.867 159.925 116.637 161.532 117.051C168.652 118.857 175.608 118.997 182.402 117.471C183.748 117.171 184.638 116.367 185.072 115.061C186.892 109.554 187.922 104.024 188.162 98.4707C188.308 95.1374 188.485 91.7374 188.692 88.2707C188.7 88.1371 188.654 88.0057 188.564 87.9046C188.474 87.8036 188.348 87.7412 188.212 87.7307L176.532 86.8007Z" fill="#F9D7CC"/>
<path d="M193.932 83.2607C201.939 84.1807 206.189 88.6674 206.682 96.7207C207.395 108.321 202.085 115.214 190.752 117.401C192.892 116.421 193.695 114.754 193.162 112.401C193.116 112.189 193.125 111.969 193.188 111.76C193.251 111.552 193.366 111.363 193.522 111.211C198.589 106.297 200.809 100.967 200.182 95.2207C199.755 91.3007 197.532 88.9941 193.512 88.3007C193.119 87.8874 193.102 87.5174 193.462 87.1907C193.597 87.0657 193.706 86.931 193.782 86.7962C193.858 86.6613 193.899 86.5297 193.902 86.4107L193.932 83.2607Z" fill="#F7B3A4"/>
<path d="M89.9317 84.2607C91.1784 85.6341 91.3184 87.0674 90.3517 88.5607C87.8717 88.6807 85.7417 89.4574 83.9617 90.8907C82.3084 92.2307 81.3417 94.0974 81.0617 96.4907C80.4017 102.111 83.105 105.971 89.1717 108.071C92.725 108.891 94.6417 111.144 94.9217 114.831C89.0217 116.704 84.2851 115.854 80.7117 112.281C78.8051 110.374 77.4184 107.737 76.5517 104.371C75.7317 101.197 75.5251 98.1474 75.9317 95.2207C77.0117 87.4474 81.6784 83.7941 89.9317 84.2607Z" fill="#FBBBA8"/>
<path d="M147.132 85.8807L147.072 87.9807C147.065 88.1145 147.004 88.2503 146.898 88.3712C146.791 88.4921 146.643 88.5928 146.472 88.6607C143.612 89.7741 140.848 89.5307 138.182 87.9307C138.542 87.3907 138.958 87.1541 139.432 87.2207C142.345 87.6341 144.912 87.1874 147.132 85.8807Z" fill="#FA8372"/>
<path d="M169.432 86.2607C168.779 86.8007 168.395 87.4374 168.282 88.1707C168.261 88.3011 168.291 88.4391 168.366 88.5649C168.442 88.6907 168.559 88.7977 168.702 88.8707C170.342 89.704 171.555 91.0607 172.342 92.9407C169.255 90.6807 165.952 90.0107 162.432 90.9307C160.985 91.5774 160.139 92.6741 159.892 94.2207C159.572 94.4941 159.335 94.8407 159.182 95.2607C158.595 95.1607 158.252 95.9641 158.152 97.6707C158.105 98.3974 157.945 99.0974 157.672 99.7707C156.499 102.677 156.439 105.507 157.492 108.261C157.585 108.501 157.699 108.494 157.832 108.241L160.122 103.861C160.21 103.697 160.266 103.529 160.282 103.379C160.298 103.229 160.274 103.104 160.212 103.021L159.732 102.371C159.445 101.977 159.289 101.701 159.262 101.541C159.169 100.794 159.475 100.557 160.182 100.831C160.362 100.897 160.629 101.067 160.982 101.341C162.095 102.221 163.329 102.334 164.682 101.681C167.022 101.974 169.222 101.564 171.282 100.451C171.362 100.404 171.859 100.184 172.772 99.7907C173.952 99.2774 174.435 98.2541 174.222 96.7207C174.735 97.7274 175.919 98.184 177.772 98.0907C179.172 94.244 178.759 90.4807 176.532 86.8007L188.212 87.7307C188.348 87.7411 188.475 87.8036 188.564 87.9046C188.654 88.0056 188.7 88.1371 188.692 88.2707C188.485 91.7374 188.309 95.1374 188.162 98.4707C187.922 104.024 186.892 109.554 185.072 115.061C184.639 116.367 183.749 117.171 182.402 117.471C175.609 118.997 168.652 118.857 161.532 117.051C159.925 116.637 158.595 115.867 157.542 114.741C153.275 110.167 151.235 104.577 151.422 97.9707C151.509 94.7374 151.679 91.744 151.932 88.9907C152.039 87.784 152.692 87.0907 153.892 86.9107C159.485 86.0774 164.665 85.8607 169.432 86.2607Z" fill="#FA8372"/>
<path d="M100.752 87.4807C101.479 92.6274 101.475 97.3107 100.742 101.531C100.662 102.004 100.719 102.327 100.912 102.501C100.955 102.538 101.007 102.559 101.065 102.562C101.122 102.565 101.184 102.551 101.243 102.519C101.302 102.487 101.358 102.44 101.405 102.381C101.451 102.322 101.488 102.253 101.512 102.181C103.299 96.534 106.775 92.2707 111.942 89.3907C112.098 89.3041 112.229 89.1938 112.321 89.072C112.413 88.9502 112.461 88.8217 112.462 88.7007C112.469 88.5007 112.412 88.3341 112.292 88.2007C112.132 88.0341 111.872 87.9774 111.512 88.0307C110.545 88.1841 109.592 88.3607 108.652 88.5607C107.572 88.7874 107.082 88.3541 107.182 87.2607C113.462 85.9874 119.545 85.9741 125.432 87.2207C126.839 87.5207 127.875 88.2274 128.542 89.3407C128.982 90.0874 129.212 91.2207 129.232 92.7407C129.305 98.6074 128.435 104.747 126.622 111.161C125.715 114.354 123.812 116.347 120.912 117.141C116.112 118.454 110.202 118.897 103.182 118.471C99.942 118.271 97.9853 116.857 97.312 114.231C95.2053 106.031 94.2453 97.6907 94.432 89.2107C94.4395 88.8935 94.5457 88.5916 94.7302 88.3628C94.9148 88.134 95.1646 87.9944 95.432 87.9707L100.752 87.4807ZM114.682 91.2607C113.202 91.1874 112.465 91.7574 112.472 92.9707L108.212 98.0507C108.174 98.0935 108.148 98.1458 108.137 98.2024C108.127 98.259 108.132 98.3179 108.152 98.3734C108.172 98.4289 108.207 98.479 108.252 98.5189C108.298 98.5587 108.353 98.587 108.412 98.6007C110.819 99.2274 113.262 99.5107 115.742 99.4507C117.755 100.257 119.272 100.017 120.292 98.7307C121.032 97.7974 121.332 96.5474 121.192 94.9807C120.899 91.5274 118.729 90.2874 114.682 91.2607ZM121.652 107.381C122.819 108.187 123.599 107.911 123.992 106.551C124.332 105.377 124.485 104.341 124.452 103.441C124.399 102.034 123.859 101.811 122.832 102.771C120.605 104.844 120.212 106.381 121.652 107.381Z" fill="#F77E6B"/>
<path d="M169.432 86.2607C171.952 86.0474 174.318 86.2274 176.532 86.8007C178.758 90.4807 179.172 94.2441 177.772 98.0907L172.342 92.9407C171.555 91.0607 170.342 89.7041 168.702 88.8707C168.559 88.7977 168.442 88.6907 168.366 88.5649C168.291 88.4391 168.261 88.3011 168.282 88.1707C168.395 87.4374 168.778 86.8007 169.432 86.2607Z" fill="#F8AA9A"/>
<path d="M252.005 91.6589C253.423 91.2737 254.298 89.9505 253.959 88.7033C253.62 87.4562 252.196 86.7574 250.778 87.1426C249.361 87.5278 248.486 88.851 248.825 90.0982C249.164 91.3453 250.588 92.0441 252.005 91.6589Z" fill="#AC9FB8"/>
<path d="M107.182 87.2607C107.082 88.3541 107.572 88.7874 108.652 88.5607C109.592 88.3607 110.545 88.1841 111.512 88.0307C111.872 87.9774 112.132 88.0341 112.292 88.2007C112.412 88.3341 112.468 88.5007 112.462 88.7007C112.461 88.8217 112.412 88.9502 112.32 89.072C112.229 89.1938 112.098 89.3041 111.942 89.3907C106.775 92.2707 103.298 96.5341 101.512 102.181C101.488 102.253 101.451 102.322 101.404 102.381C101.357 102.44 101.302 102.487 101.243 102.519C101.183 102.551 101.122 102.565 101.064 102.562C101.007 102.559 100.954 102.538 100.912 102.501C100.718 102.327 100.662 102.004 100.742 101.531C101.475 97.3107 101.478 92.6274 100.752 87.4807L107.182 87.2607Z" fill="#F5A48C"/>
<path d="M190.752 117.401L187.682 117.261L186.932 117.181C186.865 114.481 187.545 112.004 188.972 109.751C189.265 109.284 189.612 108.977 190.012 108.831C190.492 108.651 190.982 108.604 191.482 108.691C191.615 108.713 191.752 108.707 191.884 108.673C192.015 108.638 192.138 108.575 192.244 108.489C192.349 108.403 192.436 108.296 192.498 108.174C192.559 108.052 192.595 107.918 192.602 107.781L193.512 88.3007C197.532 88.9941 199.755 91.3007 200.182 95.2207C200.808 100.967 198.588 106.297 193.522 111.211C193.366 111.363 193.251 111.552 193.188 111.76C193.125 111.969 193.116 112.189 193.162 112.401C193.695 114.754 192.892 116.421 190.752 117.401Z" fill="#FA8372"/>
<path d="M90.352 88.5607C90.712 94.0541 90.8853 99.4207 90.872 104.661C90.872 105.167 90.3053 106.304 89.172 108.071C83.1053 105.971 80.402 102.111 81.062 96.4907C81.342 94.0974 82.3086 92.2307 83.962 90.8907C85.742 89.4574 87.872 88.6807 90.352 88.5607Z" fill="#F58477"/>
<path d="M133.222 88.2207C133.628 88.2474 133.962 88.4141 134.222 88.7207C135.222 91.1741 137.125 92.3541 139.932 92.2607C138.892 102.194 135.478 111.124 129.692 119.051C128.392 120.817 126.902 122.051 125.222 122.751C122.722 123.784 120.272 124.127 117.872 123.781C115.912 123.501 115.598 122.744 116.932 121.511C119.032 120.924 121.092 120.214 123.112 119.381C125.698 118.307 127.585 116.637 128.772 114.371C129.252 113.451 129.982 111.164 130.962 107.511C132.655 101.211 133.408 94.7807 133.222 88.2207Z" fill="#FA8372"/>
<path d="M172.342 92.9407L177.772 98.0907C175.918 98.1841 174.735 97.7274 174.222 96.7207C171.688 94.3341 169.008 92.5841 166.182 91.4707C165.622 91.2507 165.372 91.4041 165.432 91.9307L162.432 90.9307C165.952 90.0107 169.255 90.6807 172.342 92.9407Z" fill="#C54E3A"/>
<path d="M115.742 99.4508C114.402 97.4708 113.978 95.4774 114.472 93.4707C114.745 92.7907 114.815 92.0541 114.682 91.2608C118.728 90.2874 120.898 91.5274 121.192 94.9808C121.332 96.5474 121.032 97.7974 120.292 98.7308C119.272 100.017 117.755 100.257 115.742 99.4508Z" fill="#5A403E"/>
<path d="M162.432 90.9307L165.432 91.9307C166.038 92.2041 166.468 92.6341 166.722 93.2207C166.715 94.0474 166.568 94.4407 166.282 94.4007C165.992 94.3573 165.697 94.415 165.444 94.5642C165.191 94.7134 164.996 94.9451 164.892 95.2207C164.052 97.4541 163.105 97.9007 162.052 96.5607C161.398 95.7341 160.678 94.9541 159.892 94.2207C160.138 92.6741 160.985 91.5774 162.432 90.9307Z" fill="#67332A"/>
<path d="M114.682 91.2608C114.815 92.0541 114.745 92.7907 114.472 93.4707C114.118 92.5441 113.452 92.3774 112.472 92.9707C112.465 91.7574 113.202 91.1874 114.682 91.2608Z" fill="#C54E3A"/>
<path d="M174.222 96.7207C174.435 98.2541 173.952 99.2774 172.772 99.7907C171.858 100.184 171.362 100.404 171.282 100.451C169.222 101.564 167.022 101.974 164.682 101.681V101.191C167.208 98.9374 167.888 96.2807 166.722 93.2207C166.468 92.6341 166.038 92.2041 165.432 91.9307C165.372 91.4041 165.622 91.2507 166.182 91.4707C169.008 92.5841 171.688 94.3341 174.222 96.7207Z" fill="#F2C7BB"/>
<path d="M139.931 92.2607L146.161 92.4807C146.075 101.354 147.421 110.217 150.201 119.071C150.339 119.509 150.362 119.975 150.27 120.424C150.177 120.874 149.971 121.293 149.671 121.641C147.138 124.554 143.808 125.927 139.681 125.761C137.815 125.274 135.991 124.657 134.211 123.911C131.765 122.884 129.368 122.944 127.021 124.091C122.708 126.191 119.421 129.337 117.161 133.531C117.095 133.654 116.987 133.75 116.86 133.798C116.732 133.846 116.593 133.843 116.471 133.791C114.211 132.817 112.715 131.204 111.981 128.951C110.761 126.371 110.645 123.851 111.631 121.391C112.158 120.064 112.965 119.864 114.051 120.791C114.731 121.364 115.691 121.604 116.931 121.511C115.598 122.744 115.911 123.501 117.871 123.781C120.271 124.127 122.721 123.784 125.221 122.751C126.901 122.051 128.391 120.817 129.691 119.051C135.478 111.124 138.891 102.194 139.931 92.2607Z" fill="#FBB6A7"/>
<path d="M146.162 92.4807C146.422 92.3474 146.682 92.414 146.942 92.6807C147.095 92.8274 147.195 93.044 147.242 93.3307C147.715 96.0307 148.125 98.7407 148.472 101.461C149.165 106.807 151.082 111.644 154.222 115.971C154.002 116.964 154.079 117.897 154.452 118.771C154.517 118.917 154.55 119.073 154.548 119.225C154.546 119.378 154.51 119.523 154.442 119.651C153.702 121.051 153.315 122.451 153.282 123.851C151.108 124.151 148.842 125.074 146.482 126.621C146.4 126.674 146.307 126.711 146.211 126.728C146.115 126.745 146.017 126.743 145.922 126.721C145.042 126.514 144.832 126.737 145.292 127.391C146.218 128.704 147.098 130.051 147.932 131.431C144.118 131.931 140.285 132.091 136.432 131.911C134.618 131.824 132.868 132.107 131.182 132.761L129.862 132.021C132.575 129.981 135.682 129.037 139.182 129.191C139.332 129.197 139.479 129.157 139.598 129.077C139.718 128.998 139.804 128.882 139.842 128.751C140.128 127.751 140.075 126.754 139.682 125.761C143.808 125.927 147.138 124.554 149.672 121.641C149.971 121.293 150.177 120.874 150.27 120.424C150.363 119.975 150.339 119.509 150.202 119.071C147.422 110.217 146.075 101.354 146.162 92.4807Z" fill="#C54E3A"/>
<path d="M114.472 93.4707C113.978 95.4774 114.402 97.4707 115.742 99.4507C113.262 99.5107 110.818 99.2274 108.412 98.6007C108.353 98.587 108.298 98.5588 108.252 98.5189C108.207 98.479 108.172 98.4289 108.152 98.3734C108.132 98.3179 108.127 98.259 108.137 98.2024C108.148 98.1458 108.173 98.0935 108.212 98.0507L112.472 92.9707C113.452 92.3774 114.118 92.5441 114.472 93.4707Z" fill="#E7B1A7"/>
<path d="M166.722 93.2207C167.888 96.2807 167.208 98.9374 164.682 101.191C161.408 100.537 159.575 98.5607 159.182 95.2607C159.335 94.8407 159.572 94.4941 159.892 94.2207C160.678 94.9541 161.398 95.7341 162.052 96.5607C163.105 97.9007 164.052 97.4541 164.892 95.2207C164.996 94.9451 165.191 94.7134 165.444 94.5642C165.697 94.415 165.992 94.3573 166.282 94.4007C166.568 94.4407 166.715 94.0474 166.722 93.2207Z" fill="#905947"/>
<path d="M159.182 95.2607C159.575 98.5607 161.408 100.537 164.682 101.191V101.681C163.328 102.334 162.095 102.221 160.982 101.341C160.628 101.067 160.362 100.897 160.182 100.831C159.475 100.557 159.168 100.794 159.262 101.541C159.288 101.701 159.445 101.977 159.732 102.371L160.212 103.021C160.273 103.104 160.298 103.229 160.282 103.379C160.266 103.529 160.21 103.697 160.122 103.861L157.832 108.241C157.698 108.494 157.585 108.501 157.492 108.261C156.438 105.507 156.498 102.677 157.672 99.7707C157.945 99.0974 158.105 98.3974 158.152 97.6707C158.252 95.9641 158.595 95.1607 159.182 95.2607Z" fill="#FDA493"/>
<path d="M121.652 107.381C120.212 106.381 120.605 104.844 122.832 102.771C123.858 101.811 124.398 102.034 124.452 103.441C124.485 104.341 124.332 105.377 123.992 106.551C123.598 107.911 122.818 108.187 121.652 107.381Z" fill="#F6F3F1"/>
<path d="M248.382 113.281C251.27 113.281 253.612 110.939 253.612 108.051C253.612 105.162 251.27 102.821 248.382 102.821C245.493 102.821 243.152 105.162 243.152 108.051C243.152 110.939 245.493 113.281 248.382 113.281Z" fill="#B5A9BC"/>
<path d="M154.222 115.971C156.335 118.337 158.965 119.791 162.112 120.331C163.532 120.571 164.902 120.967 166.222 121.521C166.52 121.643 166.851 121.661 167.162 121.571C170.135 120.684 173.142 120.581 176.182 121.261C175.188 122.967 174.282 124.721 173.462 126.521C171.808 130.134 169.215 132.754 165.682 134.381C165.57 134.432 165.448 134.459 165.325 134.46C165.201 134.462 165.079 134.437 164.966 134.388C164.853 134.339 164.751 134.267 164.668 134.176C164.584 134.085 164.521 133.978 164.482 133.861C162.682 128.447 158.948 125.111 153.282 123.851C153.315 122.451 153.702 121.051 154.442 119.651C154.51 119.523 154.546 119.378 154.548 119.225C154.55 119.073 154.517 118.917 154.452 118.771C154.078 117.897 154.002 116.964 154.222 115.971Z" fill="#FDA493"/>
<path d="M186.932 117.181L187.682 117.261C187.635 117.527 187.528 117.761 187.362 117.961C187.252 118.093 187.168 118.233 187.116 118.373C187.065 118.513 187.046 118.649 187.062 118.771C188.395 129.017 188.102 138.084 186.182 145.971C185.175 150.104 182.722 154.331 178.822 158.651L176.142 161.221C170.362 166.794 164.689 171.441 159.122 175.161C145.675 184.127 132.882 183.294 120.742 172.661C114.948 167.581 110.359 163.184 106.972 159.471L104.472 157.161C99.5718 151.994 96.8085 146.014 96.1818 139.221C95.6618 133.574 95.7452 126.894 96.4318 119.181L107.372 121.221C107.523 121.251 107.662 121.318 107.773 121.415C107.884 121.512 107.963 121.635 108.002 121.771C108.769 124.391 110.095 126.784 111.982 128.951C112.715 131.204 114.212 132.817 116.472 133.791C116.594 133.843 116.732 133.846 116.86 133.798C116.988 133.75 117.096 133.654 117.162 133.531C119.422 129.337 122.708 126.191 127.022 124.091C129.368 122.944 131.765 122.884 134.212 123.911C135.992 124.657 137.815 125.274 139.682 125.761C140.075 126.754 140.128 127.751 139.842 128.751C139.804 128.882 139.718 128.998 139.598 129.077C139.479 129.157 139.332 129.197 139.182 129.191C135.682 129.037 132.575 129.981 129.862 132.021C125.702 133.261 123.928 136.001 124.542 140.241C124.735 141.574 125.262 143.921 126.122 147.281C127.342 152.087 130.385 154.964 135.252 155.911C135.388 155.936 135.529 155.93 135.663 155.891C135.797 155.853 135.922 155.784 136.027 155.689C136.133 155.594 136.217 155.475 136.273 155.343C136.329 155.21 136.356 155.066 136.352 154.921L135.932 143.951C135.927 143.781 135.999 143.617 136.132 143.493C136.266 143.369 136.449 143.297 136.642 143.291L146.732 143.021C146.861 143.017 146.99 143.037 147.11 143.08C147.23 143.124 147.34 143.189 147.431 143.272C147.523 143.355 147.595 143.455 147.644 143.565C147.692 143.675 147.715 143.792 147.712 143.911L147.502 153.161C147.501 153.222 147.513 153.282 147.538 153.338C147.563 153.393 147.6 153.442 147.647 153.481C147.693 153.52 147.747 153.547 147.805 153.561C147.864 153.575 147.924 153.575 147.982 153.561C150.662 152.961 152.625 151.744 153.872 149.911C156.259 146.397 157.412 142.084 157.332 136.971C157.319 136.077 157.089 135.367 156.642 134.841C156.567 134.75 156.459 134.692 156.343 134.679C156.227 134.665 156.112 134.699 156.022 134.771C153.055 137.044 149.828 138.284 146.342 138.491C145.642 138.531 144.969 138.681 144.322 138.941C143.135 139.427 142.589 139.284 142.682 138.511C145.275 137.597 147.922 136.894 150.622 136.401C151.409 136.261 152.059 135.997 152.572 135.611C153.145 135.191 153.689 134.721 154.202 134.201C154.253 134.149 154.292 134.087 154.316 134.018C154.34 133.95 154.35 133.877 154.343 133.805C154.336 133.732 154.314 133.662 154.278 133.599C154.241 133.537 154.191 133.482 154.132 133.441C152.145 132.014 150.079 131.344 147.932 131.431C147.099 130.051 146.218 128.704 145.292 127.391C144.832 126.737 145.042 126.514 145.922 126.721C146.017 126.743 146.115 126.745 146.211 126.728C146.307 126.711 146.4 126.674 146.482 126.621C148.842 125.074 151.108 124.151 153.282 123.851C158.948 125.111 162.682 128.447 164.482 133.861C164.521 133.978 164.585 134.085 164.668 134.176C164.751 134.267 164.853 134.339 164.966 134.388C165.079 134.437 165.201 134.462 165.325 134.46C165.448 134.459 165.57 134.432 165.682 134.381C169.215 132.754 171.809 130.134 173.462 126.521C174.282 124.721 175.189 122.967 176.182 121.261C178.749 120.734 181.332 120.304 183.932 119.971C184.945 119.837 185.945 118.907 186.932 117.181Z" fill="#4E1F18"/>
<path d="M259.222 125.921C260.558 125.921 261.642 124.837 261.642 123.501C261.642 122.164 260.558 121.081 259.222 121.081C257.885 121.081 256.802 122.164 256.802 123.501C256.802 124.837 257.885 125.921 259.222 125.921Z" fill="#B5A9BC"/>
<path d="M211.182 200.511L201.442 197.671L198.252 192.731C207.892 192.637 215.932 189.614 222.372 183.661C226.605 179.734 229.079 174.914 229.792 169.201C230.305 165.027 229.855 161.274 228.442 157.941C226.875 154.267 224.259 151.287 220.592 149.001C218.905 147.954 217.225 146.894 215.552 145.821C211.965 143.514 210.125 140.497 210.032 136.771C209.952 133.344 211.172 130.507 213.692 128.261C216.205 126.027 219.452 125.014 223.432 125.221C227.012 125.407 230.232 126.357 233.092 128.071C240.172 132.304 244.885 138.387 247.232 146.321C250.119 156.094 249.449 165.577 245.222 174.771C238.502 189.384 227.155 197.964 211.182 200.511Z" fill="#C6B1BF"/>
<path d="M147.932 131.431C150.078 131.344 152.145 132.014 154.132 133.441C154.191 133.482 154.241 133.537 154.277 133.599C154.314 133.662 154.336 133.732 154.343 133.805C154.35 133.877 154.34 133.95 154.316 134.018C154.292 134.087 154.253 134.149 154.202 134.201C153.688 134.721 153.145 135.191 152.572 135.611C152.058 135.997 151.408 136.261 150.622 136.401C147.922 136.894 145.275 137.597 142.682 138.511L140.192 139.171L130.472 134.251L131.182 132.761C132.868 132.107 134.618 131.824 136.432 131.911C140.285 132.091 144.118 131.931 147.932 131.431Z" fill="#F9D6D5"/>
<path d="M129.862 132.021L131.182 132.761L130.472 134.251C129.645 133.124 128.868 133.067 128.142 134.081C128.082 134.163 128.04 134.256 128.018 134.355C127.995 134.453 127.993 134.555 128.011 134.654C128.028 134.753 128.066 134.848 128.121 134.931C128.176 135.015 128.248 135.086 128.332 135.141C132.065 137.567 136.018 138.911 140.192 139.171L142.682 138.511C142.588 139.284 143.135 139.427 144.322 138.941C144.968 138.681 145.642 138.531 146.342 138.491C149.828 138.284 153.055 137.044 156.022 134.771C156.112 134.699 156.227 134.665 156.343 134.679C156.459 134.692 156.566 134.75 156.642 134.841C157.088 135.367 157.318 136.077 157.332 136.971C157.412 142.084 156.258 146.397 153.872 149.911C152.625 151.744 150.662 152.961 147.982 153.561C147.924 153.575 147.863 153.575 147.805 153.561C147.747 153.547 147.693 153.52 147.646 153.481C147.6 153.442 147.563 153.393 147.538 153.338C147.513 153.282 147.5 153.222 147.502 153.161L147.712 143.911C147.715 143.792 147.692 143.675 147.643 143.565C147.595 143.455 147.523 143.355 147.431 143.272C147.339 143.189 147.23 143.124 147.11 143.08C146.989 143.037 146.861 143.017 146.732 143.021L136.642 143.291C136.448 143.297 136.265 143.369 136.132 143.493C135.999 143.617 135.927 143.781 135.932 143.951L136.352 154.921C136.356 155.066 136.329 155.21 136.273 155.343C136.217 155.475 136.133 155.594 136.027 155.689C135.922 155.784 135.797 155.853 135.663 155.891C135.529 155.93 135.388 155.936 135.252 155.911C130.385 154.964 127.342 152.087 126.122 147.281C125.262 143.921 124.735 141.574 124.542 140.241C123.928 136.001 125.702 133.261 129.862 132.021Z" fill="#FBB6A7"/>
<path d="M130.472 134.251L140.192 139.171C136.018 138.911 132.065 137.567 128.332 135.141C128.248 135.086 128.176 135.015 128.121 134.931C128.066 134.848 128.029 134.753 128.011 134.654C127.993 134.555 127.995 134.453 128.018 134.355C128.04 134.256 128.083 134.163 128.142 134.081C128.868 133.067 129.645 133.124 130.472 134.251Z" fill="#DC2C21"/>
<path d="M50.0525 152.866C49.3844 157.133 51.0853 160.943 53.8516 161.377C56.618 161.81 59.4023 158.702 60.0704 154.435C60.7386 150.168 59.0377 146.358 56.2713 145.925C53.5049 145.492 50.7207 148.599 50.0525 152.866Z" fill="#B4A4B3"/>
<path d="M104.472 157.161L106.972 159.471C106.752 159.924 106.635 160.367 106.622 160.801C106.608 161.167 106.752 161.581 107.052 162.041C111.305 168.481 116.402 174.087 122.342 178.861C126.202 181.967 129.882 184.074 133.382 185.181C137.648 186.534 141.982 186.881 146.382 186.221C151.042 185.527 155.725 183.447 160.432 179.981C164.652 176.867 168.388 173.207 171.642 169.001C172.262 168.201 173.048 167.271 174.002 166.211C174.688 165.444 175.478 164.511 176.372 163.411C177.045 162.577 176.968 161.847 176.142 161.221L178.822 158.651L178.722 186.471C178.275 193.164 178.248 199.947 178.642 206.821C174.895 213.014 170.062 218.217 164.142 222.431C163.022 223.111 161.388 223.894 159.242 224.781C157.288 225.594 155.942 227.131 155.202 229.391C152.195 235.664 149.898 242.167 148.312 248.901C146.045 255.567 143.255 262.317 139.942 269.151C139.728 269.597 139.518 269.597 139.312 269.151C134.638 259.291 130.345 249.217 126.432 238.931L123.292 226.691C123.181 226.254 122.965 225.832 122.655 225.449C122.346 225.066 121.95 224.729 121.492 224.461L115.432 220.931C113.892 219.077 112.262 217.304 110.542 215.611C108.062 213.164 106.095 210.367 104.642 207.221L104.432 186.511L104.472 157.161ZM137.482 209.861C137.482 209.633 137.391 209.414 137.23 209.253C137.068 209.091 136.85 209.001 136.622 209.001H136.582C136.354 209.001 136.135 209.091 135.974 209.253C135.812 209.414 135.722 209.633 135.722 209.861V222.181C135.722 222.409 135.812 222.628 135.974 222.789C136.135 222.95 136.354 223.041 136.582 223.041H136.622C136.85 223.041 137.068 222.95 137.23 222.789C137.391 222.628 137.482 222.409 137.482 222.181V209.861Z" fill="#FDBCAB"/>
<path d="M106.972 159.471C110.359 163.184 114.949 167.581 120.742 172.661C132.882 183.294 145.675 184.127 159.122 175.161C164.689 171.441 170.362 166.794 176.142 161.221C176.969 161.847 177.045 162.577 176.372 163.411C175.479 164.511 174.689 165.444 174.002 166.211C173.049 167.271 172.262 168.201 171.642 169.001C168.389 173.207 164.652 176.867 160.432 179.981C155.725 183.447 151.042 185.527 146.382 186.221C141.982 186.881 137.649 186.534 133.382 185.181C129.882 184.074 126.202 181.967 122.342 178.861C116.402 174.087 111.305 168.481 107.052 162.041C106.752 161.581 106.609 161.167 106.622 160.801C106.635 160.367 106.752 159.924 106.972 159.471Z" fill="#F1847B"/>
<path d="M204.332 172.041C205.112 173.147 205.108 174.307 204.322 175.521C203.708 176.467 202.922 177.001 201.962 177.121C200.615 177.294 199.768 176.427 199.422 174.521C198.948 171.941 199.702 170.664 201.682 170.691C202.828 170.697 203.712 171.147 204.332 172.041Z" fill="#AC9FB8"/>
<path d="M211.012 177.431C212.486 177.431 213.682 176.235 213.682 174.761C213.682 173.286 212.486 172.091 211.012 172.091C209.537 172.091 208.342 173.286 208.342 174.761C208.342 176.235 209.537 177.431 211.012 177.431Z" fill="#AC9FB8"/>
<path d="M104.432 186.511L104.642 207.221C100.528 201.967 97.7916 196.064 96.4316 189.511L104.432 186.511Z" fill="#221824"/>
<path d="M178.721 186.471L185.892 188.471C184.678 195.071 182.262 201.187 178.642 206.821C178.248 199.947 178.275 193.164 178.721 186.471Z" fill="#2C1E30"/>
<path d="M198.252 192.731L201.442 197.671C200.435 203.017 198.675 208.021 196.162 212.681C190.695 222.841 183.072 231.314 173.292 238.101C173.153 238.198 172.994 238.263 172.828 238.294C172.661 238.324 172.49 238.318 172.326 238.276C172.162 238.235 172.009 238.158 171.877 238.052C171.745 237.946 171.637 237.812 171.562 237.661L167.472 229.471L164.142 222.431C170.062 218.217 174.895 213.014 178.642 206.821C182.262 201.187 184.678 195.071 185.892 188.471C186.185 188.131 186.532 188.047 186.932 188.221C191.698 190.267 195.472 191.771 198.252 192.731Z" fill="#AC9FB8"/>
<path d="M96.4316 189.511C97.7916 196.064 100.528 201.967 104.642 207.221C106.095 210.367 108.062 213.164 110.542 215.611C112.262 217.304 113.892 219.077 115.432 220.931L108.052 238.391C93.6716 228.697 84.3816 215.427 80.1816 198.581C85.455 195.254 90.8716 192.231 96.4316 189.511Z" fill="#837EA1"/>
<path d="M211.181 200.511C233.728 208.677 248.125 213.934 254.371 216.281C255.645 216.761 256.665 217.004 257.431 217.011C244.191 240.071 225.735 257.664 202.061 269.791C185.101 278.471 167.308 283.364 148.681 284.471C140.195 284.971 131.111 284.804 121.431 283.971C108.911 282.891 96.0615 279.317 82.8815 273.251C59.7081 262.584 40.8248 246.774 26.2314 225.821C28.5381 224.074 31.2715 222.374 34.4315 220.721C50.5581 212.267 65.8081 204.887 80.1815 198.581C84.3815 215.427 93.6715 228.697 108.051 238.391C110.245 239.951 112.575 241.294 115.041 242.421C115.095 242.441 115.625 242.724 116.631 243.271C118.118 244.084 119.171 243.707 119.791 242.141C120.091 241.381 120.248 240.984 120.261 240.951C121.281 238.744 122.198 236.491 123.011 234.191C123.131 233.864 123.288 233.841 123.481 234.121C124.081 234.974 124.445 235.947 124.571 237.041C124.711 238.261 125.331 238.891 126.431 238.931C130.345 249.217 134.638 259.291 139.311 269.151C139.518 269.597 139.728 269.597 139.941 269.151C143.255 262.317 146.045 255.567 148.311 248.901L150.681 244.431C151.208 244.544 151.651 244.464 152.011 244.191C152.245 244.011 152.425 243.651 152.551 243.111C153.085 240.871 154.315 239.261 156.241 238.281C160.748 236.001 164.491 233.064 167.471 229.471L171.561 237.661C171.637 237.812 171.745 237.946 171.877 238.052C172.009 238.158 172.162 238.235 172.326 238.276C172.49 238.318 172.661 238.324 172.828 238.294C172.994 238.263 173.153 238.198 173.291 238.101C183.071 231.314 190.695 222.841 196.161 212.681C198.675 208.021 200.435 203.017 201.441 197.671L211.181 200.511Z" fill="#3D2338"/>
<path d="M136.622 209.001H136.582C136.107 209.001 135.722 209.386 135.722 209.861V222.181C135.722 222.656 136.107 223.041 136.582 223.041H136.622C137.097 223.041 137.482 222.656 137.482 222.181V209.861C137.482 209.386 137.097 209.001 136.622 209.001Z" fill="#FB887C"/>
<path d="M115.432 220.931L121.492 224.461C121.95 224.73 122.346 225.066 122.655 225.449C122.965 225.832 123.181 226.254 123.292 226.691L126.432 238.931C125.332 238.891 124.712 238.261 124.572 237.041C124.445 235.947 124.082 234.974 123.482 234.121C123.288 233.841 123.132 233.864 123.012 234.191C122.198 236.491 121.282 238.744 120.262 240.951C120.248 240.984 120.092 241.381 119.792 242.141C119.172 243.707 118.118 244.084 116.632 243.271C115.625 242.724 115.095 242.441 115.042 242.421C112.575 241.294 110.245 239.951 108.052 238.391L115.432 220.931Z" fill="#200E21"/>
<path d="M164.142 222.431L167.472 229.471C164.492 233.064 160.748 236.001 156.242 238.281C154.315 239.261 153.085 240.871 152.552 243.111C152.425 243.651 152.245 244.011 152.012 244.191C151.652 244.464 151.208 244.544 150.682 244.431C152.642 239.597 154.148 234.584 155.202 229.391C155.942 227.131 157.288 225.594 159.242 224.781C161.388 223.894 163.022 223.111 164.142 222.431Z" fill="#1E111E"/>
<path d="M155.202 229.391C154.148 234.584 152.642 239.597 150.682 244.431L148.312 248.901C149.898 242.167 152.195 235.664 155.202 229.391Z" fill="#F9D7CC"/>
</svg>
