<svg width="281" height="284" viewBox="0 0 281 284" fill="none" xmlns="http://www.w3.org/2000/svg">
<path d="M39.7715 238.931C51.4182 251.117 64.4515 260.817 78.8715 268.031C97.3848 277.291 117.071 282.207 137.931 282.781C144.538 282.961 151.188 282.637 157.881 281.811C191.908 277.611 220.638 262.641 244.071 236.901" stroke="#F2ADAA" stroke-width="2"/>
<path d="M244.071 236.901C244.738 236.254 245.388 235.561 246.021 234.821C259.988 218.487 269.585 200.041 274.811 179.481C276.371 173.334 277.548 166.784 278.341 159.831C282.801 120.884 273.468 85.974 250.341 55.1007C246.308 49.7207 241.915 44.7207 237.161 40.1007C209.715 13.434 176.551 0.407351 137.671 1.02068C130.865 1.12735 124.231 1.71068 117.771 2.77068C97.1982 6.13068 78.6881 13.4674 62.2415 24.7807C31.5081 45.934 12.3381 74.824 4.73145 111.451C3.37812 117.951 2.47482 124.547 2.02149 131.241C1.12149 144.534 1.84146 157.444 4.18146 169.971C9.08813 196.251 20.9515 219.237 39.7715 238.931" stroke="#E2D8DF" stroke-width="2"/>
<path d="M244.072 236.901L227.472 227.221" stroke="#D6868A" stroke-width="2"/>
<path d="M227.472 227.221C226.098 226.027 224.502 225.541 222.682 225.761" stroke="#CA797F" stroke-width="2"/>
<path d="M222.682 225.761C220.902 226.027 219.582 225.431 218.722 223.971" stroke="#D6868A" stroke-width="2"/>
<path d="M218.722 223.971C217.235 221.977 215.222 221.074 212.682 221.261" stroke="#CA797F" stroke-width="2"/>
<path d="M212.682 221.261C209.935 220.514 207.682 219.304 205.922 217.631" stroke="#D6868A" stroke-width="2"/>
<path d="M205.922 217.631C207.502 212.997 210.362 209.407 214.502 206.861" stroke="#C2AEBD" stroke-width="2"/>
<path d="M214.502 206.861C215.109 207.421 215.899 207.437 216.872 206.911C218.459 206.044 219.855 204.737 221.062 202.991C221.195 202.804 222.159 201.174 223.952 198.101C227.645 191.787 230.639 185.411 232.932 178.971C235.979 170.411 237.445 161.494 237.332 152.221C237.285 148.527 237.142 145.861 236.902 144.221C236.489 141.461 235.645 138.897 234.372 136.531C233.999 135.844 233.352 135.561 232.432 135.681" stroke="#9D91AC" stroke-width="2"/>
<path d="M232.432 135.681C228.258 128.647 223.122 122.461 217.022 117.121C213.282 113.854 211.135 111.997 210.582 111.551C208.388 109.784 205.968 108.264 203.322 106.991" stroke="#C2AEBD" stroke-width="2"/>
<path d="M203.322 106.991C203.535 99.724 200.162 95.444 193.202 94.1507" stroke="#E1B0AF" stroke-width="2"/>
<path d="M193.202 94.1507L195.151 57.1107C195.167 56.8145 195.258 56.5273 195.415 56.2769C195.573 56.0265 195.792 55.8211 196.051 55.6807C201.871 52.5207 204.261 48.0807 203.221 42.3607C202.755 39.834 201.855 37.944 200.522 36.6907C198.588 34.8907 196.128 34.8607 193.142 36.6007C190.855 37.934 189.305 37.6207 188.492 35.6607C187.725 33.8074 187.382 31.0774 187.462 27.4707C187.502 25.444 186.805 23.8807 185.372 22.7807C174.938 14.7807 162.958 10.4274 149.432 9.72071C143.725 9.42071 139.155 11.0174 135.721 14.5107C135.695 14.5374 135.321 14.994 134.601 15.8807C133.155 17.6807 131.495 17.6474 129.622 15.7807C127.782 13.954 125.731 12.8974 123.471 12.6107C121.511 12.364 119.388 12.8074 117.101 13.9407C112.881 16.034 109.905 19.4674 108.171 24.2407C107.705 25.5274 106.825 25.9474 105.531 25.5007C99.9981 23.5874 95.2548 24.5174 91.3015 28.2907C89.8548 29.6707 88.8748 31.144 88.3615 32.7107C87.7948 34.444 87.6815 36.274 88.0215 38.2007C88.4282 40.4874 87.5015 42.014 85.2415 42.7807C84.0615 43.1807 82.9215 43.9307 81.8215 45.0307C80.7215 46.1174 80.1382 47.274 80.0715 48.5007C79.9515 50.754 81.1748 52.7007 83.7415 54.3407C84.7948 55.014 85.3348 56.0074 85.3615 57.3207L86.1915 94.3407" stroke="#786273" stroke-width="2"/>
<path d="M86.1915 94.3407C81.1448 93.4007 77.5314 94.6273 75.3514 98.0207C74.1181 99.9407 73.4848 102.564 73.4515 105.891C73.4248 108.837 73.8148 111.577 74.6215 114.111" stroke="#E1B7B7" stroke-width="2"/>
<path d="M74.6216 114.111C63.595 120.944 55.115 130.161 49.1816 141.761" stroke="#C2AEBD" stroke-width="2"/>
<path d="M49.1814 141.761C46.7614 141.647 45.2614 142.717 44.6814 144.971C40.8348 159.957 42.2914 174.487 49.0514 188.561C51.5981 193.867 54.4681 198.984 57.6614 203.911C59.0214 206.004 60.7581 207.707 62.8714 209.021C63.4248 209.361 64.3648 209.261 65.6915 208.721" stroke="#9D91AC" stroke-width="2"/>
<path d="M65.6919 208.721C66.5986 208.887 67.2119 210.017 67.5319 212.111C67.7452 213.497 68.0419 214.867 68.4219 216.221C68.7285 217.294 69.3386 217.884 70.2519 217.991C70.4052 218.004 71.1119 217.804 72.3719 217.391C73.3119 217.084 74.0019 217.434 74.4419 218.441C74.4628 218.49 74.4952 218.533 74.5364 218.566C74.5775 218.6 74.6262 218.623 74.6782 218.634C74.7303 218.645 74.7841 218.643 74.8353 218.628C74.8864 218.614 74.9332 218.587 74.9719 218.551C75.9719 217.624 76.7086 217.834 77.1819 219.181" stroke="#C2AEBD" stroke-width="2"/>
<path d="M77.1815 219.181C75.1081 220.194 73.0448 221.237 70.9915 222.311C70.5448 222.544 69.4048 222.907 67.5715 223.401C65.9315 223.847 64.4414 224.897 63.1014 226.551C62.1148 227.757 60.8448 228.267 59.2914 228.081C58.7448 228.014 57.9148 228.284 56.8015 228.891C51.1681 231.937 45.4915 235.284 39.7715 238.931" stroke="#D6868A" stroke-width="2"/>
<path d="M193.202 94.1507C190.595 95.0774 189.235 96.9074 189.122 99.6407C189.035 101.687 188.988 102.741 188.982 102.801C188.235 108.041 186.815 113.097 184.722 117.971" stroke="#936163" stroke-width="2"/>
<path d="M184.722 117.971C183.522 117.131 182.515 116.787 181.702 116.941" stroke="#211221" stroke-width="2"/>
<path d="M181.702 116.941C184.582 108.887 185.672 100.867 184.972 92.8807C184.872 91.7607 184.278 91.0407 183.192 90.7207C174.378 88.1607 165.375 86.9007 156.182 86.9407C155.242 86.9407 154.505 87.284 153.972 87.9707" stroke="#936264" stroke-width="2"/>
<path d="M153.972 87.9707C153.952 87.584 153.772 87.3207 153.432 87.1807" stroke="#211221" stroke-width="2"/>
<path d="M153.432 87.1807L153.572 86.9507C153.588 86.9239 153.598 86.8936 153.6 86.8618C153.602 86.8299 153.597 86.7973 153.585 86.766C153.572 86.7348 153.553 86.7057 153.528 86.6806C153.504 86.6555 153.474 86.6351 153.442 86.6207C152.008 85.974 151.268 84.954 151.222 83.5607C151.188 82.354 151.392 81.3107 151.832 80.4307C152.392 79.304 153.515 78.824 155.202 78.9907C157.188 79.184 159.182 79.3574 161.182 79.5107" stroke="#92686B" stroke-width="2"/>
<path d="M161.182 79.5107C167.168 80.2907 173.085 81.4307 178.932 82.9307" stroke="#8F5659" stroke-width="2"/>
<path d="M178.932 82.9307L187.892 86.0007C187.945 86.018 188.002 86.0223 188.058 86.0135C188.114 86.0046 188.167 85.9827 188.213 85.9496C188.258 85.9165 188.296 85.8731 188.322 85.8229C188.347 85.7727 188.361 85.7172 188.362 85.6607L188.242 58.9107C188.242 58.7742 188.191 58.6425 188.098 58.5423C188.005 58.4422 187.878 58.3808 187.742 58.3707C156.508 55.764 125.352 53.7207 94.2717 52.2407C93.9973 52.2269 93.7287 52.3212 93.5245 52.5029C93.3203 52.6846 93.197 52.9391 93.1816 53.2107L91.1616 85.3707" stroke="#92686B" stroke-width="2"/>
<path d="M91.1616 85.3707C91.6016 86.3373 92.545 86.4273 93.9916 85.6407C94.0822 85.5928 94.1833 85.5696 94.2861 85.5732C94.389 85.5767 94.4906 85.6068 94.5822 85.6609C94.6737 85.7151 94.7524 85.7916 94.8115 85.8839C94.8707 85.9761 94.9085 86.0814 94.9216 86.1907L95.4716 90.7207" stroke="#211221" stroke-width="2"/>
<path d="M95.4717 90.7207C94.0517 91.7274 93.2884 92.8107 93.1817 93.9707C92.7684 98.5174 93.2817 103.767 94.7217 109.721" stroke="#915F61" stroke-width="2"/>
<path d="M94.7217 109.721C95.035 112.987 96.5217 115.474 99.1817 117.181" stroke="#92676E" stroke-width="2"/>
<path d="M99.1817 117.181C98.4817 117.307 98.2384 117.671 98.4517 118.271C98.4899 118.365 98.5684 118.478 98.6822 118.6C98.7959 118.722 98.9422 118.852 99.1117 118.981C99.8317 119.521 99.9383 120.267 99.4317 121.221" stroke="#211221" stroke-width="2"/>
<path d="M99.4319 121.221C97.9119 121.021 96.5919 120.491 95.4719 119.631C94.5786 118.944 93.8453 117.804 93.272 116.211C90.952 109.711 89.322 102.934 88.382 95.8807C88.3657 95.747 88.3176 95.6192 88.2415 95.5079C88.1655 95.3966 88.0637 95.3049 87.9445 95.2405C87.8254 95.176 87.6923 95.1406 87.5562 95.1372C87.4202 95.1337 87.285 95.1624 87.1619 95.2207C86.4886 95.534 86.1653 95.2407 86.192 94.3407" stroke="#92686B" stroke-width="2"/>
<path d="M203.322 106.991C203.195 114.104 199.982 118.931 193.682 121.471C192.755 121.844 192.268 122.407 192.222 123.161C192.208 123.294 192.312 123.594 192.532 124.061C192.718 124.461 192.532 124.764 191.972 124.971" stroke="#DDADAD" stroke-width="2"/>
<path d="M191.972 124.971L189.972 122.571C189.438 121.931 189.092 122.057 188.932 122.951C187.852 129.071 186.032 134.951 183.472 140.591C181.785 144.291 179.402 147.494 176.322 150.201C174.642 151.674 173.635 151.304 173.302 149.091C173.102 147.771 173.098 146.151 173.292 144.231C173.792 139.151 171.985 135.251 167.872 132.531C164.118 130.051 159.722 129.114 154.682 129.721C152.748 129.954 150.225 131.484 147.112 134.311" stroke="#916061" stroke-width="2"/>
<path d="M147.112 134.311C146.712 128.731 146.489 123.154 146.442 117.581C146.435 116.667 146.239 115.291 145.852 113.451C145.559 112.044 145.485 110.627 145.632 109.201" stroke="#C77568" stroke-width="2"/>
<path d="M232.432 135.681C230.638 136.194 229.285 137.437 228.372 139.411C227.265 141.791 226.578 143.787 226.312 145.401C225.745 148.854 225.202 152.314 224.682 155.781C224.095 159.741 223.392 163.161 222.572 166.041C221.165 171.021 219.538 175.927 217.692 180.761C216.125 184.854 215.125 187.747 214.692 189.441C213.985 192.201 213.398 195.211 212.932 198.471C212.538 201.224 213.062 204.021 214.502 206.861" stroke="#988EAA" stroke-width="2"/>
<path d="M205.922 217.631L192.532 213.171" stroke="#D18388" stroke-width="2"/>
<path d="M192.532 213.171C189.605 212.857 187.098 212.097 185.012 210.891C182.898 209.671 181.622 208.031 181.182 205.971C180.248 201.631 179.498 198.604 178.932 196.891" stroke="#DDB5B5" stroke-width="2"/>
<path d="M178.932 196.891C196.558 183.571 203.308 165.764 199.182 143.471C198.288 138.657 195.885 132.491 191.972 124.971" stroke="#715E70" stroke-width="2"/>
<path d="M84.4018 132.721C82.7818 139.954 81.8752 144.287 81.6819 145.721C78.9419 165.967 85.4385 182.607 101.172 195.641" stroke="#715E70" stroke-width="2"/>
<path d="M101.172 195.641C100.405 198.874 99.6316 202.077 98.8516 205.251C97.7116 209.857 94.6416 212.717 89.6416 213.831" stroke="#DDB5B5" stroke-width="2"/>
<path d="M89.6417 213.831L77.1816 219.181" stroke="#D18388" stroke-width="2"/>
<path d="M65.6917 208.721C67.725 200.501 66.6583 192.231 62.4916 183.911C58.0916 175.104 55.305 165.004 54.1317 153.611C53.965 151.997 53.7116 150.594 53.3716 149.401C52.9716 148.027 52.535 146.661 52.0616 145.301C51.5216 143.767 50.5616 142.587 49.1816 141.761" stroke="#988EAA" stroke-width="2"/>
<path d="M212.682 221.261C212.642 222.341 212.318 223.334 211.712 224.241C211.065 225.221 211.255 226.314 212.282 227.521C212.387 227.645 212.521 227.742 212.673 227.802C212.825 227.861 212.989 227.882 213.151 227.862C213.313 227.843 213.467 227.783 213.6 227.688C213.733 227.593 213.84 227.467 213.912 227.321C214.892 225.341 216.495 224.224 218.722 223.971" stroke="#DA4E4A" stroke-width="2"/>
<path d="M222.682 225.761C221.755 227.181 221.255 228.751 221.182 230.471C221.075 232.944 221.805 233.507 223.372 232.161C225.005 230.747 226.372 229.101 227.472 227.221" stroke="#DA4E4A" stroke-width="2"/>
<path d="M99.4317 121.221C99.465 121.554 99.4017 121.837 99.2417 122.071C99.1465 122.199 99.0109 122.292 98.8566 122.333C98.7024 122.375 98.5386 122.364 98.3917 122.301L93.2017 120.091C93.0678 120.033 92.9213 120.005 92.776 120.011C92.6307 120.016 92.4912 120.055 92.3704 120.123C92.2497 120.191 92.1517 120.286 92.0855 120.399C92.0192 120.512 91.987 120.64 91.9917 120.771C92.105 124.544 92.7783 128.201 94.0117 131.741C94.0617 131.885 94.1524 132.011 94.2719 132.102C94.3915 132.193 94.5343 132.245 94.6817 132.251L105.372 132.651C105.679 132.663 105.992 132.545 106.242 132.321C109.782 129.207 113.908 127.494 118.622 127.181C118.783 127.169 118.934 127.108 119.042 127.011C119.15 126.914 119.208 126.788 119.202 126.661L119.062 123.451C119.055 123.329 118.988 123.214 118.873 123.129C118.758 123.043 118.604 122.994 118.442 122.991C117.262 122.951 116.592 122.374 116.432 121.261" stroke="#FCB1A1" stroke-width="2"/>
<path d="M144.502 106.191C143.928 116.191 144.025 126.191 144.792 136.191" stroke="#C67D70" stroke-width="2"/>
<path d="M144.792 136.191C142.272 138.877 139.062 139.831 135.162 139.051C130.702 138.164 127.789 135.627 126.422 131.441C125.995 130.141 125.105 129.414 123.752 129.261C120.332 128.861 117.105 129.197 114.072 130.271C111.279 131.264 109.199 132.911 107.832 135.211C106.772 137.011 106.225 139.447 106.192 142.521C106.152 146.021 106.632 149.447 107.632 152.801C107.959 153.894 107.665 154.101 106.752 153.421C100.265 148.561 95.8252 142.244 93.4319 134.471C92.3119 130.837 91.3119 127.167 90.4319 123.461C90.1252 122.174 89.6852 122.107 89.1119 123.261L84.4019 132.721" stroke="#906769" stroke-width="2"/>
<path d="M84.4016 132.721C84.3482 130.261 84.9649 127.944 86.2516 125.771C86.9583 124.577 86.6316 123.851 85.2716 123.591C80.5183 122.691 76.9682 119.531 74.6216 114.111" stroke="#DCB4B5" stroke-width="2"/>
<path d="M153.432 87.1807C151.058 87.9673 148.942 89.1607 147.082 90.7607C145.962 91.734 145.038 92.2973 144.312 92.4507C143.398 92.644 142.272 92.734 140.932 92.7207C136.932 92.674 133.932 92.3407 131.932 91.7207C130.765 91.3607 128.332 89.734 124.632 86.8407C124.392 86.654 124.432 86.5673 124.752 86.5807C127.038 86.7207 128.098 85.434 127.932 82.7207C127.785 80.3207 126.702 79.1407 124.682 79.1807" stroke="#8A6764" stroke-width="2"/>
<path d="M161.182 79.5107C161.369 78.3107 160.952 77.714 159.932 77.7207C154.632 77.754 151.065 77.704 149.232 77.5707C141.452 77.004 133.685 77.134 125.932 77.9607C125.085 78.054 124.669 78.4607 124.682 79.1807" stroke="#F8AB9D" stroke-width="2"/>
<path d="M124.682 79.1807L121.002 79.1507" stroke="#875553" stroke-width="2"/>
<path d="M129.142 104.721C128.662 104.947 128.272 105.281 127.972 105.721" stroke="#F9B3A7" stroke-width="2"/>
<path d="M127.972 105.721C128.552 103.374 128.485 101.054 127.772 98.7607C127.725 98.6105 127.645 98.4725 127.538 98.3566C127.431 98.2407 127.299 98.1499 127.152 98.0907C126.098 97.6707 125.018 97.3573 123.912 97.1507C122.545 96.8973 121.318 96.5607 120.232 96.1407C112.992 93.3073 106.828 95.104 101.742 101.531C99.7218 104.084 98.3451 106.391 97.6118 108.451" stroke="#EC8B79" stroke-width="2"/>
<path d="M97.6116 108.451C97.2116 108.617 96.9016 108.944 96.6816 109.431" stroke="#D37568" stroke-width="2"/>
<path d="M96.6817 109.431C95.915 109.244 95.2617 109.341 94.7217 109.721" stroke="#F9B3A7" stroke-width="2"/>
<path d="M153.972 87.9707C150.878 90.6707 149.115 94.4207 148.682 99.2207C148.315 103.294 148.685 107.294 149.792 111.221C150.672 114.334 152.615 116.187 155.622 116.781C164.068 118.447 172.762 118.501 181.702 116.941" stroke="#8B615E" stroke-width="2"/>
<path d="M184.722 117.971C183.422 120.164 181.575 121.331 179.182 121.471C171.288 121.924 162.965 121.447 154.212 120.041C151.639 119.621 149.815 118.661 148.742 117.161C147.722 115.727 146.685 113.074 145.632 109.201" stroke="#8A605C" stroke-width="2"/>
<path d="M145.632 109.201C145.852 108.194 145.475 107.191 144.502 106.191" stroke="#552726" stroke-width="2"/>
<path d="M144.502 106.191L144.042 98.9107C144.03 98.7383 143.956 98.5758 143.833 98.4528C143.71 98.3298 143.546 98.2545 143.372 98.2407L135.462 97.6907C134.215 97.604 133.548 98.2107 133.462 99.5107C133.022 105.997 131.862 111.797 129.982 116.911C129.355 118.631 128.252 119.601 126.672 119.821L116.432 121.261" stroke="#8A6764" stroke-width="2"/>
<path d="M116.432 121.261C110.758 121.874 105.092 121.861 99.4316 121.221" stroke="#8B5B57" stroke-width="2"/>
<path d="M99.1816 117.181C104.615 118.054 111.365 118.067 119.432 117.221C122.472 116.901 124.765 116.337 126.312 115.531C126.59 115.382 126.816 115.136 126.952 114.831C128.398 111.637 129.128 108.267 129.142 104.721" stroke="#896667" stroke-width="2"/>
<path d="M129.142 104.721C129.735 100.307 129.498 96.8074 128.432 94.2207C127.552 92.0874 125.625 89.9174 122.652 87.7107C122.391 87.515 122.078 87.4003 121.752 87.3807C112.778 86.8274 104.018 87.9407 95.4717 90.7207" stroke="#885E5A" stroke-width="2"/>
<path d="M96.6816 109.431C97.075 110.057 97.5649 110.144 98.1516 109.691C100.932 107.557 103.362 105.074 105.442 102.241C105.808 101.734 106.292 101.477 106.892 101.471" stroke="#D47E75" stroke-width="2"/>
<path d="M178.932 82.9307C178.752 82.6307 178.655 82.3107 178.642 81.9707C178.636 81.8164 178.593 81.6697 178.516 81.5487C178.44 81.4278 178.334 81.338 178.212 81.2907C165.405 76.364 151.978 74.3407 137.932 75.2207C130.058 75.714 122.898 76.474 116.452 77.5007C116.312 77.5207 116.182 77.564 116.062 77.6307C115.115 78.144 115.308 78.2673 116.642 78.0007C118.395 77.6407 119.848 78.024 121.002 79.1507" stroke="#F8AB9D" stroke-width="2"/>
<path d="M121.002 79.1507C110.868 79.924 100.922 81.9974 91.1616 85.3707" stroke="#8A6764" stroke-width="2"/>
<path d="M178.932 196.891L176.182 199.011" stroke="#91686A" stroke-width="2"/>
<path d="M176.182 199.011C163.155 207.717 148.905 211.121 133.432 209.221C122.298 207.854 112.062 203.771 102.722 196.971" stroke="#8B4B50" stroke-width="2"/>
<path d="M102.722 196.971L101.172 195.641" stroke="#91686A" stroke-width="2"/>
<path d="M147.112 134.311C146.852 135.037 146.078 135.664 144.792 136.191" stroke="#5B272B" stroke-width="2"/>
<path d="M102.722 196.971L102.502 197.981C102.471 198.123 102.481 198.275 102.532 198.42C102.583 198.566 102.673 198.7 102.792 198.811C104.625 200.551 107.318 202.957 110.872 206.031C120.558 214.431 131.392 218.104 143.372 217.051C149.105 216.544 154.805 214.904 160.472 212.131C165.892 209.484 170.855 206.071 175.362 201.891C175.428 201.831 175.702 201.621 176.182 201.261C176.988 200.674 176.988 199.924 176.182 199.011" stroke="#F7A295" stroke-width="2"/>
<path d="M192.532 213.171C190.092 226.071 184.248 236.944 175.002 245.791C169.655 250.911 163.625 254.624 156.912 256.931C150.678 259.071 144.102 259.784 137.182 259.071C124.748 257.797 114.018 252.327 104.992 242.661C97.2182 234.334 92.1016 224.724 89.6416 213.831" stroke="#F18D82" stroke-width="2"/>
<path d="M127.972 105.721C127.578 106.781 126.835 107.094 125.742 106.661C123.935 105.947 122.642 104.804 121.862 103.231C120.762 101.011 119.022 99.5907 116.642 98.9707" stroke="#ED9386" stroke-width="2"/>
<path d="M116.642 98.9707C112.962 97.644 109.642 98.2407 106.682 100.761" stroke="#A34F41" stroke-width="2"/>
<path d="M106.682 100.761C105.575 100.881 104.705 101.417 104.072 102.371C102.405 104.871 100.252 106.897 97.6118 108.451" stroke="#C75646" stroke-width="2"/>
<path d="M116.642 98.9707C117.462 101.344 117.228 103.284 115.942 104.791C114.775 106.157 113.215 106.801 111.262 106.721C108.575 106.614 107.118 104.864 106.892 101.471" stroke="#B1776F" stroke-width="2"/>
<path d="M106.892 101.471C106.952 101.197 106.882 100.961 106.682 100.761" stroke="#8B3A30" stroke-width="2"/>
<path d="M229.593 93.4613C230.3 93.5934 231.043 93.4868 231.782 93.1475C232.52 92.8083 233.24 92.2429 233.899 91.4839C234.557 90.7248 235.143 89.7869 235.621 88.7236C236.1 87.6603 236.463 86.4925 236.688 85.2869C236.914 84.0813 236.998 82.8614 236.936 81.697C236.875 80.5326 236.668 79.4464 236.328 78.5005C235.989 77.5546 235.522 76.7674 234.956 76.184C234.39 75.6005 233.736 75.2322 233.03 75.1001C232.324 74.9679 231.58 75.0746 230.841 75.4138C230.103 75.7531 229.383 76.3184 228.725 77.0775C228.066 77.8366 227.48 78.7745 227.002 79.8378C226.523 80.9011 226.16 82.0689 225.935 83.2745C225.709 84.4801 225.625 85.7 225.687 86.8644C225.748 88.0288 225.955 89.115 226.295 90.0609C226.635 91.0068 227.101 91.794 227.667 92.3774C228.233 92.9609 228.887 93.3292 229.593 93.4613Z" stroke="#B5A6BA" stroke-width="2"/>
<path d="M251.945 190.758C251.827 189.693 251.244 188.723 250.324 188.063C249.404 187.402 248.222 187.104 247.039 187.235C246.453 187.3 245.884 187.468 245.364 187.729C244.845 187.991 244.386 188.341 244.013 188.76C243.639 189.178 243.36 189.657 243.189 190.169C243.019 190.681 242.961 191.216 243.019 191.743C243.137 192.808 243.72 193.778 244.64 194.439C245.56 195.099 246.742 195.397 247.925 195.266C248.511 195.202 249.08 195.034 249.599 194.772C250.119 194.51 250.578 194.16 250.951 193.742C251.324 193.323 251.604 192.844 251.775 192.332C251.945 191.82 252.003 191.285 251.945 190.758Z" stroke="#A99CB3" stroke-width="2"/>
<path d="M165.662 29.8007C163.588 33.6674 161.588 37.5674 159.662 41.5007C159.375 42.0807 159.445 42.444 159.872 42.5907C159.999 42.6342 160.144 42.6233 160.282 42.5597C160.42 42.496 160.543 42.3835 160.632 42.2407C163.992 36.994 166.008 33.0707 166.682 30.4707C167.128 28.7507 166.958 28.284 166.172 29.0707C165.992 29.2574 165.822 29.5007 165.662 29.8007Z" stroke="#210F22" stroke-width="2"/>
<path d="M153.977 40.4033C154.076 40.4606 154.255 40.3784 154.502 40.1613C154.75 39.9443 155.063 39.5966 155.422 39.1382C155.781 38.6799 156.18 38.1197 156.595 37.4898C157.011 36.8599 157.436 36.1725 157.844 35.467C158.67 34.0421 159.383 32.6296 159.826 31.5402C160.269 30.4508 160.406 29.7738 160.206 29.6581C160.107 29.6008 159.929 29.683 159.681 29.9C159.433 30.1171 159.121 30.4647 158.762 30.9231C158.403 31.3815 158.004 31.9416 157.588 32.5716C157.173 33.2015 156.748 33.8888 156.339 34.5944C155.513 36.0193 154.8 37.4318 154.357 38.5212C153.914 39.6105 153.778 40.2876 153.977 40.4033Z" stroke="#210F22" stroke-width="2"/>
<path d="M166.053 42.9992C166.157 43.0509 166.331 42.9576 166.567 42.7246C166.804 42.4915 167.096 42.1233 167.429 41.641C167.762 41.1586 168.129 40.5716 168.508 39.9133C168.887 39.2551 169.271 38.5386 169.639 37.8047C170.006 37.0708 170.35 36.3338 170.65 35.636C170.95 34.9382 171.2 34.2931 171.387 33.7375C171.574 33.182 171.693 32.7269 171.738 32.3983C171.784 32.0696 171.754 31.8739 171.65 31.8222C171.547 31.7704 171.372 31.8637 171.136 32.0968C170.9 32.3298 170.607 32.698 170.274 33.1804C169.941 33.6627 169.575 34.2498 169.196 34.908C168.817 35.5662 168.432 36.2828 168.065 37.0167C167.697 37.7506 167.354 38.4875 167.054 39.1853C166.754 39.8832 166.503 40.5283 166.317 41.0838C166.13 41.6393 166.01 42.0944 165.965 42.423C165.92 42.7517 165.95 42.9475 166.053 42.9992Z" stroke="#210F22" stroke-width="2"/>
<path d="M160.182 100.931C160.895 103.517 162.332 105.094 164.492 105.661C168.172 106.621 170.882 105.351 172.622 101.851C172.882 101.311 173.158 101.304 173.452 101.831C174.732 104.137 176.405 106.064 178.472 107.611C178.745 107.817 178.812 107.761 178.672 107.441C176.998 103.654 174.752 100.664 171.932 98.4707C169.085 96.2507 165.752 95.6806 161.932 96.7606" stroke="#C06B65" stroke-width="2"/>
<path d="M161.932 96.7607C158.085 95.8407 154.828 96.5207 152.162 98.8007C150.968 99.8207 150.285 101.187 150.112 102.901C149.792 106.047 150.232 109.081 151.432 112.001C151.912 113.167 152.305 113.141 152.612 111.921C152.872 110.907 153.305 109.987 153.912 109.161C155.938 106.367 158.028 103.624 160.182 100.931" stroke="#FA9886" stroke-width="2"/>
<path d="M161.932 96.7607C160.718 97.8807 160.135 99.2707 160.182 100.931" stroke="#BD524A" stroke-width="2"/>
<path d="M77.6219 101.151C75.8486 105.757 76.6152 109.864 79.9219 113.471C81.2819 114.957 82.8486 115.624 84.6219 115.471C85.5486 115.391 86.4419 114.954 87.3019 114.161C88.0619 113.461 88.7553 112.697 89.3819 111.871C89.5825 111.612 89.6883 111.294 89.6819 110.971C89.6419 108.857 89.2919 106.811 88.6319 104.831C88.0186 102.984 87.1019 101.601 85.8819 100.681C84.4553 99.6007 82.7886 99.034 80.8819 98.9807C79.2819 98.934 78.1953 99.6574 77.6219 101.151Z" stroke="#F8A295" stroke-width="2"/>
<path d="M191.212 99.9207C189.765 103.887 188.998 108.224 188.912 112.931C188.908 113.13 188.946 113.328 189.021 113.513C189.097 113.699 189.209 113.868 189.352 114.011C191.532 116.204 193.572 116.457 195.472 114.771C196.765 113.624 197.689 112.044 198.242 110.031C199.615 105.071 198.032 101.404 193.492 99.0307C193.286 98.9227 193.06 98.8601 192.829 98.8471C192.597 98.8341 192.365 98.871 192.149 98.9554C191.933 99.0398 191.737 99.1697 191.575 99.3362C191.414 99.5028 191.29 99.7021 191.212 99.9207Z" stroke="#FB9E8E" stroke-width="2"/>
<path d="M117.692 142.721C118.178 147.554 120.515 151.567 124.702 154.761C126.202 155.901 127.462 155.677 128.482 154.091C129.308 152.811 130.448 151.767 131.902 150.961C133.002 150.347 134.455 149.997 136.262 149.911C139.362 149.751 142.238 149.684 144.892 149.711C146.298 149.724 147.435 150.281 148.302 151.381C151.048 154.861 153.792 155.897 156.532 154.491C158.252 153.604 159.798 151.751 161.172 148.931C162.498 146.191 163.475 143.207 164.102 139.981C164.282 139.041 163.948 138.794 163.102 139.241C160.275 140.714 157.368 142.187 154.382 143.661C149.022 146.294 146.092 147.691 145.592 147.851C142.045 149.011 138.328 149.037 134.442 147.931C129.835 146.611 125.228 144.144 120.622 140.531C119.368 139.551 118.478 139.591 117.952 140.651C117.692 141.164 117.605 141.854 117.692 142.721Z" stroke="#88494D" stroke-width="2"/>
<path d="M197.573 147.794C197.64 147.692 197.665 147.568 197.641 147.448C197.616 147.329 197.546 147.224 197.444 147.156L192.13 143.626C192.029 143.558 191.904 143.534 191.785 143.558C191.665 143.582 191.56 143.653 191.493 143.754L191.47 143.787C191.403 143.889 191.379 144.013 191.403 144.133C191.427 144.253 191.497 144.358 191.599 144.425L196.913 147.956C197.015 148.023 197.139 148.048 197.259 148.024C197.378 147.999 197.483 147.929 197.551 147.827L197.573 147.794Z" stroke="#3B2C42" stroke-width="2"/>
<path d="M193.742 152.411C192.915 152.011 191.442 150.821 189.322 148.841C188.002 147.607 187.852 147.754 188.872 149.281C189.458 150.161 191.338 151.634 194.512 153.701C194.878 153.934 194.998 153.861 194.872 153.481C194.725 153.054 194.348 152.697 193.742 152.411Z" stroke="#3B2C42" stroke-width="2"/>
<path d="M134.281 253.721C134.4 253.801 134.537 253.851 134.68 253.865C134.822 253.88 134.966 253.859 135.099 253.805C135.231 253.75 135.348 253.664 135.44 253.553C135.531 253.443 135.593 253.311 135.621 253.171C136.001 251.204 136.178 249.221 136.151 247.221C136.091 242.221 136.205 236.831 136.491 231.051C136.537 230.088 136.243 229.139 135.661 228.371C135.115 227.637 134.485 227.627 133.771 228.341C133.553 228.553 133.424 228.869 133.411 229.221C133.045 236.867 133.075 244.514 133.501 252.161C133.541 252.874 133.801 253.394 134.281 253.721Z" stroke="#FCAB9A" stroke-width="2"/>
<path d="M197.702 236.741C192.628 243.841 188.095 250.724 184.102 257.391C183.575 258.271 183.268 259.214 183.182 260.221C183.075 261.454 183.555 261.601 184.622 260.661C186.188 259.267 187.532 257.694 188.652 255.941C190.185 253.534 190.975 252.301 191.022 252.241C194.288 247.534 197.105 242.567 199.472 237.341C200.112 235.934 199.852 235.471 198.692 235.951C198.299 236.114 197.957 236.387 197.702 236.741Z" stroke="#DA4E4A" stroke-width="2"/>
<path d="M90.3718 253.781C90.8185 254.314 91.1418 254.257 91.3418 253.611C91.4151 253.377 91.4018 253.121 91.3018 252.841C90.6818 251.074 89.8285 249.431 88.7418 247.911C86.5218 244.817 84.2318 241.774 81.8718 238.781C80.9518 237.607 79.7985 236.751 78.4118 236.211C77.7118 235.937 77.5618 236.121 77.9618 236.761C81.6885 242.714 85.8252 248.387 90.3718 253.781Z" stroke="#DA524D" stroke-width="2"/>
<path d="M81.2678 258.066C81.4346 257.939 81.0703 257.127 80.2552 255.808C79.44 254.489 78.2408 252.772 76.9212 251.033C76.2677 250.172 75.6044 249.332 74.969 248.561C74.3336 247.789 73.7387 247.102 73.2182 246.537C72.6977 245.973 72.2618 245.543 71.9354 245.271C71.609 245 71.3986 244.892 71.316 244.955C71.1492 245.082 71.5134 245.894 72.3285 247.213C73.1437 248.532 74.343 250.25 75.6626 251.988C76.3161 252.849 76.9794 253.689 77.6148 254.461C78.2502 255.232 78.845 255.92 79.3655 256.484C79.886 257.048 80.3219 257.479 80.6483 257.75C80.9747 258.022 81.1852 258.129 81.2678 258.066Z" stroke="#DA524D" stroke-width="2"/>
<path d="M208.247 246.62C208.386 246.394 208.43 246.122 208.369 245.864C208.308 245.606 208.147 245.383 207.921 245.243L207.887 245.222C207.662 245.083 207.39 245.039 207.132 245.1C206.874 245.161 206.65 245.322 206.511 245.548L198.177 259.042C198.038 259.267 197.994 259.539 198.055 259.797C198.116 260.055 198.277 260.279 198.502 260.418L198.536 260.439C198.762 260.578 199.034 260.622 199.292 260.561C199.55 260.5 199.773 260.339 199.913 260.114L208.247 246.62Z" stroke="#DA524D" stroke-width="2"/>
<path d="M171.482 271.201C173.295 271.287 173.862 270.211 173.182 267.971C172.688 266.357 171.668 266.254 170.122 267.661C169.035 268.647 168.828 269.537 169.502 270.331C169.955 270.864 170.615 271.154 171.482 271.201Z" stroke="#D55548" stroke-width="2"/>
<path d="M110.386 271.893C110.519 272.021 110.679 272.117 110.859 272.175C111.039 272.233 111.235 272.253 111.436 272.233C111.636 272.212 111.838 272.153 112.029 272.057C112.219 271.961 112.395 271.832 112.547 271.675C112.699 271.518 112.823 271.338 112.913 271.145C113.002 270.951 113.056 270.748 113.07 270.547C113.083 270.345 113.058 270.15 112.994 269.972C112.93 269.794 112.829 269.637 112.697 269.509C112.565 269.381 112.404 269.285 112.224 269.226C112.044 269.168 111.848 269.149 111.648 269.169C111.447 269.189 111.246 269.249 111.055 269.344C110.864 269.44 110.688 269.57 110.536 269.726C110.385 269.883 110.26 270.063 110.171 270.257C110.081 270.45 110.028 270.654 110.014 270.855C110 271.056 110.026 271.251 110.09 271.429C110.154 271.607 110.254 271.765 110.386 271.893Z" stroke="#CF4745" stroke-width="2"/>
<path d="M244.071 236.901L227.471 227.221C226.098 226.027 224.501 225.541 222.681 225.761C220.901 226.027 219.581 225.431 218.721 223.971C217.235 221.977 215.221 221.074 212.681 221.261C209.935 220.514 207.681 219.304 205.921 217.631C207.501 212.997 210.361 209.407 214.501 206.861C215.108 207.421 215.898 207.437 216.871 206.911C218.458 206.044 219.855 204.737 221.061 202.991C221.195 202.804 222.158 201.174 223.951 198.101C227.645 191.787 230.638 185.411 232.931 178.971C235.978 170.411 237.445 161.494 237.331 152.221C237.285 148.527 237.141 145.861 236.901 144.221C236.488 141.461 235.645 138.897 234.371 136.531C233.998 135.844 233.351 135.561 232.431 135.681C228.258 128.647 223.121 122.461 217.021 117.121C213.281 113.854 211.135 111.997 210.581 111.551C208.388 109.784 205.968 108.264 203.321 106.991C203.535 99.724 200.161 95.444 193.201 94.1507L195.151 57.1107C195.167 56.8144 195.257 56.5273 195.415 56.2769C195.573 56.0264 195.792 55.8211 196.051 55.6807C201.871 52.5207 204.261 48.0807 203.221 42.3607C202.755 39.834 201.855 37.944 200.521 36.6907C198.588 34.8907 196.128 34.8607 193.141 36.6007C190.855 37.934 189.305 37.6207 188.491 35.6607C187.725 33.8074 187.381 31.0774 187.461 27.4707C187.501 25.444 186.805 23.8807 185.371 22.7807C174.938 14.7807 162.958 10.4274 149.431 9.72069C143.725 9.42068 139.155 11.0174 135.721 14.5107C135.695 14.5374 135.321 14.994 134.601 15.8807C133.155 17.6807 131.495 17.6473 129.621 15.7807C127.781 13.954 125.731 12.8974 123.471 12.6107C121.511 12.364 119.388 12.8074 117.101 13.9407C112.881 16.034 109.905 19.4674 108.171 24.2407C107.705 25.5273 106.825 25.9474 105.531 25.5007C99.9981 23.5874 95.2548 24.5174 91.3015 28.2907C89.8548 29.6707 88.8748 31.144 88.3615 32.7107C87.7948 34.444 87.6815 36.274 88.0215 38.2007C88.4282 40.4874 87.5015 42.014 85.2415 42.7807C84.0615 43.1807 82.9215 43.9307 81.8215 45.0307C80.7215 46.1173 80.1381 47.274 80.0715 48.5007C79.9515 50.754 81.1748 52.7007 83.7415 54.3407C84.7948 55.014 85.3348 56.0074 85.3615 57.3207L86.1915 94.3407C81.1448 93.4007 77.5314 94.6274 75.3514 98.0207C74.1181 99.9407 73.4848 102.564 73.4515 105.891C73.4248 108.837 73.8148 111.577 74.6215 114.111C63.5948 120.944 55.1148 130.161 49.1815 141.761C46.7615 141.647 45.2615 142.717 44.6815 144.971C40.8348 159.957 42.2915 174.487 49.0515 188.561C51.5981 193.867 54.4681 198.984 57.6614 203.911C59.0214 206.004 60.7581 207.707 62.8715 209.021C63.4248 209.361 64.3648 209.261 65.6915 208.721C66.5981 208.887 67.2114 210.017 67.5314 212.111C67.7448 213.497 68.0415 214.867 68.4215 216.221C68.7281 217.294 69.3381 217.884 70.2515 217.991C70.4048 218.004 71.1115 217.804 72.3715 217.391C73.3115 217.084 74.0015 217.434 74.4415 218.441C74.4624 218.49 74.4948 218.533 74.536 218.566C74.5771 218.6 74.6258 218.623 74.6778 218.634C74.7298 218.645 74.7837 218.643 74.8348 218.628C74.886 218.614 74.9328 218.587 74.9714 218.551C75.9714 217.624 76.7081 217.834 77.1815 219.181C75.1081 220.194 73.0448 221.237 70.9915 222.311C70.5448 222.544 69.4048 222.907 67.5715 223.401C65.9315 223.847 64.4414 224.897 63.1014 226.551C62.1148 227.757 60.8448 228.267 59.2914 228.081C58.7448 228.014 57.9148 228.284 56.8015 228.891C51.1681 231.937 45.4915 235.284 39.7715 238.931C20.9515 219.237 9.08813 196.251 4.18146 169.971C1.84146 157.444 1.12149 144.534 2.02149 131.241C2.47482 124.547 3.37812 117.951 4.73145 111.451C12.3381 74.824 31.5081 45.934 62.2415 24.7807C78.6881 13.4674 97.1982 6.13068 117.771 2.77068C124.231 1.71068 130.865 1.12735 137.671 1.02068C176.551 0.407351 209.715 13.434 237.161 40.1007C241.915 44.7207 246.308 49.7207 250.341 55.1007C273.468 85.974 282.801 120.884 278.341 159.831C277.548 166.784 276.371 173.334 274.811 179.481C269.585 200.041 259.988 218.487 246.021 234.821C245.388 235.561 244.738 236.254 244.071 236.901ZM229.593 93.4613C230.299 93.5934 231.043 93.4868 231.782 93.1475C232.52 92.8083 233.24 92.2429 233.898 91.4839C234.557 90.7248 235.143 89.7869 235.621 88.7236C236.1 87.6603 236.463 86.4925 236.688 85.2869C236.914 84.0813 236.998 82.8614 236.936 81.697C236.875 80.5326 236.668 79.4464 236.328 78.5005C235.989 77.5546 235.522 76.7674 234.956 76.184C234.39 75.6005 233.736 75.2322 233.03 75.1001C232.323 74.9679 231.58 75.0745 230.841 75.4138C230.103 75.7531 229.383 76.3184 228.724 77.0775C228.066 77.8366 227.48 78.7745 227.002 79.8378C226.523 80.9011 226.16 82.0689 225.935 83.2745C225.709 84.4801 225.625 85.7 225.687 86.8644C225.748 88.0288 225.955 89.115 226.295 90.0609C226.634 91.0068 227.101 91.794 227.667 92.3774C228.233 92.9609 228.887 93.3292 229.593 93.4613ZM251.944 190.758C251.827 189.693 251.244 188.724 250.324 188.063C249.404 187.402 248.222 187.104 247.038 187.235C246.452 187.3 245.883 187.468 245.364 187.729C244.845 187.991 244.386 188.341 244.012 188.76C243.639 189.178 243.359 189.657 243.189 190.169C243.018 190.681 242.96 191.216 243.019 191.743C243.136 192.808 243.719 193.778 244.639 194.439C245.559 195.099 246.741 195.397 247.925 195.266C248.511 195.202 249.08 195.034 249.599 194.772C250.118 194.51 250.577 194.16 250.951 193.742C251.324 193.323 251.604 192.844 251.774 192.332C251.945 191.82 252.003 191.285 251.944 190.758Z" fill="#C6B1BF"/>
<path d="M193.202 94.1507C190.595 95.0774 189.235 96.9074 189.122 99.6407C189.035 101.687 188.988 102.741 188.981 102.801C188.235 108.041 186.815 113.097 184.721 117.971C183.521 117.131 182.515 116.787 181.702 116.941C184.582 108.887 185.671 100.867 184.971 92.8807C184.871 91.7607 184.278 91.0407 183.192 90.7207C174.378 88.1607 165.375 86.9007 156.182 86.9407C155.242 86.9407 154.505 87.284 153.971 87.9707C153.951 87.584 153.771 87.3207 153.432 87.1807L153.572 86.9507C153.588 86.9239 153.597 86.8936 153.6 86.8618C153.602 86.8299 153.597 86.7973 153.584 86.766C153.572 86.7348 153.553 86.7057 153.528 86.6806C153.504 86.6555 153.474 86.6351 153.442 86.6207C152.008 85.974 151.268 84.954 151.221 83.5607C151.188 82.354 151.392 81.3107 151.832 80.4307C152.392 79.3041 153.515 78.8241 155.202 78.9907C157.188 79.1841 159.182 79.3574 161.182 79.5107C167.168 80.2907 173.085 81.4307 178.932 82.9307L187.892 86.0007C187.945 86.018 188.002 86.0223 188.058 86.0135C188.114 86.0046 188.167 85.9827 188.213 85.9496C188.258 85.9165 188.296 85.8731 188.321 85.8229C188.347 85.7727 188.361 85.7172 188.361 85.6607L188.242 58.9107C188.242 58.7742 188.191 58.6425 188.098 58.5423C188.005 58.4422 187.878 58.3808 187.742 58.3707C156.508 55.764 125.352 53.7207 94.2715 52.2407C93.9972 52.2269 93.7286 52.3212 93.5243 52.5029C93.3201 52.6846 93.1969 52.9391 93.1815 53.2107L91.1615 85.3707C91.6015 86.3374 92.5448 86.4274 93.9915 85.6407C94.0821 85.5928 94.1831 85.5697 94.286 85.5732C94.3889 85.5767 94.4905 85.6069 94.582 85.661C94.6735 85.7151 94.7522 85.7916 94.8114 85.8839C94.8705 85.9762 94.9083 86.0815 94.9215 86.1907L95.4715 90.7207C94.0515 91.7274 93.2882 92.8107 93.1815 93.9707C92.7682 98.5174 93.2815 103.767 94.7215 109.721C95.0348 112.987 96.5215 115.474 99.1815 117.181C98.4815 117.307 98.2382 117.671 98.4515 118.271C98.4897 118.365 98.5683 118.478 98.682 118.6C98.7957 118.722 98.942 118.852 99.1115 118.981C99.8315 119.521 99.9382 120.267 99.4315 121.221C97.9115 121.021 96.5915 120.491 95.4715 119.631C94.5781 118.944 93.8449 117.804 93.2715 116.211C90.9515 109.711 89.3215 102.934 88.3815 95.8807C88.3653 95.747 88.3171 95.6192 88.2411 95.5079C88.165 95.3966 88.0632 95.3049 87.9441 95.2405C87.8249 95.176 87.6918 95.1406 87.5558 95.1372C87.4197 95.1337 87.2846 95.1624 87.1615 95.2207C86.4881 95.534 86.1648 95.2407 86.1915 94.3407L85.3615 57.3207C85.3348 56.0074 84.7948 55.014 83.7415 54.3407C81.1748 52.7007 79.9515 50.754 80.0715 48.5007C80.1382 47.274 80.7215 46.1174 81.8215 45.0307C82.9215 43.9307 84.0615 43.1807 85.2415 42.7807C87.5015 42.014 88.4282 40.4874 88.0215 38.2007C87.6815 36.274 87.7948 34.444 88.3615 32.7107C88.8748 31.144 89.8548 29.6707 91.3015 28.2907C95.2548 24.5174 99.9981 23.5874 105.531 25.5007C106.825 25.9474 107.705 25.5274 108.171 24.2407C109.905 19.4674 112.881 16.034 117.101 13.9407C119.388 12.8074 121.511 12.364 123.471 12.6107C125.731 12.8974 127.782 13.954 129.622 15.7807C131.495 17.6474 133.155 17.6807 134.601 15.8807C135.321 14.994 135.695 14.5374 135.721 14.5107C139.155 11.0174 143.725 9.42071 149.432 9.72071C162.958 10.4274 174.938 14.7807 185.372 22.7807C186.805 23.8807 187.502 25.444 187.462 27.4707C187.382 31.0774 187.725 33.8074 188.492 35.6607C189.305 37.6207 190.855 37.934 193.142 36.6007C196.128 34.8607 198.588 34.8907 200.522 36.6907C201.855 37.944 202.755 39.834 203.221 42.3607C204.261 48.0807 201.871 52.5207 196.051 55.6807C195.792 55.8211 195.573 56.0265 195.415 56.2769C195.258 56.5273 195.167 56.8145 195.151 57.1107L193.202 94.1507ZM165.661 29.8007C163.588 33.6674 161.588 37.5674 159.661 41.5007C159.375 42.0807 159.445 42.444 159.872 42.5907C159.999 42.6342 160.144 42.6233 160.282 42.5597C160.42 42.496 160.543 42.3835 160.632 42.2407C163.992 36.994 166.008 33.0707 166.682 30.4707C167.128 28.7507 166.958 28.284 166.171 29.0707C165.991 29.2574 165.821 29.5007 165.661 29.8007ZM153.977 40.4033C154.076 40.4606 154.254 40.3784 154.502 40.1614C154.75 39.9443 155.062 39.5967 155.421 39.1383C155.781 38.6799 156.179 38.1198 156.595 37.4898C157.011 36.8599 157.435 36.1726 157.844 35.467C158.67 34.0421 159.383 32.6296 159.826 31.5402C160.269 30.4508 160.406 29.7738 160.206 29.6581C160.107 29.6008 159.929 29.683 159.681 29.9001C159.433 30.1171 159.121 30.4648 158.762 30.9231C158.402 31.3815 158.004 31.9417 157.588 32.5716C157.172 33.2015 156.748 33.8889 156.339 34.5944C155.513 36.0193 154.8 37.4318 154.357 38.5212C153.914 39.6106 153.777 40.2876 153.977 40.4033ZM166.053 42.9992C166.156 43.051 166.331 42.9577 166.567 42.7246C166.803 42.4916 167.096 42.1234 167.429 41.641C167.762 41.1587 168.128 40.5716 168.508 39.9134C168.887 39.2551 169.271 38.5386 169.638 37.8047C170.006 37.0708 170.349 36.3339 170.649 35.636C170.949 34.9382 171.2 34.2931 171.387 33.7376C171.574 33.182 171.693 32.727 171.738 32.3983C171.783 32.0697 171.753 31.8739 171.65 31.8222C171.547 31.7705 171.372 31.8638 171.136 32.0968C170.9 32.3298 170.607 32.698 170.274 33.1804C169.941 33.6628 169.575 34.2498 169.195 34.908C168.816 35.5663 168.432 36.2828 168.065 37.0167C167.697 37.7506 167.354 38.4875 167.054 39.1854C166.754 39.8832 166.503 40.5283 166.316 41.0838C166.129 41.6394 166.01 42.0944 165.965 42.4231C165.92 42.7517 165.95 42.9475 166.053 42.9992Z" fill="#291327"/>
<path d="M166.172 29.0707C166.958 28.284 167.128 28.7507 166.682 30.4707C166.008 33.0707 163.992 36.994 160.632 42.2407C160.543 42.3835 160.42 42.496 160.282 42.5597C160.144 42.6233 159.999 42.6342 159.872 42.5907C159.445 42.444 159.375 42.0807 159.662 41.5007C161.588 37.5674 163.588 33.6674 165.662 29.8007C165.822 29.5007 165.992 29.2574 166.172 29.0707Z" fill="#180B1D"/>
<path d="M156.339 34.5944C154.619 37.5616 153.562 40.1623 153.978 40.4033C154.393 40.6443 156.125 38.4342 157.845 35.467C159.565 32.4998 160.622 29.8991 160.206 29.6581C159.791 29.4171 158.059 31.6272 156.339 34.5944Z" fill="#180B1D"/>
<path d="M168.065 37.0167C166.519 40.1031 165.619 42.7815 166.053 42.9991C166.488 43.2168 168.093 40.8911 169.639 37.8047C171.184 34.7183 172.085 32.0398 171.65 31.8222C171.216 31.6046 169.61 33.9302 168.065 37.0167Z" fill="#180B1D"/>
<path d="M178.932 82.9307C178.752 82.6307 178.655 82.3107 178.642 81.9707C178.636 81.8165 178.592 81.6697 178.516 81.5488C178.439 81.4278 178.334 81.3381 178.212 81.2907C165.405 76.3641 151.978 74.3407 137.932 75.2207C130.058 75.714 122.898 76.474 116.452 77.5007C116.312 77.5207 116.182 77.564 116.062 77.6307C115.115 78.144 115.308 78.2674 116.642 78.0007C118.395 77.6407 119.848 78.024 121.002 79.1507C110.868 79.924 100.922 81.9974 91.1616 85.3707L93.1816 53.2107C93.197 52.9391 93.3203 52.6846 93.5245 52.5029C93.7287 52.3212 93.9973 52.2269 94.2717 52.2407C125.352 53.7207 156.508 55.764 187.742 58.3707C187.878 58.3808 188.005 58.4422 188.098 58.5423C188.191 58.6425 188.242 58.7742 188.242 58.9107L188.362 85.6607C188.361 85.7172 188.347 85.7727 188.322 85.8229C188.296 85.8731 188.258 85.9165 188.213 85.9496C188.167 85.9827 188.114 86.0046 188.058 86.0135C188.002 86.0223 187.945 86.018 187.892 86.0007L178.932 82.9307Z" fill="#FBBDAE"/>
<path d="M178.932 82.9307C173.085 81.4307 167.168 80.2907 161.182 79.5107C161.368 78.3107 160.952 77.714 159.932 77.7207C154.632 77.754 151.065 77.704 149.232 77.5707C141.452 77.004 133.685 77.134 125.932 77.9607C125.085 78.054 124.668 78.4607 124.682 79.1807L121.002 79.1507C119.848 78.024 118.395 77.6407 116.642 78.0007C115.308 78.2673 115.115 78.144 116.062 77.6307C116.182 77.564 116.312 77.5207 116.452 77.5007C122.898 76.474 130.058 75.714 137.932 75.2207C151.978 74.3407 165.405 76.364 178.212 81.2907C178.334 81.338 178.44 81.4278 178.516 81.5487C178.593 81.6697 178.636 81.8164 178.642 81.9707C178.655 82.3107 178.752 82.6307 178.932 82.9307Z" fill="#F5988B"/>
<path d="M225.935 83.2745C224.986 88.3448 226.624 92.9056 229.593 93.4613C232.563 94.0171 235.739 90.3573 236.688 85.2869C237.637 80.2166 235.999 75.6558 233.03 75.1001C230.06 74.5444 226.884 78.2042 225.935 83.2745Z" fill="#A49AB5"/>
<path d="M161.182 79.5107C159.182 79.3573 157.188 79.184 155.202 78.9907C153.515 78.824 152.392 79.304 151.832 80.4307C151.392 81.3107 151.188 82.354 151.222 83.5607C151.268 84.954 152.008 85.974 153.442 86.6207C153.474 86.6351 153.504 86.6555 153.528 86.6806C153.553 86.7056 153.572 86.7348 153.585 86.766C153.597 86.7972 153.602 86.8299 153.6 86.8617C153.598 86.8936 153.588 86.9239 153.572 86.9507L153.432 87.1807C151.058 87.9673 148.942 89.1607 147.082 90.7607C145.962 91.734 145.038 92.2973 144.312 92.4507C143.398 92.644 142.272 92.734 140.932 92.7207C136.932 92.674 133.932 92.3407 131.932 91.7207C130.765 91.3607 128.332 89.734 124.632 86.8407C124.392 86.654 124.432 86.5673 124.752 86.5807C127.038 86.7207 128.098 85.434 127.932 82.7207C127.785 80.3207 126.702 79.1407 124.682 79.1807C124.668 78.4607 125.085 78.054 125.932 77.9607C133.685 77.134 141.452 77.004 149.232 77.5707C151.065 77.704 154.632 77.754 159.932 77.7207C160.952 77.714 161.368 78.3107 161.182 79.5107Z" fill="#FBBDAE"/>
<path d="M121.002 79.1507L124.682 79.1807C126.702 79.1407 127.785 80.3207 127.932 82.7207C128.098 85.434 127.038 86.7207 124.752 86.5807C124.432 86.5674 124.392 86.654 124.632 86.8407C128.332 89.734 130.765 91.3607 131.932 91.7207C133.932 92.3407 136.932 92.674 140.932 92.7207C142.272 92.734 143.398 92.644 144.312 92.4507C145.038 92.2974 145.962 91.734 147.082 90.7607C148.942 89.1607 151.058 87.9674 153.432 87.1807C153.772 87.3207 153.952 87.584 153.972 87.9707C150.878 90.6707 149.115 94.4207 148.682 99.2207C148.315 103.294 148.685 107.294 149.792 111.221C150.672 114.334 152.615 116.187 155.622 116.781C164.068 118.447 172.762 118.501 181.702 116.941C182.515 116.787 183.522 117.131 184.722 117.971C183.422 120.164 181.575 121.331 179.182 121.471C171.288 121.924 162.965 121.447 154.212 120.041C151.638 119.621 149.815 118.661 148.742 117.161C147.722 115.727 146.685 113.074 145.632 109.201C145.852 108.194 145.475 107.191 144.502 106.191L144.042 98.9107C144.03 98.7383 143.956 98.5758 143.833 98.4529C143.71 98.3299 143.546 98.2546 143.372 98.2407L135.462 97.6907C134.215 97.604 133.548 98.2107 133.462 99.5107C133.022 105.997 131.862 111.797 129.982 116.911C129.355 118.631 128.252 119.601 126.672 119.821L116.432 121.261C110.758 121.874 105.092 121.861 99.4316 121.221C99.9383 120.267 99.8316 119.521 99.1116 118.981C98.9422 118.852 98.7958 118.722 98.6821 118.6C98.5684 118.478 98.4899 118.365 98.4517 118.271C98.2383 117.671 98.4816 117.307 99.1816 117.181C104.615 118.054 111.365 118.067 119.432 117.221C122.472 116.901 124.765 116.337 126.312 115.531C126.59 115.382 126.816 115.136 126.952 114.831C128.398 111.637 129.128 108.267 129.142 104.721C129.735 100.307 129.498 96.8074 128.432 94.2207C127.552 92.0874 125.625 89.9174 122.652 87.7107C122.391 87.5151 122.078 87.4003 121.752 87.3807C112.778 86.8274 104.018 87.9407 95.4716 90.7207L94.9216 86.1907C94.9085 86.0815 94.8707 85.9762 94.8115 85.8839C94.7524 85.7916 94.6737 85.7151 94.5822 85.661C94.4906 85.6069 94.389 85.5767 94.2861 85.5732C94.1833 85.5697 94.0822 85.5928 93.9916 85.6407C92.545 86.4274 91.6016 86.3374 91.1616 85.3707C100.922 81.9974 110.868 79.924 121.002 79.1507Z" fill="#18111A"/>
<path d="M181.702 116.941C172.762 118.501 164.068 118.447 155.622 116.781C152.615 116.187 150.672 114.334 149.792 111.221C148.685 107.294 148.315 103.294 148.682 99.2207C149.115 94.4207 150.878 90.6707 153.972 87.9707C154.505 87.284 155.242 86.9407 156.182 86.9407C165.375 86.9007 174.378 88.1607 183.192 90.7207C184.278 91.0407 184.872 91.7607 184.972 92.8807C185.672 100.867 184.582 108.887 181.702 116.941ZM160.182 100.931C160.895 103.517 162.332 105.094 164.492 105.661C168.172 106.621 170.882 105.351 172.622 101.851C172.882 101.311 173.158 101.304 173.452 101.831C174.732 104.137 176.405 106.064 178.472 107.611C178.745 107.817 178.812 107.761 178.672 107.441C176.998 103.654 174.752 100.664 171.932 98.4707C169.085 96.2507 165.752 95.6807 161.932 96.7607C158.085 95.8407 154.828 96.5207 152.162 98.8007C150.968 99.8207 150.285 101.187 150.112 102.901C149.792 106.047 150.232 109.081 151.432 112.001C151.912 113.167 152.305 113.141 152.612 111.921C152.872 110.907 153.305 109.987 153.912 109.161C155.938 106.367 158.028 103.624 160.182 100.931Z" fill="#FDB1A1"/>
<path d="M129.142 104.721C128.662 104.947 128.272 105.281 127.972 105.721C128.552 103.374 128.485 101.054 127.772 98.7607C127.725 98.6105 127.645 98.4725 127.538 98.3566C127.431 98.2407 127.299 98.1499 127.152 98.0907C126.098 97.6707 125.018 97.3574 123.912 97.1507C122.545 96.8974 121.318 96.5607 120.232 96.1407C112.992 93.3074 106.828 95.104 101.742 101.531C99.7217 104.084 98.3451 106.391 97.6117 108.451C97.2117 108.617 96.9017 108.944 96.6817 109.431C95.9151 109.244 95.2617 109.341 94.7217 109.721C93.2817 103.767 92.7684 98.5174 93.1817 93.9707C93.2884 92.8107 94.0517 91.7274 95.4717 90.7207C104.018 87.9407 112.778 86.8274 121.752 87.3807C122.078 87.4003 122.391 87.515 122.652 87.7107C125.625 89.9174 127.552 92.0874 128.432 94.2207C129.498 96.8074 129.735 100.307 129.142 104.721Z" fill="#F8AA9A"/>
<path d="M86.1915 94.3407C86.1648 95.2407 86.4881 95.534 87.1614 95.2207C87.2845 95.1623 87.4197 95.1337 87.5557 95.1371C87.6918 95.1405 87.8249 95.176 87.944 95.2404C88.0632 95.3049 88.165 95.3965 88.241 95.5078C88.3171 95.6192 88.3652 95.7469 88.3815 95.8807C89.3215 102.934 90.9515 109.711 93.2715 116.211C93.8448 117.804 94.5781 118.944 95.4714 119.631C96.5914 120.491 97.9115 121.021 99.4315 121.221C99.4648 121.554 99.4015 121.837 99.2415 122.071C99.1463 122.199 99.0107 122.292 98.8564 122.333C98.7022 122.375 98.5384 122.364 98.3915 122.301L93.2015 120.091C93.0676 120.033 92.9211 120.005 92.7758 120.011C92.6305 120.016 92.491 120.055 92.3702 120.123C92.2495 120.191 92.1515 120.286 92.0853 120.399C92.019 120.512 91.9868 120.64 91.9915 120.771C92.1048 124.544 92.7781 128.201 94.0115 131.741C94.0615 131.885 94.1522 132.011 94.2717 132.102C94.3913 132.193 94.5341 132.245 94.6815 132.251L105.371 132.651C105.679 132.663 105.992 132.545 106.241 132.321C109.781 129.207 113.908 127.494 118.621 127.181C118.783 127.169 118.933 127.108 119.042 127.011C119.15 126.914 119.207 126.788 119.201 126.661L119.061 123.451C119.055 123.329 118.988 123.214 118.873 123.129C118.758 123.043 118.604 122.994 118.441 122.991C117.261 122.951 116.591 122.374 116.431 121.261L126.671 119.821C128.251 119.601 129.355 118.631 129.981 116.911C131.861 111.797 133.021 105.997 133.461 99.5106C133.548 98.2106 134.215 97.604 135.461 97.6907L143.371 98.2407C143.546 98.2545 143.71 98.3298 143.833 98.4528C143.956 98.5758 144.03 98.7383 144.041 98.9107L144.501 106.191C143.928 116.191 144.025 126.191 144.791 136.191C142.271 138.877 139.061 139.831 135.161 139.051C130.701 138.164 127.788 135.627 126.421 131.441C125.995 130.141 125.105 129.414 123.751 129.261C120.331 128.861 117.105 129.197 114.071 130.271C111.278 131.264 109.198 132.911 107.831 135.211C106.771 137.011 106.225 139.447 106.191 142.521C106.151 146.021 106.631 149.447 107.631 152.801C107.958 153.894 107.665 154.101 106.751 153.421C100.265 148.561 95.8248 142.244 93.4315 134.471C92.3115 130.837 91.3115 127.167 90.4315 123.461C90.1248 122.174 89.6848 122.107 89.1114 123.261L84.4014 132.721C84.3481 130.261 84.9648 127.944 86.2515 125.771C86.9581 124.577 86.6315 123.851 85.2715 123.591C80.5181 122.691 76.9681 119.531 74.6215 114.111C73.8148 111.577 73.4248 108.837 73.4515 105.891C73.4848 102.564 74.1181 99.9407 75.3514 98.0207C77.5314 94.6273 81.1448 93.4007 86.1915 94.3407ZM77.6215 101.151C75.8481 105.757 76.6148 109.864 79.9214 113.471C81.2814 114.957 82.8481 115.624 84.6215 115.471C85.5481 115.391 86.4415 114.954 87.3015 114.161C88.0615 113.461 88.7548 112.697 89.3815 111.871C89.582 111.612 89.6879 111.294 89.6815 110.971C89.6415 108.857 89.2915 106.811 88.6315 104.831C88.0181 102.984 87.1015 101.601 85.8815 100.681C84.4548 99.6007 82.7881 99.034 80.8815 98.9806C79.2815 98.934 78.1948 99.6573 77.6215 101.151Z" fill="#FBBDAE"/>
<path d="M193.202 94.1507C200.162 95.444 203.535 99.724 203.322 106.991C203.195 114.104 199.982 118.931 193.682 121.471C192.755 121.844 192.269 122.407 192.222 123.161C192.209 123.294 192.312 123.594 192.532 124.061C192.719 124.461 192.532 124.764 191.972 124.971L189.972 122.571C189.439 121.931 189.092 122.057 188.932 122.951C187.852 129.071 186.032 134.951 183.472 140.591C181.785 144.291 179.402 147.494 176.322 150.201C174.642 151.674 173.635 151.304 173.302 149.091C173.102 147.771 173.099 146.151 173.292 144.231C173.792 139.151 171.985 135.251 167.872 132.531C164.119 130.051 159.722 129.114 154.682 129.721C152.749 129.954 150.225 131.484 147.112 134.311C146.712 128.731 146.489 123.154 146.442 117.581C146.435 116.667 146.239 115.291 145.852 113.451C145.559 112.044 145.485 110.627 145.632 109.201C146.685 113.074 147.722 115.727 148.742 117.161C149.815 118.661 151.639 119.621 154.212 120.041C162.965 121.447 171.289 121.924 179.182 121.471C181.575 121.331 183.422 120.164 184.722 117.971C186.815 113.097 188.235 108.041 188.982 102.801C188.989 102.741 189.035 101.687 189.122 99.6407C189.235 96.9074 190.595 95.0774 193.202 94.1507ZM191.212 99.9207C189.765 103.887 188.999 108.224 188.912 112.931C188.909 113.13 188.946 113.328 189.021 113.513C189.097 113.699 189.209 113.868 189.352 114.011C191.532 116.204 193.572 116.457 195.472 114.771C196.765 113.624 197.689 112.044 198.242 110.031C199.615 105.071 198.032 101.404 193.492 99.0307C193.287 98.9227 193.06 98.8601 192.829 98.8471C192.597 98.8341 192.365 98.871 192.149 98.9554C191.933 99.0398 191.737 99.1697 191.575 99.3362C191.414 99.5028 191.29 99.7021 191.212 99.9207Z" fill="#FCAE9E"/>
<path d="M127.972 105.721C127.578 106.781 126.835 107.094 125.742 106.661C123.935 105.947 122.642 104.804 121.862 103.231C120.762 101.011 119.022 99.5907 116.642 98.9707C112.962 97.644 109.642 98.2407 106.682 100.761C105.575 100.881 104.705 101.417 104.072 102.371C102.405 104.871 100.252 106.897 97.6118 108.451C98.3451 106.391 99.7218 104.084 101.742 101.531C106.828 95.104 112.992 93.3073 120.232 96.1407C121.318 96.5607 122.545 96.8973 123.912 97.1507C125.018 97.3573 126.098 97.6707 127.152 98.0907C127.299 98.1499 127.431 98.2407 127.538 98.3566C127.645 98.4725 127.725 98.6105 127.772 98.7607C128.485 101.054 128.552 103.374 127.972 105.721Z" fill="#DF6B57"/>
<path d="M161.932 96.7607C160.718 97.8807 160.135 99.2707 160.182 100.931C158.028 103.624 155.938 106.367 153.912 109.161C153.305 109.987 152.872 110.907 152.612 111.921C152.305 113.141 151.912 113.167 151.432 112.001C150.232 109.081 149.792 106.047 150.112 102.901C150.285 101.187 150.968 99.8207 152.162 98.8007C154.828 96.5207 158.085 95.8407 161.932 96.7607Z" fill="#F77E6B"/>
<path d="M160.182 100.931C160.135 99.2707 160.718 97.8806 161.932 96.7606C165.752 95.6806 169.085 96.2507 171.932 98.4707C174.752 100.664 176.998 103.654 178.672 107.441C178.812 107.761 178.745 107.817 178.472 107.611C176.405 106.064 174.732 104.137 173.452 101.831C173.158 101.304 172.882 101.311 172.622 101.851C170.882 105.351 168.172 106.621 164.492 105.661C162.332 105.094 160.895 103.517 160.182 100.931Z" fill="#822528"/>
<path d="M116.642 98.9707C117.462 101.344 117.228 103.284 115.942 104.791C114.775 106.157 113.215 106.801 111.262 106.721C108.575 106.614 107.118 104.864 106.892 101.471C106.952 101.197 106.882 100.961 106.682 100.761C109.642 98.2407 112.962 97.644 116.642 98.9707Z" fill="#67332A"/>
<path d="M127.972 105.721C128.272 105.281 128.662 104.947 129.142 104.721C129.128 108.267 128.398 111.637 126.952 114.831C126.816 115.136 126.59 115.382 126.312 115.531C124.765 116.337 122.472 116.901 119.432 117.221C111.365 118.067 104.615 118.054 99.1817 117.181C96.5217 115.474 95.035 112.987 94.7217 109.721C95.2617 109.341 95.915 109.244 96.6817 109.431C97.075 110.057 97.565 110.144 98.1517 109.691C100.932 107.557 103.362 105.074 105.442 102.241C105.808 101.734 106.292 101.477 106.892 101.471C107.118 104.864 108.575 106.614 111.262 106.721C113.215 106.801 114.775 106.157 115.942 104.791C117.228 103.284 117.462 101.344 116.642 98.9707C119.022 99.5907 120.762 101.011 121.862 103.231C122.642 104.804 123.935 105.947 125.742 106.661C126.835 107.094 127.578 106.781 127.972 105.721Z" fill="#FABBB4"/>
<path d="M191.212 99.9207C191.29 99.7021 191.414 99.5028 191.575 99.3362C191.737 99.1697 191.933 99.0398 192.149 98.9554C192.365 98.871 192.597 98.8341 192.829 98.8471C193.06 98.8601 193.286 98.9227 193.492 99.0307C198.032 101.404 199.615 105.071 198.242 110.031C197.689 112.044 196.765 113.624 195.472 114.771C193.572 116.457 191.532 116.204 189.352 114.011C189.209 113.868 189.097 113.699 189.021 113.513C188.946 113.328 188.908 113.13 188.912 112.931C188.998 108.224 189.765 103.887 191.212 99.9207Z" fill="#F98D7D"/>
<path d="M77.6219 101.151C78.1953 99.6574 79.2819 98.934 80.8819 98.9807C82.7886 99.034 84.4553 99.6007 85.8819 100.681C87.1019 101.601 88.0186 102.984 88.6319 104.831C89.2919 106.811 89.6419 108.857 89.6819 110.971C89.6883 111.294 89.5825 111.612 89.3819 111.871C88.7553 112.697 88.0619 113.461 87.3019 114.161C86.4419 114.954 85.5486 115.391 84.6219 115.471C82.8486 115.624 81.2819 114.957 79.9219 113.471C76.6152 109.864 75.8486 105.757 77.6219 101.151Z" fill="#F4867C"/>
<path d="M106.682 100.761C106.882 100.961 106.952 101.197 106.892 101.471C106.292 101.477 105.808 101.734 105.442 102.241C103.362 105.074 100.932 107.557 98.1516 109.691C97.5649 110.144 97.075 110.057 96.6816 109.431C96.9016 108.944 97.2116 108.617 97.6116 108.451C100.252 106.897 102.405 104.871 104.072 102.371C104.705 101.417 105.575 100.881 106.682 100.761Z" fill="#AE4035"/>
<path d="M144.502 106.191C145.475 107.191 145.852 108.194 145.632 109.201C145.485 110.627 145.558 112.044 145.852 113.451C146.238 115.291 146.435 116.667 146.442 117.581C146.488 123.154 146.712 128.731 147.112 134.311C146.852 135.037 146.078 135.664 144.792 136.191C144.025 126.191 143.928 116.191 144.502 106.191Z" fill="#913C32"/>
<path d="M203.322 106.991C205.968 108.264 208.388 109.784 210.582 111.551C211.135 111.997 213.282 113.854 217.022 117.121C223.122 122.461 228.258 128.647 232.432 135.681C230.638 136.194 229.285 137.437 228.372 139.411C227.265 141.791 226.578 143.787 226.312 145.401C225.745 148.854 225.202 152.314 224.682 155.781C224.095 159.741 223.392 163.161 222.572 166.041C221.165 171.021 219.538 175.927 217.692 180.761C216.125 184.854 215.125 187.747 214.692 189.441C213.985 192.201 213.398 195.211 212.932 198.471C212.538 201.224 213.062 204.021 214.502 206.861C210.362 209.407 207.502 212.997 205.922 217.631L192.532 213.171C189.605 212.857 187.098 212.097 185.012 210.891C182.898 209.671 181.622 208.031 181.182 205.971C180.248 201.631 179.498 198.604 178.932 196.891C196.558 183.571 203.308 165.764 199.182 143.471C198.288 138.657 195.885 132.491 191.972 124.971C192.532 124.764 192.718 124.461 192.532 124.061C192.312 123.594 192.208 123.294 192.222 123.161C192.268 122.407 192.755 121.844 193.682 121.471C199.982 118.931 203.195 114.104 203.322 106.991Z" fill="#BDABBB"/>
<path d="M74.6216 114.111C76.9683 119.531 80.5183 122.691 85.2717 123.591C86.6317 123.851 86.9583 124.577 86.2516 125.771C84.965 127.944 84.3483 130.261 84.4016 132.721C82.7816 139.954 81.875 144.287 81.6816 145.721C78.9416 165.967 85.4383 182.607 101.172 195.641C100.405 198.874 99.6316 202.077 98.8516 205.251C97.7116 209.857 94.6417 212.717 89.6417 213.831L77.1816 219.181C76.7083 217.834 75.9716 217.624 74.9716 218.551C74.933 218.587 74.8862 218.614 74.835 218.628C74.7839 218.643 74.73 218.645 74.678 218.634C74.6259 218.623 74.5773 218.6 74.5361 218.566C74.495 218.533 74.4626 218.49 74.4417 218.441C74.0016 217.434 73.3116 217.084 72.3716 217.391C71.1116 217.804 70.405 218.004 70.2516 217.991C69.3383 217.884 68.7283 217.294 68.4216 216.221C68.0416 214.867 67.7449 213.497 67.5316 212.111C67.2116 210.017 66.5983 208.887 65.6917 208.721C67.725 200.501 66.6583 192.231 62.4916 183.911C58.0916 175.104 55.305 165.004 54.1317 153.611C53.965 151.997 53.7116 150.594 53.3716 149.401C52.9716 148.027 52.535 146.661 52.0616 145.301C51.5216 143.767 50.5616 142.587 49.1816 141.761C55.115 130.161 63.595 120.944 74.6216 114.111Z" fill="#BDABBB"/>
<path d="M99.4317 121.221C105.092 121.861 110.758 121.874 116.432 121.261C116.592 122.374 117.262 122.951 118.442 122.991C118.604 122.994 118.758 123.043 118.873 123.129C118.988 123.214 119.055 123.329 119.062 123.451L119.202 126.661C119.208 126.788 119.15 126.914 119.042 127.011C118.934 127.108 118.783 127.169 118.622 127.181C113.908 127.494 109.782 129.207 106.242 132.321C105.992 132.545 105.679 132.663 105.372 132.651L94.6817 132.251C94.5343 132.245 94.3915 132.193 94.2719 132.102C94.1524 132.011 94.0617 131.885 94.0117 131.741C92.7783 128.201 92.105 124.544 91.9917 120.771C91.987 120.64 92.0192 120.512 92.0855 120.399C92.1517 120.286 92.2497 120.191 92.3704 120.123C92.4912 120.055 92.6307 120.016 92.776 120.011C92.9213 120.005 93.0678 120.033 93.2017 120.091L98.3917 122.301C98.5386 122.364 98.7024 122.375 98.8566 122.333C99.0109 122.292 99.1465 122.199 99.2417 122.071C99.4017 121.837 99.465 121.554 99.4317 121.221Z" fill="#FDA493"/>
<path d="M191.972 124.971C195.885 132.491 198.289 138.657 199.182 143.471C203.309 165.764 196.559 183.571 178.932 196.891L176.182 199.011C163.155 207.717 148.905 211.121 133.432 209.221C122.299 207.854 112.062 203.771 102.722 196.971L101.172 195.641C85.4385 182.607 78.9419 165.967 81.6819 145.721C81.8752 144.287 82.7818 139.954 84.4018 132.721L89.1119 123.261C89.6852 122.107 90.1252 122.174 90.4319 123.461C91.3119 127.167 92.3119 130.837 93.4319 134.471C95.8252 142.244 100.265 148.561 106.752 153.421C107.665 154.101 107.959 153.894 107.632 152.801C106.632 149.447 106.152 146.021 106.192 142.521C106.225 139.447 106.772 137.011 107.832 135.211C109.199 132.911 111.279 131.264 114.072 130.271C117.105 129.197 120.332 128.861 123.752 129.261C125.105 129.414 125.995 130.141 126.422 131.441C127.789 135.627 130.702 138.164 135.162 139.051C139.062 139.831 142.272 138.877 144.792 136.191C146.079 135.664 146.852 135.037 147.112 134.311C150.225 131.484 152.749 129.954 154.682 129.721C159.722 129.114 164.119 130.051 167.872 132.531C171.985 135.251 173.792 139.151 173.292 144.231C173.099 146.151 173.102 147.771 173.302 149.091C173.635 151.304 174.642 151.674 176.322 150.201C179.402 147.494 181.785 144.291 183.472 140.591C186.032 134.951 187.852 129.071 188.932 122.951C189.092 122.057 189.439 121.931 189.972 122.571L191.972 124.971ZM117.692 142.721C118.179 147.554 120.515 151.567 124.702 154.761C126.202 155.901 127.462 155.677 128.482 154.091C129.309 152.811 130.449 151.767 131.902 150.961C133.002 150.347 134.455 149.997 136.262 149.911C139.362 149.751 142.239 149.684 144.892 149.711C146.299 149.724 147.435 150.281 148.302 151.381C151.049 154.861 153.792 155.897 156.532 154.491C158.252 153.604 159.799 151.751 161.172 148.931C162.499 146.191 163.475 143.207 164.102 139.981C164.282 139.041 163.949 138.794 163.102 139.241C160.275 140.714 157.369 142.187 154.382 143.661C149.022 146.294 146.092 147.691 145.592 147.851C142.045 149.011 138.329 149.037 134.442 147.931C129.835 146.611 125.229 144.144 120.622 140.531C119.369 139.551 118.479 139.591 117.952 140.651C117.692 141.164 117.605 141.854 117.692 142.721ZM197.573 147.794C197.641 147.692 197.665 147.568 197.641 147.448C197.617 147.329 197.546 147.224 197.444 147.156L192.13 143.626C192.029 143.558 191.905 143.534 191.785 143.558C191.665 143.582 191.56 143.653 191.493 143.754L191.471 143.787C191.403 143.889 191.379 144.013 191.403 144.133C191.427 144.253 191.498 144.358 191.599 144.425L196.913 147.956C197.015 148.023 197.139 148.048 197.259 148.024C197.378 147.999 197.483 147.929 197.551 147.827L197.573 147.794ZM193.742 152.411C192.915 152.011 191.442 150.821 189.322 148.841C188.002 147.607 187.852 147.754 188.872 149.281C189.459 150.161 191.339 151.634 194.512 153.701C194.879 153.934 194.999 153.861 194.872 153.481C194.725 153.054 194.349 152.697 193.742 152.411Z" fill="#251124"/>
<path d="M232.432 135.681C233.352 135.561 233.998 135.844 234.372 136.531C235.645 138.897 236.488 141.461 236.902 144.221C237.142 145.861 237.285 148.527 237.332 152.221C237.445 161.494 235.978 170.411 232.932 178.971C230.638 185.411 227.645 191.787 223.952 198.101C222.158 201.174 221.195 202.804 221.062 202.991C219.855 204.737 218.458 206.044 216.872 206.911C215.898 207.437 215.108 207.421 214.502 206.861C213.062 204.021 212.538 201.224 212.932 198.471C213.398 195.211 213.985 192.201 214.692 189.441C215.125 187.747 216.125 184.854 217.692 180.761C219.538 175.927 221.165 171.021 222.572 166.041C223.392 163.161 224.095 159.741 224.682 155.781C225.202 152.314 225.745 148.854 226.312 145.401C226.578 143.787 227.265 141.791 228.372 139.411C229.285 137.437 230.638 136.194 232.432 135.681Z" fill="#737198"/>
<path d="M117.952 140.651C118.478 139.591 119.368 139.551 120.622 140.531C125.228 144.144 129.835 146.611 134.442 147.931C138.328 149.037 142.045 149.011 145.592 147.851C146.092 147.691 149.022 146.294 154.382 143.661C157.368 142.187 160.275 140.714 163.102 139.241C163.948 138.794 164.282 139.041 164.102 139.981C163.475 143.207 162.498 146.191 161.172 148.931C159.798 151.751 158.252 153.604 156.532 154.491C153.792 155.897 151.048 154.861 148.302 151.381C147.435 150.281 146.298 149.724 144.892 149.711C142.238 149.684 139.362 149.751 136.262 149.911C134.455 149.997 133.002 150.347 131.902 150.961C130.448 151.767 129.308 152.811 128.482 154.091C127.462 155.677 126.202 155.901 124.702 154.761C120.515 151.567 118.178 147.554 117.692 142.721C117.605 141.854 117.692 141.164 117.952 140.651Z" fill="#EB8075"/>
<path d="M49.1814 141.761C50.5614 142.587 51.5215 143.767 52.0615 145.301C52.5348 146.661 52.9714 148.027 53.3714 149.401C53.7114 150.594 53.9648 151.997 54.1315 153.611C55.3048 165.004 58.0914 175.104 62.4914 183.911C66.6581 192.231 67.7248 200.501 65.6915 208.721C64.3648 209.261 63.4248 209.361 62.8714 209.021C60.7581 207.707 59.0214 206.004 57.6614 203.911C54.4681 198.984 51.5981 193.867 49.0514 188.561C42.2914 174.487 40.8348 159.957 44.6814 144.971C45.2614 142.717 46.7614 141.647 49.1814 141.761Z" fill="#737198"/>
<path d="M197.444 147.156L192.13 143.626C191.919 143.485 191.633 143.543 191.493 143.754L191.47 143.787C191.33 143.999 191.387 144.285 191.599 144.425L196.913 147.956C197.125 148.096 197.41 148.039 197.551 147.827L197.573 147.794C197.713 147.582 197.656 147.297 197.444 147.156Z" fill="#51475F"/>
<path d="M193.742 152.411C194.348 152.697 194.725 153.054 194.872 153.481C194.998 153.861 194.878 153.934 194.512 153.701C191.338 151.634 189.458 150.161 188.872 149.281C187.852 147.754 188.002 147.607 189.322 148.841C191.442 150.821 192.915 152.011 193.742 152.411Z" fill="#51475F"/>
<path d="M247.925 195.266C250.39 194.994 252.19 192.976 251.945 190.758C251.7 188.54 249.503 186.963 247.039 187.235C244.574 187.507 242.774 189.526 243.019 191.743C243.264 193.961 245.46 195.538 247.925 195.266Z" fill="#8C87A7"/>
<path d="M101.172 195.641L102.722 196.971L102.502 197.981C102.471 198.123 102.481 198.275 102.532 198.42C102.583 198.566 102.673 198.7 102.792 198.811C104.625 200.551 107.318 202.957 110.872 206.031C120.558 214.431 131.392 218.104 143.372 217.051C149.105 216.544 154.805 214.904 160.472 212.131C165.892 209.484 170.855 206.071 175.362 201.891C175.428 201.831 175.702 201.621 176.182 201.261C176.988 200.674 176.988 199.924 176.182 199.011L178.932 196.891C179.498 198.604 180.248 201.631 181.182 205.971C181.622 208.031 182.898 209.671 185.012 210.891C187.098 212.097 189.605 212.857 192.532 213.171C190.092 226.071 184.248 236.944 175.002 245.791C169.655 250.911 163.625 254.624 156.912 256.931C150.678 259.071 144.102 259.784 137.182 259.071C124.748 257.797 114.018 252.327 104.992 242.661C97.2182 234.334 92.1016 224.724 89.6416 213.831C94.6416 212.717 97.7116 209.857 98.8516 205.251C99.6316 202.077 100.405 198.874 101.172 195.641ZM134.282 253.721C134.4 253.801 134.537 253.851 134.68 253.865C134.822 253.88 134.966 253.859 135.099 253.805C135.231 253.75 135.349 253.664 135.44 253.553C135.531 253.443 135.593 253.311 135.622 253.171C136.002 251.204 136.178 249.221 136.152 247.221C136.092 242.221 136.205 236.831 136.492 231.051C136.537 230.088 136.243 229.139 135.662 228.371C135.115 227.637 134.485 227.627 133.772 228.341C133.553 228.553 133.424 228.869 133.412 229.221C133.045 236.867 133.075 244.514 133.502 252.161C133.542 252.874 133.802 253.394 134.282 253.721Z" fill="#FCBFAF"/>
<path d="M102.722 196.971C112.062 203.771 122.298 207.854 133.432 209.221C148.905 211.121 163.155 207.717 176.182 199.011C176.988 199.924 176.988 200.674 176.182 201.261C175.702 201.621 175.428 201.831 175.362 201.891C170.855 206.071 165.892 209.484 160.472 212.131C154.805 214.904 149.105 216.544 143.372 217.051C131.392 218.104 120.558 214.431 110.872 206.031C107.318 202.957 104.625 200.551 102.792 198.811C102.673 198.7 102.583 198.566 102.532 198.42C102.481 198.275 102.471 198.123 102.502 197.981L102.722 196.971Z" fill="#F1847B"/>
<path d="M205.921 217.631C207.681 219.304 209.935 220.514 212.681 221.261C212.641 222.341 212.318 223.334 211.711 224.241C211.065 225.221 211.255 226.314 212.281 227.521C212.386 227.645 212.521 227.742 212.673 227.802C212.825 227.861 212.989 227.882 213.151 227.862C213.313 227.843 213.467 227.783 213.6 227.688C213.733 227.593 213.84 227.467 213.911 227.321C214.891 225.341 216.495 224.224 218.721 223.971C219.581 225.431 220.901 226.027 222.681 225.761C221.755 227.181 221.255 228.751 221.181 230.471C221.075 232.944 221.805 233.507 223.371 232.161C225.005 230.747 226.371 229.101 227.471 227.221L244.071 236.901C220.638 262.641 191.908 277.611 157.881 281.811C151.188 282.637 144.538 282.961 137.931 282.781C117.071 282.207 97.3848 277.291 78.8715 268.031C64.4515 260.817 51.4182 251.117 39.7715 238.931C45.4915 235.284 51.1681 231.937 56.8015 228.891C57.9148 228.284 58.7448 228.014 59.2914 228.081C60.8448 228.267 62.1148 227.757 63.1014 226.551C64.4414 224.897 65.9315 223.847 67.5715 223.401C69.4048 222.907 70.5448 222.544 70.9915 222.311C73.0448 221.237 75.1081 220.194 77.1815 219.181L89.6415 213.831C92.1015 224.724 97.2181 234.334 104.991 242.661C114.018 252.327 124.748 257.797 137.181 259.071C144.101 259.784 150.678 259.071 156.911 256.931C163.625 254.624 169.655 250.911 175.001 245.791C184.248 236.944 190.091 226.071 192.531 213.171L205.921 217.631ZM197.701 236.741C192.628 243.841 188.095 250.724 184.101 257.391C183.575 258.271 183.268 259.214 183.181 260.221C183.075 261.454 183.555 261.601 184.621 260.661C186.188 259.267 187.531 257.694 188.651 255.941C190.185 253.534 190.975 252.301 191.021 252.241C194.288 247.534 197.105 242.567 199.471 237.341C200.111 235.934 199.851 235.471 198.691 235.951C198.299 236.114 197.956 236.387 197.701 236.741ZM90.3715 253.781C90.8181 254.314 91.1414 254.257 91.3414 253.611C91.4148 253.377 91.4015 253.121 91.3015 252.841C90.6815 251.074 89.8281 249.431 88.7415 247.911C86.5215 244.817 84.2315 241.774 81.8715 238.781C80.9515 237.607 79.7981 236.751 78.4114 236.211C77.7114 235.937 77.5615 236.121 77.9615 236.761C81.6882 242.714 85.8248 248.387 90.3715 253.781ZM81.2673 258.066C81.4341 257.939 81.0699 257.127 80.2548 255.808C79.4396 254.489 78.2404 252.772 76.9208 251.033C76.2673 250.172 75.6039 249.332 74.9686 248.561C74.3332 247.789 73.7383 247.102 73.2178 246.537C72.6973 245.973 72.2614 245.543 71.935 245.271C71.6086 245 71.3981 244.892 71.3156 244.955C71.1488 245.082 71.513 245.894 72.3281 247.213C73.1433 248.532 74.3426 250.25 75.6622 251.988C76.3157 252.849 76.979 253.689 77.6144 254.461C78.2497 255.232 78.8446 255.92 79.3651 256.484C79.8856 257.048 80.3215 257.479 80.6479 257.75C80.9743 258.022 81.1848 258.129 81.2673 258.066ZM208.246 246.62C208.386 246.394 208.43 246.122 208.369 245.864C208.308 245.606 208.147 245.383 207.921 245.243L207.887 245.222C207.661 245.083 207.389 245.039 207.131 245.1C206.873 245.161 206.65 245.322 206.511 245.548L198.177 259.042C198.037 259.267 197.993 259.539 198.054 259.797C198.115 260.055 198.276 260.279 198.502 260.418L198.536 260.439C198.762 260.578 199.033 260.622 199.292 260.561C199.55 260.5 199.773 260.339 199.912 260.114L208.246 246.62ZM171.481 271.201C173.295 271.287 173.861 270.211 173.181 267.971C172.688 266.357 171.668 266.254 170.121 267.661C169.035 268.647 168.828 269.537 169.501 270.331C169.955 270.864 170.615 271.154 171.481 271.201ZM110.386 271.893C110.518 272.021 110.679 272.117 110.859 272.175C111.039 272.233 111.235 272.253 111.436 272.233C111.636 272.212 111.838 272.153 112.028 272.057C112.219 271.961 112.395 271.832 112.547 271.675C112.699 271.518 112.823 271.338 112.912 271.145C113.002 270.951 113.055 270.748 113.069 270.547C113.083 270.346 113.057 270.15 112.993 269.972C112.93 269.794 112.829 269.637 112.697 269.509C112.565 269.381 112.404 269.285 112.224 269.227C112.044 269.168 111.848 269.149 111.647 269.169C111.447 269.189 111.245 269.249 111.055 269.344C110.864 269.44 110.688 269.57 110.536 269.726C110.384 269.883 110.26 270.063 110.17 270.257C110.081 270.45 110.028 270.654 110.014 270.855C110 271.056 110.025 271.251 110.089 271.429C110.153 271.607 110.254 271.765 110.386 271.893Z" fill="#E55B55"/>
<path d="M212.682 221.261C215.222 221.074 217.235 221.977 218.722 223.971C216.495 224.224 214.892 225.341 213.912 227.321C213.84 227.467 213.733 227.593 213.6 227.688C213.467 227.783 213.313 227.843 213.151 227.862C212.989 227.882 212.825 227.861 212.673 227.802C212.521 227.742 212.387 227.645 212.282 227.521C211.255 226.314 211.065 225.221 211.712 224.241C212.318 223.334 212.642 222.341 212.682 221.261Z" fill="#CE413E"/>
<path d="M222.682 225.761C224.502 225.541 226.098 226.027 227.472 227.221C226.372 229.101 225.005 230.747 223.372 232.161C221.805 233.507 221.075 232.944 221.182 230.471C221.255 228.751 221.755 227.181 222.682 225.761Z" fill="#CE413E"/>
<path d="M134.281 253.721C133.801 253.394 133.541 252.874 133.501 252.161C133.075 244.514 133.045 236.867 133.411 229.221C133.424 228.869 133.553 228.553 133.771 228.341C134.485 227.627 135.115 227.637 135.661 228.371C136.243 229.139 136.537 230.088 136.491 231.051C136.205 236.831 136.091 242.221 136.151 247.221C136.178 249.221 136.001 251.204 135.621 253.171C135.593 253.311 135.531 253.443 135.44 253.553C135.348 253.664 135.231 253.75 135.099 253.805C134.966 253.859 134.822 253.88 134.68 253.865C134.537 253.851 134.4 253.801 134.281 253.721Z" fill="#FB9684"/>
<path d="M197.702 236.741C197.957 236.387 198.299 236.114 198.692 235.951C199.852 235.471 200.112 235.934 199.472 237.341C197.105 242.567 194.288 247.534 191.022 252.241C190.975 252.301 190.185 253.534 188.652 255.941C187.532 257.694 186.188 259.267 184.622 260.661C183.555 261.601 183.075 261.454 183.182 260.221C183.268 259.214 183.575 258.271 184.102 257.391C188.095 250.724 192.628 243.841 197.702 236.741Z" fill="#CE413E"/>
<path d="M90.3718 253.781C85.8252 248.387 81.6885 242.714 77.9618 236.761C77.5618 236.121 77.7118 235.937 78.4118 236.211C79.7985 236.751 80.9518 237.607 81.8718 238.781C84.2318 241.774 86.5218 244.817 88.7418 247.911C89.8285 249.431 90.6818 251.074 91.3018 252.841C91.4018 253.121 91.4151 253.377 91.3418 253.611C91.1418 254.257 90.8185 254.314 90.3718 253.781Z" fill="#CF4945"/>
<path d="M75.6626 251.988C78.4107 255.609 80.9202 258.33 81.2678 258.066C81.6153 257.802 79.6692 254.654 76.9212 251.033C74.1731 247.413 71.6636 244.691 71.3161 244.955C70.9685 245.219 72.9146 248.368 75.6626 251.988Z" fill="#CF4945"/>
<path d="M207.921 245.243L207.887 245.222C207.417 244.932 206.801 245.078 206.511 245.548L198.177 259.042C197.886 259.512 198.032 260.128 198.502 260.418L198.536 260.439C199.006 260.729 199.622 260.583 199.912 260.114L208.246 246.62C208.537 246.15 208.391 245.534 207.921 245.243Z" fill="#CF4945"/>
<path d="M169.502 270.331C168.828 269.537 169.035 268.647 170.122 267.661C171.668 266.254 172.688 266.357 173.182 267.971C173.862 270.211 173.295 271.287 171.482 271.201C170.615 271.154 169.955 270.864 169.502 270.331Z" fill="#C54E3A"/>
<path d="M110.536 269.726C109.898 270.385 109.831 271.355 110.386 271.893C110.942 272.431 111.909 272.333 112.547 271.675C113.185 271.017 113.252 270.047 112.697 269.509C112.142 268.97 111.174 269.068 110.536 269.726Z" fill="#B93334"/>
</svg>
