<svg width="278" height="281" viewBox="0 0 278 281" fill="none" xmlns="http://www.w3.org/2000/svg">
<path d="M28.2017 224.821C33.6883 231.714 39.515 238.264 45.6817 244.471C45.8008 244.589 45.9514 244.67 46.1148 244.704C46.2783 244.737 46.4476 244.723 46.6017 244.661C54.2684 241.594 61.975 238.651 69.7217 235.831C72.615 234.771 74.0183 235.817 73.9317 238.971C73.8517 241.831 73.8717 250.307 73.9917 264.401C73.9912 264.557 74.0348 264.71 74.1167 264.838C74.1986 264.966 74.3152 265.065 74.4517 265.121L92.6917 272.741C92.7783 272.777 92.8726 272.791 92.966 272.781C93.0595 272.771 93.1493 272.738 93.2274 272.685C93.3056 272.631 93.3697 272.559 93.414 272.475C93.4584 272.39 93.4816 272.296 93.4817 272.201C93.8283 253.527 93.815 235.034 93.4417 216.721C93.4391 216.562 93.3905 216.411 93.3037 216.29C93.2169 216.169 93.0967 216.085 92.9617 216.051L86.1717 214.221C85.9586 214.163 85.7592 214.063 85.5871 213.928C85.415 213.793 85.2742 213.626 85.1745 213.438C85.0747 213.25 85.0184 213.045 85.0092 212.839C85.0001 212.632 85.0385 212.428 85.1217 212.241C87.7817 206.201 91.0817 200.401 95.0217 194.841C96.1817 193.201 97.9217 192.891 100.242 193.911C103.608 195.384 107.002 196.874 110.422 198.381" stroke="#FEC8A3" stroke-width="2"/>
<path d="M110.422 198.381L123.642 204.721" stroke="#FEDDD5" stroke-width="2"/>
<path d="M123.642 204.721C125.368 215.214 127.402 223.944 129.742 230.911C131.668 236.644 134.755 243.127 139.002 250.361" stroke="#FAC1BB" stroke-width="2"/>
<path d="M139.002 250.361C138.355 259.294 138.158 268.201 138.412 277.081C138.412 277.134 138.395 277.557 138.362 278.351C138.308 279.637 138.925 280.071 140.212 279.651C140.518 279.551 140.842 279.511 141.182 279.531C141.695 279.564 142.185 279.504 142.652 279.351C142.789 279.304 142.908 279.213 142.992 279.089C143.077 278.965 143.122 278.815 143.122 278.661C143.195 270.767 143.215 262.871 143.182 254.971C143.175 252.817 142.912 251.067 142.392 249.721" stroke="#FBC5A1" stroke-width="2"/>
<path d="M142.392 249.721L142.722 249.221" stroke="#FAC1BB" stroke-width="2"/>
<path d="M142.722 249.221C146.082 244.587 148.718 239.567 150.632 234.161C153.958 224.801 155.875 215.437 156.382 206.071C156.462 204.691 157.162 203.681 158.482 203.041L173.432 195.761" stroke="#FEDDD5" stroke-width="2"/>
<path d="M173.432 195.761L178.942 193.901C179.395 193.747 179.88 193.736 180.328 193.869C180.776 194.003 181.163 194.273 181.432 194.641C185.985 200.861 189.828 207.154 192.962 213.521C193.032 213.667 193.066 213.825 193.061 213.981C193.056 214.137 193.011 214.285 192.932 214.411C192.185 215.584 191.038 216.151 189.492 216.111C187.338 216.064 186.348 216.907 186.522 218.641C186.628 219.674 186.682 220.231 186.682 220.311C186.762 237.511 186.702 254.664 186.502 271.771C186.501 271.852 186.521 271.933 186.558 272.005C186.595 272.077 186.649 272.139 186.714 272.185C186.78 272.23 186.855 272.259 186.933 272.267C187.011 272.275 187.09 272.262 187.162 272.231L205.762 264.081C206.035 263.962 206.268 263.76 206.432 263.499C206.595 263.237 206.682 262.929 206.682 262.611C206.682 256.451 206.682 250.457 206.682 244.631C206.682 241.857 206.688 240.421 206.702 240.321C206.988 238.061 208.215 237.004 210.382 237.151C211.308 237.211 212.965 237.734 215.352 238.721C220.305 240.761 225.338 242.797 230.452 244.831C230.637 244.903 230.839 244.919 231.034 244.878C231.229 244.837 231.409 244.741 231.552 244.601C238.592 237.574 245.122 229.957 251.142 221.751" stroke="#FEC8A3" stroke-width="2"/>
<path d="M251.142 221.751C259.408 210.364 265.568 198.084 269.622 184.911C279.728 152.011 278.695 119.867 266.522 88.4807C264.055 82.1407 261.192 76.1307 257.932 70.4507C245.585 48.9707 228.505 31.9041 206.692 19.2508C187.512 8.11742 166.092 2.10739 142.432 1.22073C126.038 0.607392 110.288 2.85739 95.1816 7.97073C69.8549 16.5441 48.8883 31.0741 32.2816 51.5608C28.1216 56.6808 24.3416 62.164 20.9416 68.0107C6.05495 93.604 -0.365061 121.507 1.68161 151.721C3.50161 178.587 12.3416 202.954 28.2016 224.821" stroke="#DFD6DE" stroke-width="2"/>
<path d="M251.142 221.751C247.735 220.377 245.189 218.297 243.502 215.511C242.322 213.564 242.012 211.617 242.572 209.671C243.172 207.577 244.469 205.851 246.462 204.491C249.455 202.457 251.878 199.951 253.732 196.971C255.098 194.777 255.888 192.621 256.102 190.501C256.342 188.067 255.952 185.724 254.932 183.471C253.872 181.131 252.399 178.997 250.512 177.071C250.125 176.684 248.092 175.124 244.412 172.391C242.758 171.164 241.215 169.811 239.782 168.331C238.515 167.031 237.828 165.741 237.722 164.461C237.568 162.647 238.242 161.171 239.742 160.031C245.282 155.844 248.512 150.707 249.432 144.621C249.999 140.934 249.592 137.574 248.212 134.541C246.732 131.274 244.338 128.624 241.032 126.591C236.338 123.717 231.669 120.797 227.022 117.831C219.769 113.211 216.075 106.844 215.942 98.7307C215.909 96.7441 216.289 93.9307 217.082 90.2907C217.682 87.5174 218.295 84.744 218.922 81.9707C220.095 76.7707 220.475 71.5174 220.062 66.2107C219.262 56.0507 215.422 47.2707 208.542 39.8707C202.555 33.4307 195.102 30.1341 186.182 29.9807C185.189 29.9607 184.235 29.9574 183.322 29.9707C183.191 29.971 183.061 29.9424 182.944 29.887C182.826 29.8317 182.723 29.7509 182.642 29.6507C177.609 23.6307 171.742 19.3107 165.042 16.6907C160.208 14.804 153.855 13.9074 145.982 14.0007C132.535 14.1607 119.425 16.2907 106.652 20.3907C99.5585 22.664 93.4852 25.374 88.4318 28.5207C73.4852 37.8274 63.4718 51.374 58.3918 69.1607C55.9318 77.7607 55.6352 86.3974 57.5018 95.0707C57.5152 95.1107 57.9052 96.4874 58.6718 99.2007C60.0052 103.894 59.7052 108.351 57.7718 112.571C56.7652 114.777 55.2185 116.791 53.1319 118.611C51.4985 120.037 49.4518 121.594 46.9918 123.281C42.2185 126.561 39.2185 128.894 37.9918 130.281C34.9052 133.787 33.3852 137.684 33.4318 141.971C33.5052 148.304 36.1185 153.521 41.2718 157.621C43.6985 159.547 45.0852 160.914 45.4318 161.721C46.3118 163.774 46.2085 165.754 45.1218 167.661C44.6418 168.501 43.0952 169.871 40.4818 171.771C38.2752 173.384 36.2052 175.151 34.2718 177.071C32.0518 179.271 30.4618 181.444 29.5018 183.591C26.6752 189.911 27.9452 195.831 33.3118 201.351C34.5452 202.624 35.8485 203.821 37.2218 204.941C41.1952 208.181 42.1085 211.464 39.9618 214.791C39.2752 215.857 37.3618 217.571 34.2218 219.931C32.1552 221.484 30.1485 223.114 28.2018 224.821" stroke="#DFA083" stroke-width="2"/>
<path d="M173.432 195.761C172.345 193.647 172.025 191.384 172.472 188.971" stroke="#FDA77A" stroke-width="2"/>
<path d="M172.472 188.971C181.265 185.691 187.648 179.827 191.622 171.381" stroke="#E1743E" stroke-width="2"/>
<path d="M191.622 171.381C192.755 170.974 194.015 170.557 195.402 170.131C197.055 169.624 196.918 168.957 194.992 168.131" stroke="#F9C095" stroke-width="2"/>
<path d="M194.992 168.131C197.878 166.091 200.832 164.121 203.852 162.221C205.845 160.961 207.248 159.631 208.062 158.231C209.582 155.604 210.348 152.654 210.362 149.381" stroke="#E1743E" stroke-width="2"/>
<path d="M210.362 149.381C210.762 149.814 211.452 150.177 212.432 150.471C214.172 150.984 214.655 150.564 213.882 149.211C213.708 148.904 213.615 148.594 213.602 148.281C213.302 142.747 211.098 138.121 206.992 134.401" stroke="#FC9C52" stroke-width="2"/>
<path d="M206.992 134.401C205.145 130.727 202.122 128.914 197.922 128.961C197.591 128.961 197.278 128.859 197.032 128.671L196.182 128.011" stroke="#E1743E" stroke-width="2"/>
<path d="M196.182 128.011C195.382 127.724 194.895 128.127 194.722 129.221" stroke="#F9C095" stroke-width="2"/>
<path d="M194.722 129.221C193.962 127.061 193.758 124.611 194.112 121.871" stroke="#E1743E" stroke-width="2"/>
<path d="M194.112 121.871L196.332 123.621C196.453 123.714 196.598 123.777 196.756 123.804C196.914 123.832 197.08 123.824 197.242 123.781C204.002 121.974 206.765 117.464 205.532 110.251C204.432 103.851 200.622 100.591 194.102 100.471C193.889 100.468 193.684 100.395 193.517 100.263C193.351 100.131 193.233 99.947 193.182 99.7407C192.389 96.414 191.319 93.1906 189.972 90.0706C188.759 87.244 188.135 85.7907 188.102 85.7107C183.155 73.644 177.492 61.9107 171.112 50.5107C170.352 49.1573 169.412 49.0207 168.292 50.1007C159.845 58.3007 150.059 64.5073 138.932 68.7207C133.079 70.9407 125.712 72.824 116.832 74.3707C116.772 74.3774 114.332 74.6874 109.512 75.3007C106.705 75.654 103.409 76.274 99.6219 77.1607C91.5086 79.054 87.2786 84.0707 86.9319 92.2107C86.7919 95.5507 86.5919 98.8907 86.3319 102.231C86.2119 103.797 85.7452 104.114 84.9319 103.181C84.6852 102.894 84.4286 102.704 84.1619 102.611C81.5819 101.671 79.1485 101.624 76.8619 102.471C74.7619 103.251 73.0919 104.737 71.8519 106.931C70.7052 108.971 70.0752 111.234 69.9619 113.721C69.7152 119.381 72.4886 122.931 78.2819 124.371C78.4315 124.407 78.5879 124.406 78.7366 124.365C78.8852 124.325 79.0213 124.248 79.1319 124.141C80.5319 122.794 82.1419 121.791 83.9619 121.131C84.0972 121.081 84.2451 121.081 84.3777 121.131C84.5104 121.181 84.6186 121.277 84.6819 121.401C85.2686 122.487 85.4219 123.677 85.1419 124.971" stroke="#FDA87C" stroke-width="2"/>
<path d="M85.1416 124.971C83.795 125.197 82.8083 125.804 82.1816 126.791" stroke="#E3753C" stroke-width="2"/>
<path d="M82.1817 126.791C81.8151 125.324 81.3051 124.981 80.6517 125.761C80.5588 125.872 80.4397 125.96 80.3042 126.018C80.1687 126.075 80.0205 126.1 79.8717 126.091C78.9251 126.024 78.4851 126.461 78.5517 127.401C78.5709 127.772 78.5117 128.103 78.3818 128.351C75.6284 133.624 73.6684 139.174 72.5017 145.001C72.4284 145.361 72.2484 145.757 71.9617 146.191C71.4151 147.024 71.5717 147.517 72.4317 147.671C72.5695 147.697 72.6944 147.765 72.7868 147.864C72.8792 147.964 72.9337 148.089 72.9417 148.221C73.0017 149.467 73.3951 150.554 74.1217 151.481" stroke="#FC9B5F" stroke-width="2"/>
<path d="M74.1216 151.481C74.9016 156.201 76.7349 160.384 79.6216 164.031C81.2616 166.104 83.4349 167.167 86.1416 167.221" stroke="#E3753C" stroke-width="2"/>
<path d="M86.1416 167.221C87.8749 170.961 90.2916 171.461 93.3916 168.721" stroke="#F9C095" stroke-width="2"/>
<path d="M93.3916 168.721C95.2783 173.761 97.3949 178.074 99.7416 181.661C102.135 185.301 105.602 187.737 110.142 188.971" stroke="#E3753C" stroke-width="2"/>
<path d="M110.142 188.971C110.668 192.011 110.762 195.147 110.422 198.381" stroke="#FDA77A" stroke-width="2"/>
<path d="M196.182 128.011C193.022 138.324 190.315 148.754 188.062 159.301C187.548 161.687 187.505 163.494 187.932 164.721C189.118 168.141 191.472 169.277 194.992 168.131" stroke="#DDA38B" stroke-width="2"/>
<path d="M194.722 129.221C190.282 140.267 187.268 150.851 185.682 160.971C184.942 165.691 186.922 169.161 191.622 171.381" stroke="#DDA38B" stroke-width="2"/>
<path d="M172.472 188.971L172.142 163.441" stroke="#E18A6F" stroke-width="2"/>
<path d="M172.142 163.441C172.395 162.641 172.242 161.997 171.682 161.511" stroke="#DD6F58" stroke-width="2"/>
<path d="M142.722 249.221C141.128 245.261 139.968 242.574 139.242 241.161C136.802 236.401 135.012 231.411 133.872 226.191C133.405 224.064 133.342 221.491 133.682 218.471C134.128 214.477 132.982 210.791 130.242 207.411C128.788 205.611 126.588 204.714 123.642 204.721" stroke="#F9A091" stroke-width="2"/>
<path d="M194.112 121.871C192.665 125.851 191.225 129.804 189.792 133.731C187.978 138.691 186.285 142.534 184.712 145.261C181.225 151.301 176.882 156.717 171.682 161.511" stroke="#E18B71" stroke-width="2"/>
<path d="M171.682 161.511C166.795 165.184 162.775 167.817 159.622 169.411C141.335 178.617 124.832 176.251 110.112 162.311" stroke="#F9A296" stroke-width="2"/>
<path d="M110.112 162.311C106.299 158.891 103.175 155.674 100.742 152.661C96.1952 147.014 92.6952 140.431 90.2419 132.911C88.7686 128.384 87.9986 124.351 87.9319 120.811C87.9319 120.544 87.8986 120.324 87.8319 120.151C87.5652 119.464 87.2652 119.571 86.9319 120.471C86.4652 121.724 86.6186 124.974 87.3919 130.221" stroke="#E38B6F" stroke-width="2"/>
<path d="M87.3916 130.221L85.6416 131.221" stroke="#F9D6C9" stroke-width="2"/>
<path d="M85.6416 131.221L85.1416 124.971" stroke="#E38B6F" stroke-width="2"/>
<path d="M206.992 134.401C209.305 139.294 210.428 144.287 210.362 149.381" stroke="#E07F48" stroke-width="2"/>
<path d="M110.112 162.311C109.425 163.477 109.389 164.254 110.002 164.641" stroke="#DE6F56" stroke-width="2"/>
<path d="M110.002 164.641L110.142 188.971" stroke="#E38A6D" stroke-width="2"/>
<path d="M93.3916 168.721C94.4716 164.647 94.4983 160.561 93.4716 156.461C91.2783 147.754 89.2516 139.007 87.3916 130.221" stroke="#DEA389" stroke-width="2"/>
<path d="M85.6416 131.221C87.5949 141.214 89.1916 148.714 90.4316 153.721C91.3649 157.507 91.8649 161.141 91.9316 164.621C91.9516 165.754 91.7716 166.614 91.3916 167.201C90.6716 168.334 89.6016 168.424 88.1816 167.471C87.4349 166.971 86.7549 166.887 86.1416 167.221" stroke="#DEA389" stroke-width="2"/>
<path d="M74.1216 151.481C75.0549 142.714 77.7416 134.484 82.1816 126.791" stroke="#E17F52" stroke-width="2"/>
<path d="M172.142 163.441C171.415 165.327 170.442 167.014 169.222 168.501C166.929 171.281 164.502 173.941 161.942 176.481C157.995 180.414 153.495 183.211 148.442 184.871C143.202 186.597 138.149 186.901 133.282 185.781C128.042 184.574 123.492 181.824 119.632 177.531C117.625 175.297 115.639 173.044 113.672 170.771C112.872 169.844 112.195 168.861 111.642 167.821C111.082 166.774 110.535 165.714 110.002 164.641" stroke="#F9A194" stroke-width="2"/>
<path d="M142.392 249.721C141.445 250.387 140.315 250.601 139.002 250.361" stroke="#F7885E" stroke-width="2"/>
<path d="M27.0837 105.516C27.586 105.724 28.1439 105.784 28.7254 105.692C29.307 105.601 29.9009 105.36 30.4732 104.983C31.0455 104.605 31.585 104.1 32.0609 103.495C32.5368 102.889 32.9398 102.196 33.2468 101.455C33.5539 100.714 33.759 99.9387 33.8504 99.1742C33.9419 98.4097 33.9179 97.6707 33.7799 96.9994C33.6418 96.3281 33.3924 95.7377 33.0459 95.2618C32.6993 94.7859 32.2624 94.4339 31.7601 94.2258C31.2578 94.0178 30.7 93.9577 30.1184 94.0492C29.5369 94.1407 28.943 94.3818 28.3707 94.7589C27.7984 95.1359 27.2589 95.6415 26.783 96.2468C26.3071 96.852 25.9041 97.5451 25.597 98.2864C25.29 99.0277 25.0849 99.8027 24.9934 100.567C24.9019 101.332 24.9259 102.071 25.064 102.742C25.202 103.413 25.4514 104.004 25.798 104.48C26.1445 104.956 26.5814 105.308 27.0837 105.516Z" stroke="#A69BB2" stroke-width="2"/>
<path d="M241.733 113.469C242.794 113.916 244.032 113.82 245.174 113.203C246.316 112.587 247.269 111.5 247.823 110.182C248.377 108.865 248.486 107.424 248.128 106.176C247.769 104.929 246.972 103.978 245.911 103.532C244.849 103.086 243.612 103.182 242.47 103.798C241.328 104.414 240.375 105.501 239.821 106.819C239.267 108.137 239.157 109.578 239.516 110.825C239.875 112.072 240.672 113.023 241.733 113.469Z" stroke="#A69BB2" stroke-width="2"/>
<path d="M70.1118 72.6707C69.3918 73.6507 69.5585 73.834 70.6118 73.2207C77.0652 69.4274 83.9018 66.364 91.1218 64.0307C93.1685 63.3707 95.0018 62.3307 96.6218 60.9107C101.235 56.8374 105.899 52.8307 110.612 48.8907C113.219 46.7107 115.432 45.1607 117.252 44.2407C119.679 43.0141 122.239 42.0907 124.932 41.4707C127.112 40.9707 128.509 40.3674 129.122 39.6607C129.662 39.034 129.432 38.8107 128.432 38.9907C127.685 39.1174 126.952 39.3074 126.232 39.5607C125.398 39.8474 124.679 40.0507 124.072 40.1707C117.585 41.4241 111.959 44.3607 107.192 48.9807C101.039 54.9274 97.4318 58.4874 96.3718 59.6607C94.7852 61.4007 93.4518 62.4007 92.3718 62.6607C86.1985 64.134 80.2552 66.2441 74.5418 68.9907C72.7552 69.8507 71.2785 71.0774 70.1118 72.6707Z" stroke="#FC9B5F" stroke-width="2"/>
<path d="M192.772 50.0807C196.912 57.3141 200.422 64.834 203.302 72.6407C203.449 73.034 203.629 73.3474 203.842 73.5807C204.509 74.3007 204.932 74.2041 205.112 73.2907C205.179 72.9574 205.139 72.5841 204.992 72.1707C202.399 64.7041 198.979 57.3541 194.732 50.1208C194.578 49.8588 194.363 49.6387 194.105 49.48C193.847 49.3213 193.554 49.2288 193.252 49.2107C192.572 49.1641 192.412 49.4541 192.772 50.0807Z" stroke="#FAAF79" stroke-width="2"/>
<path d="M183.542 53.8907C188.529 64.3573 192.999 75.0407 196.952 85.9407C197.065 86.2607 197.119 86.2507 197.112 85.9107C197.059 82.9307 196.395 79.804 195.122 76.5307C191.735 67.8507 188.259 60.1807 184.692 53.5207C184.552 53.2607 184.399 53.0374 184.232 52.8507C183.392 51.9307 183.075 52.0307 183.282 53.1507C183.329 53.3773 183.415 53.624 183.542 53.8907Z" stroke="#FAA970" stroke-width="2"/>
<path d="M110.991 71.6607C110.365 71.534 109.738 71.4673 109.111 71.4607C103.745 71.3873 98.4815 71.934 93.3215 73.1007C86.9082 74.5473 82.1081 76.5807 78.9215 79.2007C73.8348 83.3873 71.4615 89.3907 71.8015 97.2107C71.8815 99.0373 72.2115 99.2407 72.7915 97.8207C72.8848 97.6007 72.9315 97.354 72.9315 97.0807C72.9182 90.6607 74.9948 85.474 79.1615 81.5207C81.4082 79.394 84.5348 77.664 88.5415 76.3307C91.9948 75.184 95.5315 74.3873 99.1515 73.9406C101.018 73.714 102.971 73.4007 105.011 73.0007C106.965 72.6207 108.938 72.3607 110.931 72.2207C112.351 72.1207 112.371 71.934 110.991 71.6607Z" stroke="#FAA970" stroke-width="2"/>
<path d="M67.3216 153.301C62.7816 159.261 58.6849 165.511 55.0316 172.051C50.9049 179.437 50.6415 186.974 54.2415 194.661C56.4415 199.354 58.0682 203.681 59.1215 207.641C59.5015 209.074 59.8115 211.491 60.0515 214.891C60.2249 217.337 60.5849 219.764 61.1316 222.171C61.2116 222.517 61.3015 222.521 61.4015 222.181C61.9215 220.334 61.9315 217.931 61.4315 214.971C60.0982 207.064 58.1282 200.517 55.5215 195.331C52.5549 189.431 51.9016 183.547 53.5616 177.681C54.2082 175.401 55.8615 172.334 58.5215 168.481C62.0882 163.321 65.4749 158.041 68.6815 152.641C68.7187 152.577 68.7437 152.506 68.7547 152.434C68.7657 152.362 68.7625 152.29 68.7451 152.225C68.7278 152.159 68.6968 152.101 68.6546 152.056C68.6124 152.01 68.5601 151.977 68.5016 151.961C68.2149 151.881 67.9782 152.044 67.7915 152.451C67.5915 152.864 67.4349 153.147 67.3216 153.301Z" stroke="#F78241" stroke-width="2"/>
<path d="M213.622 179.411C211.988 184.997 211.455 190.274 212.022 195.241C212.268 197.394 212.485 199.551 212.672 201.711C212.905 204.431 212.665 206.554 211.952 208.081C210.778 210.561 208.802 212.397 206.022 213.591C204.602 214.197 204.532 214.564 205.812 214.691C206.052 214.717 206.295 214.684 206.542 214.591C212.882 212.224 215.512 207.684 214.432 200.971C213.118 192.837 213.168 185.414 214.582 178.701C214.675 178.247 214.555 178.144 214.222 178.391C213.962 178.577 213.762 178.917 213.622 179.411Z" stroke="#F9A367" stroke-width="2"/>
<path d="M71.572 217.761C71.6053 217.101 71.5786 216.424 71.4919 215.731L67.4219 182.271C67.3832 181.926 67.2534 181.621 67.0519 181.401C66.2719 180.561 65.9486 180.914 66.0819 182.461C67.1419 194.674 68.5553 206.847 70.322 218.981C70.4286 219.707 70.5986 220.167 70.8319 220.361C71.2186 220.694 71.4653 219.827 71.572 217.761Z" stroke="#F9A367" stroke-width="2"/>
<path d="M51.3616 210.271C51.409 210.478 51.4006 210.716 51.3367 210.97C51.2729 211.223 51.1552 211.486 50.9916 211.741C50.1316 213.081 50.0949 213.451 50.8816 212.851C51.0416 212.724 51.1649 212.567 51.2516 212.381C52.0116 210.687 52.0083 208.864 51.2416 206.911C51.1216 206.597 50.9883 206.407 50.8416 206.341C50.5683 206.227 50.4883 206.414 50.6016 206.901L51.3616 210.271Z" stroke="#F0813F" stroke-width="2"/>
<path d="M42.4217 222.181C41.1284 224.014 39.9317 225.911 38.8317 227.871C38.7717 227.984 38.7351 228.101 38.7217 228.221C38.6751 228.821 38.8651 228.784 39.2917 228.111C40.6917 225.924 42.0484 223.711 43.3617 221.471C43.6084 221.051 43.5317 220.944 43.1317 221.151C42.9584 221.244 42.8251 221.387 42.7317 221.581C42.5584 221.941 42.4551 222.141 42.4217 222.181Z" stroke="#F78241" stroke-width="2"/>
<path d="M157.341 85.4607C158.601 85.8807 160.298 86.134 162.431 86.2207C169.471 86.5074 176.078 88.3207 182.252 91.6607C183.645 92.414 184.065 92.0507 183.512 90.5707C182.345 87.464 179.891 85.1774 176.151 83.7107C171.018 81.6974 165.718 80.4174 160.252 79.8707C158.725 79.7241 157.565 79.9207 156.772 80.4607C155.378 81.4207 155.315 82.8874 156.582 84.8607C156.763 85.1454 157.031 85.3573 157.341 85.4607Z" stroke="#906B6A" stroke-width="2"/>
<path d="M120.752 80.6207C112.658 80.0207 105.342 82.1007 98.8015 86.8607C96.7348 88.3674 95.2915 90.2773 94.4715 92.5907C94.1249 93.5907 94.4382 93.8874 95.4115 93.4807C96.5982 92.9807 97.7282 92.394 98.8015 91.7207C100.522 90.6473 101.612 90.004 102.072 89.7907C105.265 88.284 108.635 87.3573 112.182 87.0107C114.422 86.7907 116.658 86.564 118.892 86.3307C120.338 86.184 121.362 85.7574 121.962 85.0507C122.962 83.8707 122.835 82.5307 121.582 81.0307C121.376 80.7932 121.078 80.6459 120.752 80.6207Z" stroke="#8B6865" stroke-width="2"/>
<path d="M153.121 85.8507C148.468 86.2907 145.255 88.8374 143.481 93.4907" stroke="#FBA696" stroke-width="2"/>
<path d="M143.482 93.4907C141.442 103.197 141.508 112.441 143.682 121.221C144.342 123.894 143.745 125.894 141.892 127.221" stroke="#F49F92" stroke-width="2"/>
<path d="M141.892 127.221L136.042 129.401C135.582 129.574 135.585 129.744 136.052 129.911C138.878 130.964 141.722 131.621 144.582 131.881C147.895 132.181 150.668 131.634 152.902 130.241C157.068 127.627 157.662 123.537 154.682 117.971C152.795 114.444 151.698 111.277 151.392 108.471" stroke="#FBA696" stroke-width="2"/>
<path d="M151.392 108.471C151.605 107.911 152.052 107.694 152.732 107.821" stroke="#FDB6A7" stroke-width="2"/>
<path d="M152.731 107.821C156.885 105.147 160.645 101.977 164.011 98.3107" stroke="#EE9583" stroke-width="2"/>
<path d="M164.012 98.3107C163.465 102.284 165.025 104.344 168.692 104.491C171.345 104.591 172.592 103.417 172.432 100.971C172.325 99.344 172.352 98.2007 172.512 97.5407" stroke="#BE786C" stroke-width="2"/>
<path d="M172.512 97.5407C176.005 98.694 178.998 100.401 181.492 102.661C181.992 103.107 182.485 103.274 182.972 103.161C183.03 103.147 183.084 103.119 183.128 103.078C183.172 103.036 183.206 102.983 183.227 102.923C183.247 102.863 183.254 102.797 183.246 102.73C183.238 102.664 183.216 102.599 183.182 102.541C182.108 100.781 180.775 99.2441 179.182 97.9307" stroke="#EE9583" stroke-width="2"/>
<path d="M179.182 97.9307C180.428 97.1441 180.822 96.094 180.362 94.7807C180.042 93.874 179.755 92.954 179.502 92.0207C179.458 91.8663 179.384 91.7235 179.286 91.6014C179.188 91.4792 179.067 91.3803 178.932 91.3107C174.945 89.3174 171.758 88.224 169.372 88.0307C166.138 87.7707 162.512 87.4674 158.492 87.1207C157.978 87.0741 157.498 86.9274 157.052 86.6807C155.712 85.9341 154.402 85.6574 153.122 85.8507" stroke="#FDB6A7" stroke-width="2"/>
<path d="M179.181 97.9307C174.361 94.9374 169.091 93.5907 163.371 93.8907C161.045 94.0107 159.128 95.184 157.621 97.4107C155.175 101.017 153.545 104.487 152.731 107.821" stroke="#EE8D7B" stroke-width="2"/>
<path d="M151.392 108.471C150.838 106.717 150.725 104.964 151.052 103.211C151.418 101.244 151.602 100.237 151.602 100.191C152.128 95.5173 152.635 90.7374 153.122 85.8507" stroke="#FB9E8E" stroke-width="2"/>
<path d="M172.512 97.5407C169.478 95.034 166.645 95.2907 164.012 98.3107" stroke="#AF4F40" stroke-width="2"/>
<path d="M141.892 127.221C143.258 127.447 144.245 127.101 144.852 126.181C145.198 125.654 145.375 124.767 145.382 123.521C145.455 113.441 144.822 103.431 143.482 93.4907" stroke="#F28779" stroke-width="2"/>
<path d="M105.932 100.261C105.745 101.941 106.135 103.254 107.102 104.201C107.988 105.061 109.142 105.324 110.562 104.991C113.555 104.297 114.748 102.041 114.142 98.2207" stroke="#B2796D" stroke-width="2"/>
<path d="M114.142 98.2207C116.202 98.654 118.098 99.4541 119.832 100.621C120.092 100.794 120.302 101.044 120.462 101.371C121.122 102.724 121.582 102.774 121.842 101.521C121.915 101.167 121.915 100.797 121.842 100.411C121.168 96.684 118.782 94.6207 114.682 94.2207C106.168 93.394 100.478 96.8807 97.6118 104.681C97.2051 105.794 97.4851 106.021 98.4518 105.361L105.932 100.261" stroke="#E18675" stroke-width="2"/>
<path d="M114.142 98.2207C113.615 97.2607 112.692 96.9074 111.372 97.1607C108.898 97.6207 107.085 98.654 105.932 100.261" stroke="#964132" stroke-width="2"/>
<path d="M193.992 118.661C195.338 120.061 196.902 120.164 198.682 118.971C200.168 117.971 201.222 116.787 201.842 115.421C202.468 114.021 202.528 112.537 202.022 110.971C201.242 108.504 199.378 106.927 196.432 106.241C195.018 105.907 193.898 106.337 193.072 107.531C190.338 111.471 190.645 115.181 193.992 118.661Z" stroke="#F9A193" stroke-width="2"/>
<path d="M79.1012 118.799C79.7295 118.911 80.3755 118.888 81.0023 118.732C81.6291 118.576 82.2244 118.289 82.7542 117.888C83.284 117.487 83.7379 116.98 84.09 116.396C84.4422 115.812 84.6857 115.162 84.8066 114.483C85.0508 113.112 84.7808 111.708 84.0562 110.579C83.3316 109.449 82.2116 108.688 80.9426 108.462C80.3143 108.35 79.6683 108.373 79.0415 108.529C78.4147 108.686 77.8195 108.972 77.2897 109.373C76.7599 109.774 76.3059 110.281 75.9538 110.865C75.6016 111.45 75.3581 112.1 75.2372 112.778C74.993 114.149 75.263 115.554 75.9876 116.683C76.7122 117.812 77.8322 118.573 79.1012 118.799Z" stroke="#FCAA9A" stroke-width="2"/>
<path d="M165.672 131.471C169.312 134.484 173.399 135.317 177.932 133.971C183.759 132.237 187.105 128.311 187.972 122.191C188.212 120.491 187.635 118.481 186.242 116.161C183.175 111.041 178.825 108.767 173.192 109.341C166.759 110.001 162.909 113.474 161.642 119.761C160.682 124.547 162.025 128.451 165.672 131.471Z" stroke="#FCA694" stroke-width="2"/>
<path d="M118.7 122.045C118.378 118.767 116.71 115.756 114.062 113.675C111.414 111.595 108.003 110.614 104.58 110.95C102.884 111.116 101.237 111.6 99.7321 112.375C98.2269 113.15 96.8932 114.2 95.8071 115.465C94.721 116.731 93.9038 118.187 93.4022 119.75C92.9005 121.313 92.7243 122.953 92.8834 124.576C93.2049 127.855 94.8731 130.865 97.5212 132.946C100.169 135.027 103.58 136.007 107.004 135.671C108.699 135.505 110.346 135.021 111.851 134.246C113.356 133.471 114.69 132.421 115.776 131.156C116.862 129.891 117.679 128.435 118.181 126.872C118.683 125.308 118.859 123.668 118.7 122.045Z" stroke="#FCA694" stroke-width="2"/>
<path d="M124.162 140.931C126.875 145.257 130.318 148.381 134.492 150.301C138.632 152.207 143.015 152.711 147.642 151.811C154.255 150.531 159.225 146.531 162.552 139.811" stroke="#F3978B" stroke-width="2"/>
<path d="M162.552 139.811C149.432 139.784 136.635 140.157 124.162 140.931" stroke="#FDDED6" stroke-width="2"/>
<path d="M162.552 139.811C159.765 142.764 156.818 145.241 153.712 147.241C148.245 150.767 142.422 151.407 136.242 149.161C132.862 147.927 128.835 145.184 124.162 140.931" stroke="#F3B7B2" stroke-width="2"/>
<path d="M251.142 221.751C247.735 220.377 245.188 218.297 243.502 215.511C242.322 213.564 242.012 211.617 242.572 209.671C243.172 207.577 244.468 205.851 246.462 204.491C249.455 202.457 251.878 199.951 253.732 196.971C255.098 194.777 255.888 192.621 256.102 190.501C256.342 188.067 255.952 185.724 254.932 183.471C253.872 181.131 252.398 178.997 250.512 177.071C250.125 176.684 248.092 175.124 244.412 172.391C242.758 171.164 241.215 169.811 239.782 168.331C238.515 167.031 237.828 165.741 237.722 164.461C237.568 162.647 238.242 161.171 239.742 160.031C245.282 155.844 248.512 150.707 249.432 144.621C249.998 140.934 249.592 137.574 248.212 134.541C246.732 131.274 244.338 128.624 241.032 126.591C236.338 123.717 231.668 120.797 227.022 117.831C219.768 113.211 216.075 106.844 215.942 98.7307C215.908 96.7441 216.288 93.9307 217.082 90.2907C217.682 87.5174 218.295 84.7441 218.922 81.9707C220.095 76.7707 220.475 71.5174 220.062 66.2107C219.262 56.0507 215.422 47.2708 208.542 39.8708C202.555 33.4308 195.102 30.1341 186.182 29.9807C185.188 29.9607 184.235 29.9574 183.322 29.9707C183.19 29.971 183.061 29.9424 182.944 29.887C182.826 29.8317 182.723 29.7509 182.642 29.6507C177.608 23.6307 171.742 19.3107 165.042 16.6907C160.208 14.804 153.855 13.9074 145.982 14.0008C132.535 14.1608 119.425 16.2907 106.652 20.3907C99.5583 22.664 93.4849 25.374 88.4316 28.5207C73.4849 37.8274 63.4716 51.3741 58.3916 69.1607C55.9316 77.7607 55.6349 86.3974 57.5016 95.0707C57.5149 95.1107 57.9049 96.4874 58.6716 99.2007C60.0049 103.894 59.7049 108.351 57.7716 112.571C56.7649 114.777 55.2183 116.791 53.1316 118.611C51.4983 120.037 49.4516 121.594 46.9916 123.281C42.2183 126.561 39.2183 128.894 37.9916 130.281C34.9049 133.787 33.3849 137.684 33.4316 141.971C33.5049 148.304 36.1183 153.521 41.2716 157.621C43.6983 159.547 45.0849 160.914 45.4316 161.721C46.3116 163.774 46.2083 165.754 45.1216 167.661C44.6416 168.501 43.0949 169.871 40.4816 171.771C38.2749 173.384 36.2049 175.151 34.2716 177.071C32.0516 179.271 30.4616 181.444 29.5016 183.591C26.6749 189.911 27.9449 195.831 33.3116 201.351C34.5449 202.624 35.8483 203.821 37.2216 204.941C41.1949 208.181 42.1083 211.464 39.9616 214.791C39.2749 215.857 37.3616 217.571 34.2216 219.931C32.1549 221.484 30.1483 223.114 28.2016 224.821C12.3416 202.954 3.50161 178.587 1.68161 151.721C-0.365061 121.507 6.05495 93.604 20.9416 68.0107C24.3416 62.164 28.1216 56.6808 32.2816 51.5608C48.8883 31.0741 69.8549 16.5441 95.1816 7.97073C110.288 2.85739 126.038 0.607392 142.432 1.22073C166.092 2.10739 187.512 8.11742 206.692 19.2508C228.505 31.9041 245.585 48.9707 257.932 70.4507C261.192 76.1307 264.055 82.1407 266.522 88.4807C278.695 119.867 279.728 152.011 269.622 184.911C265.568 198.084 259.408 210.364 251.142 221.751ZM27.0834 105.516C27.5857 105.724 28.1436 105.784 28.7251 105.692C29.3067 105.601 29.9006 105.36 30.4729 104.983C31.0452 104.606 31.5847 104.1 32.0606 103.495C32.5365 102.889 32.9395 102.196 33.2465 101.455C33.5536 100.714 33.7587 99.9387 33.8501 99.1742C33.9416 98.4097 33.9176 97.6707 33.7796 96.9994C33.6415 96.3281 33.3921 95.7377 33.0455 95.2618C32.699 94.7859 32.2621 94.4339 31.7598 94.2259C31.2575 94.0178 30.6997 93.9578 30.1181 94.0492C29.5365 94.1407 28.9427 94.3818 28.3704 94.7589C27.7981 95.1359 27.2586 95.6415 26.7826 96.2468C26.3067 96.852 25.9038 97.5451 25.5967 98.2864C25.2897 99.0277 25.0845 99.8027 24.9931 100.567C24.9016 101.332 24.9256 102.071 25.0637 102.742C25.2017 103.413 25.4511 104.004 25.7977 104.48C26.1442 104.956 26.5811 105.308 27.0834 105.516ZM241.733 113.47C242.794 113.916 244.032 113.82 245.174 113.203C246.316 112.587 247.269 111.5 247.823 110.183C248.376 108.865 248.486 107.424 248.128 106.176C247.769 104.929 246.971 103.978 245.91 103.532C244.849 103.086 243.612 103.182 242.47 103.798C241.327 104.414 240.375 105.501 239.821 106.819C239.267 108.137 239.157 109.578 239.516 110.825C239.874 112.072 240.672 113.023 241.733 113.47Z" fill="#C0AEBD"/>
<path d="M251.142 221.751C245.122 229.957 238.592 237.574 231.552 244.601C231.409 244.741 231.229 244.838 231.034 244.878C230.839 244.919 230.637 244.903 230.452 244.831C225.339 242.797 220.305 240.761 215.352 238.721C212.965 237.734 211.309 237.211 210.382 237.151C208.215 237.004 206.989 238.061 206.702 240.321C206.689 240.421 206.682 241.857 206.682 244.631C206.682 250.457 206.682 256.451 206.682 262.611C206.682 262.929 206.596 263.237 206.432 263.499C206.269 263.76 206.036 263.962 205.762 264.081L187.162 272.231C187.09 272.262 187.012 272.275 186.934 272.267C186.855 272.259 186.78 272.23 186.715 272.185C186.649 272.139 186.595 272.077 186.558 272.005C186.521 271.933 186.502 271.852 186.502 271.771C186.702 254.664 186.762 237.511 186.682 220.311C186.682 220.231 186.629 219.674 186.522 218.641C186.349 216.907 187.339 216.064 189.492 216.111C191.038 216.151 192.185 215.584 192.932 214.411C193.011 214.285 193.056 214.137 193.061 213.981C193.066 213.825 193.032 213.667 192.962 213.521C189.829 207.154 185.985 200.861 181.432 194.641C181.163 194.273 180.776 194.003 180.328 193.869C179.881 193.736 179.395 193.747 178.942 193.901L173.432 195.761C172.345 193.647 172.025 191.384 172.472 188.971C181.265 185.691 187.649 179.827 191.622 171.381C192.755 170.974 194.015 170.557 195.402 170.131C197.055 169.624 196.919 168.957 194.992 168.131C197.879 166.091 200.832 164.121 203.852 162.221C205.845 160.961 207.249 159.631 208.062 158.231C209.582 155.604 210.348 152.654 210.362 149.381C210.762 149.814 211.452 150.177 212.432 150.471C214.172 150.984 214.655 150.564 213.882 149.211C213.709 148.904 213.615 148.594 213.602 148.281C213.302 142.747 211.099 138.121 206.992 134.401C205.145 130.727 202.122 128.914 197.922 128.961C197.591 128.961 197.279 128.859 197.032 128.671L196.182 128.011C195.382 127.724 194.895 128.127 194.722 129.221C193.962 127.061 193.758 124.611 194.112 121.871L196.332 123.621C196.453 123.714 196.598 123.777 196.756 123.804C196.914 123.832 197.08 123.824 197.242 123.781C204.002 121.974 206.765 117.464 205.532 110.251C204.432 103.851 200.622 100.591 194.102 100.471C193.889 100.468 193.684 100.395 193.517 100.263C193.351 100.131 193.233 99.9471 193.182 99.7407C192.389 96.4141 191.318 93.1907 189.972 90.0707C188.758 87.244 188.135 85.7907 188.102 85.7107C183.155 73.644 177.492 61.9107 171.112 50.5107C170.352 49.1574 169.412 49.0207 168.292 50.1007C159.845 58.3007 150.059 64.5074 138.932 68.7207C133.079 70.9407 125.712 72.8241 116.832 74.3707C116.772 74.3774 114.332 74.6874 109.512 75.3007C106.705 75.6541 103.409 76.274 99.6218 77.1607C91.5085 79.054 87.2785 84.0707 86.9318 92.2107C86.7918 95.5507 86.5918 98.8907 86.3318 102.231C86.2118 103.797 85.7452 104.114 84.9318 103.181C84.6852 102.894 84.4285 102.704 84.1618 102.611C81.5818 101.671 79.1485 101.624 76.8618 102.471C74.7618 103.251 73.0919 104.737 71.8519 106.931C70.7052 108.971 70.0752 111.234 69.9618 113.721C69.7152 119.381 72.4885 122.931 78.2818 124.371C78.4314 124.407 78.5879 124.406 78.7365 124.365C78.8852 124.325 79.0212 124.248 79.1319 124.141C80.5319 122.794 82.1418 121.791 83.9618 121.131C84.0971 121.081 84.245 121.081 84.3777 121.131C84.5103 121.181 84.6185 121.277 84.6818 121.401C85.2685 122.487 85.4218 123.677 85.1418 124.971C83.7952 125.197 82.8085 125.804 82.1818 126.791C81.8152 125.324 81.3052 124.981 80.6518 125.761C80.5589 125.872 80.4398 125.96 80.3043 126.018C80.1688 126.075 80.0206 126.1 79.8718 126.091C78.9252 126.024 78.4852 126.461 78.5518 127.401C78.571 127.772 78.5118 128.103 78.3819 128.351C75.6285 133.624 73.6685 139.174 72.5018 145.001C72.4285 145.361 72.2485 145.757 71.9618 146.191C71.4152 147.024 71.5718 147.517 72.4318 147.671C72.5696 147.697 72.6945 147.765 72.7869 147.864C72.8793 147.964 72.9338 148.089 72.9418 148.221C73.0019 149.467 73.3952 150.554 74.1218 151.481C74.9018 156.201 76.7352 160.384 79.6218 164.031C81.2618 166.104 83.4352 167.167 86.1418 167.221C87.8752 170.961 90.2918 171.461 93.3918 168.721C95.2785 173.761 97.3952 178.074 99.7418 181.661C102.135 185.301 105.602 187.737 110.142 188.971C110.668 192.011 110.762 195.147 110.422 198.381C107.002 196.874 103.609 195.384 100.242 193.911C97.9218 192.891 96.1818 193.201 95.0218 194.841C91.0818 200.401 87.7818 206.201 85.1218 212.241C85.0387 212.428 85.0003 212.632 85.0094 212.839C85.0185 213.045 85.0749 213.25 85.1746 213.438C85.2744 213.626 85.4151 213.793 85.5873 213.928C85.7594 214.063 85.9588 214.163 86.1718 214.221L92.9618 216.051C93.0969 216.085 93.2171 216.169 93.3039 216.29C93.3907 216.411 93.4392 216.562 93.4418 216.721C93.8152 235.034 93.8285 253.527 93.4818 272.201C93.4818 272.296 93.4585 272.39 93.4142 272.475C93.3699 272.559 93.3057 272.631 93.2276 272.685C93.1494 272.738 93.0597 272.771 92.9662 272.781C92.8727 272.791 92.7785 272.777 92.6918 272.741L74.4518 265.121C74.3154 265.065 74.1988 264.966 74.1169 264.838C74.0349 264.71 73.9914 264.557 73.9918 264.401C73.8718 250.307 73.8518 241.831 73.9318 238.971C74.0185 235.817 72.6152 234.771 69.7218 235.831C61.9752 238.651 54.2685 241.594 46.6019 244.661C46.4478 244.723 46.2785 244.737 46.115 244.704C45.9515 244.67 45.8009 244.589 45.6818 244.471C39.5152 238.264 33.6885 231.714 28.2018 224.821C30.1485 223.114 32.1552 221.484 34.2218 219.931C37.3618 217.571 39.2752 215.857 39.9618 214.791C42.1085 211.464 41.1952 208.181 37.2218 204.941C35.8485 203.821 34.5452 202.624 33.3118 201.351C27.9452 195.831 26.6752 189.911 29.5018 183.591C30.4618 181.444 32.0518 179.271 34.2718 177.071C36.2052 175.151 38.2752 173.384 40.4818 171.771C43.0952 169.871 44.6418 168.501 45.1218 167.661C46.2085 165.754 46.3118 163.774 45.4318 161.721C45.0852 160.914 43.6985 159.547 41.2718 157.621C36.1185 153.521 33.5052 148.304 33.4318 141.971C33.3852 137.684 34.9052 133.787 37.9918 130.281C39.2185 128.894 42.2185 126.561 46.9918 123.281C49.4518 121.594 51.4985 120.037 53.1319 118.611C55.2185 116.791 56.7652 114.777 57.7718 112.571C59.7052 108.351 60.0052 103.894 58.6718 99.2007C57.9052 96.4874 57.5152 95.1107 57.5018 95.0707C55.6352 86.3974 55.9318 77.7607 58.3918 69.1607C63.4718 51.374 73.4852 37.8274 88.4318 28.5207C93.4852 25.374 99.5585 22.664 106.652 20.3907C119.425 16.2907 132.535 14.1607 145.982 14.0007C153.855 13.9074 160.208 14.804 165.042 16.6907C171.742 19.3107 177.609 23.6307 182.642 29.6507C182.723 29.7509 182.826 29.8317 182.944 29.887C183.061 29.9424 183.191 29.971 183.322 29.9707C184.235 29.9574 185.189 29.9607 186.182 29.9807C195.102 30.1341 202.555 33.4307 208.542 39.8707C215.422 47.2707 219.262 56.0507 220.062 66.2107C220.475 71.5174 220.095 76.7707 218.922 81.9707C218.295 84.744 217.682 87.5174 217.082 90.2907C216.289 93.9307 215.909 96.7441 215.942 98.7307C216.075 106.844 219.769 113.211 227.022 117.831C231.669 120.797 236.338 123.717 241.032 126.591C244.338 128.624 246.732 131.274 248.212 134.541C249.592 137.574 249.999 140.934 249.432 144.621C248.512 150.707 245.282 155.844 239.742 160.031C238.242 161.171 237.568 162.647 237.722 164.461C237.828 165.741 238.515 167.031 239.782 168.331C241.215 169.811 242.758 171.164 244.412 172.391C248.092 175.124 250.125 176.684 250.512 177.071C252.399 178.997 253.872 181.131 254.932 183.471C255.952 185.724 256.342 188.067 256.102 190.501C255.888 192.621 255.098 194.777 253.732 196.971C251.878 199.951 249.455 202.457 246.462 204.491C244.469 205.851 243.172 207.577 242.572 209.671C242.012 211.617 242.322 213.564 243.502 215.511C245.189 218.297 247.735 220.377 251.142 221.751ZM70.1118 72.6707C69.3918 73.6507 69.5585 73.834 70.6118 73.2207C77.0652 69.4274 83.9018 66.364 91.1218 64.0307C93.1685 63.3707 95.0018 62.3307 96.6218 60.9107C101.235 56.8374 105.898 52.8307 110.612 48.8907C113.218 46.7107 115.432 45.1607 117.252 44.2407C119.679 43.0141 122.239 42.0907 124.932 41.4707C127.112 40.9707 128.509 40.3674 129.122 39.6607C129.662 39.034 129.432 38.8107 128.432 38.9907C127.685 39.1174 126.952 39.3074 126.232 39.5607C125.398 39.8474 124.679 40.0507 124.072 40.1707C117.585 41.4241 111.959 44.3607 107.192 48.9807C101.039 54.9274 97.4318 58.4874 96.3718 59.6607C94.7852 61.4007 93.4518 62.4007 92.3718 62.6607C86.1985 64.134 80.2552 66.2441 74.5418 68.9907C72.7552 69.8507 71.2785 71.0774 70.1118 72.6707ZM192.772 50.0807C196.912 57.314 200.422 64.834 203.302 72.6407C203.449 73.034 203.628 73.3474 203.842 73.5807C204.508 74.3007 204.932 74.2041 205.112 73.2907C205.178 72.9574 205.139 72.5841 204.992 72.1707C202.398 64.7041 198.979 57.3541 194.732 50.1207C194.578 49.8588 194.363 49.6387 194.105 49.48C193.847 49.3213 193.554 49.2288 193.252 49.2107C192.572 49.164 192.412 49.454 192.772 50.0807ZM183.542 53.8907C188.528 64.3574 192.999 75.0407 196.952 85.9407C197.065 86.2607 197.118 86.2507 197.112 85.9107C197.059 82.9307 196.395 79.804 195.122 76.5307C191.735 67.8507 188.259 60.1807 184.692 53.5207C184.552 53.2607 184.398 53.0374 184.232 52.8507C183.392 51.9307 183.075 52.0307 183.282 53.1507C183.328 53.3774 183.415 53.624 183.542 53.8907ZM110.992 71.6607C110.365 71.534 109.738 71.4674 109.112 71.4607C103.745 71.3874 98.4819 71.934 93.3219 73.1007C86.9085 74.5474 82.1085 76.5807 78.9218 79.2007C73.8352 83.3874 71.4618 89.3907 71.8018 97.2107C71.8818 99.0374 72.2118 99.2407 72.7918 97.8207C72.8852 97.6007 72.9318 97.354 72.9318 97.0807C72.9185 90.6607 74.9952 85.474 79.1618 81.5207C81.4085 79.394 84.5352 77.664 88.5418 76.3307C91.9952 75.184 95.5318 74.3873 99.1518 73.9407C101.019 73.714 102.972 73.4007 105.012 73.0007C106.965 72.6207 108.939 72.3607 110.932 72.2207C112.352 72.1207 112.372 71.934 110.992 71.6607ZM67.3219 153.301C62.7819 159.261 58.6852 165.511 55.0318 172.051C50.9052 179.437 50.6418 186.974 54.2418 194.661C56.4418 199.354 58.0685 203.681 59.1218 207.641C59.5018 209.074 59.8118 211.491 60.0518 214.891C60.2252 217.337 60.5852 219.764 61.1319 222.171C61.2119 222.517 61.3018 222.521 61.4018 222.181C61.9218 220.334 61.9318 217.931 61.4318 214.971C60.0985 207.064 58.1285 200.517 55.5218 195.331C52.5552 189.431 51.9018 183.547 53.5618 177.681C54.2085 175.401 55.8618 172.334 58.5218 168.481C62.0885 163.321 65.4752 158.041 68.6818 152.641C68.719 152.577 68.744 152.506 68.755 152.434C68.766 152.362 68.7627 152.29 68.7454 152.225C68.7281 152.159 68.6971 152.101 68.6549 152.056C68.6127 152.01 68.5604 151.977 68.5018 151.961C68.2152 151.881 67.9785 152.044 67.7918 152.451C67.5918 152.864 67.4352 153.147 67.3219 153.301ZM213.622 179.411C211.989 184.997 211.455 190.274 212.022 195.241C212.269 197.394 212.485 199.551 212.672 201.711C212.905 204.431 212.665 206.554 211.952 208.081C210.779 210.561 208.802 212.397 206.022 213.591C204.602 214.197 204.532 214.564 205.812 214.691C206.052 214.717 206.295 214.684 206.542 214.591C212.882 212.224 215.512 207.684 214.432 200.971C213.118 192.837 213.169 185.414 214.582 178.701C214.675 178.247 214.555 178.144 214.222 178.391C213.962 178.577 213.762 178.917 213.622 179.411ZM71.5719 217.761C71.6052 217.101 71.5785 216.424 71.4918 215.731L67.4218 182.271C67.3831 181.926 67.2533 181.621 67.0518 181.401C66.2718 180.561 65.9485 180.914 66.0818 182.461C67.1418 194.674 68.5552 206.847 70.3219 218.981C70.4285 219.707 70.5985 220.167 70.8318 220.361C71.2185 220.694 71.4652 219.827 71.5719 217.761ZM51.3618 210.271C51.4093 210.478 51.4008 210.716 51.337 210.97C51.2732 211.223 51.1555 211.486 50.9918 211.741C50.1318 213.081 50.0952 213.451 50.8819 212.851C51.0419 212.724 51.1652 212.567 51.2518 212.381C52.0118 210.687 52.0085 208.864 51.2418 206.911C51.1218 206.597 50.9885 206.407 50.8418 206.341C50.5685 206.227 50.4885 206.414 50.6019 206.901L51.3618 210.271ZM42.4218 222.181C41.1285 224.014 39.9318 225.911 38.8318 227.871C38.7718 227.984 38.7352 228.101 38.7218 228.221C38.6752 228.821 38.8652 228.784 39.2918 228.111C40.6918 225.924 42.0485 223.711 43.3618 221.471C43.6085 221.051 43.5319 220.944 43.1319 221.151C42.9585 221.244 42.8252 221.387 42.7318 221.581C42.5585 221.941 42.4552 222.141 42.4218 222.181Z" fill="#FD9148"/>
<path d="M70.1118 72.6707C71.2785 71.0774 72.7552 69.8507 74.5418 68.9907C80.2552 66.2441 86.1985 64.134 92.3718 62.6607C93.4518 62.4007 94.7852 61.4007 96.3718 59.6607C97.4318 58.4874 101.039 54.9274 107.192 48.9807C111.959 44.3607 117.585 41.4241 124.072 40.1707C124.679 40.0507 125.398 39.8474 126.232 39.5607C126.952 39.3074 127.685 39.1174 128.432 38.9907C129.432 38.8107 129.662 39.034 129.122 39.6607C128.509 40.3674 127.112 40.9707 124.932 41.4707C122.239 42.0907 119.679 43.0141 117.252 44.2407C115.432 45.1607 113.219 46.7107 110.612 48.8907C105.899 52.8307 101.235 56.8374 96.6218 60.9107C95.0018 62.3307 93.1685 63.3707 91.1218 64.0307C83.9018 66.364 77.0652 69.4274 70.6118 73.2207C69.5585 73.834 69.3918 73.6507 70.1118 72.6707Z" fill="#FAA575"/>
<path d="M192.772 50.0807C192.412 49.4541 192.572 49.1641 193.252 49.2107C193.554 49.2288 193.847 49.3213 194.105 49.48C194.363 49.6387 194.578 49.8588 194.732 50.1208C198.979 57.3541 202.399 64.7041 204.992 72.1707C205.139 72.5841 205.179 72.9574 205.112 73.2907C204.932 74.2041 204.509 74.3007 203.842 73.5807C203.629 73.3474 203.449 73.034 203.302 72.6407C200.422 64.834 196.912 57.3141 192.772 50.0807Z" fill="#F6CDAA"/>
<path d="M194.112 121.871C192.665 125.851 191.225 129.804 189.792 133.731C187.979 138.691 186.285 142.534 184.712 145.261C181.225 151.301 176.882 156.717 171.682 161.511C166.795 165.184 162.775 167.817 159.622 169.411C141.335 178.617 124.832 176.251 110.112 162.311C106.299 158.891 103.175 155.674 100.742 152.661C96.1952 147.014 92.6952 140.431 90.2419 132.911C88.7686 128.384 87.9986 124.351 87.9319 120.811C87.9319 120.544 87.8986 120.324 87.8319 120.151C87.5652 119.464 87.2652 119.571 86.9319 120.471C86.4652 121.724 86.6185 124.974 87.3919 130.221L85.6419 131.221L85.1419 124.971C85.4219 123.677 85.2686 122.487 84.6819 121.401C84.6186 121.277 84.5104 121.181 84.3777 121.131C84.2451 121.081 84.0972 121.081 83.9619 121.131C82.1419 121.791 80.5319 122.794 79.1319 124.141C79.0213 124.248 78.8852 124.325 78.7366 124.365C78.5879 124.406 78.4315 124.407 78.2819 124.371C72.4886 122.931 69.7152 119.381 69.9619 113.721C70.0752 111.234 70.7052 108.971 71.8519 106.931C73.0919 104.737 74.7619 103.251 76.8619 102.471C79.1485 101.624 81.5819 101.671 84.1619 102.611C84.4286 102.704 84.6852 102.894 84.9319 103.181C85.7452 104.114 86.2119 103.797 86.3319 102.231C86.5919 98.8907 86.7919 95.5507 86.9319 92.2107C87.2786 84.0707 91.5086 79.054 99.6219 77.1607C103.409 76.274 106.705 75.654 109.512 75.3007C114.332 74.6874 116.772 74.3774 116.832 74.3707C125.712 72.824 133.079 70.9407 138.932 68.7207C150.059 64.5073 159.845 58.3007 168.292 50.1007C169.412 49.0207 170.352 49.1573 171.112 50.5107C177.492 61.9107 183.155 73.644 188.102 85.7107C188.135 85.7907 188.759 87.244 189.972 90.0706C191.319 93.1906 192.389 96.414 193.182 99.7407C193.233 99.947 193.351 100.131 193.517 100.263C193.684 100.395 193.889 100.468 194.102 100.471C200.622 100.591 204.432 103.851 205.532 110.251C206.765 117.464 204.002 121.974 197.242 123.781C197.08 123.824 196.914 123.832 196.756 123.804C196.598 123.777 196.453 123.714 196.332 123.621L194.112 121.871ZM157.342 85.4607C158.602 85.8807 160.299 86.134 162.432 86.2207C169.472 86.5073 176.079 88.3207 182.252 91.6607C183.645 92.414 184.065 92.0506 183.512 90.5706C182.345 87.464 179.892 85.1773 176.152 83.7107C171.019 81.6973 165.719 80.4174 160.252 79.8707C158.725 79.724 157.565 79.9207 156.772 80.4607C155.379 81.4207 155.315 82.8874 156.582 84.8607C156.763 85.1454 157.031 85.3572 157.342 85.4607ZM120.752 80.6207C112.659 80.0207 105.342 82.1007 98.8019 86.8607C96.7352 88.3674 95.2919 90.2773 94.4719 92.5907C94.1252 93.5907 94.4386 93.8873 95.4119 93.4807C96.5986 92.9807 97.7285 92.394 98.8019 91.7207C100.522 90.6473 101.612 90.004 102.072 89.7907C105.265 88.284 108.635 87.3573 112.182 87.0107C114.422 86.7906 116.659 86.564 118.892 86.3307C120.339 86.184 121.362 85.7574 121.962 85.0507C122.962 83.8707 122.835 82.5307 121.582 81.0307C121.376 80.7932 121.078 80.6459 120.752 80.6207ZM153.122 85.8507C148.469 86.2907 145.255 88.8374 143.482 93.4907C141.442 103.197 141.509 112.441 143.682 121.221C144.342 123.894 143.745 125.894 141.892 127.221L136.042 129.401C135.582 129.574 135.585 129.744 136.052 129.911C138.879 130.964 141.722 131.621 144.582 131.881C147.895 132.181 150.669 131.634 152.902 130.241C157.069 127.627 157.662 123.537 154.682 117.971C152.795 114.444 151.699 111.277 151.392 108.471C151.605 107.911 152.052 107.694 152.732 107.821C156.885 105.147 160.645 101.977 164.012 98.3107C163.465 102.284 165.025 104.344 168.692 104.491C171.345 104.591 172.592 103.417 172.432 100.971C172.325 99.344 172.352 98.2007 172.512 97.5407C176.005 98.694 178.999 100.401 181.492 102.661C181.992 103.107 182.485 103.274 182.972 103.161C183.03 103.147 183.084 103.119 183.128 103.078C183.173 103.036 183.206 102.983 183.227 102.923C183.247 102.863 183.254 102.797 183.246 102.73C183.238 102.664 183.216 102.599 183.182 102.541C182.109 100.781 180.775 99.244 179.182 97.9307C180.429 97.144 180.822 96.094 180.362 94.7807C180.042 93.874 179.755 92.954 179.502 92.0207C179.458 91.8662 179.385 91.7235 179.286 91.6013C179.188 91.4792 179.068 91.3803 178.932 91.3107C174.945 89.3174 171.759 88.224 169.372 88.0307C166.139 87.7707 162.512 87.4674 158.492 87.1207C157.979 87.074 157.499 86.9274 157.052 86.6807C155.712 85.934 154.402 85.6573 153.122 85.8507ZM105.932 100.261C105.745 101.941 106.135 103.254 107.102 104.201C107.989 105.061 109.142 105.324 110.562 104.991C113.555 104.297 114.749 102.041 114.142 98.2207C116.202 98.654 118.099 99.454 119.832 100.621C120.092 100.794 120.302 101.044 120.462 101.371C121.122 102.724 121.582 102.774 121.842 101.521C121.915 101.167 121.915 100.797 121.842 100.411C121.169 96.684 118.782 94.6207 114.682 94.2207C106.169 93.394 100.479 96.8807 97.6119 104.681C97.2052 105.794 97.4852 106.021 98.4519 105.361L105.932 100.261ZM193.992 118.661C195.339 120.061 196.902 120.164 198.682 118.971C200.169 117.971 201.222 116.787 201.842 115.421C202.469 114.021 202.529 112.537 202.022 110.971C201.242 108.504 199.379 106.927 196.432 106.241C195.019 105.907 193.899 106.337 193.072 107.531C190.339 111.471 190.645 115.181 193.992 118.661ZM79.1012 118.799C79.7295 118.911 80.3755 118.888 81.0023 118.732C81.6291 118.576 82.2244 118.289 82.7542 117.888C83.2839 117.487 83.7379 116.98 84.09 116.396C84.4422 115.812 84.6857 115.162 84.8066 114.483C85.0508 113.112 84.7808 111.708 84.0562 110.579C83.3315 109.449 82.2116 108.688 80.9426 108.462C80.3143 108.35 79.6683 108.373 79.0415 108.529C78.4147 108.686 77.8194 108.972 77.2896 109.373C76.7599 109.774 76.3059 110.281 75.9537 110.865C75.6016 111.45 75.3581 112.1 75.2372 112.778C74.993 114.149 75.2629 115.554 75.9876 116.683C76.7122 117.812 77.8322 118.573 79.1012 118.799ZM165.672 131.471C169.312 134.484 173.399 135.317 177.932 133.971C183.759 132.237 187.105 128.311 187.972 122.191C188.212 120.491 187.635 118.481 186.242 116.161C183.175 111.041 178.825 108.767 173.192 109.341C166.759 110.001 162.909 113.474 161.642 119.761C160.682 124.547 162.025 128.451 165.672 131.471ZM118.7 122.045C118.379 118.767 116.71 115.756 114.062 113.675C111.414 111.595 108.003 110.614 104.58 110.95C102.885 111.116 101.238 111.6 99.7324 112.375C98.2273 113.15 96.8936 114.2 95.8075 115.465C94.7214 116.731 93.9042 118.187 93.4025 119.75C92.9009 121.313 92.7246 122.953 92.8838 124.576C93.2052 127.855 94.8735 130.865 97.5215 132.946C100.17 135.027 103.58 136.007 107.004 135.671C108.699 135.505 110.346 135.021 111.851 134.246C113.357 133.471 114.69 132.421 115.776 131.156C116.862 129.891 117.68 128.435 118.181 126.872C118.683 125.308 118.859 123.668 118.7 122.045ZM124.162 140.931C126.875 145.257 130.319 148.381 134.492 150.301C138.632 152.207 143.015 152.711 147.642 151.811C154.255 150.531 159.225 146.531 162.552 139.811C149.432 139.784 136.635 140.157 124.162 140.931Z" fill="#FDBEAF"/>
<path d="M183.282 53.1507C183.075 52.0307 183.392 51.9307 184.232 52.8507C184.399 53.0374 184.552 53.2607 184.692 53.5207C188.259 60.1807 191.735 67.8507 195.122 76.5307C196.395 79.804 197.059 82.9307 197.112 85.9107C197.119 86.2507 197.065 86.2607 196.952 85.9407C192.999 75.0407 188.529 64.3573 183.542 53.8907C183.415 53.624 183.329 53.3773 183.282 53.1507Z" fill="#F6C197"/>
<path d="M110.991 71.6607C112.371 71.934 112.351 72.1207 110.931 72.2207C108.938 72.3607 106.965 72.6207 105.011 73.0007C102.971 73.4007 101.018 73.714 99.1515 73.9406C95.5315 74.3873 91.9948 75.184 88.5415 76.3307C84.5348 77.664 81.4082 79.394 79.1615 81.5207C74.9948 85.474 72.9182 90.6607 72.9315 97.0807C72.9315 97.354 72.8848 97.6007 72.7915 97.8207C72.2115 99.2407 71.8815 99.0373 71.8015 97.2107C71.4615 89.3907 73.8348 83.3873 78.9215 79.2007C82.1081 76.5807 86.9082 74.5473 93.3215 73.1007C98.4815 71.934 103.745 71.3873 109.111 71.4607C109.738 71.4673 110.365 71.534 110.991 71.6607Z" fill="#F6C197"/>
<path d="M156.582 84.8607C155.315 82.8874 155.378 81.4207 156.772 80.4607C157.565 79.9207 158.725 79.7241 160.252 79.8707C165.718 80.4174 171.018 81.6974 176.151 83.7107C179.891 85.1774 182.345 87.464 183.512 90.5707C184.065 92.0507 183.645 92.414 182.252 91.6607C176.078 88.3207 169.471 86.5074 162.431 86.2207C160.298 86.134 158.601 85.8807 157.341 85.4607C157.031 85.3573 156.763 85.1454 156.582 84.8607Z" fill="#221824"/>
<path d="M121.582 81.0307C122.835 82.5307 122.962 83.8707 121.962 85.0507C121.362 85.7574 120.338 86.184 118.892 86.3307C116.658 86.564 114.422 86.7907 112.182 87.0107C108.635 87.3573 105.265 88.284 102.072 89.7907C101.612 90.004 100.522 90.6473 98.8015 91.7207C97.7282 92.394 96.5982 92.9807 95.4115 93.4807C94.4382 93.8874 94.1249 93.5907 94.4715 92.5907C95.2915 90.2773 96.7348 88.3674 98.8015 86.8607C105.342 82.1007 112.658 80.0207 120.752 80.6207C121.078 80.6459 121.376 80.7932 121.582 81.0307Z" fill="#18111A"/>
<path d="M179.182 97.9307C174.362 94.9374 169.092 93.5907 163.372 93.8907C161.045 94.0107 159.128 95.1841 157.622 97.4107C155.175 101.017 153.545 104.487 152.732 107.821C152.052 107.694 151.605 107.911 151.392 108.471C150.838 106.717 150.725 104.964 151.052 103.211C151.418 101.244 151.602 100.237 151.602 100.191C152.128 95.5174 152.635 90.7374 153.122 85.8507C154.402 85.6574 155.712 85.9341 157.052 86.6807C157.498 86.9274 157.978 87.0741 158.492 87.1207C162.512 87.4674 166.138 87.7707 169.372 88.0307C171.758 88.224 174.945 89.3174 178.932 91.3107C179.067 91.3803 179.188 91.4792 179.286 91.6014C179.384 91.7235 179.457 91.8663 179.502 92.0207C179.755 92.954 180.042 93.874 180.362 94.7807C180.822 96.094 180.428 97.1441 179.182 97.9307Z" fill="#FCAE9E"/>
<path d="M153.122 85.8507C152.635 90.7374 152.128 95.5173 151.602 100.191C151.602 100.237 151.418 101.244 151.052 103.211C150.725 104.964 150.838 106.717 151.392 108.471C151.698 111.277 152.795 114.444 154.682 117.971C157.662 123.537 157.068 127.627 152.902 130.241C150.668 131.634 147.895 132.181 144.582 131.881C141.722 131.621 138.878 130.964 136.052 129.911C135.585 129.744 135.582 129.574 136.042 129.401L141.892 127.221C143.258 127.447 144.245 127.101 144.852 126.181C145.198 125.654 145.375 124.767 145.382 123.521C145.455 113.441 144.822 103.431 143.482 93.4907C145.255 88.8374 148.468 86.2907 153.122 85.8507Z" fill="#F98D7D"/>
<path d="M143.482 93.4907C144.822 103.431 145.455 113.441 145.382 123.521C145.375 124.767 145.198 125.654 144.852 126.181C144.245 127.101 143.258 127.447 141.892 127.221C143.745 125.894 144.342 123.894 143.682 121.221C141.508 112.441 141.442 103.197 143.482 93.4907Z" fill="#EB8075"/>
<path d="M179.181 97.9307C180.775 99.244 182.108 100.781 183.181 102.541C183.216 102.599 183.238 102.664 183.246 102.73C183.253 102.797 183.247 102.863 183.226 102.923C183.206 102.983 183.172 103.036 183.128 103.078C183.084 103.119 183.03 103.147 182.971 103.161C182.485 103.274 181.991 103.107 181.491 102.661C178.998 100.401 176.005 98.694 172.511 97.5407C169.478 95.034 166.645 95.2907 164.011 98.3107C160.645 101.977 156.885 105.147 152.731 107.821C153.545 104.487 155.175 101.017 157.621 97.4107C159.128 95.184 161.045 94.0107 163.371 93.8907C169.091 93.5907 174.361 94.9374 179.181 97.9307Z" fill="#DF6B57"/>
<path d="M25.597 98.2864C24.3057 101.404 24.9713 104.641 27.0837 105.516C29.1961 106.391 31.9554 104.573 33.2468 101.455C34.5381 98.3374 33.8725 95.1008 31.7601 94.2258C29.6477 93.3508 26.8884 95.1688 25.597 98.2864Z" fill="#8C87A7"/>
<path d="M114.142 98.2207C113.615 97.2607 112.692 96.9074 111.372 97.1607C108.898 97.6207 107.085 98.654 105.932 100.261L98.4518 105.361C97.4851 106.021 97.2051 105.794 97.6118 104.681C100.478 96.8807 106.168 93.394 114.682 94.2207C118.782 94.6207 121.168 96.684 121.842 100.411C121.915 100.797 121.915 101.167 121.842 101.521C121.582 102.774 121.122 102.724 120.462 101.371C120.302 101.044 120.092 100.794 119.832 100.621C118.098 99.4541 116.202 98.654 114.142 98.2207Z" fill="#C54E3A"/>
<path d="M172.512 97.5407C172.352 98.2007 172.325 99.344 172.432 100.971C172.592 103.417 171.345 104.591 168.692 104.491C165.025 104.344 163.465 102.284 164.012 98.3107C166.645 95.2907 169.478 95.034 172.512 97.5407Z" fill="#7F3228"/>
<path d="M114.142 98.2207C114.748 102.041 113.555 104.297 110.562 104.991C109.142 105.324 107.988 105.061 107.102 104.201C106.135 103.254 105.745 101.941 105.932 100.261C107.085 98.654 108.898 97.6207 111.372 97.1607C112.692 96.9074 113.615 97.2607 114.142 98.2207Z" fill="#67332A"/>
<path d="M239.821 106.819C238.667 109.563 239.523 112.541 241.733 113.47C243.942 114.398 246.669 112.927 247.822 110.183C248.976 107.438 248.12 104.461 245.91 103.532C243.701 102.603 240.974 104.075 239.821 106.819Z" fill="#8C87A7"/>
<path d="M193.992 118.661C190.645 115.181 190.338 111.471 193.072 107.531C193.898 106.337 195.018 105.907 196.432 106.241C199.378 106.927 201.242 108.504 202.022 110.971C202.528 112.537 202.468 114.021 201.842 115.421C201.222 116.787 200.168 117.971 198.682 118.971C196.902 120.164 195.338 120.061 193.992 118.661Z" fill="#F58477"/>
<path d="M75.237 112.778C74.7285 115.633 76.4585 118.329 79.101 118.799C81.7435 119.27 84.2979 117.338 84.8064 114.483C85.3149 111.628 83.5849 108.933 80.9424 108.462C78.2999 107.991 75.7455 109.924 75.237 112.778Z" fill="#FB9684"/>
<path d="M165.672 131.471C162.025 128.451 160.682 124.547 161.642 119.761C162.909 113.474 166.759 110.001 173.192 109.341C178.825 108.767 183.175 111.041 186.242 116.161C187.635 118.481 188.212 120.491 187.972 122.191C187.105 128.311 183.759 132.237 177.932 133.971C173.399 135.317 169.312 134.484 165.672 131.471Z" fill="#FA8D78"/>
<path d="M107.004 135.671C114.133 134.972 119.369 128.872 118.7 122.045C118.031 115.218 111.709 110.251 104.58 110.95C97.451 111.649 92.2145 117.75 92.8839 124.576C93.5532 131.403 99.875 136.37 107.004 135.671Z" fill="#FA8D78"/>
<path d="M110.112 162.311C109.425 163.477 109.389 164.254 110.002 164.641L110.142 188.971C105.602 187.737 102.135 185.301 99.7419 181.661C97.3952 178.074 95.2786 173.761 93.3919 168.721C94.4719 164.647 94.4986 160.561 93.4719 156.461C91.2786 147.754 89.2519 139.007 87.3919 130.221C86.6186 124.974 86.4652 121.724 86.9319 120.471C87.2652 119.571 87.5652 119.464 87.8319 120.151C87.8986 120.324 87.9319 120.544 87.9319 120.811C87.9986 124.351 88.7686 128.384 90.2419 132.911C92.6952 140.431 96.1952 147.014 100.742 152.661C103.175 155.674 106.299 158.891 110.112 162.311Z" fill="#C8582F"/>
<path d="M194.112 121.871C193.758 124.611 193.962 127.061 194.722 129.221C190.282 140.267 187.268 150.851 185.682 160.971C184.942 165.691 186.922 169.161 191.622 171.381C187.648 179.827 181.265 185.691 172.472 188.971L172.142 163.441C172.395 162.641 172.242 161.997 171.682 161.511C176.882 156.717 181.225 151.301 184.712 145.261C186.285 142.534 187.978 138.691 189.792 133.731C191.225 129.804 192.665 125.851 194.112 121.871Z" fill="#C55733"/>
<path d="M85.1416 124.971L85.6416 131.221C87.5949 141.214 89.1916 148.714 90.4316 153.721C91.3649 157.507 91.8649 161.141 91.9316 164.621C91.9516 165.754 91.7716 166.614 91.3916 167.201C90.6716 168.334 89.6016 168.424 88.1816 167.471C87.4349 166.971 86.7549 166.887 86.1416 167.221C83.4349 167.167 81.2616 166.104 79.6216 164.031C76.7349 160.384 74.9016 156.201 74.1216 151.481C75.0549 142.714 77.7416 134.484 82.1816 126.791C82.8082 125.804 83.7949 125.197 85.1416 124.971Z" fill="#C8582F"/>
<path d="M82.1817 126.791C77.7417 134.484 75.0551 142.714 74.1217 151.481C73.3951 150.554 73.0017 149.467 72.9417 148.221C72.9337 148.089 72.8792 147.964 72.7868 147.864C72.6944 147.765 72.5695 147.697 72.4317 147.671C71.5717 147.517 71.4151 147.024 71.9617 146.191C72.2484 145.757 72.4284 145.361 72.5017 145.001C73.6684 139.174 75.6284 133.624 78.3818 128.351C78.5117 128.103 78.5709 127.772 78.5517 127.401C78.4851 126.461 78.9251 126.024 79.8717 126.091C80.0205 126.1 80.1687 126.075 80.3042 126.018C80.4397 125.96 80.5588 125.872 80.6517 125.761C81.3051 124.981 81.8151 125.324 82.1817 126.791Z" fill="#FAA575"/>
<path d="M196.182 128.011C193.022 138.324 190.315 148.754 188.062 159.301C187.548 161.687 187.505 163.494 187.932 164.721C189.118 168.141 191.472 169.277 194.992 168.131C196.918 168.957 197.055 169.624 195.402 170.131C194.015 170.557 192.755 170.974 191.622 171.381C186.922 169.161 184.942 165.691 185.682 160.971C187.268 150.851 190.282 140.267 194.722 129.221C194.895 128.127 195.382 127.724 196.182 128.011Z" fill="#F4EEE2"/>
<path d="M196.182 128.011L197.032 128.671C197.278 128.859 197.591 128.961 197.922 128.961C202.122 128.914 205.145 130.727 206.992 134.401C209.305 139.294 210.428 144.287 210.362 149.381C210.348 152.654 209.582 155.604 208.062 158.231C207.248 159.631 205.845 160.961 203.852 162.221C200.832 164.121 197.878 166.091 194.992 168.131C191.472 169.277 189.118 168.141 187.932 164.721C187.505 163.494 187.548 161.687 188.062 159.301C190.315 148.754 193.022 138.324 196.182 128.011Z" fill="#C55733"/>
<path d="M87.3916 130.221C89.2516 139.007 91.2783 147.754 93.4716 156.461C94.4983 160.561 94.4716 164.647 93.3916 168.721C90.2916 171.461 87.8749 170.961 86.1416 167.221C86.7549 166.887 87.4349 166.971 88.1816 167.471C89.6016 168.424 90.6716 168.334 91.3916 167.201C91.7716 166.614 91.9516 165.754 91.9316 164.621C91.8649 161.141 91.3649 157.507 90.4316 153.721C89.1916 148.714 87.5949 141.214 85.6416 131.221L87.3916 130.221Z" fill="#F4EEE2"/>
<path d="M206.992 134.401C211.098 138.121 213.302 142.747 213.602 148.281C213.615 148.594 213.708 148.904 213.882 149.211C214.655 150.564 214.172 150.984 212.432 150.471C211.452 150.177 210.762 149.814 210.362 149.381C210.428 144.287 209.305 139.294 206.992 134.401Z" fill="#FAA65C"/>
<path d="M162.552 139.811C159.765 142.764 156.818 145.241 153.712 147.241C148.245 150.767 142.422 151.407 136.242 149.161C132.862 147.927 128.835 145.184 124.162 140.931C136.635 140.157 149.432 139.784 162.552 139.811Z" fill="#FDFDFD"/>
<path d="M162.552 139.811C159.225 146.531 154.255 150.531 147.642 151.811C143.015 152.711 138.632 152.207 134.492 150.301C130.318 148.381 126.875 145.257 124.162 140.931C128.835 145.184 132.862 147.927 136.242 149.161C142.422 151.407 148.245 150.767 153.712 147.241C156.818 145.241 159.765 142.764 162.552 139.811Z" fill="#E97066"/>
<path d="M67.7915 152.451C67.9782 152.044 68.2149 151.881 68.5016 151.961C68.5601 151.977 68.6124 152.01 68.6546 152.056C68.6968 152.101 68.7278 152.159 68.7451 152.225C68.7625 152.29 68.7657 152.362 68.7547 152.434C68.7437 152.506 68.7187 152.577 68.6815 152.641C65.4749 158.041 62.0882 163.321 58.5215 168.481C55.8615 172.334 54.2082 175.401 53.5616 177.681C51.9016 183.547 52.5549 189.431 55.5215 195.331C58.1282 200.517 60.0982 207.064 61.4315 214.971C61.9315 217.931 61.9215 220.334 61.4015 222.181C61.3015 222.521 61.2116 222.517 61.1316 222.171C60.5849 219.764 60.2249 217.337 60.0515 214.891C59.8115 211.491 59.5015 209.074 59.1215 207.641C58.0682 203.681 56.4415 199.354 54.2415 194.661C50.6415 186.974 50.9049 179.437 55.0316 172.051C58.6849 165.511 62.7816 159.261 67.3216 153.301C67.4349 153.147 67.5915 152.864 67.7915 152.451Z" fill="#F07239"/>
<path d="M171.682 161.511C172.242 161.997 172.395 162.641 172.142 163.441C171.415 165.327 170.442 167.014 169.222 168.501C166.929 171.281 164.502 173.941 161.942 176.481C157.995 180.414 153.495 183.211 148.442 184.871C143.202 186.597 138.149 186.901 133.282 185.781C128.042 184.574 123.492 181.824 119.632 177.531C117.625 175.297 115.639 173.044 113.672 170.771C112.872 169.844 112.195 168.861 111.642 167.821C111.082 166.774 110.535 165.714 110.002 164.641C109.389 164.254 109.425 163.477 110.112 162.311C124.832 176.251 141.335 178.617 159.622 169.411C162.775 167.817 166.795 165.184 171.682 161.511Z" fill="#F4867C"/>
<path d="M172.142 163.441L172.472 188.971C172.025 191.384 172.345 193.647 173.432 195.761L158.482 203.041C157.162 203.681 156.462 204.691 156.382 206.071C155.875 215.437 153.959 224.801 150.632 234.161C148.719 239.567 146.082 244.587 142.722 249.221C141.129 245.261 139.969 242.574 139.242 241.161C136.802 236.401 135.012 231.411 133.872 226.191C133.405 224.064 133.342 221.491 133.682 218.471C134.129 214.477 132.982 210.791 130.242 207.411C128.789 205.611 126.589 204.714 123.642 204.721L110.422 198.381C110.762 195.147 110.669 192.011 110.142 188.971L110.002 164.641C110.535 165.714 111.082 166.774 111.642 167.821C112.195 168.861 112.872 169.844 113.672 170.771C115.639 173.044 117.625 175.297 119.632 177.531C123.492 181.824 128.042 184.574 133.282 185.781C138.149 186.901 143.202 186.597 148.442 184.871C153.495 183.211 157.995 180.414 161.942 176.481C164.502 173.941 166.929 171.281 169.222 168.501C170.442 167.014 171.415 165.327 172.142 163.441Z" fill="#FDBCAB"/>
<path d="M213.622 179.411C213.762 178.917 213.962 178.577 214.222 178.391C214.555 178.144 214.675 178.247 214.582 178.701C213.168 185.414 213.118 192.837 214.432 200.971C215.512 207.684 212.882 212.224 206.542 214.591C206.295 214.684 206.052 214.717 205.812 214.691C204.532 214.564 204.602 214.197 206.022 213.591C208.802 212.397 210.778 210.561 211.952 208.081C212.665 206.554 212.905 204.431 212.672 201.711C212.485 199.551 212.268 197.394 212.022 195.241C211.455 190.274 211.988 184.997 213.622 179.411Z" fill="#F5B486"/>
<path d="M71.572 217.761C71.4653 219.827 71.2186 220.694 70.8319 220.361C70.5986 220.167 70.4286 219.707 70.322 218.981C68.5553 206.847 67.1419 194.674 66.0819 182.461C65.9486 180.914 66.2719 180.561 67.0519 181.401C67.2534 181.621 67.3832 181.926 67.4219 182.271L71.4919 215.731C71.5786 216.424 71.6053 217.101 71.572 217.761Z" fill="#F5B486"/>
<path d="M142.722 249.221L142.392 249.721C141.445 250.387 140.315 250.601 139.002 250.361C134.755 243.127 131.668 236.644 129.742 230.911C127.402 223.944 125.368 215.214 123.642 204.721C126.588 204.714 128.788 205.611 130.242 207.411C132.982 210.791 134.128 214.477 133.682 218.471C133.342 221.491 133.405 224.064 133.872 226.191C135.012 231.411 136.802 236.401 139.242 241.161C139.968 242.574 141.128 245.261 142.722 249.221Z" fill="#F58477"/>
<path d="M51.3616 210.271L50.6016 206.901C50.4883 206.414 50.5683 206.227 50.8416 206.341C50.9883 206.407 51.1216 206.597 51.2416 206.911C52.0083 208.864 52.0116 210.687 51.2516 212.381C51.1649 212.567 51.0416 212.724 50.8816 212.851C50.0949 213.451 50.1316 213.081 50.9916 211.741C51.1552 211.486 51.2729 211.223 51.3367 210.97C51.4006 210.716 51.409 210.478 51.3616 210.271Z" fill="#E27136"/>
<path d="M42.7317 221.581C42.8251 221.387 42.9584 221.244 43.1317 221.151C43.5317 220.944 43.6084 221.051 43.3617 221.471C42.0484 223.711 40.6917 225.924 39.2917 228.111C38.8651 228.784 38.6751 228.821 38.7217 228.221C38.7351 228.101 38.7717 227.984 38.8317 227.871C39.9317 225.911 41.1284 224.014 42.4217 222.181C42.4551 222.141 42.5584 221.941 42.7317 221.581Z" fill="#F07239"/>
<path d="M142.392 249.721C142.912 251.067 143.175 252.817 143.182 254.971C143.215 262.871 143.195 270.767 143.122 278.661C143.122 278.815 143.077 278.965 142.992 279.089C142.908 279.213 142.789 279.304 142.652 279.351C142.185 279.504 141.695 279.564 141.182 279.531C140.842 279.511 140.518 279.551 140.212 279.651C138.925 280.071 138.308 279.637 138.362 278.351C138.395 277.557 138.412 277.134 138.412 277.081C138.158 268.201 138.355 259.294 139.002 250.361C140.315 250.601 141.445 250.387 142.392 249.721Z" fill="#F88B44"/>
</svg>
