<svg width="281" height="283" viewBox="0 0 281 283" fill="none" xmlns="http://www.w3.org/2000/svg">
<path d="M37.6416 238.471C45.4416 247.631 54.4216 255.527 64.5816 262.161" stroke="#FDDDD3" stroke-width="2"/>
<path d="M64.5815 262.161C77.5082 271.227 91.8248 277.607 107.531 281.301C107.669 281.332 107.811 281.332 107.949 281.301C108.086 281.27 108.214 281.209 108.325 281.122C108.435 281.034 108.525 280.923 108.586 280.797C108.648 280.67 108.681 280.531 108.682 280.391L108.721 262.471" stroke="#9E919B" stroke-width="2"/>
<path d="M108.722 262.471L108.952 255.721C108.957 255.51 108.991 255.314 109.048 255.159C109.105 255.004 109.183 254.897 109.272 254.851L109.972 254.471" stroke="#FCF9F7" stroke-width="2"/>
<path d="M109.972 254.471C114.612 260.257 120.202 264.387 126.742 266.861C132.668 269.094 139.228 269.771 146.422 268.891C156.522 267.651 165.712 263.614 173.992 256.781C176.265 254.907 177.988 252.794 179.162 250.441" stroke="#FEDCD3" stroke-width="2"/>
<path d="M179.162 250.441L178.932 279.491C178.933 279.597 178.958 279.702 179.005 279.797C179.053 279.892 179.122 279.975 179.206 280.039C179.29 280.103 179.388 280.147 179.491 280.166C179.594 280.185 179.701 280.18 179.802 280.151C191.868 276.731 202.982 271.804 213.142 265.371" stroke="#9E919B" stroke-width="2"/>
<path d="M213.142 265.371C227.022 256.837 238.828 245.977 248.562 232.791" stroke="#FDDBD2" stroke-width="2"/>
<path d="M248.562 232.791C249.942 231.017 251.451 228.967 253.091 226.641C254.245 225.001 254.488 223.057 253.822 220.811" stroke="#E5AB99" stroke-width="2"/>
<path d="M253.822 220.811C255.808 221.344 257.115 220.744 257.742 219.011" stroke="#FCF7F4" stroke-width="2"/>
<path d="M257.742 219.011C260.162 216.797 261.265 214.387 261.052 211.781" stroke="#F7B89C" stroke-width="2"/>
<path d="M261.052 211.781C262.359 211.361 263.132 210.904 263.372 210.411C283.805 168.591 284.535 126.367 265.562 83.7406C258.162 67.1073 247.892 52.4939 234.752 39.9006C217.939 23.7939 198.472 12.6939 176.352 6.60061C169.998 4.85394 163.458 3.59394 156.732 2.82061C140.125 0.907275 124.089 1.85394 108.622 5.6606C83.7952 11.7673 62.2118 23.8906 43.8718 42.0306C39.2185 46.6306 34.8519 51.6573 30.7719 57.1106C6.31187 89.7573 -2.71816 126.794 3.68184 168.221C7.15518 190.714 16.0085 211.444 30.2418 230.411C31.4352 231.997 33.9019 234.684 37.6419 238.471" stroke="#FEF3F0" stroke-width="2"/>
<path d="M261.052 211.781C260.725 202.034 256.822 194.201 249.342 188.281C247.822 187.074 246.322 185.837 244.842 184.571C241.515 181.724 239.482 178.241 238.742 174.121C238.508 172.807 238.482 170.701 238.662 167.801C238.788 165.694 238.878 163.584 238.932 161.471C239.165 151.484 234.728 144.671 225.622 141.031C220.928 139.151 216.485 136.834 212.292 134.081C209.898 132.514 208.228 131.021 207.282 129.601C205.995 127.674 205.265 125.467 205.092 122.981C204.965 121.174 204.912 118.587 204.932 115.221C204.945 112.994 205.202 111.014 205.702 109.281" stroke="#F7AD8D" stroke-width="2"/>
<path d="M205.702 109.281C210.922 105.167 214.518 100.157 216.492 94.2506C217.858 90.1639 218.075 85.9373 217.142 81.5706C215.202 72.4839 209.872 65.6139 201.152 60.9606C197.705 59.1206 195.975 56.2073 195.962 52.2206C195.935 45.0473 193.215 39.1739 187.802 34.6006C181.602 29.3539 174.638 25.9973 166.912 24.5306C161.372 23.4839 156.568 23.5639 152.502 24.7706C147.742 26.1839 143.592 29.0306 140.052 33.3106C139.992 33.3838 139.916 33.4429 139.831 33.4834C139.745 33.5239 139.651 33.5449 139.557 33.5449C139.462 33.5449 139.369 33.5239 139.283 33.4834C139.197 33.4429 139.122 33.3838 139.062 33.3106C136.928 30.7506 134.532 28.9406 131.872 27.8806C125.145 25.1939 118.248 24.7239 111.182 26.4706C104.835 28.0373 99.7684 31.0173 95.9818 35.4106C94.3418 37.3039 92.9684 39.7173 91.8618 42.6506C90.8751 45.2773 90.0851 47.9706 89.4918 50.7306C88.0451 57.5439 84.7185 63.2339 79.5118 67.8006C75.1651 71.6206 72.5751 74.0306 71.7418 75.0306C65.9551 81.9906 66.0384 89.1173 71.9918 96.4106C73.8518 98.6839 77.1451 101.097 81.8718 103.651" stroke="#FDBC96" stroke-width="2"/>
<path d="M81.8716 103.651L85.3316 109.651" stroke="#928082" stroke-width="2"/>
<path d="M85.3315 109.651C76.0915 114.817 70.9115 122.677 69.7915 133.231C69.3315 137.597 68.8782 140.594 68.4315 142.221C67.6315 145.134 66.1182 147.621 63.8915 149.681C61.2915 152.081 58.6982 154.484 56.1115 156.891C50.8448 161.804 48.5315 167.907 49.1715 175.201C49.3981 177.801 49.6582 180.401 49.9515 183.001C50.4915 187.834 48.8815 191.721 45.1215 194.661C42.1015 197.021 39.9382 200.147 38.6315 204.041C37.7848 206.587 37.3448 210.251 37.3115 215.031C37.2715 222.177 37.6448 229.311 38.4315 236.431" stroke="#F7AD8D" stroke-width="2"/>
<path d="M38.4316 236.431L37.6416 238.471" stroke="#FCD2C5" stroke-width="2"/>
<path d="M205.702 109.281C206.788 107.381 206.212 106.277 203.972 105.971" stroke="#F78142" stroke-width="2"/>
<path d="M203.972 105.971C204.685 101.157 203.155 97.4206 199.382 94.7606C196.762 92.914 193.915 91.5473 190.842 90.6606C190.715 90.624 190.599 90.547 190.505 90.4378C190.412 90.3286 190.345 90.1914 190.312 90.0406C190.265 89.8006 190.182 89.5873 190.062 89.4006C189.895 89.1339 189.582 88.9573 189.122 88.8706C184.702 88.0373 181.138 87.154 178.432 86.2206C174.592 84.894 171.278 82.4573 168.492 78.9106C166.912 76.8906 164.085 72.2839 160.012 65.0906C157.625 60.8773 155.162 57.9406 152.622 56.2806C150.395 54.8273 148.248 54.224 146.182 54.4706C141.788 54.9906 138.055 57.1773 134.982 61.0306C132.642 63.9706 130.622 67.1039 128.922 70.4306C126.355 75.4506 124.782 78.3206 124.202 79.0406C121.675 82.2206 118.432 84.6173 114.472 86.2306C106.738 89.384 98.7851 91.8706 90.6118 93.6906" stroke="#FDA579" stroke-width="2"/>
<path d="M90.6116 93.6906C87.6983 95.2839 85.1116 97.194 82.8516 99.4206C82.718 99.5538 82.6182 99.7058 82.5647 99.8572C82.5113 100.009 82.5067 100.153 82.5516 100.271C82.6249 100.457 82.7516 100.621 82.9316 100.761" stroke="#F8AC83" stroke-width="2"/>
<path d="M82.9316 100.761L81.8716 103.651" stroke="#925436" stroke-width="2"/>
<path d="M257.742 219.011C258.175 210.537 256.125 202.967 251.592 196.301C250.518 194.714 248.632 192.767 245.932 190.461C243.638 188.501 241.475 186.407 239.442 184.181C237.602 182.167 236.358 180.337 235.712 178.691C234.878 176.577 234.512 174.337 234.612 171.971C234.792 167.804 234.878 163.637 234.872 159.471C234.865 154.951 233.655 151.431 231.242 148.911C229.048 146.617 225.645 144.504 221.032 142.571C217.072 140.911 213.602 139.147 210.622 137.281C204.102 133.207 200.962 127.167 201.202 119.161" stroke="#F5B191" stroke-width="2"/>
<path d="M199.182 118.761C198.408 119.081 197.812 119.567 197.392 120.221C196.772 121.194 196.352 121.787 196.132 122.001C195.372 122.734 194.612 123.464 193.852 124.191C193.729 124.308 193.635 124.447 193.579 124.595C193.523 124.743 193.507 124.896 193.532 125.041L193.902 127.211" stroke="#8F868A" stroke-width="2"/>
<path d="M193.902 127.211C193.148 127.344 192.678 127.077 192.492 126.411C192.125 125.064 191.438 124.904 190.432 125.931" stroke="#75362A" stroke-width="2"/>
<path d="M190.432 125.931L186.642 127.721" stroke="#936964" stroke-width="2"/>
<path d="M186.642 127.721C179.608 130.587 172.378 131.347 164.952 130.001" stroke="#91504D" stroke-width="2"/>
<path d="M164.952 130.001C161.545 127.987 158.902 125.367 157.022 122.141C154.222 117.321 152.392 112.157 151.532 106.651C151.385 105.717 151.182 104.997 150.922 104.491C149.975 102.671 148.992 102.914 147.972 105.221" stroke="#926965" stroke-width="2"/>
<path d="M147.972 105.221L147.182 109.181" stroke="#8F4B47" stroke-width="2"/>
<path d="M147.182 109.181C145.442 115.794 142.042 120.747 136.982 124.041C132.642 126.867 127.205 128.277 120.672 128.271C114.032 128.264 107.618 126.734 101.432 123.681" stroke="#936964" stroke-width="2"/>
<path d="M101.432 123.681L93.4717 118.721" stroke="#8E5857" stroke-width="2"/>
<path d="M93.4716 118.721L88.1816 113.681" stroke="#8F868A" stroke-width="2"/>
<path d="M88.1816 113.681C87.9216 113.341 87.5883 113.091 87.1816 112.931" stroke="#6B2C2C" stroke-width="2"/>
<path d="M87.1816 112.931C87.375 112.131 87.125 111.631 86.4316 111.431" stroke="#918689" stroke-width="2"/>
<path d="M86.4315 111.431L85.3315 109.651" stroke="#8C452E" stroke-width="2"/>
<path d="M82.9316 100.761C84.7183 98.3273 86.9483 96.6273 89.6216 95.6606C91.395 95.0139 93.2883 95.2673 95.3016 96.4206" stroke="#8D706F" stroke-width="2"/>
<path d="M96.3916 97.9706C96.8583 98.8906 97.0716 99.8706 97.0316 100.911C97.0249 101.197 97.0783 101.214 97.1916 100.961C98.6116 97.9539 101.028 95.9106 104.442 94.8306" stroke="#90777C" stroke-width="2"/>
<path d="M86.4318 111.431C82.3251 114.684 79.8884 116.761 79.1218 117.661C75.1084 122.334 72.8284 127.767 72.2817 133.961C71.7884 139.641 71.3184 143.041 70.8718 144.161C69.4851 147.647 67.3951 150.644 64.6017 153.151C63.0684 154.531 61.5284 155.894 59.9818 157.241C52.9351 163.367 50.6417 171.034 53.1017 180.241C54.7417 186.374 53.1651 191.597 48.3718 195.911C43.8784 199.944 41.3151 205.131 40.6818 211.471C40.1751 216.531 40.3551 224.197 41.2217 234.471" stroke="#F5B395" stroke-width="2"/>
<path d="M41.2216 234.471C40.6616 235.637 39.7316 236.291 38.4316 236.431" stroke="#F69771" stroke-width="2"/>
<path d="M203.972 105.971C203.725 109.311 203.128 112.061 202.182 114.221C201.368 116.074 201.042 117.721 201.202 119.161" stroke="#F79671" stroke-width="2"/>
<path d="M201.202 119.161C200.109 119.041 199.589 119.227 199.642 119.721" stroke="#FCD4C9" stroke-width="2"/>
<path d="M199.642 119.721L199.182 119.181" stroke="#ED7365" stroke-width="2"/>
<path d="M199.182 119.181V118.761" stroke="#FAD6CD" stroke-width="2"/>
<path d="M199.182 118.761C201.802 114.114 203.142 109.101 203.202 103.721C203.235 100.547 202.082 98.0273 199.742 96.1606C197.815 94.6206 195.655 93.5106 193.262 92.8306C192.209 92.5306 189.855 92.1206 186.202 91.6006C179.155 90.594 172.065 90.184 164.932 90.3706C158.965 90.5306 154.025 92.7973 150.112 97.1706C148.812 98.624 147.522 98.614 146.242 97.1406C142.802 93.1606 138.365 90.9373 132.932 90.4706C124.225 89.7173 114.729 91.1706 104.442 94.8306" stroke="#926965" stroke-width="2"/>
<path d="M104.442 94.8306C101.442 94.9506 98.7583 95.9973 96.3916 97.9706" stroke="#FBC8BF" stroke-width="2"/>
<path d="M96.3918 97.9706L95.3018 96.4206" stroke="#926965" stroke-width="2"/>
<path d="M95.3018 96.4206C94.5285 94.654 92.9651 93.7439 90.6118 93.6906" stroke="#F8C0B2" stroke-width="2"/>
<path d="M81.6816 153.931C79.6216 156.691 77.435 159.017 75.1216 160.911C70.035 165.064 67.8983 170.241 68.7117 176.441C68.7183 176.461 69.175 178.244 70.0817 181.791C71.2883 186.504 70.8783 191.074 68.8516 195.501C68.845 195.514 68.125 196.744 66.6917 199.191C64.4917 202.937 63.835 207.027 64.7216 211.461C65.475 215.227 65.2183 219.144 63.9517 223.211" stroke="#E6A995" stroke-width="2"/>
<path d="M63.9517 223.211L45.7217 231.471" stroke="#E68A6D" stroke-width="2"/>
<path d="M75.9316 220.181L68.6816 222.261" stroke="#873D37" stroke-width="2"/>
<path d="M68.6816 222.261L67.6816 221.681" stroke="#E6896F" stroke-width="2"/>
<path d="M67.6817 221.681C68.475 217.507 68.365 213.234 67.3517 208.861C67.045 207.547 67.1617 206.277 67.7017 205.051C69.1617 201.737 70.655 198.247 72.1817 194.581C73.115 192.321 73.4483 190.201 73.1817 188.221C72.9083 186.214 72.095 182.444 70.7417 176.911C69.3617 171.271 70.925 166.291 75.4317 161.971C78.305 159.217 80.555 156.647 82.1817 154.261" stroke="#E5A897" stroke-width="2"/>
<path d="M108.722 253.221V262.471" stroke="#9C8B94" stroke-width="2"/>
<path d="M64.5815 262.161C66.7415 248.781 68.1082 235.481 68.6815 222.261" stroke="#9C6F70" stroke-width="2"/>
<path d="M67.6816 221.681C66.5616 222.581 65.3183 223.091 63.9517 223.211" stroke="#FBDAD1" stroke-width="2"/>
<path d="M87.1816 112.931L84.9316 115.181" stroke="#D49A93" stroke-width="2"/>
<path d="M84.9315 115.181C81.8182 117.294 79.5082 120.081 78.0015 123.541C76.0282 128.047 75.1282 132.774 75.3015 137.721C75.5482 144.687 73.1648 150.511 68.1515 155.191C65.6115 157.571 63.1815 160.057 60.8615 162.651C58.3482 165.471 56.9515 168.681 56.6715 172.281C56.5715 173.527 56.8215 175.457 57.4215 178.071C57.8682 179.984 58.1948 181.917 58.4015 183.871C58.7348 186.937 58.4415 189.617 57.5215 191.911C56.4415 194.571 54.8482 196.861 52.7415 198.781C50.4615 200.861 48.6948 203.167 47.4415 205.701C46.4148 207.774 45.7482 210.534 45.4415 213.981C44.9282 219.807 45.0215 225.637 45.7215 231.471" stroke="#E6A691" stroke-width="2"/>
<path d="M45.7217 231.471C44.555 232.984 43.055 233.984 41.2217 234.471" stroke="#FBD7CC" stroke-width="2"/>
<path d="M253.822 220.811C253.028 214.537 251.355 208.371 248.802 202.311C247.322 198.811 244.865 195.864 241.432 193.471C238.445 191.384 235.548 188.614 232.742 185.161C229.842 181.581 228.808 177.234 229.642 172.121C230.675 165.827 230.855 161.277 230.182 158.471C229.315 154.851 227.462 152.121 224.622 150.281C222.088 148.641 217.661 146.157 211.341 142.831C205.221 139.617 201.302 134.694 199.582 128.061" stroke="#E3A48F" stroke-width="2"/>
<path d="M151.001 138.841C148.868 139.794 146.628 140.257 144.281 140.231C144.015 140.224 143.778 140.241 143.572 140.281C142.285 140.527 142.318 140.851 143.671 141.251C146.878 142.197 149.938 142.134 152.851 141.061" stroke="#FDA895" stroke-width="2"/>
<path d="M160.642 131.721C161.368 130.987 162.105 130.864 162.852 131.351C163.172 131.557 163.465 131.694 163.732 131.761C164.732 132.001 165.402 132.467 165.742 133.161C167.068 135.821 167.902 137.404 168.242 137.911C170.295 140.951 173.285 142.111 177.212 141.391C179.998 140.877 182.218 139.551 183.872 137.411C185.345 135.497 186.592 133.287 187.612 130.781C187.872 130.141 187.918 129.591 187.752 129.131C187.545 128.577 187.175 128.107 186.642 127.721" stroke="#FCA08F" stroke-width="2"/>
<path d="M190.432 125.931C188.765 137.464 185.579 148.374 180.872 158.661C178.225 164.441 174.519 169.457 169.752 173.711" stroke="#E0866C" stroke-width="2"/>
<path d="M169.752 173.711C159.405 182.971 147.818 185.704 134.992 181.911C129.412 180.257 123.475 177.041 117.182 172.261" stroke="#F9A091" stroke-width="2"/>
<path d="M117.182 172.261C108.248 164.447 101.832 154.931 97.9317 143.711C97.9054 143.64 97.8661 143.579 97.8194 143.536C97.7727 143.493 97.721 143.47 97.6717 143.471H97.4717" stroke="#E2866B" stroke-width="2"/>
<path d="M97.4716 143.471L97.1416 141.971" stroke="#FCD9D0" stroke-width="2"/>
<path d="M97.1419 141.971C95.9886 137.411 94.6886 133.557 93.2419 130.411C91.6686 126.977 91.1686 123.431 91.7419 119.771" stroke="#E7886E" stroke-width="2"/>
<path d="M91.7417 119.771C93.4017 122.917 95.0417 126.041 96.6617 129.141C98.3417 132.341 100.245 135.401 102.372 138.321C104.765 141.601 107.785 143.234 111.432 143.221C119.852 143.194 123.602 138.964 122.682 130.531C122.666 130.389 122.6 130.258 122.496 130.159C122.392 130.061 122.256 130.001 122.112 129.991C116.345 129.497 110.702 128.394 105.182 126.681" stroke="#FDA191" stroke-width="2"/>
<path d="M105.182 126.681C103.508 126.294 102.195 125.704 101.242 124.911C100.622 124.384 100.685 123.974 101.432 123.681" stroke="#FAA999" stroke-width="2"/>
<path d="M164.952 130.001C162.718 129.841 160.808 128.914 159.222 127.221" stroke="#FCA090" stroke-width="2"/>
<path d="M159.222 127.221C155.382 122.434 152.868 117.434 151.682 112.221C150.915 108.874 150.362 106.634 150.022 105.501C149.989 105.388 149.907 105.291 149.791 105.225C149.674 105.16 149.53 105.13 149.382 105.141L147.972 105.221" stroke="#FA9C8A" stroke-width="2"/>
<path d="M199.182 119.181C198.335 119.874 197.905 120.804 197.892 121.971" stroke="#E99089" stroke-width="2"/>
<path d="M197.892 121.971C196.358 122.517 195.538 123.517 195.432 124.971C194.825 133.324 195.838 141.824 198.472 150.471" stroke="#E1A693" stroke-width="2"/>
<path d="M198.472 150.471C197.638 150.931 197.472 151.514 197.972 152.221" stroke="#F8E5E3" stroke-width="2"/>
<path d="M197.972 152.221C198.805 156.694 198.275 160.987 196.382 165.101C195.102 167.881 193.958 170.717 192.952 173.611C192.152 175.931 191.992 178.297 192.472 180.711C193.185 184.257 193.318 187.797 192.872 191.331C192.518 194.117 192.382 195.891 192.462 196.651C192.628 198.284 193.055 200.037 193.742 201.911C195.288 206.111 195.268 210.561 193.682 215.261" stroke="#E0A592" stroke-width="2"/>
<path d="M193.682 215.261L190.202 214.961" stroke="#9A8B95" stroke-width="2"/>
<path d="M190.202 214.961C191.435 210.527 191.575 206.551 190.622 203.031C189.568 199.171 189.265 195.554 189.712 192.181C190.112 189.187 190.312 187.534 190.312 187.221C190.312 185.701 190.185 184.034 189.932 182.221C189.265 177.401 189.998 172.757 192.132 168.291C193.345 165.744 193.955 164.464 193.962 164.451C195.935 159.411 196.432 154.167 195.452 148.721C194.178 141.614 193.662 134.444 193.902 127.211" stroke="#DCA391" stroke-width="2"/>
<path d="M190.202 214.961L180.472 213.971" stroke="#803B35" stroke-width="2"/>
<path d="M180.472 213.971C175.212 212.637 172.198 209.471 171.432 204.471C170.485 198.297 170.032 188.767 170.072 175.881" stroke="#E0866D" stroke-width="2"/>
<path d="M170.072 175.881C170.419 175.441 170.312 174.717 169.752 173.711" stroke="#DB6D57" stroke-width="2"/>
<path d="M88.1818 113.681C87.6751 113.821 87.4251 114.154 87.4318 114.681" stroke="#D29A93" stroke-width="2"/>
<path d="M87.4316 114.681C86.6516 115.261 85.8183 115.427 84.9316 115.181" stroke="#C04D33" stroke-width="2"/>
<path d="M93.4716 118.721C93.4983 119.107 93.3183 119.287 92.9316 119.261" stroke="#F6C6BE" stroke-width="2"/>
<path d="M92.9316 119.261C92.2183 119.094 91.5916 118.777 91.0516 118.311C91.005 118.271 90.9496 118.242 90.8907 118.227C90.8319 118.211 90.7715 118.209 90.7153 118.221C90.6592 118.233 90.6091 118.259 90.5699 118.295C90.5308 118.332 90.5038 118.379 90.4916 118.431L90.1816 119.931" stroke="#F9BEB7" stroke-width="2"/>
<path d="M90.1818 119.931C88.9084 125.957 87.5584 131.967 86.1318 137.961C85.6051 140.174 85.5384 142.677 85.9318 145.471C86.9318 152.624 87.6517 157.111 88.0917 158.931C88.8384 162.031 88.7518 164.997 87.8318 167.831C87.4784 168.917 86.5051 170.714 84.9117 173.221C83.3317 175.707 82.4218 177.541 82.1818 178.721C81.5751 181.727 81.5118 184.041 81.9918 185.661C83.3651 190.261 84.0951 193.281 84.1818 194.721C84.3284 197.247 83.7784 199.601 82.5317 201.781C82.0651 202.581 81.1351 204.247 79.7418 206.781C77.5151 210.827 77.2451 215.211 78.9318 219.931" stroke="#E3A593" stroke-width="2"/>
<path d="M78.9316 219.931C77.9583 220.257 76.9583 220.341 75.9316 220.181" stroke="#9A8B95" stroke-width="2"/>
<path d="M75.9319 220.181C74.6319 214.941 75.2785 209.997 77.8719 205.351C78.8185 203.657 79.7652 201.964 80.7119 200.271C81.8986 198.157 82.3986 195.967 82.2119 193.701C82.2119 193.687 81.6752 191.777 80.6019 187.971C79.5819 184.357 79.6885 180.791 80.9219 177.271C81.2685 176.291 82.2186 174.781 83.7719 172.741C86.7319 168.854 87.7852 164.431 86.9319 159.471C85.9319 153.637 85.2919 149.004 85.0119 145.571C84.9986 145.451 84.9652 145.347 84.9119 145.261C84.7319 144.987 84.6252 145.144 84.5918 145.731C84.4252 148.784 83.6219 151.627 82.1819 154.261" stroke="#E3A593" stroke-width="2"/>
<path d="M82.1816 154.261L81.6816 153.931" stroke="#F8F6F5" stroke-width="2"/>
<path d="M81.6816 153.931C82.2683 152.411 82.685 150.257 82.9316 147.471C83.2983 143.377 84.765 136.247 87.3317 126.081C87.705 124.587 87.9717 122.997 88.1317 121.311C88.285 119.691 88.4683 118.077 88.6816 116.471C88.7683 115.824 88.3516 115.227 87.4316 114.681" stroke="#E4A691" stroke-width="2"/>
<path d="M159.222 127.221C159.362 128.807 159.835 130.307 160.642 131.721" stroke="#F98371" stroke-width="2"/>
<path d="M160.642 131.721C161.548 137.661 158.952 140.774 152.852 141.061" stroke="#FB9C89" stroke-width="2"/>
<path d="M152.852 141.061C156.512 140.187 158.752 138.067 159.572 134.701C159.65 134.403 159.618 134.072 159.482 133.761C158.149 130.647 156.792 127.544 155.412 124.451C154.825 123.137 154.435 123.087 154.242 124.301C154.195 124.554 154.212 124.827 154.292 125.121C155.079 127.934 155.292 130.967 154.932 134.221C154.632 136.894 153.322 138.434 151.002 138.841" stroke="#F98A78" stroke-width="2"/>
<path d="M151.002 138.841C151.462 130.021 151.105 121.331 149.932 112.771C149.892 112.451 149.768 112.157 149.562 111.891C148.842 110.937 148.465 110.297 148.432 109.971C148.358 109.297 147.942 109.034 147.182 109.181" stroke="#FB9C89" stroke-width="2"/>
<path d="M199.642 119.721L199.582 128.061" stroke="#EB8E85" stroke-width="2"/>
<path d="M199.582 128.061C198.568 126.221 198.005 124.191 197.892 121.971" stroke="#D4422B" stroke-width="2"/>
<path d="M117.182 172.261C116.922 173.767 117.022 175.094 117.482 176.241" stroke="#DD6C56" stroke-width="2"/>
<path d="M117.482 176.241C117.542 180.881 117.525 189.374 117.432 201.721C117.378 208.394 114.282 212.644 108.142 214.471" stroke="#E1866C" stroke-width="2"/>
<path d="M108.142 214.471L98.4717 215.471" stroke="#813B34" stroke-width="2"/>
<path d="M180.472 213.971L179.162 250.441" stroke="#9D6E70" stroke-width="2"/>
<path d="M109.972 254.471C110.018 253.544 109.602 253.127 108.722 253.221" stroke="#FCD6CC" stroke-width="2"/>
<path d="M108.722 253.221L108.142 214.471" stroke="#9D6E70" stroke-width="2"/>
<path d="M97.1415 141.971C95.7949 143.924 95.1415 145.924 95.1815 147.971C95.2548 151.444 95.6215 155.871 96.2815 161.251C96.2815 161.284 96.4015 162.097 96.6415 163.691C97.2215 167.531 96.9282 171.314 95.7615 175.041C94.6082 178.747 94.5115 182.644 95.4715 186.731C95.8915 188.524 95.7448 190.267 95.0315 191.961C94.1248 194.107 93.2081 196.394 92.2815 198.821C91.1415 201.821 90.5448 204.194 90.4915 205.941C90.3715 209.947 91.7682 213.527 94.6815 216.681" stroke="#E5A897" stroke-width="2"/>
<path d="M94.6816 216.681L78.9316 219.931" stroke="#873D37" stroke-width="2"/>
<path d="M97.4718 143.471C96.6318 149.557 96.8152 155.617 98.0218 161.651C99.0552 166.844 98.9418 171.617 97.6818 175.971C97.1818 177.704 96.9051 179.301 96.8518 180.761C96.8251 181.514 97.1551 183.061 97.8418 185.401C98.2751 186.894 98.4685 188.414 98.4218 189.961C98.3818 191.127 97.9918 192.574 97.2518 194.301C96.1052 196.954 95.1118 199.661 94.2718 202.421C93.7918 204.014 93.6151 205.404 93.7418 206.591C93.9218 208.231 94.4218 209.587 95.2418 210.661C96.4218 212.194 97.4985 213.797 98.4718 215.471" stroke="#E0A695" stroke-width="2"/>
<path d="M98.4716 215.471C97.4116 216.351 96.1483 216.754 94.6816 216.681" stroke="#9C8E99" stroke-width="2"/>
<path d="M248.562 232.791C242.022 228.291 235.312 224.337 228.432 220.931" stroke="#E4886D" stroke-width="2"/>
<path d="M228.432 220.931C229.705 215.931 230.338 210.877 230.332 205.771C230.332 202.257 229.785 199.481 228.692 197.441C227.385 195.007 225.402 192.831 222.742 190.911C217.568 187.171 215.625 182.051 216.912 175.551C217.412 173.044 217.665 171.771 217.672 171.731C217.998 169.211 218.002 167.207 217.682 165.721C217.148 163.247 215.462 161.264 212.622 159.771C209.968 158.377 207.265 157.077 204.512 155.871C201.905 154.717 199.892 152.917 198.472 150.471" stroke="#E39785" stroke-width="2"/>
<path d="M170.071 175.881C166.958 180.947 163.725 184.957 160.371 187.911C154.158 193.371 147.418 195.171 140.151 193.311C136.398 192.344 132.281 189.997 127.801 186.271C124.108 183.197 120.668 179.854 117.481 176.241" stroke="#F9A092" stroke-width="2"/>
<path d="M92.9316 119.261L96.3416 122.361C96.4363 122.449 96.5153 122.571 96.5738 122.719C96.6322 122.866 96.6689 123.037 96.6816 123.221C96.7616 124.301 97.325 125.154 98.3716 125.781C100.605 127.121 102.875 127.421 105.182 126.681" stroke="#F89084" stroke-width="2"/>
<path d="M91.7416 119.771C91.155 119.364 90.635 119.417 90.1816 119.931" stroke="#E67059" stroke-width="2"/>
<path d="M206.642 217.471L213.142 265.371" stroke="#9D6D6F" stroke-width="2"/>
<path d="M228.432 220.931C227.805 221.097 226.958 220.997 225.892 220.631" stroke="#FBC7BD" stroke-width="2"/>
<path d="M225.892 220.631C227.152 215.244 227.952 209.807 228.292 204.321C228.438 201.887 228.128 199.884 227.362 198.311C226.428 196.391 225.098 194.751 223.372 193.391C221.625 192.004 220.742 191.304 220.722 191.291C216.175 186.937 214.658 181.404 216.172 174.691C216.498 173.231 216.762 171.757 216.962 170.271C217.568 165.691 215.832 162.377 211.752 160.331C209.132 159.011 206.462 157.787 203.742 156.661C201.422 155.694 199.498 154.214 197.972 152.221" stroke="#E29684" stroke-width="2"/>
<path d="M225.892 220.631C219.838 218.937 213.422 217.884 206.642 217.471" stroke="#E3876C" stroke-width="2"/>
<path d="M206.642 217.471L193.682 215.261" stroke="#843D35" stroke-width="2"/>
<path d="M234.911 103.961C236.118 104.367 237.115 103.891 237.901 102.531C240.955 97.3106 241.422 91.9773 239.302 86.5306C238.495 84.4639 237.395 84.2939 236.002 86.0206C232.515 90.3406 231.448 95.5406 232.802 101.621C233.068 102.801 233.771 103.581 234.911 103.961Z" stroke="#FACCBA" stroke-width="2"/>
<path d="M249.232 144.201C250.505 145.281 251.882 145.434 253.362 144.661C256.662 142.941 259.162 140.417 260.862 137.091C264.522 129.924 266.138 122.301 265.712 114.221C265.372 107.754 262.925 106.651 258.372 110.911C250.858 117.931 247.002 127.014 246.802 138.161C246.755 140.781 247.565 142.794 249.232 144.201Z" stroke="#FCC7AB" stroke-width="2"/>
<path d="M25.3118 178.531C27.0185 178.477 28.3818 177.777 29.4018 176.431C31.9618 173.057 33.8218 169.377 34.9818 165.391C35.7685 162.711 36.4085 159.934 36.9018 157.061C37.3818 154.227 37.5218 151.364 37.3218 148.471C37.2285 147.224 36.8518 146.344 36.1918 145.831C35.1652 145.024 33.9952 145.237 32.6818 146.471C25.7685 152.964 22.1885 161.131 21.9418 170.971C21.8885 172.997 22.1285 174.884 22.6618 176.631C23.0618 177.944 23.9452 178.577 25.3118 178.531Z" stroke="#FCC2A3" stroke-width="2"/>
<path d="M102.922 42.9506C101.155 45.484 99.8982 48.2373 99.1516 51.2106C98.4049 54.1573 98.025 55.6473 98.0116 55.6806C96.365 60.6939 93.9249 65.3073 90.6916 69.5206C88.9983 71.7339 86.6416 73.364 83.6216 74.4106C81.2749 75.224 78.3116 76.5573 74.7316 78.4106C74.5649 78.4973 74.4149 78.5973 74.2816 78.7106C73.1416 79.6773 73.2549 79.8839 74.6216 79.3306C78.5083 77.7506 82.4316 76.264 86.3916 74.8706C88.7716 74.0306 90.4316 72.9606 91.3716 71.6606C94.6383 67.114 97.355 61.5773 99.5216 55.0506C99.5283 55.0306 99.9083 53.6306 100.662 50.8506C102.375 44.5373 106.285 39.9406 112.392 37.0606C113.505 36.5406 113.372 36.334 111.992 36.4406C111.785 36.4606 111.582 36.504 111.382 36.5706C107.875 37.764 105.055 39.8906 102.922 42.9506Z" stroke="#F9A268" stroke-width="2"/>
<path d="M162.162 38.6506C170.395 41.1106 176.642 45.9173 180.902 53.0706C181.615 54.2706 182.109 55.844 182.382 57.7906C183.735 67.444 188.835 74.5873 197.682 79.2206C201.389 81.154 204.839 83.4573 208.032 86.1306C209.185 87.0973 209.562 86.8373 209.162 85.3506C208.983 84.6848 208.548 84.1168 207.952 83.7706C203.492 81.1706 199.319 78.7239 195.432 76.4306C189.865 73.1439 186.105 68.5273 184.152 62.5806C184.138 62.5406 183.752 60.784 182.992 57.3106C182.205 53.724 180.665 50.3806 178.372 47.2806C174.359 41.8673 169.035 38.7706 162.402 37.9906C162.242 37.9773 162.092 37.984 161.952 38.0106C161.212 38.1773 161.282 38.3906 162.162 38.6506Z" stroke="#F9A268" stroke-width="2"/>
<path d="M163.312 46.8806C166.165 48.954 168.429 51.2806 170.102 53.8606C170.259 54.1096 170.352 54.4275 170.372 54.7806C170.425 55.7806 170.715 56.824 171.242 57.9106C172.082 59.624 172.395 61.5606 172.182 63.7206C172.109 64.454 172.599 66.6673 173.652 70.3606C173.959 71.4206 174.369 71.6706 174.882 71.1106C174.978 71.0087 175.047 70.8747 175.083 70.7199C175.12 70.5651 175.123 70.394 175.092 70.2206C174.672 67.9606 174.362 65.684 174.162 63.3906C173.902 60.5373 173.435 58.324 172.762 56.7506C171.275 53.2773 169.162 50.184 166.422 47.4706C165.322 46.384 164.442 45.794 163.782 45.7006C162.082 45.4806 161.925 45.874 163.312 46.8806Z" stroke="#FC9B53" stroke-width="2"/>
<path d="M103.112 80.6706C101.958 81.904 100.555 82.6906 98.9016 83.0306C94.9416 83.8373 90.9383 84.8606 86.8916 86.1006C82.185 87.5473 79.3649 90.6706 78.4316 95.4706C78.1716 96.8173 78.4416 97.964 79.2416 98.9106C79.4216 99.124 79.6316 99.2373 79.8716 99.2506C79.9341 99.2551 79.9966 99.2426 80.0548 99.2139C80.113 99.1852 80.1656 99.1409 80.2091 99.0842C80.2527 99.0274 80.2861 98.9593 80.3072 98.8846C80.3283 98.8098 80.3367 98.73 80.3316 98.6506C80.0183 93.7906 82.0516 90.6473 86.4316 89.2206C91.0249 87.7206 95.6016 86.1773 100.162 84.5906C101.515 84.1173 102.605 83.3639 103.432 82.3306C107.878 76.7573 110.882 70.504 112.442 63.5706C113.368 59.4373 114.145 56.7873 114.772 55.6206C116.412 52.5673 118.778 50.084 121.872 48.1706C122.538 47.7573 123.105 47.2706 123.572 46.7106C124.172 45.9906 124.045 45.8239 123.192 46.2106C118.725 48.2373 115.438 51.3706 113.332 55.6106C112.885 56.5173 112.415 57.8306 111.922 59.5506C111.535 60.9106 111.138 62.264 110.732 63.6106C110.712 63.6706 110.242 65.564 109.322 69.2906C108.255 73.5706 106.185 77.364 103.112 80.6706Z" stroke="#FAAF7A" stroke-width="2"/>
<path d="M131.042 56.7706C129.942 58.3773 130.102 58.3139 131.522 56.5806C132.215 55.7339 132.115 55.7273 131.222 56.5606C131.155 56.6273 131.095 56.6973 131.042 56.7706Z" stroke="#F08140" stroke-width="2"/>
<path d="M118.272 69.1506C118.359 69.1773 118.442 69.1473 118.522 69.0606C118.589 68.9873 118.625 68.8806 118.632 68.7406C118.745 66.9739 118.945 65.2206 119.232 63.4806C119.392 62.4673 119.205 62.0706 118.672 62.2906C118.539 62.3432 118.419 62.4363 118.321 62.5619C118.224 62.6874 118.152 62.8415 118.112 63.0106L116.782 68.4806C116.741 68.6493 116.744 68.8206 116.79 68.9699C116.837 69.1192 116.925 69.2385 117.042 69.3106C117.348 69.5039 117.662 69.4573 117.982 69.1706C118.012 69.1442 118.056 69.1283 118.107 69.1247C118.158 69.1212 118.215 69.1301 118.272 69.1506Z" stroke="#F08140" stroke-width="2"/>
<path d="M107.012 70.5506C107.539 69.9773 107.789 69.3673 107.762 68.7206C107.742 68.3606 107.592 68.3073 107.312 68.5606C101.165 74.2473 93.9752 77.9806 85.7419 79.7606C82.6019 80.434 79.5852 81.454 76.6919 82.8206C76.6236 82.8516 76.5615 82.8952 76.51 82.9482C76.4585 83.0012 76.4189 83.0624 76.3941 83.1274C76.3692 83.1924 76.3597 83.2595 76.3663 83.324C76.3728 83.3886 76.3952 83.4488 76.4319 83.5006C76.6652 83.8339 77.0819 83.9073 77.6819 83.7206C80.8019 82.7406 83.9385 81.8239 87.0918 80.9706C87.1518 80.9506 88.3852 80.6539 90.7919 80.0806C97.1385 78.5673 102.545 75.3906 107.012 70.5506Z" stroke="#FAA971" stroke-width="2"/>
<path d="M189.712 86.3106C194.485 88.3839 198.905 91.0206 202.972 94.2206C203.086 94.3105 203.177 94.4302 203.236 94.5695C203.295 94.7088 203.321 94.8636 203.312 95.0206C203.225 96.3006 203.745 97.0706 204.872 97.3306C204.936 97.3449 205.002 97.3451 205.067 97.3312C205.131 97.3172 205.191 97.2894 205.244 97.2496C205.297 97.2099 205.342 97.159 205.374 97.1006C205.406 97.0421 205.426 96.9773 205.432 96.9106C205.612 94.9039 204.925 93.3606 203.372 92.2806C199.699 89.7273 195.342 87.4739 190.302 85.5206C190.089 85.4406 189.885 85.4073 189.692 85.4206C188.432 85.4673 188.439 85.7639 189.712 86.3106Z" stroke="#FAA971" stroke-width="2"/>
<path d="M121.532 85.6206C126.425 84.6939 131.122 83.6239 135.622 82.4106C137.022 82.0306 137.738 81.2806 137.772 80.1606C137.777 80.0245 137.725 79.8917 137.628 79.7907C137.53 79.6897 137.395 79.6287 137.252 79.6206C134.765 79.4539 132.392 79.8173 130.132 80.7106C127.445 81.7706 126.065 82.3139 125.992 82.3406C123.952 83.0339 122.322 83.7473 121.102 84.4806C119.088 85.674 119.232 86.0539 121.532 85.6206Z" stroke="#FCA896" stroke-width="2"/>
<path d="M164.642 94.9706C161.635 95.0906 159.215 96.094 157.382 97.9806C155.989 99.414 155.219 101.441 155.072 104.061C154.612 112.347 157.565 119.331 163.932 125.011" stroke="#926C69" stroke-width="2"/>
<path d="M163.932 125.011C166.758 126.837 170.175 127.491 174.182 126.971C179.408 126.297 183.832 125.081 187.452 123.321C193.498 120.387 196.768 115.544 197.262 108.791C197.662 103.424 195.508 99.734 190.802 97.7206C190.688 97.674 190.288 97.484 189.602 97.1506C188.255 96.5173 187.878 97.0406 188.472 98.7206" stroke="#905350" stroke-width="2"/>
<path d="M188.472 98.7206C188.512 98.9806 188.392 99.1839 188.112 99.3306" stroke="#8E5857" stroke-width="2"/>
<path d="M188.112 99.3306C187.558 97.7906 186.588 96.7339 185.202 96.1606C183.535 95.4739 181.758 95.1206 179.872 95.1006" stroke="#8D706F" stroke-width="2"/>
<path d="M179.872 95.1006C174.845 94.0339 169.768 93.9906 164.642 94.9706" stroke="#905350" stroke-width="2"/>
<path d="M179.872 95.1006C181.485 96.2006 183.258 96.9573 185.192 97.3706C185.337 97.4029 185.469 97.4783 185.567 97.586C185.666 97.6937 185.727 97.8283 185.742 97.9706L186.142 101.471" stroke="#F6AA9C" stroke-width="2"/>
<path d="M186.142 101.471L185.432 101.511" stroke="#F17F72" stroke-width="2"/>
<path d="M185.432 101.511C179.472 98.0306 173.298 97.5506 166.912 100.071" stroke="#E46B61" stroke-width="2"/>
<path d="M166.912 100.071C163.852 101.817 161.959 104.367 161.232 107.721C160.812 109.687 160.629 111.191 160.682 112.231C160.769 113.797 161.425 115.244 162.652 116.571C164.239 118.291 165.275 118.007 165.762 115.721C166.549 111.954 168.405 108.811 171.332 106.291" stroke="#F17F72" stroke-width="2"/>
<path d="M171.332 106.291C170.818 108.484 171.035 110.274 171.982 111.661C172.808 112.874 174.008 113.524 175.582 113.611C177.808 113.737 178.778 112.254 178.492 109.161C178.305 107.107 177.368 105.864 175.682 105.431" stroke="#B76C62" stroke-width="2"/>
<path d="M175.682 105.431C176.468 104.691 177.255 104.597 178.042 105.151C178.317 105.343 178.629 105.425 178.912 105.381C180.712 105.101 182.385 105.451 183.932 106.431" stroke="#F17F72" stroke-width="2"/>
<path d="M183.932 106.431C183.092 106.431 182.915 106.784 183.401 107.491C184.035 108.397 184.015 109.351 183.341 110.351C183.182 110.589 183.071 110.846 183.018 111.105C182.964 111.364 182.969 111.619 183.031 111.851L185.322 120.691C185.351 120.797 185.433 120.891 185.555 120.958C185.676 121.025 185.83 121.061 185.992 121.061L187.722 121.091" stroke="#F6AA9C" stroke-width="2"/>
<path d="M187.722 121.091C187.269 121.731 187.379 122.037 188.052 122.011C188.279 122.004 188.512 121.921 188.752 121.761C191.832 119.761 193.955 117.477 195.122 114.911C195.589 113.877 195.762 112.231 195.642 109.971" stroke="#DC6A58" stroke-width="2"/>
<path d="M195.642 109.971C196.635 107.191 196.368 104.551 194.842 102.051C193.368 99.6306 191.245 98.5206 188.472 98.7206" stroke="#F79384" stroke-width="2"/>
<path d="M163.932 125.011C164.585 124.697 164.688 124.331 164.242 123.911C160.355 120.237 157.872 115.747 156.792 110.441C156.052 106.847 155.812 104.151 156.072 102.351C156.572 98.8906 159.025 96.9406 163.432 96.5006C164.538 96.3873 164.942 95.8773 164.642 94.9706" stroke="#FBA696" stroke-width="2"/>
<path d="M188.112 99.3306L189.722 107.721" stroke="#F4B0A3" stroke-width="2"/>
<path d="M189.722 107.721C189.435 112.234 188.768 116.691 187.722 121.091" stroke="#D98777" stroke-width="2"/>
<path d="M183.932 106.431L187.142 109.611C187.475 109.944 187.678 109.901 187.752 109.481C188.338 106.174 187.802 103.504 186.142 101.471" stroke="#EE9C91" stroke-width="2"/>
<path d="M195.642 109.971C194.695 109.344 193.942 108.527 193.382 107.521C192.048 105.147 190.828 105.214 189.722 107.721" stroke="#DA6F5F" stroke-width="2"/>
<path d="M175.682 105.431C174.095 104.984 172.645 105.271 171.332 106.291" stroke="#AF5E56" stroke-width="2"/>
<path d="M185.432 101.511C185.232 102.384 184.835 102.684 184.242 102.411C178.495 99.7239 172.718 98.9439 166.912 100.071" stroke="#DC5D56" stroke-width="2"/>
<path d="M97.1417 108.221C95.9417 109.721 95.9983 111.167 97.3116 112.561" stroke="#884444" stroke-width="2"/>
<path d="M97.3116 112.561C97.4649 114.127 98.2349 115.451 99.6216 116.531C104.935 120.697 110.718 123.321 116.972 124.401C121.392 125.167 125.348 125.054 128.842 124.061C132.982 122.874 136.408 120.574 139.122 117.161C142.668 112.681 143.835 107.621 142.622 101.981C141.935 98.8006 139.935 96.8173 136.622 96.0306C126.222 93.5773 116.255 94.3139 106.722 98.2406C102.055 100.167 98.8616 103.494 97.1416 108.221" stroke="#915753" stroke-width="2"/>
<path d="M97.3116 112.561L100.782 115.921C100.891 116.026 101.034 116.091 101.19 116.105C101.345 116.12 101.504 116.083 101.642 116.001C102.882 115.247 102.652 113.764 100.952 111.551C100.704 111.229 100.37 110.985 99.9886 110.848C99.6072 110.712 99.1951 110.688 98.8016 110.781C97.7149 111.034 97.1616 110.181 97.1416 108.221" stroke="#F28375" stroke-width="2"/>
<path d="M96.8817 103.161C96.2884 104.541 95.9917 105.984 95.9917 107.491C95.9911 107.547 96.0074 107.602 96.0372 107.643C96.067 107.684 96.108 107.708 96.1517 107.711L96.3117 107.731C96.3834 107.74 96.4613 107.707 96.531 107.637C96.6008 107.567 96.6578 107.465 96.6917 107.351L97.7217 103.631C97.7721 103.445 97.7973 103.266 97.7955 103.104C97.7938 102.942 97.7653 102.802 97.7117 102.691C97.4917 102.244 97.2151 102.401 96.8817 103.161Z" stroke="#5E5B4B" stroke-width="2"/>
<path d="M118.812 109.491L122.142 108.471" stroke="#CD6B5D" stroke-width="2"/>
<path d="M122.142 108.471C121.802 112.351 123.065 114.284 125.932 114.271C127.819 114.271 129.119 113.487 129.832 111.921C130.585 110.274 130.352 108.467 129.132 106.501" stroke="#AB6B61" stroke-width="2"/>
<path d="M129.132 106.501C130.845 105.581 132.615 105.077 134.442 104.991C134.584 104.981 134.73 105.015 134.863 105.087C134.997 105.159 135.114 105.267 135.202 105.401L136.642 107.561C136.75 107.724 136.879 107.859 137.014 107.952C137.15 108.045 137.287 108.093 137.412 108.091C137.838 108.077 137.972 107.614 137.812 106.701C137.078 102.561 134.615 100.174 130.422 99.5406C127.188 99.054 124.145 99.4073 121.292 100.601C118.745 101.661 116.818 102.734 115.512 103.821C113.778 105.274 112.638 107.294 112.092 109.881C111.698 111.774 112.345 112.347 114.032 111.601L118.812 109.491" stroke="#F28272" stroke-width="2"/>
<path d="M129.132 106.501C127.025 105.494 124.875 105.497 122.682 106.511" stroke="#A1574F" stroke-width="2"/>
<path d="M122.682 106.511C120.735 106.671 119.445 107.664 118.812 109.491" stroke="#C4574A" stroke-width="2"/>
<path d="M122.142 108.471L122.682 106.511" stroke="#7D403A" stroke-width="2"/>
<path d="M165.922 146.551C157.815 148.597 149.568 149.501 141.182 149.261" stroke="#FEDBD2" stroke-width="2"/>
<path d="M141.182 149.261C137.768 148.301 134.005 147.757 129.892 147.631C129.165 147.611 128.981 147.917 129.341 148.551C132.461 153.997 136.545 158.257 141.591 161.331C145.605 163.777 149.578 164.467 153.512 163.401C156.692 162.527 159.588 160.531 162.202 157.411C164.548 154.611 166.241 151.391 167.281 147.751C167.401 147.344 167.435 146.987 167.382 146.681C167.235 145.721 166.748 145.677 165.921 146.551" stroke="#ED8679" stroke-width="2"/>
<path d="M141.182 149.261C142.648 151.954 144.232 154.274 145.932 156.221C147.932 158.507 150.255 159.584 152.902 159.451C155.008 159.344 157.118 158.364 159.232 156.511C162.232 153.891 164.462 150.571 165.922 146.551" stroke="#ECA8A4" stroke-width="2"/>
<path d="M141.933 218.744C141.934 218.497 141.837 218.261 141.663 218.086C141.489 217.911 141.253 217.812 141.007 217.811L140.947 217.811C140.824 217.81 140.703 217.834 140.59 217.88C140.477 217.927 140.375 217.995 140.288 218.081C140.201 218.167 140.133 218.269 140.085 218.382C140.038 218.494 140.014 218.615 140.013 218.737L139.95 236.977C139.949 237.224 140.046 237.461 140.22 237.636C140.394 237.811 140.63 237.91 140.876 237.91L140.936 237.911C141.059 237.911 141.18 237.887 141.293 237.841C141.406 237.795 141.508 237.727 141.595 237.641C141.682 237.555 141.751 237.452 141.798 237.34C141.845 237.227 141.869 237.106 141.87 236.984L141.933 218.744Z" stroke="#FBA393" stroke-width="2"/>
<path d="M261.052 211.781C260.725 202.034 256.822 194.201 249.342 188.281C247.822 187.074 246.322 185.837 244.842 184.571C241.515 181.724 239.482 178.241 238.742 174.121C238.508 172.807 238.482 170.701 238.662 167.801C238.788 165.694 238.879 163.584 238.932 161.471C239.165 151.484 234.729 144.671 225.622 141.031C220.929 139.151 216.485 136.834 212.292 134.081C209.898 132.514 208.228 131.021 207.282 129.601C205.995 127.674 205.265 125.467 205.092 122.981C204.965 121.174 204.912 118.587 204.932 115.221C204.945 112.994 205.202 111.014 205.702 109.281C210.922 105.167 214.519 100.157 216.492 94.2506C217.859 90.1639 218.075 85.9373 217.142 81.5706C215.202 72.4839 209.872 65.6139 201.152 60.9606C197.705 59.1206 195.975 56.2073 195.962 52.2206C195.935 45.0473 193.215 39.1739 187.802 34.6006C181.602 29.3539 174.638 25.9973 166.912 24.5306C161.372 23.4839 156.569 23.5639 152.502 24.7706C147.742 26.1839 143.592 29.0306 140.052 33.3106C139.992 33.3838 139.916 33.4429 139.831 33.4834C139.745 33.5239 139.652 33.5449 139.557 33.5449C139.462 33.5449 139.369 33.5239 139.283 33.4834C139.197 33.4429 139.122 33.3838 139.062 33.3106C136.929 30.7506 134.532 28.9406 131.872 27.8806C125.145 25.1939 118.249 24.7239 111.182 26.4706C104.835 28.0373 99.7685 31.0173 95.9818 35.4106C94.3418 37.3039 92.9685 39.7173 91.8618 42.6506C90.8752 45.2773 90.0852 47.9706 89.4918 50.7306C88.0452 57.5439 84.7185 63.2339 79.5119 67.8006C75.1652 71.6206 72.5752 74.0306 71.7418 75.0306C65.9552 81.9906 66.0385 89.1173 71.9918 96.4106C73.8518 98.6839 77.1452 101.097 81.8718 103.651L85.3319 109.651C76.0919 114.817 70.9118 122.677 69.7918 133.231C69.3318 137.597 68.8785 140.594 68.4318 142.221C67.6318 145.134 66.1185 147.621 63.8919 149.681C61.2919 152.081 58.6985 154.484 56.1118 156.891C50.8452 161.804 48.5318 167.907 49.1718 175.201C49.3985 177.801 49.6585 180.401 49.9519 183.001C50.4919 187.834 48.8818 191.721 45.1218 194.661C42.1018 197.021 39.9385 200.147 38.6319 204.041C37.7852 206.587 37.3452 210.251 37.3118 215.031C37.2718 222.177 37.6452 229.311 38.4318 236.431L37.6419 238.471C33.9019 234.684 31.4352 231.997 30.2418 230.411C16.0085 211.444 7.15518 190.714 3.68184 168.221C-2.71816 126.794 6.31187 89.7573 30.7719 57.1106C34.8519 51.6573 39.2185 46.6306 43.8718 42.0306C62.2118 23.8906 83.7952 11.7673 108.622 5.6606C124.089 1.85394 140.125 0.907275 156.732 2.82061C163.458 3.59394 169.998 4.85394 176.352 6.60061C198.472 12.6939 217.939 23.7939 234.752 39.9006C247.892 52.4939 258.162 67.1073 265.562 83.7406C284.535 126.367 283.805 168.591 263.372 210.411C263.132 210.904 262.359 211.361 261.052 211.781ZM234.912 103.961C236.118 104.367 237.115 103.891 237.902 102.531C240.955 97.3106 241.422 91.9773 239.302 86.5306C238.495 84.4639 237.395 84.2939 236.002 86.0206C232.515 90.3406 231.449 95.5406 232.802 101.621C233.068 102.801 233.772 103.581 234.912 103.961ZM249.232 144.201C250.505 145.281 251.882 145.434 253.362 144.661C256.662 142.941 259.162 140.417 260.862 137.091C264.522 129.924 266.139 122.301 265.712 114.221C265.372 107.754 262.925 106.651 258.372 110.911C250.859 117.931 247.002 127.014 246.802 138.161C246.755 140.781 247.565 142.794 249.232 144.201ZM25.3118 178.531C27.0185 178.477 28.3818 177.777 29.4018 176.431C31.9618 173.057 33.8218 169.377 34.9818 165.391C35.7685 162.711 36.4085 159.934 36.9018 157.061C37.3818 154.227 37.5219 151.364 37.3219 148.471C37.2285 147.224 36.8519 146.344 36.1919 145.831C35.1652 145.024 33.9952 145.237 32.6818 146.471C25.7685 152.964 22.1885 161.131 21.9419 170.971C21.8885 172.997 22.1285 174.884 22.6618 176.631C23.0618 177.944 23.9452 178.577 25.3118 178.531Z" fill="#FDE8E1"/>
<path d="M205.702 109.281C206.788 107.381 206.212 106.277 203.972 105.971C204.685 101.157 203.155 97.4206 199.382 94.7606C196.762 92.9139 193.915 91.5473 190.842 90.6606C190.715 90.624 190.599 90.547 190.505 90.4378C190.412 90.3286 190.345 90.1913 190.312 90.0406C190.265 89.8006 190.182 89.5873 190.062 89.4006C189.895 89.1339 189.582 88.9573 189.122 88.8706C184.702 88.0373 181.138 87.1539 178.432 86.2206C174.592 84.8939 171.278 82.4573 168.492 78.9106C166.912 76.8906 164.085 72.2839 160.012 65.0906C157.625 60.8773 155.162 57.9406 152.622 56.2806C150.395 54.8273 148.248 54.2239 146.182 54.4706C141.788 54.9906 138.055 57.1773 134.982 61.0306C132.642 63.9706 130.622 67.1039 128.922 70.4306C126.355 75.4506 124.782 78.3206 124.202 79.0406C121.675 82.2206 118.432 84.6173 114.472 86.2306C106.738 89.3839 98.7851 91.8706 90.6118 93.6906C87.6984 95.2839 85.1118 97.1939 82.8518 99.4206C82.7182 99.5538 82.6183 99.7058 82.5649 99.8572C82.5115 100.009 82.5069 100.152 82.5518 100.271C82.6251 100.457 82.7518 100.621 82.9318 100.761L81.8718 103.651C77.1451 101.097 73.8518 98.6839 71.9918 96.4106C66.0384 89.1173 65.9551 81.9906 71.7418 75.0306C72.5751 74.0306 75.1651 71.6206 79.5118 67.8006C84.7185 63.2339 88.0451 57.5439 89.4918 50.7306C90.0851 47.9706 90.8751 45.2773 91.8618 42.6506C92.9684 39.7173 94.3418 37.3039 95.9818 35.4106C99.7684 31.0173 104.835 28.0373 111.182 26.4706C118.248 24.7239 125.145 25.1939 131.872 27.8806C134.532 28.9406 136.928 30.7506 139.062 33.3106C139.122 33.3838 139.197 33.4429 139.283 33.4834C139.369 33.5239 139.462 33.5449 139.557 33.5449C139.651 33.5449 139.745 33.5239 139.831 33.4834C139.916 33.4429 139.992 33.3838 140.052 33.3106C143.592 29.0306 147.742 26.1839 152.502 24.7706C156.568 23.5639 161.372 23.4839 166.912 24.5306C174.638 25.9973 181.602 29.3539 187.802 34.6006C193.215 39.1739 195.935 45.0473 195.962 52.2206C195.975 56.2073 197.705 59.1206 201.152 60.9606C209.872 65.6139 215.202 72.4839 217.142 81.5706C218.075 85.9373 217.858 90.1639 216.492 94.2506C214.518 100.157 210.922 105.167 205.702 109.281ZM102.922 42.9506C101.155 45.4839 99.8984 48.2373 99.1517 51.2106C98.4051 54.1573 98.0251 55.6473 98.0118 55.6806C96.3651 60.6939 93.9251 65.3073 90.6918 69.5206C88.9984 71.7339 86.6418 73.3639 83.6218 74.4106C81.2751 75.2239 78.3118 76.5573 74.7318 78.4106C74.5651 78.4973 74.4151 78.5973 74.2817 78.7106C73.1417 79.6773 73.2551 79.8839 74.6218 79.3306C78.5084 77.7506 82.4318 76.2639 86.3918 74.8706C88.7718 74.0306 90.4318 72.9606 91.3718 71.6606C94.6384 67.1139 97.3551 61.5773 99.5218 55.0506C99.5285 55.0306 99.9084 53.6306 100.662 50.8506C102.375 44.5373 106.285 39.9406 112.392 37.0606C113.505 36.5406 113.372 36.3339 111.992 36.4406C111.785 36.4606 111.582 36.5039 111.382 36.5706C107.875 37.7639 105.055 39.8906 102.922 42.9506ZM162.162 38.6506C170.395 41.1106 176.642 45.9173 180.902 53.0706C181.615 54.2706 182.108 55.8439 182.382 57.7906C183.735 67.4439 188.835 74.5873 197.682 79.2206C201.388 81.1539 204.838 83.4573 208.032 86.1306C209.185 87.0973 209.562 86.8373 209.162 85.3506C208.983 84.6848 208.548 84.1168 207.952 83.7706C203.492 81.1706 199.318 78.7239 195.432 76.4306C189.865 73.1439 186.105 68.5272 184.152 62.5806C184.138 62.5406 183.752 60.7839 182.992 57.3106C182.205 53.7239 180.665 50.3806 178.372 47.2806C174.358 41.8673 169.035 38.7706 162.402 37.9906C162.242 37.9773 162.092 37.9839 161.952 38.0106C161.212 38.1773 161.282 38.3906 162.162 38.6506ZM163.312 46.8806C166.165 48.9539 168.428 51.2806 170.102 53.8606C170.259 54.1096 170.352 54.4274 170.372 54.7806C170.425 55.7806 170.715 56.8239 171.242 57.9106C172.082 59.6239 172.395 61.5606 172.182 63.7206C172.108 64.4539 172.598 66.6673 173.652 70.3606C173.958 71.4206 174.368 71.6706 174.882 71.1106C174.978 71.0086 175.047 70.8747 175.083 70.7199C175.12 70.5651 175.123 70.3939 175.092 70.2206C174.672 67.9606 174.362 65.6839 174.162 63.3906C173.902 60.5373 173.435 58.3239 172.762 56.7506C171.275 53.2773 169.162 50.1839 166.422 47.4706C165.322 46.3839 164.442 45.7939 163.782 45.7006C162.082 45.4806 161.925 45.8739 163.312 46.8806ZM103.112 80.6706C101.958 81.9039 100.555 82.6906 98.9017 83.0306C94.9417 83.8373 90.9385 84.8606 86.8918 86.1006C82.1851 87.5473 79.3651 90.6706 78.4318 95.4706C78.1718 96.8173 78.4418 97.9639 79.2418 98.9106C79.4218 99.1239 79.6318 99.2373 79.8718 99.2506C79.9343 99.2551 79.9967 99.2426 80.0549 99.2139C80.1131 99.1851 80.1658 99.1409 80.2093 99.0841C80.2528 99.0273 80.2863 98.9593 80.3074 98.8845C80.3285 98.8098 80.3368 98.73 80.3318 98.6506C80.0185 93.7906 82.0518 90.6473 86.4318 89.2206C91.0251 87.7206 95.6018 86.1773 100.162 84.5906C101.515 84.1173 102.605 83.3639 103.432 82.3306C107.878 76.7572 110.882 70.5039 112.442 63.5706C113.368 59.4373 114.145 56.7873 114.772 55.6206C116.412 52.5673 118.778 50.0839 121.872 48.1706C122.538 47.7573 123.105 47.2706 123.572 46.7106C124.172 45.9906 124.045 45.8239 123.192 46.2106C118.725 48.2373 115.438 51.3706 113.332 55.6106C112.885 56.5173 112.415 57.8306 111.922 59.5506C111.535 60.9106 111.138 62.2639 110.732 63.6106C110.712 63.6706 110.242 65.5639 109.322 69.2906C108.255 73.5706 106.185 77.3639 103.112 80.6706ZM131.042 56.7706C129.942 58.3773 130.102 58.3139 131.522 56.5806C132.215 55.7339 132.115 55.7273 131.222 56.5606C131.155 56.6273 131.095 56.6973 131.042 56.7706ZM118.272 69.1506C118.358 69.1773 118.442 69.1473 118.522 69.0606C118.588 68.9873 118.625 68.8806 118.632 68.7406C118.745 66.9739 118.945 65.2206 119.232 63.4806C119.392 62.4673 119.205 62.0706 118.672 62.2906C118.539 62.3432 118.419 62.4363 118.321 62.5618C118.223 62.6874 118.152 62.8415 118.112 63.0106L116.782 68.4806C116.741 68.6492 116.744 68.8206 116.79 68.9699C116.837 69.1192 116.925 69.2385 117.042 69.3106C117.348 69.5039 117.662 69.4573 117.982 69.1706C118.012 69.1441 118.056 69.1282 118.107 69.1247C118.158 69.1212 118.215 69.1301 118.272 69.1506ZM107.012 70.5506C107.538 69.9772 107.788 69.3673 107.762 68.7206C107.742 68.3606 107.592 68.3073 107.312 68.5606C101.165 74.2473 93.9751 77.9806 85.7418 79.7606C82.6018 80.4339 79.5851 81.4539 76.6918 82.8206C76.6235 82.8516 76.5614 82.8952 76.5099 82.9482C76.4584 83.0012 76.4188 83.0624 76.394 83.1274C76.3691 83.1924 76.3596 83.2595 76.3662 83.324C76.3727 83.3885 76.3951 83.4488 76.4318 83.5006C76.6651 83.8339 77.0818 83.9073 77.6818 83.7206C80.8018 82.7406 83.9384 81.8239 87.0917 80.9706C87.1517 80.9506 88.3851 80.6539 90.7918 80.0806C97.1384 78.5672 102.545 75.3906 107.012 70.5506ZM189.712 86.3106C194.485 88.3839 198.905 91.0206 202.972 94.2206C203.086 94.3104 203.176 94.4302 203.236 94.5695C203.295 94.7088 203.321 94.8636 203.312 95.0206C203.225 96.3006 203.745 97.0706 204.872 97.3306C204.936 97.3449 205.002 97.3451 205.066 97.3312C205.131 97.3172 205.191 97.2894 205.244 97.2496C205.297 97.2098 205.341 97.159 205.374 97.1006C205.406 97.0421 205.426 96.9773 205.432 96.9106C205.612 94.9039 204.925 93.3606 203.372 92.2806C199.698 89.7273 195.342 87.4739 190.302 85.5206C190.088 85.4406 189.885 85.4073 189.692 85.4206C188.432 85.4673 188.438 85.7639 189.712 86.3106Z" fill="#FD904A"/>
<path d="M102.922 42.9506C105.055 39.8906 107.875 37.764 111.382 36.5706C111.582 36.504 111.785 36.4606 111.992 36.4406C113.372 36.334 113.505 36.5406 112.392 37.0606C106.285 39.9406 102.375 44.5373 100.662 50.8506C99.9083 53.6306 99.5283 55.0306 99.5216 55.0506C97.355 61.5773 94.6383 67.114 91.3716 71.6606C90.4316 72.9606 88.7716 74.0306 86.3916 74.8706C82.4316 76.264 78.5083 77.7506 74.6216 79.3306C73.2549 79.8839 73.1416 79.6773 74.2816 78.7106C74.4149 78.5973 74.5649 78.4973 74.7316 78.4106C78.3116 76.5573 81.2749 75.224 83.6216 74.4106C86.6416 73.364 88.9983 71.7339 90.6916 69.5206C93.9249 65.3073 96.365 60.694 98.0116 55.6806C98.025 55.6473 98.4049 54.1573 99.1516 51.2106C99.8982 48.2373 101.155 45.484 102.922 42.9506Z" fill="#F5B486"/>
<path d="M162.162 38.6506C161.282 38.3906 161.212 38.1773 161.952 38.0106C162.092 37.984 162.242 37.9773 162.402 37.9906C169.035 38.7706 174.359 41.8673 178.372 47.2806C180.665 50.3806 182.205 53.724 182.992 57.3106C183.752 60.784 184.138 62.5406 184.152 62.5806C186.105 68.5273 189.865 73.1439 195.432 76.4306C199.319 78.7239 203.492 81.1706 207.952 83.7706C208.548 84.1168 208.983 84.6848 209.162 85.3506C209.562 86.8373 209.185 87.0973 208.032 86.1306C204.839 83.4573 201.389 81.154 197.682 79.2206C188.835 74.5873 183.735 67.444 182.382 57.7906C182.109 55.844 181.615 54.2706 180.902 53.0706C176.642 45.9173 170.395 41.1106 162.162 38.6506Z" fill="#F5B486"/>
<path d="M163.312 46.8806C161.925 45.874 162.082 45.4806 163.782 45.7006C164.442 45.794 165.322 46.384 166.422 47.4706C169.162 50.184 171.275 53.2773 172.762 56.7506C173.435 58.324 173.902 60.5373 174.162 63.3906C174.362 65.684 174.672 67.9606 175.092 70.2206C175.123 70.394 175.12 70.5651 175.083 70.7199C175.047 70.8747 174.978 71.0087 174.882 71.1106C174.369 71.6706 173.959 71.4206 173.652 70.3606C172.599 66.6673 172.109 64.454 172.182 63.7206C172.395 61.5606 172.082 59.624 171.242 57.9106C170.715 56.824 170.425 55.7806 170.372 54.7806C170.352 54.4275 170.259 54.1096 170.102 53.8606C168.429 51.2806 166.165 48.954 163.312 46.8806Z" fill="#FAA65C"/>
<path d="M103.112 80.6706C106.185 77.364 108.255 73.5706 109.322 69.2906C110.242 65.564 110.712 63.6706 110.732 63.6106C111.138 62.264 111.535 60.9106 111.922 59.5506C112.415 57.8306 112.885 56.5173 113.332 55.6106C115.438 51.3706 118.725 48.2373 123.192 46.2106C124.045 45.8239 124.172 45.9906 123.572 46.7106C123.105 47.2706 122.538 47.7573 121.872 48.1706C118.778 50.084 116.412 52.5673 114.772 55.6206C114.145 56.7873 113.368 59.4373 112.442 63.5706C110.882 70.504 107.878 76.7573 103.432 82.3306C102.605 83.3639 101.515 84.1173 100.162 84.5906C95.6016 86.1773 91.0249 87.7206 86.4316 89.2206C82.0516 90.6473 80.0183 93.7906 80.3316 98.6506C80.3367 98.73 80.3283 98.8098 80.3072 98.8846C80.2861 98.9593 80.2527 99.0274 80.2091 99.0842C80.1656 99.1409 80.113 99.1852 80.0548 99.2139C79.9966 99.2426 79.9341 99.2551 79.8716 99.2506C79.6316 99.2373 79.4216 99.124 79.2416 98.9106C78.4416 97.964 78.1716 96.8173 78.4316 95.4706C79.3649 90.6706 82.185 87.5473 86.8916 86.1006C90.9383 84.8606 94.9416 83.8373 98.9016 83.0306C100.555 82.6906 101.958 81.904 103.112 80.6706Z" fill="#F6CDAA"/>
<path d="M203.972 105.971C203.725 109.311 203.128 112.061 202.182 114.221C201.368 116.074 201.042 117.721 201.202 119.161C200.109 119.041 199.589 119.227 199.642 119.721L199.182 119.181V118.761C201.802 114.114 203.142 109.101 203.202 103.721C203.235 100.547 202.082 98.0273 199.742 96.1606C197.815 94.6206 195.655 93.5106 193.262 92.8306C192.209 92.5306 189.855 92.1206 186.202 91.6006C179.155 90.594 172.065 90.1839 164.932 90.3706C158.965 90.5306 154.025 92.7973 150.112 97.1706C148.812 98.624 147.522 98.614 146.242 97.1406C142.802 93.1606 138.365 90.9373 132.932 90.4706C124.225 89.7173 114.729 91.1706 104.442 94.8306C101.442 94.9506 98.7585 95.9973 96.3918 97.9706L95.3018 96.4206C94.5285 94.654 92.9651 93.744 90.6118 93.6906C98.7851 91.8706 106.738 89.384 114.472 86.2306C118.432 84.6173 121.675 82.2206 124.202 79.0406C124.782 78.3206 126.355 75.4506 128.922 70.4306C130.622 67.1039 132.642 63.9706 134.982 61.0306C138.055 57.1773 141.788 54.9906 146.182 54.4706C148.248 54.224 150.395 54.8273 152.622 56.2806C155.162 57.9406 157.625 60.8773 160.012 65.0906C164.085 72.2839 166.912 76.8906 168.492 78.9106C171.278 82.4573 174.592 84.894 178.432 86.2206C181.138 87.1539 184.702 88.0373 189.122 88.8706C189.582 88.9573 189.895 89.1339 190.062 89.4006C190.182 89.5873 190.265 89.8006 190.312 90.0406C190.345 90.1914 190.412 90.3286 190.505 90.4378C190.599 90.547 190.715 90.624 190.842 90.6606C193.915 91.5473 196.762 92.914 199.382 94.7606C203.155 97.4206 204.685 101.157 203.972 105.971ZM121.532 85.6206C126.425 84.6939 131.122 83.624 135.622 82.4106C137.022 82.0306 137.739 81.2806 137.772 80.1606C137.777 80.0245 137.725 79.8917 137.628 79.7907C137.531 79.6897 137.396 79.6287 137.252 79.6206C134.765 79.4539 132.392 79.8173 130.132 80.7106C127.445 81.7706 126.065 82.3139 125.992 82.3406C123.952 83.0339 122.322 83.7473 121.102 84.4806C119.088 85.674 119.232 86.0539 121.532 85.6206Z" fill="#FDB9A8"/>
<path d="M131.222 56.5606C132.115 55.7273 132.215 55.7339 131.522 56.5806C130.102 58.3139 129.942 58.3773 131.042 56.7706C131.095 56.6973 131.155 56.6273 131.222 56.5606Z" fill="#E27136"/>
<path d="M117.982 69.1706C117.662 69.4573 117.348 69.5039 117.042 69.3106C116.925 69.2385 116.837 69.1192 116.79 68.9699C116.744 68.8206 116.741 68.6493 116.782 68.4806L118.112 63.0106C118.152 62.8415 118.224 62.6874 118.321 62.5619C118.419 62.4363 118.539 62.3432 118.672 62.2906C119.205 62.0706 119.392 62.4673 119.232 63.4806C118.945 65.2206 118.745 66.9739 118.632 68.7406C118.625 68.8806 118.589 68.9873 118.522 69.0606C118.442 69.1473 118.359 69.1773 118.272 69.1506C118.215 69.1301 118.158 69.1212 118.107 69.1247C118.056 69.1283 118.012 69.1442 117.982 69.1706Z" fill="#E27136"/>
<path d="M107.012 70.5506C102.545 75.3906 97.1385 78.5673 90.7919 80.0806C88.3852 80.6539 87.1518 80.9506 87.0918 80.9706C83.9385 81.8239 80.8019 82.7406 77.6819 83.7206C77.0819 83.9073 76.6652 83.8339 76.4319 83.5006C76.3952 83.4488 76.3728 83.3886 76.3663 83.324C76.3597 83.2595 76.3692 83.1924 76.3941 83.1274C76.4189 83.0624 76.4585 83.0012 76.51 82.9482C76.5615 82.8952 76.6236 82.8516 76.6919 82.8206C79.5852 81.454 82.6019 80.434 85.7419 79.7606C93.9752 77.9806 101.165 74.2473 107.312 68.5606C107.592 68.3073 107.742 68.3606 107.762 68.7206C107.789 69.3673 107.539 69.9773 107.012 70.5506Z" fill="#F6C197"/>
<path d="M121.532 85.6206C119.232 86.0539 119.088 85.674 121.102 84.4806C122.322 83.7473 123.952 83.0339 125.992 82.3406C126.065 82.3139 127.445 81.7706 130.132 80.7106C132.392 79.8173 134.765 79.4539 137.252 79.6206C137.395 79.6287 137.53 79.6897 137.628 79.7907C137.725 79.8917 137.777 80.0245 137.772 80.1606C137.738 81.2806 137.022 82.0306 135.622 82.4106C131.122 83.6239 126.425 84.6939 121.532 85.6206Z" fill="#FB9684"/>
<path d="M189.712 86.3106C188.439 85.7639 188.432 85.4673 189.692 85.4206C189.885 85.4073 190.089 85.4406 190.302 85.5206C195.342 87.4739 199.699 89.7273 203.372 92.2806C204.925 93.3606 205.612 94.9039 205.432 96.9106C205.426 96.9773 205.406 97.0421 205.374 97.1006C205.342 97.159 205.297 97.2099 205.244 97.2496C205.191 97.2894 205.131 97.3172 205.067 97.3312C205.002 97.3451 204.936 97.3449 204.872 97.3306C203.745 97.0706 203.225 96.3006 203.312 95.0206C203.321 94.8636 203.295 94.7088 203.236 94.5695C203.177 94.4302 203.086 94.3105 202.972 94.2206C198.905 91.0206 194.485 88.3839 189.712 86.3106Z" fill="#F6C197"/>
<path d="M234.911 103.961C233.771 103.581 233.068 102.801 232.802 101.621C231.448 95.5406 232.515 90.3406 236.002 86.0206C237.395 84.2939 238.495 84.4639 239.302 86.5306C241.422 91.9773 240.955 97.3106 237.901 102.531C237.115 103.891 236.118 104.367 234.911 103.961Z" fill="#F7B093"/>
<path d="M199.182 118.761C198.408 119.081 197.812 119.567 197.392 120.221C196.772 121.194 196.352 121.787 196.132 122.001C195.372 122.734 194.612 123.464 193.852 124.191C193.729 124.308 193.635 124.447 193.579 124.595C193.523 124.743 193.507 124.896 193.532 125.041L193.902 127.211C193.148 127.344 192.678 127.077 192.492 126.411C192.125 125.064 191.438 124.904 190.432 125.931L186.642 127.721C179.608 130.587 172.378 131.347 164.952 130.001C161.545 127.987 158.902 125.367 157.022 122.141C154.222 117.321 152.392 112.157 151.532 106.651C151.385 105.717 151.182 104.997 150.922 104.491C149.975 102.671 148.992 102.914 147.972 105.221L147.182 109.181C145.442 115.794 142.042 120.747 136.982 124.041C132.642 126.867 127.205 128.277 120.672 128.271C114.032 128.264 107.618 126.734 101.432 123.681L93.4716 118.721L88.1816 113.681C87.9216 113.341 87.5882 113.091 87.1816 112.931C87.3749 112.131 87.1249 111.631 86.4316 111.431L85.3316 109.651L81.8716 103.651L82.9316 100.761C84.7182 98.3273 86.9482 96.6273 89.6216 95.6606C91.3949 95.014 93.2882 95.2673 95.3016 96.4206L96.3916 97.9706C96.8583 98.8906 97.0716 99.8706 97.0316 100.911C97.0249 101.197 97.0783 101.214 97.1916 100.961C98.6116 97.954 101.028 95.9106 104.442 94.8306C114.728 91.1706 124.225 89.7173 132.932 90.4706C138.365 90.9373 142.802 93.1606 146.242 97.1406C147.522 98.614 148.812 98.624 150.112 97.1706C154.025 92.7973 158.965 90.5306 164.932 90.3706C172.065 90.184 179.155 90.594 186.202 91.6006C189.855 92.1206 192.208 92.5306 193.262 92.8306C195.655 93.5106 197.815 94.6206 199.742 96.1606C202.082 98.0273 203.235 100.547 203.202 103.721C203.142 109.101 201.802 114.114 199.182 118.761ZM164.642 94.9706C161.635 95.0906 159.215 96.094 157.382 97.9806C155.988 99.414 155.218 101.441 155.072 104.061C154.612 112.347 157.565 119.331 163.932 125.011C166.758 126.837 170.175 127.491 174.182 126.971C179.408 126.297 183.832 125.081 187.452 123.321C193.498 120.387 196.768 115.544 197.262 108.791C197.662 103.424 195.508 99.734 190.802 97.7206C190.688 97.674 190.288 97.484 189.602 97.1506C188.255 96.5173 187.878 97.0406 188.472 98.7206C188.512 98.9806 188.392 99.1839 188.112 99.3306C187.558 97.7906 186.588 96.734 185.202 96.1606C183.535 95.474 181.758 95.1206 179.872 95.1006C174.845 94.034 169.768 93.9906 164.642 94.9706ZM97.1416 108.221C95.9416 109.721 95.9983 111.167 97.3116 112.561C97.4649 114.127 98.2349 115.451 99.6216 116.531C104.935 120.697 110.718 123.321 116.972 124.401C121.392 125.167 125.348 125.054 128.842 124.061C132.982 122.874 136.408 120.574 139.122 117.161C142.668 112.681 143.835 107.621 142.622 101.981C141.935 98.8006 139.935 96.8173 136.622 96.0306C126.222 93.5773 116.255 94.3139 106.722 98.2406C102.055 100.167 98.8616 103.494 97.1416 108.221ZM96.8816 103.161C96.2883 104.541 95.9916 105.984 95.9916 107.491C95.991 107.547 96.0073 107.602 96.0371 107.643C96.0669 107.684 96.1079 107.708 96.1516 107.711L96.3116 107.731C96.3833 107.74 96.4611 107.707 96.5309 107.637C96.6007 107.567 96.6577 107.466 96.6916 107.351L97.7216 103.631C97.772 103.445 97.7971 103.266 97.7954 103.104C97.7937 102.942 97.7652 102.802 97.7116 102.691C97.4916 102.244 97.2149 102.401 96.8816 103.161Z" fill="#271822"/>
<path d="M90.6116 93.6906C92.9649 93.7439 94.5283 94.654 95.3016 96.4206C93.2883 95.2673 91.3949 95.0139 89.6216 95.6606C86.9483 96.6273 84.7183 98.3273 82.9316 100.761C82.7516 100.621 82.6249 100.457 82.5516 100.271C82.5067 100.153 82.5113 100.009 82.5647 99.8572C82.6182 99.7058 82.718 99.5538 82.8516 99.4206C85.1116 97.194 87.6983 95.2839 90.6116 93.6906Z" fill="#F2C7BB"/>
<path d="M104.442 94.8306C101.028 95.9106 98.6116 97.9539 97.1916 100.961C97.0783 101.214 97.0249 101.197 97.0316 100.911C97.0716 99.8706 96.8583 98.8906 96.3916 97.9706C98.7583 95.9973 101.442 94.9506 104.442 94.8306Z" fill="#F9D6D5"/>
<path d="M179.872 95.1006C181.485 96.2006 183.258 96.9573 185.192 97.3706C185.337 97.4029 185.469 97.4782 185.567 97.586C185.666 97.6937 185.727 97.8282 185.742 97.9706L186.142 101.471L185.432 101.511C179.472 98.0306 173.298 97.5506 166.912 100.071C163.852 101.817 161.958 104.367 161.232 107.721C160.812 109.687 160.628 111.191 160.682 112.231C160.768 113.797 161.425 115.244 162.652 116.571C164.238 118.291 165.275 118.007 165.762 115.721C166.548 111.954 168.405 108.811 171.332 106.291C170.818 108.484 171.035 110.274 171.982 111.661C172.808 112.874 174.008 113.524 175.582 113.611C177.808 113.737 178.778 112.254 178.492 109.161C178.305 107.107 177.368 105.864 175.682 105.431C176.468 104.691 177.255 104.597 178.042 105.151C178.317 105.343 178.629 105.425 178.912 105.381C180.712 105.101 182.385 105.451 183.932 106.431C183.092 106.431 182.915 106.784 183.402 107.491C184.035 108.397 184.015 109.351 183.342 110.351C183.182 110.589 183.072 110.846 183.018 111.105C182.964 111.364 182.969 111.619 183.032 111.851L185.322 120.691C185.351 120.797 185.433 120.891 185.555 120.958C185.676 121.025 185.83 121.061 185.992 121.061L187.722 121.091C187.268 121.731 187.378 122.037 188.052 122.011C188.278 122.004 188.512 121.921 188.752 121.761C191.832 119.761 193.955 117.477 195.122 114.911C195.588 113.877 195.762 112.231 195.642 109.971C196.635 107.191 196.368 104.551 194.842 102.051C193.368 99.6306 191.245 98.5206 188.472 98.7206C187.878 97.0406 188.255 96.5173 189.602 97.1506C190.288 97.4839 190.688 97.6739 190.802 97.7206C195.508 99.7339 197.662 103.424 197.262 108.791C196.768 115.544 193.498 120.387 187.452 123.321C183.832 125.081 179.408 126.297 174.182 126.971C170.175 127.491 166.758 126.837 163.932 125.011C164.585 124.697 164.688 124.331 164.242 123.911C160.355 120.237 157.872 115.747 156.792 110.441C156.052 106.847 155.812 104.151 156.072 102.351C156.572 98.8906 159.025 96.9406 163.432 96.5006C164.538 96.3873 164.942 95.8773 164.642 94.9706C169.768 93.9906 174.845 94.0339 179.872 95.1006Z" fill="#F98D7D"/>
<path d="M97.3116 112.561L100.782 115.921C100.891 116.026 101.034 116.091 101.19 116.105C101.345 116.12 101.504 116.083 101.642 116.001C102.882 115.247 102.652 113.764 100.952 111.551C100.704 111.229 100.37 110.985 99.9886 110.848C99.6072 110.712 99.1951 110.688 98.8016 110.781C97.7149 111.034 97.1616 110.181 97.1416 108.221C98.8616 103.494 102.055 100.167 106.722 98.2406C116.255 94.3139 126.222 93.5773 136.622 96.0306C139.935 96.8173 141.935 98.8006 142.622 101.981C143.835 107.621 142.668 112.681 139.122 117.161C136.408 120.574 132.982 122.874 128.842 124.061C125.348 125.054 121.392 125.167 116.972 124.401C110.718 123.321 104.935 120.697 99.6216 116.531C98.2349 115.451 97.4649 114.127 97.3116 112.561ZM118.812 109.491L122.142 108.471C121.802 112.351 123.065 114.284 125.932 114.271C127.818 114.271 129.118 113.487 129.832 111.921C130.585 110.274 130.352 108.467 129.132 106.501C130.845 105.581 132.615 105.077 134.442 104.991C134.584 104.981 134.73 105.015 134.863 105.087C134.997 105.159 135.114 105.267 135.202 105.401L136.642 107.561C136.75 107.724 136.879 107.859 137.014 107.952C137.15 108.045 137.287 108.093 137.412 108.091C137.838 108.077 137.972 107.614 137.812 106.701C137.078 102.561 134.615 100.174 130.422 99.5406C127.188 99.0539 124.145 99.4073 121.292 100.601C118.745 101.661 116.818 102.734 115.512 103.821C113.778 105.274 112.638 107.294 112.092 109.881C111.698 111.774 112.345 112.347 114.032 111.601L118.812 109.491Z" fill="#FB9684"/>
<path d="M164.642 94.9706C164.942 95.8773 164.539 96.3873 163.432 96.5006C159.025 96.9406 156.572 98.8906 156.072 102.351C155.812 104.151 156.052 106.847 156.792 110.441C157.872 115.747 160.355 120.237 164.242 123.911C164.689 124.331 164.585 124.697 163.932 125.011C157.565 119.331 154.612 112.347 155.072 104.061C155.219 101.441 155.989 99.414 157.382 97.9806C159.215 96.094 161.635 95.0906 164.642 94.9706Z" fill="#FCBFAF"/>
<path d="M179.872 95.1006C181.758 95.1206 183.535 95.4739 185.202 96.1606C186.588 96.7339 187.558 97.7906 188.112 99.3306L189.722 107.721C189.435 112.234 188.768 116.691 187.722 121.091L185.992 121.061C185.83 121.061 185.676 121.025 185.555 120.958C185.433 120.891 185.351 120.797 185.322 120.691L183.032 111.851C182.969 111.619 182.964 111.364 183.018 111.105C183.072 110.846 183.182 110.589 183.342 110.351C184.015 109.351 184.035 108.397 183.402 107.491C182.915 106.784 183.092 106.431 183.932 106.431L187.142 109.611C187.475 109.944 187.678 109.901 187.752 109.481C188.338 106.174 187.802 103.504 186.142 101.471L185.742 97.9706C185.727 97.8283 185.666 97.6937 185.567 97.586C185.469 97.4783 185.337 97.4029 185.192 97.3706C183.258 96.9573 181.485 96.2006 179.872 95.1006Z" fill="#F2C7BB"/>
<path d="M185.432 101.511C185.232 102.384 184.835 102.684 184.242 102.411C178.495 99.724 172.718 98.944 166.912 100.071C173.298 97.5506 179.472 98.0306 185.432 101.511Z" fill="#CF4945"/>
<path d="M195.642 109.971C194.695 109.344 193.942 108.527 193.382 107.521C192.049 105.147 190.828 105.214 189.722 107.721L188.112 99.3306C188.392 99.1839 188.512 98.9806 188.472 98.7206C191.245 98.5206 193.368 99.6306 194.842 102.051C196.368 104.551 196.635 107.191 195.642 109.971Z" fill="#F5988B"/>
<path d="M129.132 106.501C127.025 105.494 124.875 105.497 122.682 106.511C120.735 106.671 119.445 107.664 118.812 109.491L114.032 111.601C112.345 112.347 111.698 111.774 112.092 109.881C112.638 107.294 113.778 105.274 115.512 103.821C116.818 102.734 118.745 101.661 121.292 100.601C124.145 99.4073 127.188 99.054 130.422 99.5406C134.615 100.174 137.078 102.561 137.812 106.701C137.972 107.614 137.838 108.077 137.412 108.091C137.287 108.093 137.15 108.045 137.014 107.952C136.879 107.859 136.75 107.724 136.642 107.561L135.202 105.401C135.114 105.267 134.997 105.159 134.863 105.087C134.73 105.015 134.584 104.981 134.442 104.991C132.615 105.077 130.845 105.581 129.132 106.501Z" fill="#E86E5F"/>
<path d="M185.432 101.511L186.142 101.471C187.802 103.504 188.339 106.174 187.752 109.481C187.679 109.901 187.475 109.944 187.142 109.611L183.932 106.431C182.385 105.451 180.712 105.101 178.912 105.381C178.63 105.425 178.317 105.343 178.042 105.151C177.255 104.597 176.469 104.691 175.682 105.431C174.095 104.984 172.645 105.271 171.332 106.291C168.405 108.811 166.549 111.954 165.762 115.721C165.275 118.007 164.239 118.291 162.652 116.571C161.425 115.244 160.769 113.797 160.682 112.231C160.629 111.191 160.812 109.687 161.232 107.721C161.959 104.367 163.852 101.817 166.912 100.071C172.719 98.9439 178.495 99.7239 184.242 102.411C184.835 102.684 185.232 102.384 185.432 101.511Z" fill="#E97066"/>
<path d="M96.8817 103.161C97.2151 102.401 97.4917 102.244 97.7117 102.691C97.7653 102.802 97.7938 102.942 97.7955 103.104C97.7973 103.266 97.7721 103.445 97.7217 103.631L96.6917 107.351C96.6578 107.465 96.6008 107.567 96.531 107.637C96.4613 107.707 96.3834 107.74 96.3117 107.731L96.1517 107.711C96.108 107.708 96.067 107.684 96.0372 107.643C96.0074 107.602 95.9911 107.547 95.9917 107.491C95.9917 105.984 96.2884 104.541 96.8817 103.161Z" fill="#959E74"/>
<path d="M164.952 130.001C162.718 129.841 160.808 128.914 159.222 127.221C155.382 122.434 152.868 117.434 151.682 112.221C150.915 108.874 150.362 106.634 150.022 105.501C149.989 105.388 149.907 105.291 149.791 105.225C149.674 105.16 149.53 105.13 149.382 105.141L147.972 105.221C148.992 102.914 149.975 102.671 150.922 104.491C151.182 104.997 151.385 105.717 151.532 106.651C152.392 112.157 154.222 117.321 157.022 122.141C158.902 125.367 161.545 127.987 164.952 130.001Z" fill="#FDB9A8"/>
<path d="M159.222 127.221C159.362 128.807 159.835 130.307 160.642 131.721C161.548 137.661 158.952 140.774 152.852 141.061C156.512 140.187 158.752 138.067 159.572 134.701C159.649 134.403 159.618 134.072 159.482 133.761C158.148 130.647 156.792 127.544 155.412 124.451C154.825 123.137 154.435 123.087 154.242 124.301C154.195 124.554 154.212 124.827 154.292 125.121C155.078 127.934 155.292 130.967 154.932 134.221C154.632 136.894 153.322 138.434 151.002 138.841C151.462 130.021 151.105 121.331 149.932 112.771C149.892 112.451 149.768 112.157 149.562 111.891C148.842 110.937 148.465 110.297 148.432 109.971C148.358 109.297 147.942 109.034 147.182 109.181L147.972 105.221L149.382 105.141C149.53 105.13 149.674 105.16 149.791 105.225C149.907 105.291 149.989 105.388 150.022 105.501C150.362 106.634 150.915 108.874 151.682 112.221C152.868 117.434 155.382 122.434 159.222 127.221Z" fill="#F77E6B"/>
<path d="M175.682 105.431C177.368 105.864 178.305 107.107 178.492 109.161C178.778 112.254 177.808 113.737 175.582 113.611C174.008 113.524 172.808 112.874 171.982 111.661C171.035 110.274 170.818 108.484 171.332 106.291C172.645 105.271 174.095 104.984 175.682 105.431Z" fill="#744B46"/>
<path d="M129.132 106.501C130.352 108.467 130.585 110.274 129.832 111.921C129.119 113.487 127.819 114.271 125.932 114.271C123.065 114.284 121.802 112.351 122.142 108.471L122.682 106.511C124.875 105.497 127.025 105.494 129.132 106.501Z" fill="#5A403E"/>
<path d="M195.642 109.971C195.762 112.231 195.589 113.877 195.122 114.911C193.955 117.477 191.832 119.761 188.752 121.761C188.512 121.921 188.279 122.004 188.052 122.011C187.379 122.037 187.269 121.731 187.722 121.091C188.769 116.691 189.435 112.234 189.722 107.721C190.829 105.214 192.049 105.147 193.382 107.521C193.942 108.527 194.695 109.344 195.642 109.971Z" fill="#BF4633"/>
<path d="M203.972 105.971C206.212 106.277 206.788 107.381 205.702 109.281C205.202 111.014 204.945 112.994 204.932 115.221C204.912 118.587 204.965 121.174 205.092 122.981C205.265 125.467 205.995 127.674 207.282 129.601C208.228 131.021 209.898 132.514 212.292 134.081C216.485 136.834 220.928 139.151 225.622 141.031C234.728 144.671 239.165 151.484 238.932 161.471C238.878 163.584 238.788 165.694 238.662 167.801C238.482 170.701 238.508 172.807 238.742 174.121C239.482 178.241 241.515 181.724 244.842 184.571C246.322 185.837 247.822 187.074 249.342 188.281C256.822 194.201 260.725 202.034 261.052 211.781C261.265 214.387 260.162 216.797 257.742 219.011C258.175 210.537 256.125 202.967 251.592 196.301C250.518 194.714 248.632 192.767 245.932 190.461C243.638 188.501 241.475 186.407 239.442 184.181C237.602 182.167 236.358 180.337 235.712 178.691C234.878 176.577 234.512 174.337 234.612 171.971C234.792 167.804 234.878 163.637 234.872 159.471C234.865 154.951 233.655 151.431 231.242 148.911C229.048 146.617 225.645 144.504 221.032 142.571C217.072 140.911 213.602 139.147 210.622 137.281C204.102 133.207 200.962 127.167 201.202 119.161C201.042 117.721 201.368 116.074 202.182 114.221C203.128 112.061 203.725 109.311 203.972 105.971Z" fill="#F07239"/>
<path d="M122.682 106.511L122.142 108.471L118.812 109.491C119.445 107.664 120.735 106.671 122.682 106.511Z" fill="#9F4035"/>
<path d="M97.1417 108.221C97.1617 110.181 97.715 111.034 98.8016 110.781C99.1951 110.688 99.6073 110.712 99.9886 110.848C100.37 110.985 100.704 111.229 100.952 111.551C102.652 113.764 102.882 115.247 101.642 116.001C101.504 116.083 101.345 116.12 101.19 116.105C101.034 116.091 100.891 116.026 100.782 115.921L97.3116 112.561C95.9983 111.167 95.9417 109.721 97.1417 108.221Z" fill="#E97066"/>
<path d="M249.232 144.201C247.565 142.794 246.755 140.781 246.802 138.161C247.002 127.014 250.858 117.931 258.372 110.911C262.925 106.651 265.372 107.754 265.712 114.221C266.138 122.301 264.522 129.924 260.862 137.091C259.162 140.417 256.662 142.941 253.362 144.661C251.882 145.434 250.505 145.281 249.232 144.201Z" fill="#FAA575"/>
<path d="M85.3315 109.651L86.4315 111.431C82.3248 114.684 79.8882 116.761 79.1215 117.661C75.1082 122.334 72.8281 127.767 72.2815 133.961C71.7881 139.641 71.3182 143.041 70.8715 144.161C69.4848 147.647 67.3948 150.644 64.6015 153.151C63.0681 154.531 61.5281 155.894 59.9815 157.241C52.9348 163.367 50.6415 171.034 53.1015 180.241C54.7415 186.374 53.1648 191.597 48.3715 195.911C43.8782 199.944 41.3148 205.131 40.6815 211.471C40.1748 216.531 40.3548 224.197 41.2215 234.471C40.6615 235.637 39.7315 236.291 38.4315 236.431C37.6448 229.311 37.2715 222.177 37.3115 215.031C37.3448 210.251 37.7848 206.587 38.6315 204.041C39.9382 200.147 42.1015 197.021 45.1215 194.661C48.8815 191.721 50.4915 187.834 49.9515 183.001C49.6582 180.401 49.3981 177.801 49.1715 175.201C48.5315 167.907 50.8448 161.804 56.1115 156.891C58.6982 154.484 61.2915 152.081 63.8915 149.681C66.1182 147.621 67.6315 145.134 68.4315 142.221C68.8782 140.594 69.3315 137.597 69.7915 133.231C70.9115 122.677 76.0915 114.817 85.3315 109.651Z" fill="#F07239"/>
<path d="M147.182 109.181C147.942 109.034 148.359 109.297 148.432 109.971C148.465 110.297 148.842 110.937 149.562 111.891C149.769 112.157 149.892 112.451 149.932 112.771C151.105 121.331 151.462 130.021 151.002 138.841C148.869 139.794 146.629 140.257 144.282 140.231C144.015 140.224 143.779 140.241 143.572 140.281C142.285 140.527 142.319 140.851 143.672 141.251C146.879 142.197 149.939 142.134 152.852 141.061C158.952 140.774 161.549 137.661 160.642 131.721C161.369 130.987 162.105 130.864 162.852 131.351C163.172 131.557 163.465 131.694 163.732 131.761C164.732 132.001 165.402 132.467 165.742 133.161C167.069 135.821 167.902 137.404 168.242 137.911C170.295 140.951 173.285 142.111 177.212 141.391C179.999 140.877 182.219 139.551 183.872 137.411C185.345 135.497 186.592 133.287 187.612 130.781C187.872 130.141 187.919 129.591 187.752 129.131C187.545 128.577 187.175 128.107 186.642 127.721L190.432 125.931C188.765 137.464 185.579 148.374 180.872 158.661C178.225 164.441 174.519 169.457 169.752 173.711C159.405 182.971 147.819 185.704 134.992 181.911C129.412 180.257 123.475 177.041 117.182 172.261C108.249 164.447 101.832 154.931 97.9319 143.711C97.9056 143.64 97.8663 143.579 97.8196 143.536C97.7729 143.493 97.7212 143.47 97.6719 143.471H97.4719L97.1419 141.971C95.9886 137.411 94.6886 133.557 93.2419 130.411C91.6686 126.977 91.1686 123.431 91.7419 119.771C93.4019 122.917 95.0419 126.041 96.6619 129.141C98.3419 132.341 100.245 135.401 102.372 138.321C104.765 141.601 107.785 143.234 111.432 143.221C119.852 143.194 123.602 138.964 122.682 130.531C122.666 130.389 122.6 130.258 122.496 130.159C122.392 130.061 122.256 130.001 122.112 129.991C116.345 129.497 110.702 128.394 105.182 126.681C103.509 126.294 102.195 125.704 101.242 124.911C100.622 124.384 100.685 123.974 101.432 123.681C107.619 126.734 114.032 128.264 120.672 128.271C127.205 128.277 132.642 126.867 136.982 124.041C142.042 120.747 145.442 115.794 147.182 109.181ZM165.922 146.551C157.815 148.597 149.569 149.501 141.182 149.261C137.769 148.301 134.005 147.757 129.892 147.631C129.165 147.611 128.982 147.917 129.342 148.551C132.462 153.997 136.545 158.257 141.592 161.331C145.605 163.777 149.579 164.467 153.512 163.401C156.692 162.527 159.589 160.531 162.202 157.411C164.549 154.611 166.242 151.391 167.282 147.751C167.402 147.344 167.435 146.987 167.382 146.681C167.235 145.721 166.749 145.677 165.922 146.551Z" fill="#FEB9A6"/>
<path d="M86.4318 111.431C87.1251 111.631 87.3751 112.131 87.1818 112.931L84.9318 115.181C81.8184 117.294 79.5084 120.081 78.0018 123.541C76.0284 128.047 75.1284 132.774 75.3018 137.721C75.5484 144.687 73.1651 150.511 68.1517 155.191C65.6117 157.571 63.1818 160.057 60.8618 162.651C58.3484 165.471 56.9518 168.681 56.6718 172.281C56.5718 173.527 56.8218 175.457 57.4218 178.071C57.8684 179.984 58.1951 181.917 58.4017 183.871C58.7351 186.937 58.4418 189.617 57.5218 191.911C56.4418 194.571 54.8484 196.861 52.7418 198.781C50.4618 200.861 48.6951 203.167 47.4418 205.701C46.4151 207.774 45.7484 210.534 45.4418 213.981C44.9284 219.807 45.0217 225.637 45.7217 231.471C44.5551 232.984 43.0551 233.984 41.2217 234.471C40.3551 224.197 40.1751 216.531 40.6818 211.471C41.3151 205.131 43.8784 199.944 48.3718 195.911C53.1651 191.597 54.7417 186.374 53.1017 180.241C50.6417 171.034 52.9351 163.367 59.9818 157.241C61.5284 155.894 63.0684 154.531 64.6017 153.151C67.3951 150.644 69.4851 147.647 70.8718 144.161C71.3184 143.041 71.7884 139.641 72.2817 133.961C72.8284 127.767 75.1084 122.334 79.1218 117.661C79.8884 116.761 82.3251 114.684 86.4318 111.431Z" fill="#FAF3F0"/>
<path d="M87.1816 112.931C87.5883 113.091 87.9216 113.341 88.1816 113.681C87.675 113.821 87.425 114.154 87.4316 114.681C86.6516 115.261 85.8183 115.427 84.9316 115.181L87.1816 112.931Z" fill="#AE4035"/>
<path d="M88.1819 113.681L93.4719 118.721C93.4985 119.107 93.3185 119.287 92.9319 119.261C92.2185 119.094 91.5919 118.777 91.0519 118.311C91.0052 118.271 90.9499 118.242 90.891 118.227C90.8321 118.211 90.7717 118.209 90.7156 118.221C90.6594 118.233 90.6093 118.259 90.5702 118.295C90.531 118.332 90.5041 118.379 90.4919 118.431L90.1819 119.931C88.9085 125.957 87.5586 131.967 86.1319 137.961C85.6052 140.174 85.5385 142.677 85.9319 145.471C86.9319 152.624 87.6518 157.111 88.0918 158.931C88.8385 162.031 88.7519 164.997 87.8319 167.831C87.4786 168.917 86.5052 170.714 84.9119 173.221C83.3319 175.707 82.4219 177.541 82.1819 178.721C81.5752 181.727 81.5119 184.041 81.9919 185.661C83.3652 190.261 84.0952 193.281 84.1819 194.721C84.3285 197.247 83.7785 199.601 82.5318 201.781C82.0652 202.581 81.1352 204.247 79.7419 206.781C77.5152 210.827 77.2452 215.211 78.9319 219.931C77.9585 220.257 76.9585 220.341 75.9319 220.181C74.6319 214.941 75.2785 209.997 77.8719 205.351C78.8185 203.657 79.7652 201.964 80.7119 200.271C81.8986 198.157 82.3986 195.967 82.2119 193.701C82.2119 193.687 81.6752 191.777 80.6019 187.971C79.5819 184.357 79.6885 180.791 80.9219 177.271C81.2685 176.291 82.2186 174.781 83.7719 172.741C86.7319 168.854 87.7852 164.431 86.9319 159.471C85.9319 153.637 85.2919 149.004 85.0119 145.571C84.9986 145.451 84.9652 145.347 84.9119 145.261C84.7319 144.987 84.6252 145.144 84.5918 145.731C84.4252 148.784 83.6219 151.627 82.1819 154.261L81.6819 153.931C82.2685 152.411 82.6852 150.257 82.9319 147.471C83.2985 143.377 84.7652 136.247 87.3319 126.081C87.7052 124.587 87.9719 122.997 88.1319 121.311C88.2852 119.691 88.4685 118.077 88.6819 116.471C88.7685 115.824 88.3519 115.227 87.4319 114.681C87.4252 114.154 87.6752 113.821 88.1819 113.681Z" fill="#F6F3F1"/>
<path d="M87.4315 114.681C88.3515 115.227 88.7682 115.824 88.6815 116.471C88.4682 118.077 88.2848 119.691 88.1315 121.311C87.9715 122.997 87.7049 124.587 87.3315 126.081C84.7649 136.247 83.2982 143.377 82.9315 147.471C82.6848 150.257 82.2682 152.411 81.6815 153.931C79.6215 156.691 77.4348 159.017 75.1215 160.911C70.0348 165.064 67.8982 170.241 68.7115 176.441C68.7182 176.461 69.1749 178.244 70.0815 181.791C71.2882 186.504 70.8781 191.074 68.8515 195.501C68.8448 195.514 68.1248 196.744 66.6915 199.191C64.4915 202.937 63.8348 207.027 64.7215 211.461C65.4748 215.227 65.2182 219.144 63.9515 223.211L45.7215 231.471C45.0215 225.637 44.9282 219.807 45.4415 213.981C45.7482 210.534 46.4148 207.774 47.4415 205.701C48.6948 203.167 50.4615 200.861 52.7415 198.781C54.8482 196.861 56.4415 194.571 57.5215 191.911C58.4415 189.617 58.7348 186.937 58.4015 183.871C58.1948 181.917 57.8682 179.984 57.4215 178.071C56.8215 175.457 56.5715 173.527 56.6715 172.281C56.9515 168.681 58.3482 165.471 60.8615 162.651C63.1815 160.057 65.6115 157.571 68.1515 155.191C73.1648 150.511 75.5482 144.687 75.3015 137.721C75.1282 132.774 76.0282 128.047 78.0015 123.541C79.5082 120.081 81.8182 117.294 84.9315 115.181C85.8182 115.427 86.6515 115.261 87.4315 114.681Z" fill="#D15931"/>
<path d="M92.9316 119.261L96.3416 122.361C96.4363 122.449 96.5153 122.571 96.5738 122.719C96.6322 122.866 96.6689 123.037 96.6816 123.221C96.7616 124.301 97.325 125.154 98.3716 125.781C100.605 127.121 102.875 127.421 105.182 126.681C110.702 128.394 116.345 129.497 122.112 129.991C122.256 130.001 122.392 130.061 122.496 130.159C122.6 130.258 122.666 130.389 122.682 130.531C123.602 138.964 119.852 143.194 111.432 143.221C107.785 143.234 104.765 141.601 102.372 138.321C100.245 135.401 98.3416 132.341 96.6616 129.141C95.0416 126.041 93.4016 122.917 91.7416 119.771C91.155 119.364 90.635 119.417 90.1816 119.931L90.4916 118.431C90.5038 118.379 90.5308 118.332 90.5699 118.295C90.6091 118.259 90.6592 118.233 90.7153 118.221C90.7715 118.209 90.8319 118.211 90.8907 118.227C90.9496 118.242 91.005 118.271 91.0516 118.311C91.5916 118.777 92.2183 119.094 92.9316 119.261Z" fill="#FB887C"/>
<path d="M93.4716 118.721L101.432 123.681C100.685 123.974 100.622 124.384 101.242 124.911C102.195 125.704 103.508 126.294 105.182 126.681C102.875 127.421 100.605 127.121 98.3716 125.781C97.325 125.154 96.7616 124.301 96.6816 123.221C96.6689 123.037 96.6322 122.866 96.5738 122.719C96.5153 122.571 96.4363 122.449 96.3416 122.361L92.9316 119.261C93.3183 119.287 93.4983 119.107 93.4716 118.721Z" fill="#F5988B"/>
<path d="M199.182 118.761V119.181C198.335 119.874 197.905 120.804 197.892 121.971C196.358 122.517 195.538 123.517 195.432 124.971C194.825 133.324 195.838 141.824 198.472 150.471C197.638 150.931 197.472 151.514 197.972 152.221C198.805 156.694 198.275 160.987 196.382 165.101C195.102 167.881 193.958 170.717 192.952 173.611C192.152 175.931 191.992 178.297 192.472 180.711C193.185 184.257 193.318 187.797 192.872 191.331C192.518 194.117 192.382 195.891 192.462 196.651C192.628 198.284 193.055 200.037 193.742 201.911C195.288 206.111 195.268 210.561 193.682 215.261L190.202 214.961C191.435 210.527 191.575 206.551 190.622 203.031C189.568 199.171 189.265 195.554 189.712 192.181C190.112 189.187 190.312 187.534 190.312 187.221C190.312 185.701 190.185 184.034 189.932 182.221C189.265 177.401 189.998 172.757 192.132 168.291C193.345 165.744 193.955 164.464 193.962 164.451C195.935 159.411 196.432 154.167 195.452 148.721C194.178 141.614 193.662 134.444 193.902 127.211L193.532 125.041C193.507 124.896 193.523 124.743 193.579 124.595C193.635 124.447 193.729 124.308 193.852 124.191C194.612 123.464 195.372 122.734 196.132 122.001C196.352 121.787 196.772 121.194 197.392 120.221C197.812 119.567 198.408 119.081 199.182 118.761Z" fill="#F6F3F1"/>
<path d="M199.182 119.181L199.642 119.721L199.582 128.061C198.568 126.221 198.005 124.191 197.892 121.971C197.905 120.804 198.335 119.874 199.182 119.181Z" fill="#DC2C21"/>
<path d="M201.202 119.161C200.962 127.167 204.102 133.207 210.622 137.281C213.602 139.147 217.071 140.911 221.031 142.571C225.645 144.504 229.048 146.617 231.242 148.911C233.655 151.431 234.865 154.951 234.872 159.471C234.878 163.637 234.792 167.804 234.612 171.971C234.512 174.337 234.878 176.577 235.712 178.691C236.358 180.337 237.602 182.167 239.442 184.181C241.475 186.407 243.638 188.501 245.932 190.461C248.632 192.767 250.518 194.714 251.591 196.301C256.125 202.967 258.175 210.537 257.742 219.011C257.115 220.744 255.808 221.344 253.822 220.811C253.028 214.537 251.355 208.371 248.802 202.311C247.322 198.811 244.865 195.864 241.432 193.471C238.445 191.384 235.548 188.614 232.742 185.161C229.842 181.581 228.808 177.234 229.642 172.121C230.675 165.827 230.855 161.277 230.182 158.471C229.315 154.851 227.462 152.121 224.622 150.281C222.088 148.641 217.661 146.157 211.341 142.831C205.221 139.617 201.302 134.694 199.582 128.061L199.642 119.721C199.588 119.227 200.108 119.041 201.202 119.161Z" fill="#FAEFE9"/>
<path d="M91.7417 119.771C91.1684 123.431 91.6684 126.977 93.2417 130.411C94.6884 133.557 95.9884 137.411 97.1418 141.971C95.7951 143.924 95.1418 145.924 95.1818 147.971C95.2551 151.444 95.6217 155.871 96.2817 161.251C96.2817 161.284 96.4018 162.097 96.6418 163.691C97.2218 167.531 96.9284 171.314 95.7618 175.041C94.6084 178.747 94.5117 182.644 95.4717 186.731C95.8917 188.524 95.7451 190.267 95.0317 191.961C94.1251 194.107 93.2084 196.394 92.2817 198.821C91.1417 201.821 90.5451 204.194 90.4917 205.941C90.3717 209.947 91.7684 213.527 94.6818 216.681L78.9318 219.931C77.2451 215.211 77.5151 210.827 79.7418 206.781C81.1351 204.247 82.0651 202.581 82.5317 201.781C83.7784 199.601 84.3284 197.247 84.1818 194.721C84.0951 193.281 83.3651 190.261 81.9918 185.661C81.5118 184.041 81.5751 181.727 82.1818 178.721C82.4218 177.541 83.3317 175.707 84.9117 173.221C86.5051 170.714 87.4784 168.917 87.8318 167.831C88.7518 164.997 88.8384 162.031 88.0917 158.931C87.6517 157.111 86.9318 152.624 85.9318 145.471C85.5384 142.677 85.6051 140.174 86.1318 137.961C87.5584 131.967 88.9084 125.957 90.1818 119.931C90.6351 119.417 91.1551 119.364 91.7417 119.771Z" fill="#D05735"/>
<path d="M197.892 121.971C198.005 124.191 198.568 126.221 199.582 128.061C201.302 134.694 205.222 139.617 211.342 142.831C217.662 146.157 222.088 148.641 224.622 150.281C227.462 152.121 229.315 154.851 230.182 158.471C230.855 161.277 230.675 165.827 229.642 172.121C228.808 177.234 229.842 181.581 232.742 185.161C235.548 188.614 238.445 191.384 241.432 193.471C244.865 195.864 247.322 198.811 248.802 202.311C251.355 208.371 253.028 214.537 253.822 220.811C254.488 223.057 254.245 225.001 253.092 226.641C251.452 228.967 249.942 231.017 248.562 232.791C242.022 228.291 235.312 224.337 228.432 220.931C229.705 215.931 230.338 210.877 230.332 205.771C230.332 202.257 229.785 199.481 228.692 197.441C227.385 195.007 225.402 192.831 222.742 190.911C217.568 187.171 215.625 182.051 216.912 175.551C217.412 173.044 217.665 171.771 217.672 171.731C217.998 169.211 218.002 167.207 217.682 165.721C217.148 163.247 215.462 161.264 212.622 159.771C209.968 158.377 207.265 157.077 204.512 155.871C201.905 154.717 199.892 152.917 198.472 150.471C195.838 141.824 194.825 133.324 195.432 124.971C195.538 123.517 196.358 122.517 197.892 121.971Z" fill="#CC5834"/>
<path d="M152.851 141.061C149.938 142.134 146.878 142.197 143.671 141.251C142.318 140.851 142.285 140.527 143.572 140.281C143.778 140.241 144.015 140.224 144.281 140.231C146.628 140.257 148.868 139.794 151.001 138.841C153.321 138.434 154.631 136.894 154.931 134.221C155.291 130.967 155.078 127.934 154.291 125.121C154.211 124.827 154.195 124.554 154.241 124.301C154.435 123.087 154.825 123.137 155.411 124.451C156.791 127.544 158.148 130.647 159.481 133.761C159.617 134.072 159.649 134.403 159.572 134.701C158.752 138.067 156.511 140.187 152.851 141.061Z" fill="#FB9684"/>
<path d="M193.902 127.211C193.662 134.444 194.179 141.614 195.452 148.721C196.432 154.167 195.935 159.411 193.962 164.451C193.955 164.464 193.345 165.744 192.132 168.291C189.999 172.757 189.265 177.401 189.932 182.221C190.185 184.034 190.312 185.701 190.312 187.221C190.312 187.534 190.112 189.187 189.712 192.181C189.265 195.554 189.569 199.171 190.622 203.031C191.575 206.551 191.435 210.527 190.202 214.961L180.472 213.971C175.212 212.637 172.199 209.471 171.432 204.471C170.485 198.297 170.032 188.767 170.072 175.881C170.419 175.441 170.312 174.717 169.752 173.711C174.519 169.457 178.225 164.441 180.872 158.661C185.579 148.374 188.765 137.464 190.432 125.931C191.439 124.904 192.125 125.064 192.492 126.411C192.679 127.077 193.149 127.344 193.902 127.211Z" fill="#C25331"/>
<path d="M159.222 127.221C160.808 128.914 162.718 129.841 164.952 130.001C172.378 131.347 179.608 130.587 186.642 127.721C187.175 128.107 187.545 128.577 187.752 129.131C187.918 129.591 187.872 130.141 187.612 130.781C186.592 133.287 185.345 135.497 183.872 137.411C182.218 139.551 179.998 140.877 177.212 141.391C173.285 142.111 170.295 140.951 168.242 137.911C167.902 137.404 167.068 135.821 165.742 133.161C165.402 132.467 164.732 132.001 163.732 131.761C163.465 131.694 163.172 131.557 162.852 131.351C162.105 130.864 161.368 130.987 160.642 131.721C159.835 130.307 159.362 128.807 159.222 127.221Z" fill="#FA8777"/>
<path d="M97.1415 141.971L97.4715 143.471C96.6315 149.557 96.8149 155.617 98.0215 161.651C99.0549 166.844 98.9415 171.617 97.6815 175.971C97.1815 177.704 96.9048 179.301 96.8515 180.761C96.8248 181.514 97.1548 183.061 97.8415 185.401C98.2748 186.894 98.4682 188.414 98.4215 189.961C98.3815 191.127 97.9915 192.574 97.2515 194.301C96.1048 196.954 95.1115 199.661 94.2715 202.421C93.7915 204.014 93.6148 205.404 93.7415 206.591C93.9215 208.231 94.4215 209.587 95.2415 210.661C96.4215 212.194 97.4981 213.797 98.4715 215.471C97.4115 216.351 96.1482 216.754 94.6815 216.681C91.7682 213.527 90.3715 209.947 90.4915 205.941C90.5448 204.194 91.1415 201.821 92.2815 198.821C93.2081 196.394 94.1248 194.107 95.0315 191.961C95.7448 190.267 95.8915 188.524 95.4715 186.731C94.5115 182.644 94.6082 178.747 95.7615 175.041C96.9282 171.314 97.2215 167.531 96.6415 163.691C96.4015 162.097 96.2815 161.284 96.2815 161.251C95.6215 155.871 95.2548 151.444 95.1815 147.971C95.1415 145.924 95.7949 143.924 97.1415 141.971Z" fill="#FAF9F9"/>
<path d="M97.4718 143.471H97.6718C97.7211 143.47 97.7728 143.493 97.8195 143.536C97.8662 143.579 97.9055 143.64 97.9318 143.711C101.832 154.931 108.248 164.447 117.182 172.261C116.922 173.767 117.022 175.094 117.482 176.241C117.542 180.881 117.525 189.374 117.432 201.721C117.378 208.394 114.282 212.644 108.142 214.471L98.4718 215.471C97.4985 213.797 96.4218 212.194 95.2418 210.661C94.4218 209.587 93.9218 208.231 93.7418 206.591C93.6151 205.404 93.7918 204.014 94.2718 202.421C95.1118 199.661 96.1052 196.954 97.2518 194.301C97.9918 192.574 98.3818 191.127 98.4218 189.961C98.4685 188.414 98.2751 186.894 97.8418 185.401C97.1551 183.061 96.8251 181.514 96.8518 180.761C96.9051 179.301 97.1818 177.704 97.6818 175.971C98.9418 171.617 99.0552 166.844 98.0218 161.651C96.8152 155.617 96.6318 149.557 97.4718 143.471Z" fill="#C55230"/>
<path d="M75.9317 220.181L68.6817 222.261L67.6817 221.681C68.475 217.507 68.365 213.234 67.3517 208.861C67.045 207.547 67.1617 206.277 67.7017 205.051C69.1617 201.737 70.655 198.247 72.1817 194.581C73.115 192.321 73.4483 190.201 73.1817 188.221C72.9083 186.214 72.095 182.444 70.7417 176.911C69.3617 171.271 70.925 166.291 75.4317 161.971C78.305 159.217 80.555 156.647 82.1817 154.261C83.6217 151.627 84.425 148.784 84.5917 145.731C84.625 145.144 84.7317 144.987 84.9117 145.261C84.965 145.347 84.9984 145.451 85.0117 145.571C85.2917 149.004 85.9317 153.637 86.9317 159.471C87.785 164.431 86.7317 168.854 83.7717 172.741C82.2184 174.781 81.2683 176.291 80.9217 177.271C79.6883 180.791 79.5817 184.357 80.6017 187.971C81.675 191.777 82.2117 193.687 82.2117 193.701C82.3984 195.967 81.8984 198.157 80.7117 200.271C79.765 201.964 78.8183 203.657 77.8717 205.351C75.2783 209.997 74.6317 214.941 75.9317 220.181Z" fill="#D05735"/>
<path d="M25.3118 178.531C23.9452 178.577 23.0618 177.944 22.6618 176.631C22.1285 174.884 21.8885 172.997 21.9418 170.971C22.1885 161.131 25.7685 152.964 32.6818 146.471C33.9952 145.237 35.1652 145.024 36.1918 145.831C36.8518 146.344 37.2285 147.224 37.3218 148.471C37.5218 151.364 37.3818 154.227 36.9018 157.061C36.4085 159.934 35.7685 162.711 34.9818 165.391C33.8218 169.377 31.9618 173.057 29.4018 176.431C28.3818 177.777 27.0185 178.477 25.3118 178.531Z" fill="#FB9C65"/>
<path d="M141.182 149.261C142.648 151.954 144.232 154.274 145.932 156.221C147.932 158.507 150.255 159.584 152.901 159.451C155.008 159.344 157.118 158.364 159.231 156.511C162.231 153.891 164.461 150.571 165.921 146.551C166.748 145.677 167.235 145.721 167.382 146.681C167.435 146.987 167.401 147.344 167.281 147.751C166.241 151.391 164.548 154.611 162.202 157.411C159.588 160.531 156.692 162.527 153.512 163.401C149.578 164.467 145.605 163.777 141.591 161.331C136.545 158.257 132.461 153.997 129.341 148.551C128.981 147.917 129.165 147.611 129.892 147.631C134.005 147.757 137.768 148.301 141.182 149.261Z" fill="#DB534B"/>
<path d="M165.922 146.551C164.462 150.571 162.232 153.891 159.232 156.511C157.118 158.364 155.008 159.344 152.902 159.451C150.255 159.584 147.932 158.507 145.932 156.221C144.232 154.274 142.648 151.954 141.182 149.261C149.568 149.501 157.815 148.597 165.922 146.551Z" fill="#FDFDFD"/>
<path d="M198.472 150.471C199.892 152.917 201.905 154.717 204.512 155.871C207.265 157.077 209.968 158.377 212.622 159.771C215.462 161.264 217.148 163.247 217.682 165.721C218.002 167.207 217.998 169.211 217.672 171.731C217.665 171.771 217.412 173.044 216.912 175.551C215.625 182.051 217.568 187.171 222.742 190.911C225.402 192.831 227.385 195.007 228.692 197.441C229.785 199.481 230.332 202.257 230.332 205.771C230.338 210.877 229.705 215.931 228.432 220.931C227.805 221.097 226.958 220.997 225.892 220.631C227.152 215.244 227.952 209.807 228.292 204.321C228.438 201.887 228.128 199.884 227.362 198.311C226.428 196.391 225.098 194.751 223.372 193.391C221.625 192.004 220.742 191.304 220.722 191.291C216.175 186.937 214.658 181.404 216.172 174.691C216.498 173.231 216.762 171.757 216.962 170.271C217.568 165.691 215.832 162.377 211.752 160.331C209.132 159.011 206.462 157.787 203.742 156.661C201.422 155.694 199.498 154.214 197.972 152.221C197.472 151.514 197.638 150.931 198.472 150.471Z" fill="#F9D6D5"/>
<path d="M197.972 152.221C199.498 154.214 201.422 155.694 203.742 156.661C206.462 157.787 209.132 159.011 211.752 160.331C215.832 162.377 217.568 165.691 216.962 170.271C216.762 171.757 216.498 173.231 216.172 174.691C214.658 181.404 216.175 186.937 220.722 191.291C220.742 191.304 221.625 192.004 223.372 193.391C225.098 194.751 226.428 196.391 227.362 198.311C228.128 199.884 228.438 201.887 228.292 204.321C227.952 209.807 227.152 215.244 225.892 220.631C219.838 218.937 213.422 217.884 206.642 217.471L193.682 215.261C195.268 210.561 195.288 206.111 193.742 201.911C193.055 200.037 192.628 198.284 192.462 196.651C192.382 195.891 192.518 194.117 192.872 191.331C193.318 187.797 193.185 184.257 192.472 180.711C191.992 178.297 192.152 175.931 192.952 173.611C193.958 170.717 195.102 167.881 196.382 165.101C198.275 160.987 198.805 156.694 197.972 152.221Z" fill="#CA5632"/>
<path d="M81.6816 153.931L82.1816 154.261C80.555 156.647 78.305 159.217 75.4316 161.971C70.925 166.291 69.3616 171.271 70.7416 176.911C72.095 182.444 72.9083 186.214 73.1816 188.221C73.4483 190.201 73.115 192.321 72.1816 194.581C70.655 198.247 69.1617 201.737 67.7017 205.051C67.1617 206.277 67.045 207.547 67.3516 208.861C68.365 213.234 68.475 217.507 67.6816 221.681C66.5616 222.581 65.3183 223.091 63.9517 223.211C65.2183 219.144 65.475 215.227 64.7216 211.461C63.835 207.027 64.4917 202.937 66.6917 199.191C68.125 196.744 68.845 195.514 68.8516 195.501C70.8783 191.074 71.2883 186.504 70.0817 181.791C69.175 178.244 68.7183 176.461 68.7117 176.441C67.8983 170.241 70.035 165.064 75.1216 160.911C77.435 159.017 79.6216 156.691 81.6816 153.931Z" fill="#FAF9F9"/>
<path d="M117.182 172.261C123.475 177.041 129.412 180.257 134.992 181.911C147.819 185.704 159.405 182.971 169.752 173.711C170.312 174.717 170.419 175.441 170.072 175.881C166.959 180.947 163.725 184.957 160.372 187.911C154.159 193.371 147.418 195.171 140.152 193.311C136.398 192.344 132.282 189.997 127.802 186.271C124.109 183.197 120.669 179.854 117.482 176.241C117.022 175.094 116.922 173.767 117.182 172.261Z" fill="#F4867C"/>
<path d="M170.072 175.881C170.032 188.767 170.485 198.297 171.432 204.471C172.198 209.471 175.212 212.637 180.472 213.971L179.162 250.441C177.988 252.794 176.265 254.907 173.992 256.781C165.712 263.614 156.522 267.651 146.422 268.891C139.228 269.771 132.668 269.094 126.742 266.861C120.202 264.387 114.612 260.257 109.972 254.471C110.018 253.544 109.602 253.127 108.722 253.221L108.142 214.471C114.282 212.644 117.378 208.394 117.432 201.721C117.525 189.374 117.542 180.881 117.482 176.241C120.668 179.854 124.108 183.197 127.802 186.271C132.282 189.997 136.398 192.344 140.152 193.311C147.418 195.171 154.158 193.371 160.372 187.911C163.725 184.957 166.958 180.947 170.072 175.881ZM141.933 218.744C141.934 218.497 141.837 218.26 141.663 218.085C141.489 217.91 141.253 217.812 141.007 217.811L140.947 217.811C140.825 217.81 140.704 217.834 140.591 217.88C140.478 217.926 140.375 217.995 140.288 218.081C140.201 218.167 140.133 218.269 140.085 218.382C140.038 218.494 140.014 218.615 140.013 218.737L139.95 236.977C139.949 237.224 140.046 237.461 140.22 237.636C140.394 237.811 140.63 237.91 140.876 237.91L140.936 237.911C141.059 237.911 141.18 237.887 141.293 237.841C141.406 237.795 141.508 237.727 141.595 237.641C141.682 237.554 141.751 237.452 141.798 237.34C141.845 237.227 141.869 237.106 141.87 236.984L141.933 218.744Z" fill="#FDB9A8"/>
<path d="M180.472 213.971L190.202 214.961L193.682 215.261L206.642 217.471L213.142 265.371C202.982 271.804 191.868 276.731 179.802 280.151C179.701 280.18 179.594 280.185 179.491 280.166C179.388 280.147 179.29 280.103 179.206 280.039C179.122 279.975 179.053 279.892 179.005 279.797C178.958 279.702 178.933 279.597 178.932 279.491L179.162 250.441L180.472 213.971Z" fill="#3D2338"/>
<path d="M108.142 214.471L108.721 253.221V262.471L108.682 280.391C108.681 280.531 108.648 280.67 108.586 280.797C108.525 280.923 108.435 281.034 108.325 281.122C108.214 281.209 108.086 281.27 107.949 281.301C107.811 281.332 107.669 281.332 107.531 281.301C91.8248 277.607 77.5082 271.227 64.5815 262.161C66.7415 248.781 68.1082 235.481 68.6815 222.261L75.9315 220.181C76.9582 220.341 77.9582 220.257 78.9315 219.931L94.6815 216.681C96.1482 216.754 97.4115 216.351 98.4715 215.471L108.142 214.471Z" fill="#3D2338"/>
<path d="M225.892 220.631C226.958 220.997 227.805 221.097 228.432 220.931C235.312 224.337 242.022 228.291 248.562 232.791C238.828 245.977 227.022 256.837 213.142 265.371L206.642 217.471C213.422 217.884 219.838 218.937 225.892 220.631Z" fill="#FCB7A5"/>
<path d="M141.007 217.811L140.947 217.811C140.433 217.809 140.015 218.224 140.013 218.737L139.95 236.977C139.948 237.491 140.363 237.909 140.876 237.91L140.936 237.911C141.45 237.912 141.868 237.498 141.87 236.984L141.933 218.744C141.935 218.23 141.52 217.813 141.007 217.811Z" fill="#F98D7D"/>
<path d="M67.6816 221.681L68.6816 222.261C68.1082 235.481 66.7416 248.781 64.5816 262.161C54.4216 255.527 45.4416 247.631 37.6416 238.471L38.4316 236.431C39.7316 236.291 40.6616 235.637 41.2216 234.471C43.0549 233.984 44.5549 232.984 45.7216 231.471L63.9516 223.211C65.3183 223.091 66.5616 222.581 67.6816 221.681Z" fill="#FBBBA8"/>
<path d="M108.722 253.221C109.602 253.127 110.018 253.544 109.972 254.471L109.272 254.851C109.183 254.897 109.105 255.004 109.048 255.159C108.991 255.314 108.957 255.51 108.952 255.721L108.722 262.471V253.221Z" fill="#FAF3F0"/>
</svg>
