<svg width="44" height="44" viewBox="0 0 44 44" fill="none" xmlns="http://www.w3.org/2000/svg">
<path d="M21.3333 21.3196C21.3333 20.9514 21.6318 20.6529 22 20.6529C22.3682 20.6529 22.6666 20.9514 22.6666 21.3196V25.3196C22.6666 25.6878 22.3682 25.9862 22 25.9862C21.6318 25.9862 21.3333 25.6878 21.3333 25.3196V21.3196Z" fill="white"/>
<path d="M22 18.0341C21.6318 18.0341 21.3333 18.3326 21.3333 18.7008C21.3333 19.069 21.6318 19.3674 22 19.3674C22.3682 19.3674 22.6666 19.069 22.6666 18.7008C22.6666 18.3326 22.3682 18.0341 22 18.0341Z" fill="white"/>
<path fill-rule="evenodd" clip-rule="evenodd" d="M22 15.3333C18.3181 15.3333 15.3333 18.3181 15.3333 22C15.3333 25.6819 18.3181 28.6667 22 28.6667C25.6819 28.6667 28.6666 25.6819 28.6666 22C28.6666 18.3181 25.6819 15.3333 22 15.3333ZM16.6666 22C16.6666 24.9455 19.0545 27.3333 22 27.3333C24.9455 27.3333 27.3333 24.9455 27.3333 22C27.3333 19.0545 24.9455 16.6667 22 16.6667C19.0545 16.6667 16.6666 19.0545 16.6666 22Z" fill="white"/>
</svg>
